  0
SECTION
  2
HEADER
  9
$ACADVER
  1
AC1012
  9
$DWGCODEPAGE
  3
ansi_1252
  9
$INSBASE
 10
0.0
 20
0.0
 30
0.0
  9
$EXTMIN
 10
0.0
 20
0.0
 30
0.0
  9
$EXTMAX
 10
700.0
 20
700.0
 30
0.0
  9
$LIMMIN
 10
0.0
 20
0.0
  9
$LIMMAX
 10
700.0
 20
700.0
  9
$ORTHOMODE
 70
     0
  9
$REGENMODE
 70
     1
  9
$FILLMODE
 70
     1
  9
$QTEXTMODE
 70
     0
  9
$MIRRTEXT
 70
     1
  9
$DRAGMODE
 70
     2
  9
$LTSCALE
 40
1.0
  9
$OSMODE
 70
    37
  9
$ATTMODE
 70
     1
  9
$TEXTSIZE
 40
3.5
  9
$TRACEWID
 40
1.0
  9
$TEXTSTYLE
  7
STANDARD
  9
$CLAYER
  8
0
  9
$CELTYPE
  6
BYLAYER
  9
$CECOLOR
 62
   256
  9
$CELTSCALE
 40
1.0
  9
$DELOBJ
 70
     1
  9
$DISPSILH
 70
     0
  9
$DIMSCALE
 40
1.0
  9
$DIMASZ
 40
3.302
  9
$DIMEXO
 40
1.0
  9
$DIMDLI
 40
3.75
  9
$DIMRND
 40
0.0
  9
$DIMDLE
 40
0.0
  9
$DIMEXE
 40
1.0
  9
$DIMTP
 40
0.0
  9
$DIMTM
 40
0.0
  9
$DIMTXT
 40
3.5
  9
$DIMCEN
 40
2.5
  9
$DIMTSZ
 40
0.0
  9
$DIMTOL
 70
     0
  9
$DIMLIM
 70
     0
  9
$DIMTIH
 70
     1
  9
$DIMTOH
 70
     1
  9
$DIMSE1
 70
     0
  9
$DIMSE2
 70
     0
  9
$DIMTAD
 70
     1
  9
$DIMZIN
 70
     1
  9
$DIMBLK
  1

  9
$DIMASO
 70
     1
  9
$DIMSHO
 70
     1
  9
$DIMPOST
  1

  9
$DIMAPOST
  1

  9
$DIMALT
 70
     0
  9
$DIMALTD
 70
     3
  9
$DIMALTF
 40
0.0393700787
  9
$DIMLFAC
 40
1.0
  9
$DIMTOFL
 70
     1
  9
$DIMTVP
 40
0.0
  9
$DIMTIX
 70
     0
  9
$DIMSOXD
 70
     0
  9
$DIMSAH
 70
     0
  9
$DIMBLK1
  1

  9
$DIMBLK2
  1

  9
$DIMSTYLE
  2
ISO-25
  9
$DIMCLRD
 70
     0
  9
$DIMCLRE
 70
     0
  9
$DIMCLRT
 70
     0
  9
$DIMTFAC
 40
1.0
  9
$DIMGAP
 40
1.524
  9
$DIMJUST
 70
     0
  9
$DIMSD1
 70
     0
  9
$DIMSD2
 70
     0
  9
$DIMTOLJ
 70
     0
  9
$DIMTZIN
 70
     1
  9
$DIMALTZ
 70
     0
  9
$DIMALTTZ
 70
     0
  9
$DIMFIT
 70
     3
  9
$DIMUPT
 70
     0
  9
$DIMUNIT
 70
     2
  9
$DIMDEC
 70
     2
  9
$DIMTDEC
 70
     2
  9
$DIMALTU
 70
     2
  9
$DIMALTTD
 70
     3
  9
$DIMTXSTY
  7
STANDARD
  9
$DIMAUNIT
 70
     0
  9
$LUNITS
 70
     2
  9
$LUPREC
 70
     2
  9
$SKETCHINC
 40
1.0
  9
$FILLETRAD
 40
10.0
  9
$AUNITS
 70
     0
  9
$AUPREC
 70
     2
  9
$MENU
  1
.
  9
$ELEVATION
 40
0.0
  9
$PELEVATION
 40
0.0
  9
$THICKNESS
 40
0.0
  9
$LIMCHECK
 70
     0
  9
$CHAMFERA
 40
0.0
  9
$CHAMFERB
 40
0.0
  9
$CHAMFERC
 40
0.0
  9
$CHAMFERD
 40
0.0
  9
$SKPOLY
 70
     0
  9
$TDCREATE
 40
2458843.78444103
  9
$TDUPDATE
 40
2458843.784441632
  9
$TDINDWG
 40
0.0000000116
  9
$TDUSRTIMER
 40
0.0000000116
  9
$USRTIMER
 70
     1
  9
$ANGBASE
 50
0.0
  9
$ANGDIR
 70
     0
  9
$PDMODE
 70
     0
  9
$PDSIZE
 40
-1.0
  9
$PLINEWID
 40
0.0
  9
$COORDS
 70
     1
  9
$SPLFRAME
 70
     0
  9
$SPLINETYPE
 70
     6
  9
$SPLINESEGS
 70
     8
  9
$ATTDIA
 70
     0
  9
$ATTREQ
 70
     1
  9
$HANDLING
 70
     1
  9
$HANDSEED
  5
19B
  9
$SURFTAB1
 70
     6
  9
$SURFTAB2
 70
     6
  9
$SURFTYPE
 70
     6
  9
$SURFU
 70
     6
  9
$SURFV
 70
     6
  9
$UCSNAME
  2

  9
$UCSORG
 10
0.0
 20
0.0
 30
0.0
  9
$UCSXDIR
 10
1.0
 20
0.0
 30
0.0
  9
$UCSYDIR
 10
0.0
 20
1.0
 30
0.0
  9
$PUCSNAME
  2

  9
$PUCSORG
 10
0.0
 20
0.0
 30
0.0
  9
$PUCSXDIR
 10
1.0
 20
0.0
 30
0.0
  9
$PUCSYDIR
 10
0.0
 20
1.0
 30
0.0
  9
$USERI1
 70
     0
  9
$USERI2
 70
     0
  9
$USERI3
 70
     0
  9
$USERI4
 70
     0
  9
$USERI5
 70
     0
  9
$USERR1
 40
0.0
  9
$USERR2
 40
0.0
  9
$USERR3
 40
0.0
  9
$USERR4
 40
0.0
  9
$USERR5
 40
0.0
  9
$WORLDVIEW
 70
     1
  9
$SHADEDGE
 70
     3
  9
$SHADEDIF
 70
    70
  9
$TILEMODE
 70
     1
  9
$MAXACTVP
 70
    64
  9
$PINSBASE
 10
0.0
 20
0.0
 30
0.0
  9
$PLIMCHECK
 70
     0
  9
$PEXTMIN
 10
1.0000000000E+20
 20
1.0000000000E+20
 30
1.0000000000E+20
  9
$PEXTMAX
 10
-1.0000000000E+20
 20
-1.0000000000E+20
 30
-1.0000000000E+20
  9
$PLIMMIN
 10
0.0
 20
0.0
  9
$PLIMMAX
 10
420.0
 20
297.0
  9
$UNITMODE
 70
     0
  9
$VISRETAIN
 70
     1
  9
$PLINEGEN
 70
     0
  9
$PSLTSCALE
 70
     1
  9
$TREEDEPTH
 70
  3020
  9
$PICKSTYLE
 70
     1
  9
$CMLSTYLE
  2
STANDARD
  9
$CMLJUST
 70
     0
  9
$CMLSCALE
 40
20.0
  9
$SAVEIMAGES
 70
     1
  0
ENDSEC
  0
SECTION
  2
CLASSES
  0
CLASS
  1
ACDBDICTIONARYWDFLT
  2
AcDbDictionaryWithDefault
  3
ObjectDBX Classes
 90
    32768
280
     0
281
     0
  0
CLASS
  1
VISUALSTYLE
  2
AcDbVisualStyle
  3
ObjectDBX Classes
 90
     4095
280
     0
281
     0
  0
CLASS
  1
MATERIAL
  2
AcDbMaterial
  3
ObjectDBX Classes
 90
     1153
280
     0
281
     0
  0
CLASS
  1
SCALE
  2
AcDbScale
  3
ObjectDBX Classes
 90
     1153
280
     0
281
     0
  0
CLASS
  1
TABLESTYLE
  2
AcDbTableStyle
  3
ObjectDBX Classes
 90
     4095
280
     0
281
     0
  0
CLASS
  1
MLEADERSTYLE
  2
AcDbMLeaderStyle
  3
ACDB_MLEADERSTYLE_CLASS
 90
     4095
280
     0
281
     0
  0
CLASS
  1
SUN
  2
AcDbSun
  3
SCENEOE
 90
     1153
280
     0
281
     0
  0
CLASS
  1
XRECORD
  2
AcDbXrecord
  3
ObjectDBX Classes
 90
    32768
280
     0
281
     0
  0
ENDSEC
  0
SECTION
  2
TABLES
  0
TABLE
  2
VPORT
  5
8
330
0
100
AcDbSymbolTable
 70
     1
  0
VPORT
  5
29
330
8
100
AcDbSymbolTableRecord
100
AcDbViewportTableRecord
  2
*ACTIVE
 70
     0
 10
0.0
 20
0.0
 11
1.0
 21
1.0
 12
350.0
 22
350.0
 13
0.0
 23
0.0
 14
10.0
 24
10.0
 15
10.0
 25
10.0
 16
0.0
 26
0.0
 36
1.0
 17
0.0
 27
0.0
 37
0.0
 40
700.0
 41
1.0
 42
50.0
 43
0.0
 44
0.0
 50
0.0
 51
0.0
 71
     0
 72
  2000
 73
     1
 74
     3
 75
     0
 76
     0
 77
     0
 78
     0
  0
ENDTAB
  0
TABLE
  2
LTYPE
  5
5
330
0
100
AcDbSymbolTable
 70
     8
  0
LTYPE
  5
14
330
5
100
AcDbSymbolTableRecord
100
AcDbLinetypeTableRecord
  2
BYBLOCK
 70
     0
  3

 72
    65
 73
     0
 40
0.0
  0
LTYPE
  5
15
330
5
100
AcDbSymbolTableRecord
100
AcDbLinetypeTableRecord
  2
BYLAYER
 70
     0
  3

 72
    65
 73
     0
 40
0.0
  0
LTYPE
  5
16
330
5
100
AcDbSymbolTableRecord
100
AcDbLinetypeTableRecord
  2
CONTINUOUS
 70
     0
  3
Solid line
 72
    65
 73
     0
 40
0.0
  0
LTYPE
  5
6E
330
5
100
AcDbSymbolTableRecord
100
AcDbLinetypeTableRecord
  2
SLD-CONTINUA
 70
     0
  3
SolidWorks Line Style
 72
    65
 73
     0
 40
0.0
  0
LTYPE
  5
6F
330
5
100
AcDbSymbolTableRecord
100
AcDbLinetypeTableRecord
  2
SLD-DISCONTINUA
 70
     0
  3
SolidWorks Line Style
 72
    65
 73
     2
 40
1.905
 49
1.27
 74
     0
 49
-0.635
 74
     0
  0
LTYPE
  5
70
330
5
100
AcDbSymbolTableRecord
100
AcDbLinetypeTableRecord
  2
SLD-CENTRADA-DOBLE
 70
     0
  3
SolidWorks Line Style
 72
    65
 73
     6
 40
12.7
 49
6.35
 74
     0
 49
-1.27
 74
     0
 49
1.27
 74
     0
 49
-1.27
 74
     0
 49
1.27
 74
     0
 49
-1.27
 74
     0
  0
LTYPE
  5
71
330
5
100
AcDbSymbolTableRecord
100
AcDbLinetypeTableRecord
  2
SLD-CENTRADA-SIMPLE
 70
     0
  3
SolidWorks Line Style
 72
    65
 73
     4
 40
10.16
 49
6.35
 74
     0
 49
-1.27
 74
     0
 49
1.27
 74
     0
 49
-1.27
 74
     0
  0
LTYPE
  5
72
330
5
100
AcDbSymbolTableRecord
100
AcDbLinetypeTableRecord
  2
SLD-CENTRADA-TRAZOS-LARGOS
 70
     0
  3
SolidWorks Line Style
 72
    65
 73
     4
 40
19.05
 49
15.24
 74
     0
 49
-1.27
 74
     0
 49
1.27
 74
     0
 49
-1.27
 74
     0
  0
LTYPE
  5
73
330
5
100
AcDbSymbolTableRecord
100
AcDbLinetypeTableRecord
  2
SLD-PUNTOS
 70
     0
  3
SolidWorks Line Style
 72
    65
 73
     2
 40
0.635
 49
0.0
 74
     0
 49
-0.635
 74
     0
  0
LTYPE
  5
74
330
5
100
AcDbSymbolTableRecord
100
AcDbLinetypeTableRecord
  2
SLD-DELGADA-GRUESA
 70
     0
  3
SolidWorks Line Style
 72
    65
 73
     4
 40
10.16
 49
6.35
 74
     0
 49
-1.27
 74
     0
 49
1.27
 74
     0
 49
-1.27
 74
     0
  0
ENDTAB
  0
TABLE
  2
LAYER
  5
2
330
0
100
AcDbSymbolTable
 70
     1
  0
LAYER
  5
10
330
2
100
AcDbSymbolTableRecord
100
AcDbLayerTableRecord
  2
0
 70
     0
 62
     7
  6
CONTINUOUS
  0
ENDTAB
  0
TABLE
  2
STYLE
  5
3
330
0
100
AcDbSymbolTable
 70
     1
  0
STYLE
  5
11
330
3
100
AcDbSymbolTableRecord
100
AcDbTextStyleTableRecord
  2
STANDARD
 70
     0
 40
0.0
 41
1.0
 50
0.0
 71
     0
 42
3.5
  3
txt
  4

  0
ENDTAB
  0
TABLE
  2
VIEW
  5
6
330
0
100
AcDbSymbolTable
 70
     0
  0
ENDTAB
  0
TABLE
  2
UCS
  5
7
330
0
100
AcDbSymbolTable
 70
     0
  0
ENDTAB
  0
TABLE
  2
APPID
  5
9
330
0
100
AcDbSymbolTable
 70
     1
  0
APPID
  5
12
330
9
100
AcDbSymbolTableRecord
100
AcDbRegAppTableRecord
  2
ACAD
 70
     0
  0
ENDTAB
  0
TABLE
  2
DIMSTYLE
  5
A
330
0
100
AcDbSymbolTable
 70
     1
  0
DIMSTYLE
105
27
330
A
100
AcDbSymbolTableRecord
100
AcDbDimStyleTableRecord
  2
ISO-25
 70
     0
  3

  4

  5

  6

  7

 40
1.0
 41
2.5
 42
0.625
 43
3.75
 44
1.25
 45
0.0
 46
0.0
 47
0.0
 48
0.0
140
2.5
141
2.5
142
0.0
143
0.0393700787
144
1.0
145
0.0
146
1.0
147
0.625
 71
     0
 72
     0
 73
     0
 74
     0
 75
     0
 76
     0
 77
     1
 78
     8
170
     0
171
     3
172
     1
173
     0
174
     0
175
     0
176
     0
177
     0
178
     0
270
     2
271
     2
272
     2
273
     2
274
     3
340
11
275
     0
280
     0
281
     0
282
     0
283
     0
284
     8
285
     0
286
     0
287
     3
288
     0
  0
ENDTAB
  0
TABLE
  2
BLOCK_RECORD
  5
1
330
0
100
AcDbSymbolTable
 70
     1
  0
BLOCK_RECORD
  5
1F
330
1
100
AcDbSymbolTableRecord
100
AcDbBlockTableRecord
  2
*MODEL_SPACE
  0
BLOCK_RECORD
  5
1B
330
1
100
AcDbSymbolTableRecord
100
AcDbBlockTableRecord
  2
*PAPER_SPACE
  0
BLOCK_RECORD
  5
23
330
1
100
AcDbSymbolTableRecord
100
AcDbBlockTableRecord
  2
*PAPER_SPACE0
  0
ENDTAB
  0
ENDSEC
  0
SECTION
  2
BLOCKS
  0
BLOCK
  5
20
330
1F
100
AcDbEntity
  8
0
100
AcDbBlockBegin
  2
*MODEL_SPACE
 70
     0
 10
0.0
 20
0.0
 30
0.0
  3
*MODEL_SPACE
  1

  0
ENDBLK
  5
21
330
1F
100
AcDbEntity
  8
0
100
AcDbBlockEnd
  0
BLOCK
  5
1C
330
1B
100
AcDbEntity
 67
     1
  8
0
100
AcDbBlockBegin
  2
*PAPER_SPACE
 70
     0
 10
0.0
 20
0.0
 30
0.0
  3
*PAPER_SPACE
  1

  0
ENDBLK
  5
1D
330
1B
100
AcDbEntity
 67
     1
  8
0
100
AcDbBlockEnd
  0
BLOCK
  5
24
330
23
100
AcDbEntity
  8
0
100
AcDbBlockBegin
  2
*PAPER_SPACE0
 70
     0
 10
0.0
 20
0.0
 30
0.0
  3
*PAPER_SPACE0
  1

  0
ENDBLK
  5
25
330
23
100
AcDbEntity
  8
0
100
AcDbBlockEnd
  0
ENDSEC
  0
SECTION
  2
ENTITIES
  0
ARC
  5
75
330
1F
100
AcDbEntity
  8
0
  6
SLD-CONTINUA
 62
     7
100
AcDbCircle
 10
164.9439526554
 20
465.7175909774
 30
0.0
 40
1.0
100
AcDbArc
 50
90.0
 51
0.0
  0
LINE
  5
76
330
1F
100
AcDbEntity
  8
0
  6
SLD-CONTINUA
 62
     7
100
AcDbLine
 10
165.9439529535
 20
465.717590873
 30
0.0
 11
169.9439536091
 21
465.717590873
 31
0.0
  0
ARC
  5
77
330
1F
100
AcDbEntity
  8
0
  6
SLD-CONTINUA
 62
     7
100
AcDbCircle
 10
170.9439526554
 20
465.7175909774
 30
0.0
 40
1.0
100
AcDbArc
 50
180.0
 51
90.0
  0
LINE
  5
78
330
1F
100
AcDbEntity
  8
0
  6
SLD-CONTINUA
 62
     7
100
AcDbLine
 10
170.9439519104
 20
477.7175909774
 30
0.0
 11
170.9439519104
 21
466.717591037
 31
0.0
  0
LINE
  5
79
330
1F
100
AcDbEntity
  8
0
  6
SLD-CONTINUA
 62
     7
100
AcDbLine
 10
170.9439519104
 20
477.7175909774
 30
0.0
 11
177.4439539071
 21
477.7175909774
 31
0.0
  0
LINE
  5
7A
330
1F
100
AcDbEntity
  8
0
  6
SLD-CONTINUA
 62
     7
100
AcDbLine
 10
177.4439539071
 20
477.7175909774
 30
0.0
 11
177.4439539071
 21
466.717591037
 31
0.0
  0
ARC
  5
7B
330
1F
100
AcDbEntity
  8
0
  6
SLD-CONTINUA
 62
     7
100
AcDbCircle
 10
177.4439526554
 20
465.7175909774
 30
0.0
 40
1.0
100
AcDbArc
 50
90.0
 51
0.0
  0
LINE
  5
7C
330
1F
100
AcDbEntity
  8
0
  6
SLD-CONTINUA
 62
     7
100
AcDbLine
 10
178.4439522084
 20
465.717590873
 30
0.0
 11
182.4439528641
 21
465.717590873
 31
0.0
  0
ARC
  5
7D
330
1F
100
AcDbEntity
  8
0
  6
SLD-CONTINUA
 62
     7
100
AcDbCircle
 10
183.4439526554
 20
465.7175909774
 30
0.0
 40
1.0
100
AcDbArc
 50
180.0
 51
90.0
  0
LINE
  5
7E
330
1F
100
AcDbEntity
  8
0
  6
SLD-CONTINUA
 62
     7
100
AcDbLine
 10
183.4439511653
 20
477.7175909774
 30
0.0
 11
183.4439511653
 21
466.717591037
 31
0.0
  0
LINE
  5
7F
330
1F
100
AcDbEntity
  8
0
  6
SLD-CONTINUA
 62
     7
100
AcDbLine
 10
183.4439511653
 20
477.7175909774
 30
0.0
 11
189.9439494368
 21
477.7175909774
 31
0.0
  0
LINE
  5
80
330
1F
100
AcDbEntity
  8
0
  6
SLD-CONTINUA
 62
     7
100
AcDbLine
 10
189.9439494368
 20
477.7175909774
 30
0.0
 11
189.9439494368
 21
466.717591037
 31
0.0
  0
ARC
  5
81
330
1F
100
AcDbEntity
  8
0
  6
SLD-CONTINUA
 62
     7
100
AcDbCircle
 10
189.9439526554
 20
465.7175909774
 30
0.0
 40
1.0
100
AcDbArc
 50
90.0
 51
0.0
  0
LINE
  5
82
330
1F
100
AcDbEntity
  8
0
  6
SLD-CONTINUA
 62
     7
100
AcDbLine
 10
190.9439514633
 20
465.717590873
 30
0.0
 11
194.943952119
 21
465.717590873
 31
0.0
  0
ARC
  5
83
330
1F
100
AcDbEntity
  8
0
  6
SLD-CONTINUA
 62
     7
100
AcDbCircle
 10
195.9439526554
 20
465.7175909774
 30
0.0
 40
1.0
100
AcDbArc
 50
180.0
 51
90.0
  0
LINE
  5
84
330
1F
100
AcDbEntity
  8
0
  6
SLD-CONTINUA
 62
     7
100
AcDbLine
 10
195.9439541456
 20
477.7175909774
 30
0.0
 11
195.9439541456
 21
466.717591037
 31
0.0
  0
LINE
  5
85
330
1F
100
AcDbEntity
  8
0
  6
SLD-CONTINUA
 62
     7
100
AcDbLine
 10
195.9439541456
 20
477.7175909774
 30
0.0
 11
202.443952417
 21
477.7175909774
 31
0.0
  0
LINE
  5
86
330
1F
100
AcDbEntity
  8
0
  6
SLD-CONTINUA
 62
     7
100
AcDbLine
 10
202.443952417
 20
477.7175909774
 30
0.0
 11
202.443952417
 21
466.717591037
 31
0.0
  0
ARC
  5
87
330
1F
100
AcDbEntity
  8
0
  6
SLD-CONTINUA
 62
     7
100
AcDbCircle
 10
202.4439526554
 20
465.7175909774
 30
0.0
 40
1.0
100
AcDbArc
 50
90.0
 51
0.0
  0
LINE
  5
88
330
1F
100
AcDbEntity
  8
0
  6
SLD-CONTINUA
 62
     7
100
AcDbLine
 10
203.4439544436
 20
465.717590873
 30
0.0
 11
207.4439550992
 21
465.717590873
 31
0.0
  0
ARC
  5
89
330
1F
100
AcDbEntity
  8
0
  6
SLD-CONTINUA
 62
     7
100
AcDbCircle
 10
208.4439526554
 20
465.7175909774
 30
0.0
 40
1.0
100
AcDbArc
 50
180.0
 51
90.0
  0
LINE
  5
8A
330
1F
100
AcDbEntity
  8
0
  6
SLD-CONTINUA
 62
     7
100
AcDbLine
 10
208.4439496752
 20
477.7175909774
 30
0.0
 11
208.4439496752
 21
466.717591037
 31
0.0
  0
LINE
  5
8B
330
1F
100
AcDbEntity
  8
0
  6
SLD-CONTINUA
 62
     7
100
AcDbLine
 10
208.4439496752
 20
477.7175909774
 30
0.0
 11
214.9439553973
 21
477.7175909774
 31
0.0
  0
LINE
  5
8C
330
1F
100
AcDbEntity
  8
0
  6
SLD-CONTINUA
 62
     7
100
AcDbLine
 10
214.9439553973
 20
477.7175909774
 30
0.0
 11
214.9439553973
 21
466.717591037
 31
0.0
  0
ARC
  5
8D
330
1F
100
AcDbEntity
  8
0
  6
SLD-CONTINUA
 62
     7
100
AcDbCircle
 10
214.9439526554
 20
465.7175909774
 30
0.0
 40
1.0
100
AcDbArc
 50
90.0
 51
0.0
  0
LINE
  5
8E
330
1F
100
AcDbEntity
  8
0
  6
SLD-CONTINUA
 62
     7
100
AcDbLine
 10
215.9439499732
 20
465.717590873
 30
0.0
 11
219.9439506289
 21
465.717590873
 31
0.0
  0
ARC
  5
8F
330
1F
100
AcDbEntity
  8
0
  6
SLD-CONTINUA
 62
     7
100
AcDbCircle
 10
220.9439526554
 20
465.7175909774
 30
0.0
 40
1.0
100
AcDbArc
 50
180.0
 51
90.0
  0
LINE
  5
90
330
1F
100
AcDbEntity
  8
0
  6
SLD-CONTINUA
 62
     7
100
AcDbLine
 10
220.9439526554
 20
477.7175909774
 30
0.0
 11
220.9439526554
 21
466.717591037
 31
0.0
  0
LINE
  5
91
330
1F
100
AcDbEntity
  8
0
  6
SLD-CONTINUA
 62
     7
100
AcDbLine
 10
220.9439526554
 20
477.7175909774
 30
0.0
 11
227.4439509269
 21
477.7175909774
 31
0.0
  0
LINE
  5
92
330
1F
100
AcDbEntity
  8
0
  6
SLD-CONTINUA
 62
     7
100
AcDbLine
 10
227.4439509269
 20
477.7175909774
 30
0.0
 11
227.4439509269
 21
466.717591037
 31
0.0
  0
ARC
  5
93
330
1F
100
AcDbEntity
  8
0
  6
SLD-CONTINUA
 62
     7
100
AcDbCircle
 10
227.4439526554
 20
465.7175909774
 30
0.0
 40
1.0
100
AcDbArc
 50
90.0
 51
0.0
  0
LINE
  5
94
330
1F
100
AcDbEntity
  8
0
  6
SLD-CONTINUA
 62
     7
100
AcDbLine
 10
228.4439529535
 20
465.717590873
 30
0.0
 11
232.4439536091
 21
465.717590873
 31
0.0
  0
ARC
  5
95
330
1F
100
AcDbEntity
  8
0
  6
SLD-CONTINUA
 62
     7
100
AcDbCircle
 10
233.4439526554
 20
465.7175909774
 30
0.0
 40
1.0
100
AcDbArc
 50
180.0
 51
90.0
  0
LINE
  5
96
330
1F
100
AcDbEntity
  8
0
  6
SLD-CONTINUA
 62
     7
100
AcDbLine
 10
233.4439556357
 20
486.2175914393
 30
0.0
 11
233.4439556357
 21
466.717591037
 31
0.0
  0
LINE
  5
97
330
1F
100
AcDbEntity
  8
0
  6
SLD-CONTINUA
 62
     7
100
AcDbLine
 10
234.9439512249
 20
487.7175907538
 30
0.0
 11
233.4439556357
 21
486.2175914393
 31
0.0
  0
LINE
  5
98
330
1F
100
AcDbEntity
  8
0
  6
SLD-CONTINUA
 62
     7
100
AcDbLine
 10
234.9439512249
 20
487.7175907538
 30
0.0
 11
238.4439508673
 21
487.7175907538
 31
0.0
  0
LINE
  5
99
330
1F
100
AcDbEntity
  8
0
  6
SLD-CONTINUA
 62
     7
100
AcDbLine
 10
239.9439539071
 20
486.2175914393
 30
0.0
 11
238.4439508673
 21
487.7175907538
 31
0.0
  0
LINE
  5
9A
330
1F
100
AcDbEntity
  8
0
  6
SLD-CONTINUA
 62
     7
100
AcDbLine
 10
239.9439539071
 20
486.2175914393
 30
0.0
 11
239.9439539071
 21
466.717591037
 31
0.0
  0
ARC
  5
9B
330
1F
100
AcDbEntity
  8
0
  6
SLD-CONTINUA
 62
     7
100
AcDbCircle
 10
239.9439526554
 20
465.7175909774
 30
0.0
 40
1.0
100
AcDbArc
 50
90.0
 51
0.0
  0
LINE
  5
9C
330
1F
100
AcDbEntity
  8
0
  6
SLD-CONTINUA
 62
     7
100
AcDbLine
 10
240.9439559337
 20
465.717590873
 30
0.0
 11
244.9439491388
 21
465.717590873
 31
0.0
  0
ARC
  5
9D
330
1F
100
AcDbEntity
  8
0
  6
SLD-CONTINUA
 62
     7
100
AcDbCircle
 10
245.9439526554
 20
465.7175909774
 30
0.0
 40
1.0
100
AcDbArc
 50
180.0
 51
90.0
  0
LINE
  5
9E
330
1F
100
AcDbEntity
  8
0
  6
SLD-CONTINUA
 62
     7
100
AcDbLine
 10
245.9439511653
 20
477.7175909774
 30
0.0
 11
245.9439511653
 21
466.717591037
 31
0.0
  0
LINE
  5
9F
330
1F
100
AcDbEntity
  8
0
  6
SLD-CONTINUA
 62
     7
100
AcDbLine
 10
245.9439511653
 20
477.7175909774
 30
0.0
 11
252.4439494368
 21
477.7175909774
 31
0.0
  0
LINE
  5
A0
330
1F
100
AcDbEntity
  8
0
  6
SLD-CONTINUA
 62
     7
100
AcDbLine
 10
252.4439494368
 20
477.7175909774
 30
0.0
 11
252.4439494368
 21
466.717591037
 31
0.0
  0
ARC
  5
A1
330
1F
100
AcDbEntity
  8
0
  6
SLD-CONTINUA
 62
     7
100
AcDbCircle
 10
252.4439526554
 20
465.7175909774
 30
0.0
 40
1.0
100
AcDbArc
 50
90.0
 51
0.0
  0
LINE
  5
A2
330
1F
100
AcDbEntity
  8
0
  6
SLD-CONTINUA
 62
     7
100
AcDbLine
 10
253.4439514633
 20
465.717590873
 30
0.0
 11
257.4439595696
 21
465.717590873
 31
0.0
  0
ARC
  5
A3
330
1F
100
AcDbEntity
  8
0
  6
SLD-CONTINUA
 62
     7
100
AcDbCircle
 10
258.4439526554
 20
465.7175909774
 30
0.0
 40
1.0
100
AcDbArc
 50
180.0
 51
90.0
  0
LINE
  5
A4
330
1F
100
AcDbEntity
  8
0
  6
SLD-CONTINUA
 62
     7
100
AcDbLine
 10
258.443946695
 20
477.7175909774
 30
0.0
 11
258.443946695
 21
466.717591037
 31
0.0
  0
LINE
  5
A5
330
1F
100
AcDbEntity
  8
0
  6
SLD-CONTINUA
 62
     7
100
AcDbLine
 10
258.443946695
 20
477.7175909774
 30
0.0
 11
264.943952417
 21
477.7175909774
 31
0.0
  0
LINE
  5
A6
330
1F
100
AcDbEntity
  8
0
  6
SLD-CONTINUA
 62
     7
100
AcDbLine
 10
264.943952417
 20
477.7175909774
 30
0.0
 11
264.943952417
 21
466.717591037
 31
0.0
  0
ARC
  5
A7
330
1F
100
AcDbEntity
  8
0
  6
SLD-CONTINUA
 62
     7
100
AcDbCircle
 10
264.9439526554
 20
465.7175909774
 30
0.0
 40
1.0
100
AcDbArc
 50
90.0
 51
0.0
  0
LINE
  5
A8
330
1F
100
AcDbEntity
  8
0
  6
SLD-CONTINUA
 62
     7
100
AcDbLine
 10
265.9439544436
 20
465.717590873
 30
0.0
 11
269.9439476486
 21
465.717590873
 31
0.0
  0
ARC
  5
A9
330
1F
100
AcDbEntity
  8
0
  6
SLD-CONTINUA
 62
     7
100
AcDbCircle
 10
270.9439526554
 20
465.7175909774
 30
0.0
 40
1.000000000000057
100
AcDbArc
 50
180.0
 51
90.0
  0
LINE
  5
AA
330
1F
100
AcDbEntity
  8
0
  6
SLD-CONTINUA
 62
     7
100
AcDbLine
 10
270.9439496752
 20
477.7175909774
 30
0.0
 11
270.9439496752
 21
466.717591037
 31
0.0
  0
LINE
  5
AB
330
1F
100
AcDbEntity
  8
0
  6
SLD-CONTINUA
 62
     7
100
AcDbLine
 10
270.9439496752
 20
477.7175909774
 30
0.0
 11
277.4439553973
 21
477.7175909774
 31
0.0
  0
LINE
  5
AC
330
1F
100
AcDbEntity
  8
0
  6
SLD-CONTINUA
 62
     7
100
AcDbLine
 10
277.4439553973
 20
477.7175909774
 30
0.0
 11
277.4439553973
 21
466.717591037
 31
0.0
  0
ARC
  5
AD
330
1F
100
AcDbEntity
  8
0
  6
SLD-CONTINUA
 62
     7
100
AcDbCircle
 10
277.4439526554
 20
465.7175909774
 30
0.0
 40
1.0
100
AcDbArc
 50
90.0
 51
0.0
  0
LINE
  5
AE
330
1F
100
AcDbEntity
  8
0
  6
SLD-CONTINUA
 62
     7
100
AcDbLine
 10
278.4439574238
 20
465.717590873
 30
0.0
 11
282.4439506289
 21
465.717590873
 31
0.0
  0
ARC
  5
AF
330
1F
100
AcDbEntity
  8
0
  6
SLD-CONTINUA
 62
     7
100
AcDbCircle
 10
283.4439526554
 20
465.7175909774
 30
0.0
 40
1.0
100
AcDbArc
 50
180.0
 51
90.0
  0
LINE
  5
B0
330
1F
100
AcDbEntity
  8
0
  6
SLD-CONTINUA
 62
     7
100
AcDbLine
 10
283.4439526554
 20
477.7175909774
 30
0.0
 11
283.4439526554
 21
466.717591037
 31
0.0
  0
LINE
  5
B1
330
1F
100
AcDbEntity
  8
0
  6
SLD-CONTINUA
 62
     7
100
AcDbLine
 10
283.4439526554
 20
477.7175909774
 30
0.0
 11
289.9439583775
 21
477.7175909774
 31
0.0
  0
LINE
  5
B2
330
1F
100
AcDbEntity
  8
0
  6
SLD-CONTINUA
 62
     7
100
AcDbLine
 10
289.9439583775
 20
477.7175909774
 30
0.0
 11
289.9439583775
 21
466.717591037
 31
0.0
  0
ARC
  5
B3
330
1F
100
AcDbEntity
  8
0
  6
SLD-CONTINUA
 62
     7
100
AcDbCircle
 10
289.9439526554
 20
465.7175909774
 30
0.0
 40
1.0
100
AcDbArc
 50
90.0
 51
0.0
  0
LINE
  5
B4
330
1F
100
AcDbEntity
  8
0
  6
SLD-CONTINUA
 62
     7
100
AcDbLine
 10
290.9439455029
 20
465.717590873
 30
0.0
 11
294.9439536091
 21
465.717590873
 31
0.0
  0
ARC
  5
B5
330
1F
100
AcDbEntity
  8
0
  6
SLD-CONTINUA
 62
     7
100
AcDbCircle
 10
295.9439526554
 20
465.7175909774
 30
0.0
 40
1.0
100
AcDbArc
 50
180.0
 51
90.0
  0
LINE
  5
B6
330
1F
100
AcDbEntity
  8
0
  6
SLD-CONTINUA
 62
     7
100
AcDbLine
 10
295.9439556357
 20
477.7175909774
 30
0.0
 11
295.9439556357
 21
466.717591037
 31
0.0
  0
LINE
  5
B7
330
1F
100
AcDbEntity
  8
0
  6
SLD-CONTINUA
 62
     7
100
AcDbLine
 10
295.9439556357
 20
477.7175909774
 30
0.0
 11
302.4439464566
 21
477.7175909774
 31
0.0
  0
LINE
  5
B8
330
1F
100
AcDbEntity
  8
0
  6
SLD-CONTINUA
 62
     7
100
AcDbLine
 10
302.4439464566
 20
477.7175909774
 30
0.0
 11
302.4439464566
 21
466.717591037
 31
0.0
  0
ARC
  5
B9
330
1F
100
AcDbEntity
  8
0
  6
SLD-CONTINUA
 62
     7
100
AcDbCircle
 10
302.4439526554
 20
465.7175909774
 30
0.0
 40
1.0
100
AcDbArc
 50
90.0
 51
0.0
  0
LINE
  5
BA
330
1F
100
AcDbEntity
  8
0
  6
SLD-CONTINUA
 62
     7
100
AcDbLine
 10
303.4439484831
 20
465.717590873
 30
0.0
 11
307.4439565893
 21
465.717590873
 31
0.0
  0
ARC
  5
BB
330
1F
100
AcDbEntity
  8
0
  6
SLD-CONTINUA
 62
     7
100
AcDbCircle
 10
308.4439526554
 20
465.7175909774
 30
0.0
 40
1.0
100
AcDbArc
 50
180.0
 51
90.0
  0
LINE
  5
BC
330
1F
100
AcDbEntity
  8
0
  6
SLD-CONTINUA
 62
     7
100
AcDbLine
 10
308.4439586159
 20
477.7175909774
 30
0.0
 11
308.4439586159
 21
466.717591037
 31
0.0
  0
LINE
  5
BD
330
1F
100
AcDbEntity
  8
0
  6
SLD-CONTINUA
 62
     7
100
AcDbLine
 10
308.4439586159
 20
477.7175909774
 30
0.0
 11
314.9439494368
 21
477.7175909774
 31
0.0
  0
LINE
  5
BE
330
1F
100
AcDbEntity
  8
0
  6
SLD-CONTINUA
 62
     7
100
AcDbLine
 10
314.9439494368
 20
477.7175909774
 30
0.0
 11
314.9439494368
 21
466.717591037
 31
0.0
  0
ARC
  5
BF
330
1F
100
AcDbEntity
  8
0
  6
SLD-CONTINUA
 62
     7
100
AcDbCircle
 10
314.9439526554
 20
465.7175909774
 30
0.0
 40
1.0
100
AcDbArc
 50
90.0
 51
0.0
  0
LINE
  5
C0
330
1F
100
AcDbEntity
  8
0
  6
SLD-CONTINUA
 62
     7
100
AcDbLine
 10
315.9439514633
 20
465.717590873
 30
0.0
 11
319.9439595696
 21
465.717590873
 31
0.0
  0
ARC
  5
C1
330
1F
100
AcDbEntity
  8
0
  6
SLD-CONTINUA
 62
     7
100
AcDbCircle
 10
320.9439526554
 20
465.7175909774
 30
0.0
 40
1.0
100
AcDbArc
 50
180.0
 51
90.0
  0
LINE
  5
C2
330
1F
100
AcDbEntity
  8
0
  6
SLD-CONTINUA
 62
     7
100
AcDbLine
 10
320.943946695
 20
486.2175914393
 30
0.0
 11
320.943946695
 21
466.717591037
 31
0.0
  0
LINE
  5
C3
330
1F
100
AcDbEntity
  8
0
  6
SLD-CONTINUA
 62
     7
100
AcDbLine
 10
322.4439571854
 20
487.7175907538
 30
0.0
 11
320.943946695
 21
486.2175914393
 31
0.0
  0
LINE
  5
C4
330
1F
100
AcDbEntity
  8
0
  6
SLD-CONTINUA
 62
     7
100
AcDbLine
 10
322.4439571854
 20
487.7175907538
 30
0.0
 11
325.9439568278
 21
487.7175907538
 31
0.0
  0
LINE
  5
C5
330
1F
100
AcDbEntity
  8
0
  6
SLD-CONTINUA
 62
     7
100
AcDbLine
 10
327.443952417
 20
486.2175914393
 30
0.0
 11
325.9439568278
 21
487.7175907538
 31
0.0
  0
LINE
  5
C6
330
1F
100
AcDbEntity
  8
0
  6
SLD-CONTINUA
 62
     7
100
AcDbLine
 10
327.443952417
 20
486.2175914393
 30
0.0
 11
327.443952417
 21
466.717591037
 31
0.0
  0
ARC
  5
C7
330
1F
100
AcDbEntity
  8
0
  6
SLD-CONTINUA
 62
     7
100
AcDbCircle
 10
327.4439526554
 20
465.7175909774
 30
0.0
 40
1.0
100
AcDbArc
 50
90.0
 51
0.0
  0
LINE
  5
C8
330
1F
100
AcDbEntity
  8
0
  6
SLD-CONTINUA
 62
     7
100
AcDbLine
 10
328.4439544436
 20
465.717590873
 30
0.0
 11
332.4439476486
 21
465.717590873
 31
0.0
  0
ARC
  5
C9
330
1F
100
AcDbEntity
  8
0
  6
SLD-CONTINUA
 62
     7
100
AcDbCircle
 10
333.4439526554
 20
465.7175909774
 30
0.0
 40
1.000000000000057
100
AcDbArc
 50
180.0
 51
90.0
  0
LINE
  5
CA
330
1F
100
AcDbEntity
  8
0
  6
SLD-CONTINUA
 62
     7
100
AcDbLine
 10
333.4439496752
 20
477.7175909774
 30
0.0
 11
333.4439496752
 21
466.717591037
 31
0.0
  0
LINE
  5
CB
330
1F
100
AcDbEntity
  8
0
  6
SLD-CONTINUA
 62
     7
100
AcDbLine
 10
333.4439496752
 20
477.7175909774
 30
0.0
 11
339.9439553973
 21
477.7175909774
 31
0.0
  0
LINE
  5
CC
330
1F
100
AcDbEntity
  8
0
  6
SLD-CONTINUA
 62
     7
100
AcDbLine
 10
339.9439553973
 20
477.7175909774
 30
0.0
 11
339.9439553973
 21
466.717591037
 31
0.0
  0
ARC
  5
CD
330
1F
100
AcDbEntity
  8
0
  6
SLD-CONTINUA
 62
     7
100
AcDbCircle
 10
339.9439526554
 20
465.7175909774
 30
0.0
 40
1.0
100
AcDbArc
 50
90.0
 51
0.0
  0
LINE
  5
CE
330
1F
100
AcDbEntity
  8
0
  6
SLD-CONTINUA
 62
     7
100
AcDbLine
 10
340.9439574238
 20
465.717590873
 30
0.0
 11
344.9439506289
 21
465.717590873
 31
0.0
  0
ARC
  5
CF
330
1F
100
AcDbEntity
  8
0
  6
SLD-CONTINUA
 62
     7
100
AcDbCircle
 10
345.9439526554
 20
465.7175909774
 30
0.0
 40
1.0
100
AcDbArc
 50
180.0
 51
90.0
  0
LINE
  5
D0
330
1F
100
AcDbEntity
  8
0
  6
SLD-CONTINUA
 62
     7
100
AcDbLine
 10
345.9439526554
 20
477.7175909774
 30
0.0
 11
345.9439526554
 21
466.717591037
 31
0.0
  0
LINE
  5
D1
330
1F
100
AcDbEntity
  8
0
  6
SLD-CONTINUA
 62
     7
100
AcDbLine
 10
345.9439526554
 20
477.7175909774
 30
0.0
 11
352.4439583775
 21
477.7175909774
 31
0.0
  0
LINE
  5
D2
330
1F
100
AcDbEntity
  8
0
  6
SLD-CONTINUA
 62
     7
100
AcDbLine
 10
352.4439583775
 20
477.7175909774
 30
0.0
 11
352.4439583775
 21
466.717591037
 31
0.0
  0
ARC
  5
D3
330
1F
100
AcDbEntity
  8
0
  6
SLD-CONTINUA
 62
     7
100
AcDbCircle
 10
352.4439526554
 20
465.7175909774
 30
0.0
 40
1.0
100
AcDbArc
 50
90.0
 51
0.0
  0
LINE
  5
D4
330
1F
100
AcDbEntity
  8
0
  6
SLD-CONTINUA
 62
     7
100
AcDbLine
 10
353.4439455029
 20
465.717590873
 30
0.0
 11
357.4439536091
 21
465.717590873
 31
0.0
  0
ARC
  5
D5
330
1F
100
AcDbEntity
  8
0
  6
SLD-CONTINUA
 62
     7
100
AcDbCircle
 10
358.4439526554
 20
465.7175909774
 30
0.0
 40
1.0
100
AcDbArc
 50
180.0
 51
90.0
  0
LINE
  5
D6
330
1F
100
AcDbEntity
  8
0
  6
SLD-CONTINUA
 62
     7
100
AcDbLine
 10
358.4439556357
 20
477.7175909774
 30
0.0
 11
358.4439556357
 21
466.717591037
 31
0.0
  0
LINE
  5
D7
330
1F
100
AcDbEntity
  8
0
  6
SLD-CONTINUA
 62
     7
100
AcDbLine
 10
358.4439556357
 20
477.7175909774
 30
0.0
 11
364.9439464566
 21
477.7175909774
 31
0.0
  0
LINE
  5
D8
330
1F
100
AcDbEntity
  8
0
  6
SLD-CONTINUA
 62
     7
100
AcDbLine
 10
364.9439464566
 20
477.7175909774
 30
0.0
 11
364.9439464566
 21
466.717591037
 31
0.0
  0
ARC
  5
D9
330
1F
100
AcDbEntity
  8
0
  6
SLD-CONTINUA
 62
     7
100
AcDbCircle
 10
364.9439526554
 20
465.7175909774
 30
0.0
 40
1.0
100
AcDbArc
 50
90.0
 51
0.0
  0
LINE
  5
DA
330
1F
100
AcDbEntity
  8
0
  6
SLD-CONTINUA
 62
     7
100
AcDbLine
 10
365.9439484831
 20
465.717590873
 30
0.0
 11
369.9439565893
 21
465.717590873
 31
0.0
  0
ARC
  5
DB
330
1F
100
AcDbEntity
  8
0
  6
SLD-CONTINUA
 62
     7
100
AcDbCircle
 10
370.9439526554
 20
465.7175909774
 30
0.0
 40
1.0
100
AcDbArc
 50
180.0
 51
90.0
  0
LINE
  5
DC
330
1F
100
AcDbEntity
  8
0
  6
SLD-CONTINUA
 62
     7
100
AcDbLine
 10
370.9439586159
 20
477.7175909774
 30
0.0
 11
370.9439586159
 21
466.717591037
 31
0.0
  0
LINE
  5
DD
330
1F
100
AcDbEntity
  8
0
  6
SLD-CONTINUA
 62
     7
100
AcDbLine
 10
370.9439586159
 20
477.7175909774
 30
0.0
 11
377.4439643379
 21
477.7175909774
 31
0.0
  0
LINE
  5
DE
330
1F
100
AcDbEntity
  8
0
  6
SLD-CONTINUA
 62
     7
100
AcDbLine
 10
377.4439643379
 20
477.7175909774
 30
0.0
 11
377.4439643379
 21
466.717591037
 31
0.0
  0
ARC
  5
DF
330
1F
100
AcDbEntity
  8
0
  6
SLD-CONTINUA
 62
     7
100
AcDbCircle
 10
377.4439526554
 20
465.7175909774
 30
0.0
 40
1.0
100
AcDbArc
 50
90.0
 51
0.0
  0
LINE
  5
E0
330
1F
100
AcDbEntity
  8
0
  6
SLD-CONTINUA
 62
     7
100
AcDbLine
 10
378.4439514633
 20
465.717590873
 30
0.0
 11
382.4439595696
 21
465.717590873
 31
0.0
  0
ARC
  5
E1
330
1F
100
AcDbEntity
  8
0
  6
SLD-CONTINUA
 62
     7
100
AcDbCircle
 10
383.4439526554
 20
465.7175909774
 30
0.0
 40
1.0
100
AcDbArc
 50
180.0
 51
90.0
  0
LINE
  5
E2
330
1F
100
AcDbEntity
  8
0
  6
SLD-CONTINUA
 62
     7
100
AcDbLine
 10
383.443946695
 20
477.7175909774
 30
0.0
 11
383.443946695
 21
466.717591037
 31
0.0
  0
LINE
  5
E3
330
1F
100
AcDbEntity
  8
0
  6
SLD-CONTINUA
 62
     7
100
AcDbLine
 10
383.443946695
 20
477.7175909774
 30
0.0
 11
389.943952417
 21
477.7175909774
 31
0.0
  0
LINE
  5
E4
330
1F
100
AcDbEntity
  8
0
  6
SLD-CONTINUA
 62
     7
100
AcDbLine
 10
389.943952417
 20
477.7175909774
 30
0.0
 11
389.943952417
 21
466.717591037
 31
0.0
  0
ARC
  5
E5
330
1F
100
AcDbEntity
  8
0
  6
SLD-CONTINUA
 62
     7
100
AcDbCircle
 10
389.9439526554
 20
465.7175909774
 30
0.0
 40
1.0
100
AcDbArc
 50
90.0
 51
0.0
  0
LINE
  5
E6
330
1F
100
AcDbEntity
  8
0
  6
SLD-CONTINUA
 62
     7
100
AcDbLine
 10
390.9439395424
 20
465.717590873
 30
0.0
 11
394.9439476486
 21
465.717590873
 31
0.0
  0
ARC
  5
E7
330
1F
100
AcDbEntity
  8
0
  6
SLD-CONTINUA
 62
     7
100
AcDbCircle
 10
395.9439526554
 20
465.7175909774
 30
0.0
 40
1.0
100
AcDbArc
 50
180.0
 51
90.0
  0
LINE
  5
E8
330
1F
100
AcDbEntity
  8
0
  6
SLD-CONTINUA
 62
     7
100
AcDbLine
 10
395.9439645764
 20
486.2175914393
 30
0.0
 11
395.9439645764
 21
466.717591037
 31
0.0
  0
LINE
  5
E9
330
1F
100
AcDbEntity
  8
0
  6
SLD-CONTINUA
 62
     7
100
AcDbLine
 10
397.4439452645
 20
487.7175907538
 30
0.0
 11
395.9439645764
 21
486.2175914393
 31
0.0
  0
LINE
  5
EA
330
1F
100
AcDbEntity
  8
0
  6
SLD-CONTINUA
 62
     7
100
AcDbLine
 10
397.4439452645
 20
487.7175907538
 30
0.0
 11
400.943959808
 21
487.7175907538
 31
0.0
  0
LINE
  5
EB
330
1F
100
AcDbEntity
  8
0
  6
SLD-CONTINUA
 62
     7
100
AcDbLine
 10
402.4439404961
 20
486.2175914393
 30
0.0
 11
400.943959808
 21
487.7175907538
 31
0.0
  0
LINE
  5
EC
330
1F
100
AcDbEntity
  8
0
  6
SLD-CONTINUA
 62
     7
100
AcDbLine
 10
402.4439404961
 20
486.2175914393
 30
0.0
 11
402.4439404961
 21
466.717591037
 31
0.0
  0
ARC
  5
ED
330
1F
100
AcDbEntity
  8
0
  6
SLD-CONTINUA
 62
     7
100
AcDbCircle
 10
402.4439526554
 20
465.7175909774
 30
0.0
 40
1.0
100
AcDbArc
 50
90.0
 51
0.0
  0
LINE
  5
EE
330
1F
100
AcDbEntity
  8
0
  6
SLD-CONTINUA
 62
     7
100
AcDbLine
 10
403.4439574238
 20
465.717590873
 30
0.0
 11
407.44396553
 21
465.717590873
 31
0.0
  0
ARC
  5
EF
330
1F
100
AcDbEntity
  8
0
  6
SLD-CONTINUA
 62
     7
100
AcDbCircle
 10
408.4439526554
 20
465.7175909774
 30
0.0
 40
1.0
100
AcDbArc
 50
180.0
 51
90.0
  0
LINE
  5
F0
330
1F
100
AcDbEntity
  8
0
  6
SLD-CONTINUA
 62
     7
100
AcDbLine
 10
408.4439526554
 20
477.7175909774
 30
0.0
 11
408.4439526554
 21
466.717591037
 31
0.0
  0
LINE
  5
F1
330
1F
100
AcDbEntity
  8
0
  6
SLD-CONTINUA
 62
     7
100
AcDbLine
 10
408.4439526554
 20
477.7175909774
 30
0.0
 11
414.9439583775
 21
477.7175909774
 31
0.0
  0
LINE
  5
F2
330
1F
100
AcDbEntity
  8
0
  6
SLD-CONTINUA
 62
     7
100
AcDbLine
 10
414.9439583775
 20
477.7175909774
 30
0.0
 11
414.9439583775
 21
466.717591037
 31
0.0
  0
ARC
  5
F3
330
1F
100
AcDbEntity
  8
0
  6
SLD-CONTINUA
 62
     7
100
AcDbCircle
 10
414.9439526554
 20
465.7175909774
 30
0.0
 40
1.0
100
AcDbArc
 50
90.0
 51
0.0
  0
LINE
  5
F4
330
1F
100
AcDbEntity
  8
0
  6
SLD-CONTINUA
 62
     7
100
AcDbLine
 10
415.9439455029
 20
465.717590873
 30
0.0
 11
419.9439536091
 21
465.717590873
 31
0.0
  0
ARC
  5
F5
330
1F
100
AcDbEntity
  8
0
  6
SLD-CONTINUA
 62
     7
100
AcDbCircle
 10
420.9439526554
 20
465.7175909774
 30
0.0
 40
1.0
100
AcDbArc
 50
180.0
 51
90.0
  0
LINE
  5
F6
330
1F
100
AcDbEntity
  8
0
  6
SLD-CONTINUA
 62
     7
100
AcDbLine
 10
420.9439407345
 20
477.7175909774
 30
0.0
 11
420.9439407345
 21
466.717591037
 31
0.0
  0
LINE
  5
F7
330
1F
100
AcDbEntity
  8
0
  6
SLD-CONTINUA
 62
     7
100
AcDbLine
 10
420.9439407345
 20
477.7175909774
 30
0.0
 11
427.4439464566
 21
477.7175909774
 31
0.0
  0
LINE
  5
F8
330
1F
100
AcDbEntity
  8
0
  6
SLD-CONTINUA
 62
     7
100
AcDbLine
 10
427.4439464566
 20
477.7175909774
 30
0.0
 11
427.4439464566
 21
466.717591037
 31
0.0
  0
ARC
  5
F9
330
1F
100
AcDbEntity
  8
0
  6
SLD-CONTINUA
 62
     7
100
AcDbCircle
 10
427.4439526554
 20
465.7175909774
 30
0.0
 40
1.0
100
AcDbArc
 50
90.0
 51
0.0
  0
LINE
  5
FA
330
1F
100
AcDbEntity
  8
0
  6
SLD-CONTINUA
 62
     7
100
AcDbLine
 10
428.4439633843
 20
465.717590873
 30
0.0
 11
432.193959808
 21
465.717590873
 31
0.0
  0
LINE
  5
FB
330
1F
100
AcDbEntity
  8
0
  6
SLD-CONTINUA
 62
     7
100
AcDbLine
 10
433.6939404961
 20
464.2175906272
 30
0.0
 11
432.193959808
 21
465.717590873
 31
0.0
  0
LINE
  5
FC
330
1F
100
AcDbEntity
  8
0
  6
SLD-CONTINUA
 62
     7
100
AcDbLine
 10
433.6939404961
 20
464.2175906272
 30
0.0
 11
433.6939404961
 21
422.7175912754
 31
0.0
  0
ARC
  5
FD
330
1F
100
AcDbEntity
  8
0
  6
SLD-CONTINUA
 62
     7
100
AcDbCircle
 10
433.6939526554
 20
421.7175909774
 30
0.0
 40
1.0
100
AcDbArc
 50
90.0
 51
0.0
  0
LINE
  5
FE
330
1F
100
AcDbEntity
  8
0
  6
SLD-CONTINUA
 62
     7
100
AcDbLine
 10
434.6939574238
 20
421.7175892488
 30
0.0
 11
442.693943834
 21
421.7175892488
 31
0.0
  0
ARC
  5
FF
330
1F
100
AcDbEntity
  8
0
  6
SLD-CONTINUA
 62
     7
100
AcDbCircle
 10
443.6939526554
 20
421.7175909774
 30
0.0
 40
1.0
100
AcDbArc
 50
180.0
 51
90.0
  0
LINE
  5
100
330
1F
100
AcDbEntity
  8
0
  6
SLD-CONTINUA
 62
     7
100
AcDbLine
 10
443.6939607617
 20
422.7175912754
 30
0.0
 11
443.6939607617
 21
476.2175909643
 31
0.0
  0
LINE
  5
101
330
1F
100
AcDbEntity
  8
0
  6
SLD-CONTINUA
 62
     7
100
AcDbLine
 10
445.1939414498
 20
477.7175909774
 30
0.0
 11
443.6939607617
 21
476.2175909643
 31
0.0
  0
LINE
  5
102
330
1F
100
AcDbEntity
  8
0
  6
SLD-CONTINUA
 62
     7
100
AcDbLine
 10
445.1939414498
 20
477.7175909774
 30
0.0
 11
471.6939579006
 21
477.7175909774
 31
0.0
  0
ARC
  5
103
330
1F
100
AcDbEntity
  8
0
  6
SLD-CONTINUA
 62
     7
100
AcDbCircle
 10
472.6939526554
 20
477.7175909774
 30
0.0
 40
1.0
100
AcDbArc
 50
180.0
 51
0.0
  0
LINE
  5
104
330
1F
100
AcDbEntity
  8
0
  6
SLD-CONTINUA
 62
     7
100
AcDbLine
 10
473.6939619538
 20
485.7175913573
 30
0.0
 11
473.6939619538
 21
477.7175909774
 31
0.0
  0
LINE
  5
105
330
1F
100
AcDbEntity
  8
0
  6
SLD-CONTINUA
 62
     7
100
AcDbLine
 10
475.6939660069
 20
487.7175907538
 30
0.0
 11
473.6939619538
 21
485.7175913573
 31
0.0
  0
LINE
  5
106
330
1F
100
AcDbEntity
  8
0
  6
SLD-CONTINUA
 62
     7
100
AcDbLine
 10
521.6939400193
 20
487.7175907538
 30
0.0
 11
475.6939660069
 21
487.7175907538
 31
0.0
  0
LINE
  5
107
330
1F
100
AcDbEntity
  8
0
  6
SLD-CONTINUA
 62
     7
100
AcDbLine
 10
523.6939440724
 20
485.7175913573
 30
0.0
 11
521.6939400193
 21
487.7175907538
 31
0.0
  0
LINE
  5
108
330
1F
100
AcDbEntity
  8
0
  6
SLD-CONTINUA
 62
     7
100
AcDbLine
 10
523.6939440724
 20
485.7175913573
 30
0.0
 11
523.6939440724
 21
477.7175909774
 31
0.0
  0
ARC
  5
109
330
1F
100
AcDbEntity
  8
0
  6
SLD-CONTINUA
 62
     7
100
AcDbCircle
 10
524.6939526554
 20
477.7175909774
 30
0.0
 40
1.0
100
AcDbArc
 50
180.0
 51
0.0
  0
LINE
  5
10A
330
1F
100
AcDbEntity
  8
0
  6
SLD-CONTINUA
 62
     7
100
AcDbLine
 10
525.6939481255
 20
477.7175909774
 30
0.0
 11
592.1939562317
 21
477.7175909774
 31
0.0
  0
LINE
  5
10B
330
1F
100
AcDbEntity
  8
0
  6
SLD-CONTINUA
 62
     7
100
AcDbLine
 10
592.1939562317
 20
477.7175909774
 30
0.0
 11
592.1939562317
 21
459.7175917522
 31
0.0
  0
ARC
  5
10C
330
1F
100
AcDbEntity
  8
0
  6
SLD-CONTINUA
 62
     7
100
AcDbCircle
 10
592.1939526554
 20
458.7175909774
 30
0.0
 40
1.0
100
AcDbArc
 50
90.0
 51
270.0
  0
LINE
  5
10D
330
1F
100
AcDbEntity
  8
0
  6
SLD-CONTINUA
 62
     7
100
AcDbLine
 10
600.1939426419
 20
457.7175914244
 30
0.0
 11
592.1939562317
 21
457.7175914244
 31
0.0
  0
LINE
  5
10E
330
1F
100
AcDbEntity
  8
0
  6
SLD-CONTINUA
 62
     7
100
AcDbLine
 10
602.193946695
 20
455.7175910966
 30
0.0
 11
600.1939426419
 21
457.7175914244
 31
0.0
  0
LINE
  5
10F
330
1F
100
AcDbEntity
  8
0
  6
SLD-CONTINUA
 62
     7
100
AcDbLine
 10
602.193946695
 20
434.717589517
 30
0.0
 11
602.193946695
 21
455.7175910966
 31
0.0
  0
LINE
  5
110
330
1F
100
AcDbEntity
  8
0
  6
SLD-CONTINUA
 62
     7
100
AcDbLine
 10
600.1939426419
 20
432.7175891892
 30
0.0
 11
602.193946695
 21
434.717589517
 31
0.0
  0
LINE
  5
111
330
1F
100
AcDbEntity
  8
0
  6
SLD-CONTINUA
 62
     7
100
AcDbLine
 10
592.1939562317
 20
432.7175891892
 30
0.0
 11
600.1939426419
 21
432.7175891892
 31
0.0
  0
ARC
  5
112
330
1F
100
AcDbEntity
  8
0
  6
SLD-CONTINUA
 62
     7
100
AcDbCircle
 10
592.1939526554
 20
431.7175909774
 30
0.0
 40
1.0
100
AcDbArc
 50
90.0
 51
270.0
  0
LINE
  5
113
330
1F
100
AcDbEntity
  8
0
  6
SLD-CONTINUA
 62
     7
100
AcDbLine
 10
592.1939562317
 20
422.7175912754
 30
0.0
 11
592.1939562317
 21
430.7175925867
 31
0.0
  0
LINE
  5
114
330
1F
100
AcDbEntity
  8
0
  6
SLD-CONTINUA
 62
     7
100
AcDbLine
 10
592.1939562317
 20
422.7175912754
 30
0.0
 11
592.1939562317
 21
397.2175917522
 31
0.0
  0
ARC
  5
115
330
1F
100
AcDbEntity
  8
0
  6
SLD-CONTINUA
 62
     7
100
AcDbCircle
 10
592.1939526554
 20
396.2175909774
 30
0.0
 40
1.0
100
AcDbArc
 50
90.0000000001
 51
270.0
  0
LINE
  5
116
330
1F
100
AcDbEntity
  8
0
  6
SLD-CONTINUA
 62
     7
100
AcDbLine
 10
600.1939426419
 20
395.2175876991
 30
0.0
 11
592.1939562317
 21
395.2175876991
 31
0.0
  0
LINE
  5
117
330
1F
100
AcDbEntity
  8
0
  6
SLD-CONTINUA
 62
     7
100
AcDbLine
 10
602.193946695
 20
393.2175910966
 30
0.0
 11
600.1939426419
 21
395.2175876991
 31
0.0
  0
LINE
  5
118
330
1F
100
AcDbEntity
  8
0
  6
SLD-CONTINUA
 62
     7
100
AcDbLine
 10
602.193946695
 20
372.2175932423
 30
0.0
 11
602.193946695
 21
393.2175910966
 31
0.0
  0
LINE
  5
119
330
1F
100
AcDbEntity
  8
0
  6
SLD-CONTINUA
 62
     7
100
AcDbLine
 10
600.1939426419
 20
370.2175891892
 30
0.0
 11
602.193946695
 21
372.2175932423
 31
0.0
  0
LINE
  5
11A
330
1F
100
AcDbEntity
  8
0
  6
SLD-CONTINUA
 62
     7
100
AcDbLine
 10
592.1939562317
 20
370.2175891892
 30
0.0
 11
600.1939426419
 21
370.2175891892
 31
0.0
  0
ARC
  5
11B
330
1F
100
AcDbEntity
  8
0
  6
SLD-CONTINUA
 62
     7
100
AcDbCircle
 10
592.1939526554
 20
369.2175909774
 30
0.0
 40
1.0
100
AcDbArc
 50
90.0
 51
270.0
  0
LINE
  5
11C
330
1F
100
AcDbEntity
  8
0
  6
SLD-CONTINUA
 62
     7
100
AcDbLine
 10
592.1939562317
 20
360.2175912754
 30
0.0
 11
592.1939562317
 21
368.2175925867
 31
0.0
  0
LINE
  5
11D
330
1F
100
AcDbEntity
  8
0
  6
SLD-CONTINUA
 62
     7
100
AcDbLine
 10
592.1939562317
 20
360.2175912754
 30
0.0
 11
592.1939562317
 21
334.7175843016
 31
0.0
  0
ARC
  5
11E
330
1F
100
AcDbEntity
  8
0
  6
SLD-CONTINUA
 62
     7
100
AcDbCircle
 10
592.1939526554
 20
333.7175909774
 30
0.0
 40
1.0
100
AcDbArc
 50
90.0
 51
270.0
  0
LINE
  5
11F
330
1F
100
AcDbEntity
  8
0
  6
SLD-CONTINUA
 62
     7
100
AcDbLine
 10
600.1939426419
 20
332.7175951497
 30
0.0
 11
592.1939562317
 21
332.7175951497
 31
0.0
  0
LINE
  5
120
330
1F
100
AcDbEntity
  8
0
  6
SLD-CONTINUA
 62
     7
100
AcDbLine
 10
602.193946695
 20
330.7175910966
 30
0.0
 11
600.1939426419
 21
332.7175951497
 31
0.0
  0
LINE
  5
121
330
1F
100
AcDbEntity
  8
0
  6
SLD-CONTINUA
 62
     7
100
AcDbLine
 10
602.193946695
 20
309.7175932423
 30
0.0
 11
602.193946695
 21
330.7175910966
 31
0.0
  0
LINE
  5
122
330
1F
100
AcDbEntity
  8
0
  6
SLD-CONTINUA
 62
     7
100
AcDbLine
 10
600.1939426419
 20
307.7175891892
 30
0.0
 11
602.193946695
 21
309.7175932423
 31
0.0
  0
LINE
  5
123
330
1F
100
AcDbEntity
  8
0
  6
SLD-CONTINUA
 62
     7
100
AcDbLine
 10
592.1939562317
 20
307.7175891892
 30
0.0
 11
600.1939426419
 21
307.7175891892
 31
0.0
  0
ARC
  5
124
330
1F
100
AcDbEntity
  8
0
  6
SLD-CONTINUA
 62
     7
100
AcDbCircle
 10
592.1939526554
 20
306.7175909774
 30
0.0
 40
1.0
100
AcDbArc
 50
90.0
 51
270.0
  0
LINE
  5
125
330
1F
100
AcDbEntity
  8
0
  6
SLD-CONTINUA
 62
     7
100
AcDbLine
 10
592.1939562317
 20
297.7175838248
 30
0.0
 11
592.1939562317
 21
305.7175851361
 31
0.0
  0
LINE
  5
126
330
1F
100
AcDbEntity
  8
0
  6
SLD-CONTINUA
 62
     7
100
AcDbLine
 10
592.1939562317
 20
297.7175838248
 30
0.0
 11
592.1939562317
 21
277.7175879971
 31
0.0
  0
LINE
  5
127
330
1F
100
AcDbEntity
  8
0
  6
SLD-CONTINUA
 62
     7
100
AcDbLine
 10
592.1939562317
 20
277.7175879971
 30
0.0
 11
524.1939674374
 21
277.7175879971
 31
0.0
  0
ARC
  5
128
330
1F
100
AcDbEntity
  8
0
  6
SLD-CONTINUA
 62
     7
100
AcDbCircle
 10
523.1939526554
 20
277.7175909774
 30
0.0
 40
1.000000000000114
100
AcDbArc
 50
0.0
 51
180.0
  0
LINE
  5
129
330
1F
100
AcDbEntity
  8
0
  6
SLD-CONTINUA
 62
     7
100
AcDbLine
 10
522.1939633843
 20
269.7175866858
 30
0.0
 11
522.1939633843
 21
277.7175879971
 31
0.0
  0
LINE
  5
12A
330
1F
100
AcDbEntity
  8
0
  6
SLD-CONTINUA
 62
     7
100
AcDbLine
 10
520.1939593312
 20
267.7175975339
 30
0.0
 11
522.1939633843
 21
269.7175866858
 31
0.0
  0
LINE
  5
12B
330
1F
100
AcDbEntity
  8
0
  6
SLD-CONTINUA
 62
     7
100
AcDbLine
 10
520.1939593312
 20
267.7175975339
 30
0.0
 11
474.1939555165
 21
267.7175975339
 31
0.0
  0
LINE
  5
12C
330
1F
100
AcDbEntity
  8
0
  6
SLD-CONTINUA
 62
     7
100
AcDbLine
 10
472.1939514633
 20
269.7175866858
 30
0.0
 11
474.1939555165
 21
267.7175975339
 31
0.0
  0
LINE
  5
12D
330
1F
100
AcDbEntity
  8
0
  6
SLD-CONTINUA
 62
     7
100
AcDbLine
 10
472.1939514633
 20
269.7175866858
 30
0.0
 11
472.1939514633
 21
277.7175879971
 31
0.0
  0
ARC
  5
12E
330
1F
100
AcDbEntity
  8
0
  6
SLD-CONTINUA
 62
     7
100
AcDbCircle
 10
471.1939526554
 20
277.7175909774
 30
0.0
 40
1.0
100
AcDbArc
 50
0.0
 51
180.0
  0
LINE
  5
12F
330
1F
100
AcDbEntity
  8
0
  6
SLD-CONTINUA
 62
     7
100
AcDbLine
 10
470.1939474102
 20
277.7175879971
 30
0.0
 11
414.1939531323
 21
277.7175879971
 31
0.0
  0
ARC
  5
130
330
1F
100
AcDbEntity
  8
0
  6
SLD-CONTINUA
 62
     7
100
AcDbCircle
 10
413.1939526554
 20
277.7175909774
 30
0.0
 40
1.0
100
AcDbArc
 50
0.0
 51
180.0
  0
LINE
  5
131
330
1F
100
AcDbEntity
  8
0
  6
SLD-CONTINUA
 62
     7
100
AcDbLine
 10
412.1939490792
 20
268.7175846593
 30
0.0
 11
412.1939490792
 21
277.7175879971
 31
0.0
  0
LINE
  5
132
330
1F
100
AcDbEntity
  8
0
  6
SLD-CONTINUA
 62
     7
100
AcDbLine
 10
411.1939619538
 20
267.7175975339
 30
0.0
 11
412.1939490792
 21
268.7175846593
 31
0.0
  0
LINE
  5
133
330
1F
100
AcDbEntity
  8
0
  6
SLD-CONTINUA
 62
     7
100
AcDbLine
 10
411.1939619538
 20
267.7175975339
 30
0.0
 11
363.1939540859
 21
267.7175975339
 31
0.0
  0
LINE
  5
134
330
1F
100
AcDbEntity
  8
0
  6
SLD-CONTINUA
 62
     7
100
AcDbLine
 10
362.1939520594
 20
268.7175846593
 30
0.0
 11
363.1939540859
 21
267.7175975339
 31
0.0
  0
LINE
  5
135
330
1F
100
AcDbEntity
  8
0
  6
SLD-CONTINUA
 62
     7
100
AcDbLine
 10
362.1939520594
 20
268.7175846593
 30
0.0
 11
362.1939520594
 21
277.7175879971
 31
0.0
  0
ARC
  5
136
330
1F
100
AcDbEntity
  8
0
  6
SLD-CONTINUA
 62
     7
100
AcDbCircle
 10
361.1939526554
 20
277.7175909774
 30
0.0
 40
1.000000000000057
100
AcDbArc
 50
0.0
 51
180.0
  0
LINE
  5
137
330
1F
100
AcDbEntity
  8
0
  6
SLD-CONTINUA
 62
     7
100
AcDbLine
 10
360.1939480063
 20
277.7175879971
 30
0.0
 11
307.193959808
 21
277.7175879971
 31
0.0
  0
ARC
  5
138
330
1F
100
AcDbEntity
  8
0
  6
SLD-CONTINUA
 62
     7
100
AcDbCircle
 10
306.1939526554
 20
277.7175909774
 30
0.0
 40
1.0
100
AcDbArc
 50
0.0
 51
180.0
  0
LINE
  5
139
330
1F
100
AcDbEntity
  8
0
  6
SLD-CONTINUA
 62
     7
100
AcDbLine
 10
305.1939557549
 20
268.7175846593
 30
0.0
 11
305.1939557549
 21
277.7175879971
 31
0.0
  0
LINE
  5
13A
330
1F
100
AcDbEntity
  8
0
  6
SLD-CONTINUA
 62
     7
100
AcDbLine
 10
304.1939537283
 20
267.7175975339
 30
0.0
 11
305.1939557549
 21
268.7175846593
 31
0.0
  0
LINE
  5
13B
330
1F
100
AcDbEntity
  8
0
  6
SLD-CONTINUA
 62
     7
100
AcDbLine
 10
304.1939537283
 20
267.7175975339
 30
0.0
 11
256.1939458605
 21
267.7175975339
 31
0.0
  0
LINE
  5
13C
330
1F
100
AcDbEntity
  8
0
  6
SLD-CONTINUA
 62
     7
100
AcDbLine
 10
255.1939587351
 20
268.7175846593
 30
0.0
 11
256.1939458605
 21
267.7175975339
 31
0.0
  0
LINE
  5
13D
330
1F
100
AcDbEntity
  8
0
  6
SLD-CONTINUA
 62
     7
100
AcDbLine
 10
255.1939587351
 20
268.7175846593
 30
0.0
 11
255.1939587351
 21
277.7175879971
 31
0.0
  0
ARC
  5
13E
330
1F
100
AcDbEntity
  8
0
  6
SLD-CONTINUA
 62
     7
100
AcDbCircle
 10
254.1939526554
 20
277.7175909774
 30
0.0
 40
1.0
100
AcDbArc
 50
0.0
 51
180.0
  0
LINE
  5
13F
330
1F
100
AcDbEntity
  8
0
  6
SLD-CONTINUA
 62
     7
100
AcDbLine
 10
253.193954682
 20
277.7175879971
 30
0.0
 11
200.1939515826
 21
277.7175879971
 31
0.0
  0
ARC
  5
140
330
1F
100
AcDbEntity
  8
0
  6
SLD-CONTINUA
 62
     7
100
AcDbCircle
 10
199.1939526554
 20
277.7175909774
 30
0.0
 40
1.0
100
AcDbArc
 50
0.0
 51
180.0
  0
LINE
  5
141
330
1F
100
AcDbEntity
  8
0
  6
SLD-CONTINUA
 62
     7
100
AcDbLine
 10
198.19395498
 20
268.7175846593
 30
0.0
 11
198.19395498
 21
277.7175879971
 31
0.0
  0
LINE
  5
142
330
1F
100
AcDbEntity
  8
0
  6
SLD-CONTINUA
 62
     7
100
AcDbLine
 10
197.1939529535
 20
267.7175975339
 30
0.0
 11
198.19395498
 21
268.7175846593
 31
0.0
  0
LINE
  5
143
330
1F
100
AcDbEntity
  8
0
  6
SLD-CONTINUA
 62
     7
100
AcDbLine
 10
197.1939529535
 20
267.7175975339
 30
0.0
 11
149.1939525362
 21
267.7175975339
 31
0.0
  0
LINE
  5
144
330
1F
100
AcDbEntity
  8
0
  6
SLD-CONTINUA
 62
     7
100
AcDbLine
 10
148.1939523723
 20
268.7175846593
 30
0.0
 11
149.1939525362
 21
267.7175975339
 31
0.0
  0
LINE
  5
145
330
1F
100
AcDbEntity
  8
0
  6
SLD-CONTINUA
 62
     7
100
AcDbLine
 10
148.1939523723
 20
268.7175846593
 30
0.0
 11
148.1939523723
 21
277.7175879971
 31
0.0
  0
ARC
  5
146
330
1F
100
AcDbEntity
  8
0
  6
SLD-CONTINUA
 62
     7
100
AcDbCircle
 10
147.1939526554
 20
277.7175909774
 30
0.0
 40
1.0
100
AcDbArc
 50
0.0
 51
180.0
  0
LINE
  5
147
330
1F
100
AcDbEntity
  8
0
  6
SLD-CONTINUA
 62
     7
100
AcDbLine
 10
146.1939520445
 20
277.7175879971
 30
0.0
 11
108.1939532664
 21
277.7175879971
 31
0.0
  0
LINE
  5
148
330
1F
100
AcDbEntity
  8
0
  6
SLD-CONTINUA
 62
     7
100
AcDbLine
 10
107.1939531025
 20
278.7175900237
 30
0.0
 11
108.1939532664
 21
277.7175879971
 31
0.0
  0
LINE
  5
149
330
1F
100
AcDbEntity
  8
0
  6
SLD-CONTINUA
 62
     7
100
AcDbLine
 10
107.1939531025
 20
278.7175900237
 30
0.0
 11
107.1939531025
 21
326.7175978915
 31
0.0
  0
LINE
  5
14A
330
1F
100
AcDbEntity
  8
0
  6
SLD-CONTINUA
 62
     7
100
AcDbLine
 10
108.1939532664
 20
327.7175850169
 30
0.0
 11
107.1939531025
 21
326.7175978915
 31
0.0
  0
LINE
  5
14B
330
1F
100
AcDbEntity
  8
0
  6
SLD-CONTINUA
 62
     7
100
AcDbLine
 10
108.1939532664
 20
327.7175850169
 30
0.0
 11
116.193952715
 21
327.7175850169
 31
0.0
  0
ARC
  5
14C
330
1F
100
AcDbEntity
  8
0
  6
SLD-CONTINUA
 62
     7
100
AcDbCircle
 10
117.1939526554
 20
327.7175909774
 30
0.0
 40
1.0
100
AcDbArc
 50
180.0
 51
90.0
  0
LINE
  5
14D
330
1F
100
AcDbEntity
  8
0
  6
SLD-CONTINUA
 62
     7
100
AcDbLine
 10
117.193952879
 20
351.7175889508
 30
0.0
 11
117.193952879
 21
328.7175870434
 31
0.0
  0
ARC
  5
14E
330
1F
100
AcDbEntity
  8
0
  6
SLD-CONTINUA
 62
     7
100
AcDbCircle
 10
117.1939526554
 20
352.7175909774
 30
0.0
 40
1.0
100
AcDbArc
 50
270.0
 51
180.0
  0
LINE
  5
14F
330
1F
100
AcDbEntity
  8
0
  6
SLD-CONTINUA
 62
     7
100
AcDbLine
 10
108.1939532664
 20
352.7175909774
 30
0.0
 11
116.193952715
 21
352.7175909774
 31
0.0
  0
LINE
  5
150
330
1F
100
AcDbEntity
  8
0
  6
SLD-CONTINUA
 62
     7
100
AcDbLine
 10
107.1939531025
 20
353.7175930039
 30
0.0
 11
108.1939532664
 21
352.7175909774
 31
0.0
  0
LINE
  5
151
330
1F
100
AcDbEntity
  8
0
  6
SLD-CONTINUA
 62
     7
100
AcDbLine
 10
107.1939531025
 20
353.7175930039
 30
0.0
 11
107.1939531025
 21
401.7175934211
 31
0.0
  0
LINE
  5
152
330
1F
100
AcDbEntity
  8
0
  6
SLD-CONTINUA
 62
     7
100
AcDbLine
 10
108.1939532664
 20
402.7175879971
 30
0.0
 11
107.1939531025
 21
401.7175934211
 31
0.0
  0
LINE
  5
153
330
1F
100
AcDbEntity
  8
0
  6
SLD-CONTINUA
 62
     7
100
AcDbLine
 10
108.1939532664
 20
402.7175879971
 30
0.0
 11
116.193952715
 21
402.7175879971
 31
0.0
  0
ARC
  5
154
330
1F
100
AcDbEntity
  8
0
  6
SLD-CONTINUA
 62
     7
100
AcDbCircle
 10
117.1939526554
 20
402.7175909774
 30
0.0
 40
1.0
100
AcDbArc
 50
180.0
 51
90.0
  0
LINE
  5
155
330
1F
100
AcDbEntity
  8
0
  6
SLD-CONTINUA
 62
     7
100
AcDbLine
 10
117.193952879
 20
426.717591931
 30
0.0
 11
117.193952879
 21
403.7175900237
 31
0.0
  0
ARC
  5
156
330
1F
100
AcDbEntity
  8
0
  6
SLD-CONTINUA
 62
     7
100
AcDbCircle
 10
117.1939526554
 20
427.7175909774
 30
0.0
 40
1.0
100
AcDbArc
 50
270.0
 51
180.0
  0
LINE
  5
157
330
1F
100
AcDbEntity
  8
0
  6
SLD-CONTINUA
 62
     7
100
AcDbLine
 10
108.1939532664
 20
427.7175902323
 30
0.0
 11
116.193952715
 21
427.7175902323
 31
0.0
  0
LINE
  5
158
330
1F
100
AcDbEntity
  8
0
  6
SLD-CONTINUA
 62
     7
100
AcDbLine
 10
107.1939531025
 20
428.7175922589
 30
0.0
 11
108.1939532664
 21
427.7175902323
 31
0.0
  0
LINE
  5
159
330
1F
100
AcDbEntity
  8
0
  6
SLD-CONTINUA
 62
     7
100
AcDbLine
 10
107.1939531025
 20
428.7175922589
 30
0.0
 11
107.1939531025
 21
476.7175909299
 31
0.0
  0
LINE
  5
15A
330
1F
100
AcDbEntity
  8
0
  6
SLD-CONTINUA
 62
     7
100
AcDbLine
 10
108.1939532664
 20
477.7175909774
 30
0.0
 11
107.1939531025
 21
476.7175909299
 31
0.0
  0
LINE
  5
15B
330
1F
100
AcDbEntity
  8
0
  6
SLD-CONTINUA
 62
     7
100
AcDbLine
 10
108.1939532664
 20
477.7175909774
 30
0.0
 11
127.4439526673
 21
477.7175909774
 31
0.0
  0
LINE
  5
15C
330
1F
100
AcDbEntity
  8
0
  6
SLD-CONTINUA
 62
     7
100
AcDbLine
 10
127.4439526673
 20
477.7175909774
 30
0.0
 11
127.4439526673
 21
466.717591037
 31
0.0
  0
ARC
  5
15D
330
1F
100
AcDbEntity
  8
0
  6
SLD-CONTINUA
 62
     7
100
AcDbCircle
 10
127.4439526554
 20
465.7175909774
 30
0.0
 40
1.0
100
AcDbArc
 50
90.0
 51
0.0
  0
LINE
  5
15E
330
1F
100
AcDbEntity
  8
0
  6
SLD-CONTINUA
 62
     7
100
AcDbLine
 10
128.4439526275
 20
465.717590873
 30
0.0
 11
132.4439525847
 21
465.717590873
 31
0.0
  0
ARC
  5
15F
330
1F
100
AcDbEntity
  8
0
  6
SLD-CONTINUA
 62
     7
100
AcDbCircle
 10
133.4439526554
 20
465.7175909774
 30
0.0
 40
1.0
100
AcDbArc
 50
180.0
 51
90.0
  0
LINE
  5
160
330
1F
100
AcDbEntity
  8
0
  6
SLD-CONTINUA
 62
     7
100
AcDbLine
 10
133.4439527486
 20
477.7175909774
 30
0.0
 11
133.4439527486
 21
466.717591037
 31
0.0
  0
LINE
  5
161
330
1F
100
AcDbEntity
  8
0
  6
SLD-CONTINUA
 62
     7
100
AcDbLine
 10
133.4439527486
 20
477.7175909774
 30
0.0
 11
139.943952417
 21
477.7175909774
 31
0.0
  0
LINE
  5
162
330
1F
100
AcDbEntity
  8
0
  6
SLD-CONTINUA
 62
     7
100
AcDbLine
 10
139.943952417
 20
477.7175909774
 30
0.0
 11
139.943952417
 21
466.717591037
 31
0.0
  0
ARC
  5
163
330
1F
100
AcDbEntity
  8
0
  6
SLD-CONTINUA
 62
     7
100
AcDbCircle
 10
139.9439526554
 20
465.7175909774
 30
0.0
 40
1.0
100
AcDbArc
 50
90.0
 51
0.0
  0
LINE
  5
164
330
1F
100
AcDbEntity
  8
0
  6
SLD-CONTINUA
 62
     7
100
AcDbLine
 10
140.9439525809
 20
465.717590873
 30
0.0
 11
144.9439532366
 21
465.717590873
 31
0.0
  0
ARC
  5
165
330
1F
100
AcDbEntity
  8
0
  6
SLD-CONTINUA
 62
     7
100
AcDbCircle
 10
145.9439526554
 20
465.7175909774
 30
0.0
 40
1.0
100
AcDbArc
 50
180.0
 51
90.0
  0
LINE
  5
166
330
1F
100
AcDbEntity
  8
0
  6
SLD-CONTINUA
 62
     7
100
AcDbLine
 10
145.9439534005
 20
477.7175909774
 30
0.0
 11
145.9439534005
 21
466.717591037
 31
0.0
  0
LINE
  5
167
330
1F
100
AcDbEntity
  8
0
  6
SLD-CONTINUA
 62
     7
100
AcDbLine
 10
145.9439534005
 20
477.7175909774
 30
0.0
 11
152.4439535346
 21
477.7175909774
 31
0.0
  0
LINE
  5
168
330
1F
100
AcDbEntity
  8
0
  6
SLD-CONTINUA
 62
     7
100
AcDbLine
 10
152.4439535346
 20
477.7175909774
 30
0.0
 11
152.4439535346
 21
466.717591037
 31
0.0
  0
ARC
  5
169
330
1F
100
AcDbEntity
  8
0
  6
SLD-CONTINUA
 62
     7
100
AcDbCircle
 10
152.4439526554
 20
465.7175909774
 30
0.0
 40
1.0
100
AcDbArc
 50
90.0
 51
0.0
  0
LINE
  5
16A
330
1F
100
AcDbEntity
  8
0
  6
SLD-CONTINUA
 62
     7
100
AcDbLine
 10
153.4439518359
 20
465.717590873
 30
0.0
 11
157.4439524915
 21
465.717590873
 31
0.0
  0
ARC
  5
16B
330
1F
100
AcDbEntity
  8
0
  6
SLD-CONTINUA
 62
     7
100
AcDbCircle
 10
158.4439526554
 20
465.7175909774
 30
0.0
 40
1.0
100
AcDbArc
 50
180.0
 51
90.0
  0
LINE
  5
16C
330
1F
100
AcDbEntity
  8
0
  6
SLD-CONTINUA
 62
     7
100
AcDbLine
 10
158.4439526554
 20
486.2175914393
 30
0.0
 11
158.4439526554
 21
466.717591037
 31
0.0
  0
LINE
  5
16D
330
1F
100
AcDbEntity
  8
0
  6
SLD-CONTINUA
 62
     7
100
AcDbLine
 10
159.94395197
 20
487.7175907538
 30
0.0
 11
158.4439526554
 21
486.2175914393
 31
0.0
  0
LINE
  5
16E
330
1F
100
AcDbEntity
  8
0
  6
SLD-CONTINUA
 62
     7
100
AcDbLine
 10
159.94395197
 20
487.7175907538
 30
0.0
 11
163.4439516124
 21
487.7175907538
 31
0.0
  0
LINE
  5
16F
330
1F
100
AcDbEntity
  8
0
  6
SLD-CONTINUA
 62
     7
100
AcDbLine
 10
164.9439509269
 20
486.2175914393
 30
0.0
 11
163.4439516124
 21
487.7175907538
 31
0.0
  0
LINE
  5
170
330
1F
100
AcDbEntity
  8
0
  6
SLD-CONTINUA
 62
     7
100
AcDbLine
 10
164.9439509269
 20
486.2175914393
 30
0.0
 11
164.9439509269
 21
466.717591037
 31
0.0
  0
ARC
  5
171
330
1F
100
AcDbEntity
  8
0
  6
SLD-CONTINUA
 62
     7
100
AcDbCircle
 10
117.0939526554
 20
457.8175909774
 30
0.0
 40
1.0
100
AcDbArc
 50
0.0
 51
270.0
  0
LINE
  5
172
330
1F
100
AcDbEntity
  8
0
  6
SLD-CONTINUA
 62
     7
100
AcDbLine
 10
117.0939530488
 20
438.6175922052
 30
0.0
 11
117.0939530488
 21
456.8175910906
 31
0.0
  0
ARC
  5
173
330
1F
100
AcDbEntity
  8
0
  6
SLD-CONTINUA
 62
     7
100
AcDbCircle
 10
117.0939526554
 20
437.6175909774
 30
0.0
 40
1.0
100
AcDbArc
 50
90.0
 51
0.0
  0
LINE
  5
174
330
1F
100
AcDbEntity
  8
0
  6
SLD-CONTINUA
 62
     7
100
AcDbLine
 10
126.2939526709
 20
437.6175901787
 30
0.0
 11
118.0939522814
 21
437.6175901787
 31
0.0
  0
ARC
  5
175
330
1F
100
AcDbEntity
  8
0
  6
SLD-CONTINUA
 62
     7
100
AcDbCircle
 10
127.2939526554
 20
437.6175909774
 30
0.0
 40
1.0
100
AcDbArc
 50
180.0
 51
90.0
  0
LINE
  5
176
330
1F
100
AcDbEntity
  8
0
  6
SLD-CONTINUA
 62
     7
100
AcDbLine
 10
127.2939526529
 20
456.8175910906
 30
0.0
 11
127.2939526529
 21
438.6175922052
 31
0.0
  0
ARC
  5
177
330
1F
100
AcDbEntity
  8
0
  6
SLD-CONTINUA
 62
     7
100
AcDbCircle
 10
127.2939526554
 20
457.8175909774
 30
0.0
 40
1.0
100
AcDbArc
 50
270.0
 51
180.0
  0
LINE
  5
178
330
1F
100
AcDbEntity
  8
0
  6
SLD-CONTINUA
 62
     7
100
AcDbLine
 10
118.0939522814
 20
457.8175912545
 30
0.0
 11
126.2939526709
 21
457.8175912545
 31
0.0
  0
ARC
  5
179
330
1F
100
AcDbEntity
  8
0
  6
SLD-CONTINUA
 62
     7
100
AcDbCircle
 10
117.0939526554
 20
367.6175909774
 30
0.0
 40
1.0
100
AcDbArc
 50
90.0
 51
0.0
  0
LINE
  5
17A
330
1F
100
AcDbEntity
  8
0
  6
SLD-CONTINUA
 62
     7
100
AcDbLine
 10
126.2939526709
 20
367.6175898806
 30
0.0
 11
118.0939522814
 21
367.6175898806
 31
0.0
  0
ARC
  5
17B
330
1F
100
AcDbEntity
  8
0
  6
SLD-CONTINUA
 62
     7
100
AcDbCircle
 10
127.2939526554
 20
367.6175909774
 30
0.0
 40
1.0
100
AcDbArc
 50
180.0
 51
90.0
  0
LINE
  5
17C
330
1F
100
AcDbEntity
  8
0
  6
SLD-CONTINUA
 62
     7
100
AcDbLine
 10
127.2939526529
 20
386.8175945179
 30
0.0
 11
127.2939526529
 21
368.6175919072
 31
0.0
  0
ARC
  5
17D
330
1F
100
AcDbEntity
  8
0
  6
SLD-CONTINUA
 62
     7
100
AcDbCircle
 10
127.2939526554
 20
387.8175909774
 30
0.0
 40
1.0
100
AcDbArc
 50
270.0
 51
180.0
  0
LINE
  5
17E
330
1F
100
AcDbEntity
  8
0
  6
SLD-CONTINUA
 62
     7
100
AcDbLine
 10
118.0939522814
 20
387.8175890938
 30
0.0
 11
126.2939526709
 21
387.8175890938
 31
0.0
  0
ARC
  5
17F
330
1F
100
AcDbEntity
  8
0
  6
SLD-CONTINUA
 62
     7
100
AcDbCircle
 10
117.0939526554
 20
387.8175909774
 30
0.0
 40
1.0
100
AcDbArc
 50
0.0
 51
270.0
  0
LINE
  5
180
330
1F
100
AcDbEntity
  8
0
  6
SLD-CONTINUA
 62
     7
100
AcDbLine
 10
117.0939530488
 20
368.6175919072
 30
0.0
 11
117.0939530488
 21
386.8175945179
 31
0.0
  0
ARC
  5
181
330
1F
100
AcDbEntity
  8
0
  6
SLD-CONTINUA
 62
     7
100
AcDbCircle
 10
117.0939526554
 20
297.6175909774
 30
0.0
 40
1.0
100
AcDbArc
 50
90.0
 51
0.0
  0
LINE
  5
182
330
1F
100
AcDbEntity
  8
0
  6
SLD-CONTINUA
 62
     7
100
AcDbLine
 10
126.2939526709
 20
297.6175970332
 30
0.0
 11
118.0939522814
 21
297.6175970332
 31
0.0
  0
ARC
  5
183
330
1F
100
AcDbEntity
  8
0
  6
SLD-CONTINUA
 62
     7
100
AcDbCircle
 10
127.2939526554
 20
297.6175909774
 30
0.0
 40
1.0
100
AcDbArc
 50
180.0
 51
90.0
  0
LINE
  5
184
330
1F
100
AcDbEntity
  8
0
  6
SLD-CONTINUA
 62
     7
100
AcDbLine
 10
127.2939526529
 20
316.8175942198
 30
0.0
 11
127.2939526529
 21
298.6175841586
 31
0.0
  0
ARC
  5
185
330
1F
100
AcDbEntity
  8
0
  6
SLD-CONTINUA
 62
     7
100
AcDbCircle
 10
127.2939526554
 20
317.8175909774
 30
0.0
 40
1.0
100
AcDbArc
 50
270.0
 51
180.0
  0
LINE
  5
186
330
1F
100
AcDbEntity
  8
0
  6
SLD-CONTINUA
 62
     7
100
AcDbLine
 10
118.0939522814
 20
317.8175962464
 30
0.0
 11
126.2939526709
 21
317.8175962464
 31
0.0
  0
ARC
  5
187
330
1F
100
AcDbEntity
  8
0
  6
SLD-CONTINUA
 62
     7
100
AcDbCircle
 10
117.0939526554
 20
317.8175909774
 30
0.0
 40
1.0
100
AcDbArc
 50
0.0
 51
270.0
  0
LINE
  5
188
330
1F
100
AcDbEntity
  8
0
  6
SLD-CONTINUA
 62
     7
100
AcDbLine
 10
117.0939530488
 20
298.6175841586
 30
0.0
 11
117.0939530488
 21
316.8175942198
 31
0.0
  0
ARC
  5
189
330
1F
100
AcDbEntity
  8
0
  6
SLD-CONTINUA
 62
     7
100
AcDbCircle
 10
433.5939526554
 20
292.6175909774
 30
0.0
 40
1.0
100
AcDbArc
 50
90.0
 51
0.0
  0
LINE
  5
18A
330
1F
100
AcDbEntity
  8
0
  6
SLD-CONTINUA
 62
     7
100
AcDbLine
 10
434.5939408299
 20
292.6175869004
 30
0.0
 11
442.7939604279
 21
292.6175869004
 31
0.0
  0
ARC
  5
18B
330
1F
100
AcDbEntity
  8
0
  6
SLD-CONTINUA
 62
     7
100
AcDbCircle
 10
443.7939526554
 20
292.6175909774
 30
0.0
 40
1.0
100
AcDbArc
 50
180.0
 51
90.0
  0
LINE
  5
18C
330
1F
100
AcDbEntity
  8
0
  6
SLD-CONTINUA
 62
     7
100
AcDbLine
 10
443.7939475533
 20
293.617588927
 30
0.0
 11
443.7939475533
 21
316.8175942198
 31
0.0
  0
ARC
  5
18D
330
1F
100
AcDbEntity
  8
0
  6
SLD-CONTINUA
 62
     7
100
AcDbCircle
 10
443.7939526554
 20
317.8175909774
 30
0.0
 40
1.0
100
AcDbArc
 50
270.0
 51
180.0
  0
LINE
  5
18E
330
1F
100
AcDbEntity
  8
0
  6
SLD-CONTINUA
 62
     7
100
AcDbLine
 10
442.7939604279
 20
317.8175962464
 30
0.0
 11
434.5939408299
 21
317.8175962464
 31
0.0
  0
ARC
  5
18F
330
1F
100
AcDbEntity
  8
0
  6
SLD-CONTINUA
 62
     7
100
AcDbCircle
 10
433.5939526554
 20
317.8175909774
 30
0.0
 40
1.0
100
AcDbArc
 50
0.0
 51
270.0
  0
LINE
  5
190
330
1F
100
AcDbEntity
  8
0
  6
SLD-CONTINUA
 62
     7
100
AcDbLine
 10
433.5939537045
 20
316.8175942198
 30
0.0
 11
433.5939537045
 21
293.617588927
 31
0.0
  0
ARC
  5
191
330
1F
100
AcDbEntity
  8
0
  6
SLD-CONTINUA
 62
     7
100
AcDbCircle
 10
443.7939526554
 20
367.8175909774
 30
0.0
 40
1.0
100
AcDbArc
 50
270.0
 51
180.0
  0
LINE
  5
192
330
1F
100
AcDbEntity
  8
0
  6
SLD-CONTINUA
 62
     7
100
AcDbLine
 10
442.7939604279
 20
367.8175932662
 30
0.0
 11
434.5939408299
 21
367.8175932662
 31
0.0
  0
ARC
  5
193
330
1F
100
AcDbEntity
  8
0
  6
SLD-CONTINUA
 62
     7
100
AcDbCircle
 10
433.5939526554
 20
367.8175909774
 30
0.0
 40
1.0
100
AcDbArc
 50
0.0
 51
270.0
  0
LINE
  5
194
330
1F
100
AcDbEntity
  8
0
  6
SLD-CONTINUA
 62
     7
100
AcDbLine
 10
433.5939537045
 20
366.8175912396
 30
0.0
 11
433.5939537045
 21
343.6175859467
 31
0.0
  0
ARC
  5
195
330
1F
100
AcDbEntity
  8
0
  6
SLD-CONTINUA
 62
     7
100
AcDbCircle
 10
433.5939526554
 20
342.6175909774
 30
0.0
 40
1.0
100
AcDbArc
 50
90.0
 51
0.0
  0
LINE
  5
196
330
1F
100
AcDbEntity
  8
0
  6
SLD-CONTINUA
 62
     7
100
AcDbLine
 10
434.5939408299
 20
342.6175839202
 30
0.0
 11
442.7939604279
 21
342.6175839202
 31
0.0
  0
ARC
  5
197
330
1F
100
AcDbEntity
  8
0
  6
SLD-CONTINUA
 62
     7
100
AcDbCircle
 10
443.7939526554
 20
342.6175909774
 30
0.0
 40
1.0
100
AcDbArc
 50
180.0
 51
90.0
  0
LINE
  5
198
330
1F
100
AcDbEntity
  8
0
  6
SLD-CONTINUA
 62
     7
100
AcDbLine
 10
443.7939475533
 20
343.6175859467
 30
0.0
 11
443.7939475533
 21
366.8175912396
 31
0.0
  0
CIRCLE
  5
199
330
1F
100
AcDbEntity
  8
0
  6
SLD-CONTINUA
 62
     7
100
AcDbCircle
 10
380.4439526554
 20
302.7175909774
 30
0.0
 40
5.5
  0
CIRCLE
  5
19A
330
1F
100
AcDbEntity
  8
0
  6
SLD-CONTINUA
 62
     7
100
AcDbCircle
 10
180.4439526554
 20
302.7175909774
 30
0.0
 40
5.500000000000028
  0
ENDSEC
  0
SECTION
  2
OBJECTS
  0
DICTIONARY
  5
C
330
0
100
AcDbDictionary
  3
ACAD_GROUP
350
D
  3
ACAD_MLINESTYLE
350
17
  3
ACAD_SCALELIST
350
47
1001
ACAD
1000
TREAT_AS_HARD
1070
     0
  0
DICTIONARY
  5
D
102
{ACAD_REACTORS
330
C
102
}
330
C
100
AcDbDictionary
1001
ACAD
1000
TREAT_AS_HARD
1070
     0
  0
DICTIONARY
  5
17
102
{ACAD_REACTORS
330
C
102
}
330
C
100
AcDbDictionary
  3
STANDARD
350
18
1001
ACAD
1000
TREAT_AS_HARD
1070
     0
  0
DICTIONARY
  5
47
102
{ACAD_REACTORS
330
C
102
}
330
C
100
AcDbDictionary
1001
ACAD
1000
TREAT_AS_HARD
1070
     0
  0
MLINESTYLE
  5
18
102
{ACAD_REACTORS
330
17
102
}
330
17
100
AcDbMlineStyle
  2
Standard
 70
     0
  3

 62
   256
 51
90.0
 52
90.0
 71
     2
 49
0.5
 62
   256
  6
BYLAYER
 49
-0.5
 62
   256
  6
BYLAYER
  0
ENDSEC
  0
EOF
