  0
SECTION
  2
HEADER
  9
$ACADVER
  1
AC1012
  9
$DWGCODEPAGE
  3
ansi_1252
  9
$INSBASE
 10
0.0
 20
0.0
 30
0.0
  9
$EXTMIN
 10
0.0
 20
0.0
 30
0.0
  9
$EXTMAX
 10
700.0
 20
700.0
 30
0.0
  9
$LIMMIN
 10
0.0
 20
0.0
  9
$LIMMAX
 10
700.0
 20
700.0
  9
$ORTHOMODE
 70
     0
  9
$REGENMODE
 70
     1
  9
$FILLMODE
 70
     1
  9
$QTEXTMODE
 70
     0
  9
$MIRRTEXT
 70
     1
  9
$DRAGMODE
 70
     2
  9
$LTSCALE
 40
1.0
  9
$OSMODE
 70
    37
  9
$ATTMODE
 70
     1
  9
$TEXTSIZE
 40
3.5
  9
$TRACEWID
 40
1.0
  9
$TEXTSTYLE
  7
STANDARD
  9
$CLAYER
  8
0
  9
$CELTYPE
  6
BYLAYER
  9
$CECOLOR
 62
   256
  9
$CELTSCALE
 40
1.0
  9
$DELOBJ
 70
     1
  9
$DISPSILH
 70
     0
  9
$DIMSCALE
 40
1.0
  9
$DIMASZ
 40
3.302
  9
$DIMEXO
 40
1.0
  9
$DIMDLI
 40
3.75
  9
$DIMRND
 40
0.0
  9
$DIMDLE
 40
0.0
  9
$DIMEXE
 40
1.0
  9
$DIMTP
 40
0.0
  9
$DIMTM
 40
0.0
  9
$DIMTXT
 40
3.5
  9
$DIMCEN
 40
2.5
  9
$DIMTSZ
 40
0.0
  9
$DIMTOL
 70
     0
  9
$DIMLIM
 70
     0
  9
$DIMTIH
 70
     1
  9
$DIMTOH
 70
     1
  9
$DIMSE1
 70
     0
  9
$DIMSE2
 70
     0
  9
$DIMTAD
 70
     1
  9
$DIMZIN
 70
     1
  9
$DIMBLK
  1

  9
$DIMASO
 70
     1
  9
$DIMSHO
 70
     1
  9
$DIMPOST
  1

  9
$DIMAPOST
  1

  9
$DIMALT
 70
     0
  9
$DIMALTD
 70
     3
  9
$DIMALTF
 40
0.0393700787
  9
$DIMLFAC
 40
1.0
  9
$DIMTOFL
 70
     1
  9
$DIMTVP
 40
0.0
  9
$DIMTIX
 70
     0
  9
$DIMSOXD
 70
     0
  9
$DIMSAH
 70
     0
  9
$DIMBLK1
  1

  9
$DIMBLK2
  1

  9
$DIMSTYLE
  2
ISO-25
  9
$DIMCLRD
 70
     0
  9
$DIMCLRE
 70
     0
  9
$DIMCLRT
 70
     0
  9
$DIMTFAC
 40
1.0
  9
$DIMGAP
 40
1.524
  9
$DIMJUST
 70
     0
  9
$DIMSD1
 70
     0
  9
$DIMSD2
 70
     0
  9
$DIMTOLJ
 70
     0
  9
$DIMTZIN
 70
     1
  9
$DIMALTZ
 70
     0
  9
$DIMALTTZ
 70
     0
  9
$DIMFIT
 70
     3
  9
$DIMUPT
 70
     0
  9
$DIMUNIT
 70
     2
  9
$DIMDEC
 70
     2
  9
$DIMTDEC
 70
     2
  9
$DIMALTU
 70
     2
  9
$DIMALTTD
 70
     3
  9
$DIMTXSTY
  7
STANDARD
  9
$DIMAUNIT
 70
     0
  9
$LUNITS
 70
     2
  9
$LUPREC
 70
     2
  9
$SKETCHINC
 40
1.0
  9
$FILLETRAD
 40
10.0
  9
$AUNITS
 70
     0
  9
$AUPREC
 70
     2
  9
$MENU
  1
.
  9
$ELEVATION
 40
0.0
  9
$PELEVATION
 40
0.0
  9
$THICKNESS
 40
0.0
  9
$LIMCHECK
 70
     0
  9
$CHAMFERA
 40
0.0
  9
$CHAMFERB
 40
0.0
  9
$CHAMFERC
 40
0.0
  9
$CHAMFERD
 40
0.0
  9
$SKPOLY
 70
     0
  9
$TDCREATE
 40
2458843.784853866
  9
$TDUPDATE
 40
2458843.784854062
  9
$TDINDWG
 40
0.0000000116
  9
$TDUSRTIMER
 40
0.0000000116
  9
$USRTIMER
 70
     1
  9
$ANGBASE
 50
0.0
  9
$ANGDIR
 70
     0
  9
$PDMODE
 70
     0
  9
$PDSIZE
 40
-1.0
  9
$PLINEWID
 40
0.0
  9
$COORDS
 70
     1
  9
$SPLFRAME
 70
     0
  9
$SPLINETYPE
 70
     6
  9
$SPLINESEGS
 70
     8
  9
$ATTDIA
 70
     0
  9
$ATTREQ
 70
     1
  9
$HANDLING
 70
     1
  9
$HANDSEED
  5
F1
  9
$SURFTAB1
 70
     6
  9
$SURFTAB2
 70
     6
  9
$SURFTYPE
 70
     6
  9
$SURFU
 70
     6
  9
$SURFV
 70
     6
  9
$UCSNAME
  2

  9
$UCSORG
 10
0.0
 20
0.0
 30
0.0
  9
$UCSXDIR
 10
1.0
 20
0.0
 30
0.0
  9
$UCSYDIR
 10
0.0
 20
1.0
 30
0.0
  9
$PUCSNAME
  2

  9
$PUCSORG
 10
0.0
 20
0.0
 30
0.0
  9
$PUCSXDIR
 10
1.0
 20
0.0
 30
0.0
  9
$PUCSYDIR
 10
0.0
 20
1.0
 30
0.0
  9
$USERI1
 70
     0
  9
$USERI2
 70
     0
  9
$USERI3
 70
     0
  9
$USERI4
 70
     0
  9
$USERI5
 70
     0
  9
$USERR1
 40
0.0
  9
$USERR2
 40
0.0
  9
$USERR3
 40
0.0
  9
$USERR4
 40
0.0
  9
$USERR5
 40
0.0
  9
$WORLDVIEW
 70
     1
  9
$SHADEDGE
 70
     3
  9
$SHADEDIF
 70
    70
  9
$TILEMODE
 70
     1
  9
$MAXACTVP
 70
    64
  9
$PINSBASE
 10
0.0
 20
0.0
 30
0.0
  9
$PLIMCHECK
 70
     0
  9
$PEXTMIN
 10
1.0000000000E+20
 20
1.0000000000E+20
 30
1.0000000000E+20
  9
$PEXTMAX
 10
-1.0000000000E+20
 20
-1.0000000000E+20
 30
-1.0000000000E+20
  9
$PLIMMIN
 10
0.0
 20
0.0
  9
$PLIMMAX
 10
420.0
 20
297.0
  9
$UNITMODE
 70
     0
  9
$VISRETAIN
 70
     1
  9
$PLINEGEN
 70
     0
  9
$PSLTSCALE
 70
     1
  9
$TREEDEPTH
 70
  3020
  9
$PICKSTYLE
 70
     1
  9
$CMLSTYLE
  2
STANDARD
  9
$CMLJUST
 70
     0
  9
$CMLSCALE
 40
20.0
  9
$SAVEIMAGES
 70
     1
  0
ENDSEC
  0
SECTION
  2
CLASSES
  0
CLASS
  1
ACDBDICTIONARYWDFLT
  2
AcDbDictionaryWithDefault
  3
ObjectDBX Classes
 90
    32768
280
     0
281
     0
  0
CLASS
  1
VISUALSTYLE
  2
AcDbVisualStyle
  3
ObjectDBX Classes
 90
     4095
280
     0
281
     0
  0
CLASS
  1
MATERIAL
  2
AcDbMaterial
  3
ObjectDBX Classes
 90
     1153
280
     0
281
     0
  0
CLASS
  1
SCALE
  2
AcDbScale
  3
ObjectDBX Classes
 90
     1153
280
     0
281
     0
  0
CLASS
  1
TABLESTYLE
  2
AcDbTableStyle
  3
ObjectDBX Classes
 90
     4095
280
     0
281
     0
  0
CLASS
  1
MLEADERSTYLE
  2
AcDbMLeaderStyle
  3
ACDB_MLEADERSTYLE_CLASS
 90
     4095
280
     0
281
     0
  0
CLASS
  1
SUN
  2
AcDbSun
  3
SCENEOE
 90
     1153
280
     0
281
     0
  0
CLASS
  1
XRECORD
  2
AcDbXrecord
  3
ObjectDBX Classes
 90
    32768
280
     0
281
     0
  0
ENDSEC
  0
SECTION
  2
TABLES
  0
TABLE
  2
VPORT
  5
8
330
0
100
AcDbSymbolTable
 70
     1
  0
VPORT
  5
29
330
8
100
AcDbSymbolTableRecord
100
AcDbViewportTableRecord
  2
*ACTIVE
 70
     0
 10
0.0
 20
0.0
 11
1.0
 21
1.0
 12
350.0
 22
350.0
 13
0.0
 23
0.0
 14
10.0
 24
10.0
 15
10.0
 25
10.0
 16
0.0
 26
0.0
 36
1.0
 17
0.0
 27
0.0
 37
0.0
 40
700.0
 41
1.0
 42
50.0
 43
0.0
 44
0.0
 50
0.0
 51
0.0
 71
     0
 72
  2000
 73
     1
 74
     3
 75
     0
 76
     0
 77
     0
 78
     0
  0
ENDTAB
  0
TABLE
  2
LTYPE
  5
5
330
0
100
AcDbSymbolTable
 70
     8
  0
LTYPE
  5
14
330
5
100
AcDbSymbolTableRecord
100
AcDbLinetypeTableRecord
  2
BYBLOCK
 70
     0
  3

 72
    65
 73
     0
 40
0.0
  0
LTYPE
  5
15
330
5
100
AcDbSymbolTableRecord
100
AcDbLinetypeTableRecord
  2
BYLAYER
 70
     0
  3

 72
    65
 73
     0
 40
0.0
  0
LTYPE
  5
16
330
5
100
AcDbSymbolTableRecord
100
AcDbLinetypeTableRecord
  2
CONTINUOUS
 70
     0
  3
Solid line
 72
    65
 73
     0
 40
0.0
  0
LTYPE
  5
6E
330
5
100
AcDbSymbolTableRecord
100
AcDbLinetypeTableRecord
  2
SLD-CONTINUA
 70
     0
  3
SolidWorks Line Style
 72
    65
 73
     0
 40
0.0
  0
LTYPE
  5
6F
330
5
100
AcDbSymbolTableRecord
100
AcDbLinetypeTableRecord
  2
SLD-DISCONTINUA
 70
     0
  3
SolidWorks Line Style
 72
    65
 73
     2
 40
1.905
 49
1.27
 74
     0
 49
-0.635
 74
     0
  0
LTYPE
  5
70
330
5
100
AcDbSymbolTableRecord
100
AcDbLinetypeTableRecord
  2
SLD-CENTRADA-DOBLE
 70
     0
  3
SolidWorks Line Style
 72
    65
 73
     6
 40
12.7
 49
6.35
 74
     0
 49
-1.27
 74
     0
 49
1.27
 74
     0
 49
-1.27
 74
     0
 49
1.27
 74
     0
 49
-1.27
 74
     0
  0
LTYPE
  5
71
330
5
100
AcDbSymbolTableRecord
100
AcDbLinetypeTableRecord
  2
SLD-CENTRADA-SIMPLE
 70
     0
  3
SolidWorks Line Style
 72
    65
 73
     4
 40
10.16
 49
6.35
 74
     0
 49
-1.27
 74
     0
 49
1.27
 74
     0
 49
-1.27
 74
     0
  0
LTYPE
  5
72
330
5
100
AcDbSymbolTableRecord
100
AcDbLinetypeTableRecord
  2
SLD-CENTRADA-TRAZOS-LARGOS
 70
     0
  3
SolidWorks Line Style
 72
    65
 73
     4
 40
19.05
 49
15.24
 74
     0
 49
-1.27
 74
     0
 49
1.27
 74
     0
 49
-1.27
 74
     0
  0
LTYPE
  5
73
330
5
100
AcDbSymbolTableRecord
100
AcDbLinetypeTableRecord
  2
SLD-PUNTOS
 70
     0
  3
SolidWorks Line Style
 72
    65
 73
     2
 40
0.635
 49
0.0
 74
     0
 49
-0.635
 74
     0
  0
LTYPE
  5
74
330
5
100
AcDbSymbolTableRecord
100
AcDbLinetypeTableRecord
  2
SLD-DELGADA-GRUESA
 70
     0
  3
SolidWorks Line Style
 72
    65
 73
     4
 40
10.16
 49
6.35
 74
     0
 49
-1.27
 74
     0
 49
1.27
 74
     0
 49
-1.27
 74
     0
  0
ENDTAB
  0
TABLE
  2
LAYER
  5
2
330
0
100
AcDbSymbolTable
 70
     1
  0
LAYER
  5
10
330
2
100
AcDbSymbolTableRecord
100
AcDbLayerTableRecord
  2
0
 70
     0
 62
     7
  6
CONTINUOUS
  0
ENDTAB
  0
TABLE
  2
STYLE
  5
3
330
0
100
AcDbSymbolTable
 70
     1
  0
STYLE
  5
11
330
3
100
AcDbSymbolTableRecord
100
AcDbTextStyleTableRecord
  2
STANDARD
 70
     0
 40
0.0
 41
1.0
 50
0.0
 71
     0
 42
3.5
  3
txt
  4

  0
ENDTAB
  0
TABLE
  2
VIEW
  5
6
330
0
100
AcDbSymbolTable
 70
     0
  0
ENDTAB
  0
TABLE
  2
UCS
  5
7
330
0
100
AcDbSymbolTable
 70
     0
  0
ENDTAB
  0
TABLE
  2
APPID
  5
9
330
0
100
AcDbSymbolTable
 70
     1
  0
APPID
  5
12
330
9
100
AcDbSymbolTableRecord
100
AcDbRegAppTableRecord
  2
ACAD
 70
     0
  0
ENDTAB
  0
TABLE
  2
DIMSTYLE
  5
A
330
0
100
AcDbSymbolTable
 70
     1
  0
DIMSTYLE
105
27
330
A
100
AcDbSymbolTableRecord
100
AcDbDimStyleTableRecord
  2
ISO-25
 70
     0
  3

  4

  5

  6

  7

 40
1.0
 41
2.5
 42
0.625
 43
3.75
 44
1.25
 45
0.0
 46
0.0
 47
0.0
 48
0.0
140
2.5
141
2.5
142
0.0
143
0.0393700787
144
1.0
145
0.0
146
1.0
147
0.625
 71
     0
 72
     0
 73
     0
 74
     0
 75
     0
 76
     0
 77
     1
 78
     8
170
     0
171
     3
172
     1
173
     0
174
     0
175
     0
176
     0
177
     0
178
     0
270
     2
271
     2
272
     2
273
     2
274
     3
340
11
275
     0
280
     0
281
     0
282
     0
283
     0
284
     8
285
     0
286
     0
287
     3
288
     0
  0
ENDTAB
  0
TABLE
  2
BLOCK_RECORD
  5
1
330
0
100
AcDbSymbolTable
 70
     1
  0
BLOCK_RECORD
  5
1F
330
1
100
AcDbSymbolTableRecord
100
AcDbBlockTableRecord
  2
*MODEL_SPACE
  0
BLOCK_RECORD
  5
1B
330
1
100
AcDbSymbolTableRecord
100
AcDbBlockTableRecord
  2
*PAPER_SPACE
  0
BLOCK_RECORD
  5
23
330
1
100
AcDbSymbolTableRecord
100
AcDbBlockTableRecord
  2
*PAPER_SPACE0
  0
ENDTAB
  0
ENDSEC
  0
SECTION
  2
BLOCKS
  0
BLOCK
  5
20
330
1F
100
AcDbEntity
  8
0
100
AcDbBlockBegin
  2
*MODEL_SPACE
 70
     0
 10
0.0
 20
0.0
 30
0.0
  3
*MODEL_SPACE
  1

  0
ENDBLK
  5
21
330
1F
100
AcDbEntity
  8
0
100
AcDbBlockEnd
  0
BLOCK
  5
1C
330
1B
100
AcDbEntity
 67
     1
  8
0
100
AcDbBlockBegin
  2
*PAPER_SPACE
 70
     0
 10
0.0
 20
0.0
 30
0.0
  3
*PAPER_SPACE
  1

  0
ENDBLK
  5
1D
330
1B
100
AcDbEntity
 67
     1
  8
0
100
AcDbBlockEnd
  0
BLOCK
  5
24
330
23
100
AcDbEntity
  8
0
100
AcDbBlockBegin
  2
*PAPER_SPACE0
 70
     0
 10
0.0
 20
0.0
 30
0.0
  3
*PAPER_SPACE0
  1

  0
ENDBLK
  5
25
330
23
100
AcDbEntity
  8
0
100
AcDbBlockEnd
  0
ENDSEC
  0
SECTION
  2
ENTITIES
  0
LINE
  5
75
330
1F
100
AcDbEntity
  8
0
  6
SLD-CONTINUA
 62
     7
100
AcDbLine
 10
434.0681239623
 20
451.7574711036
 30
0.0
 11
434.0681239623
 21
447.6574613046
 31
0.0
  0
LINE
  5
76
330
1F
100
AcDbEntity
  8
0
  6
SLD-CONTINUA
 62
     7
100
AcDbLine
 10
442.4681320447
 20
451.7574711036
 30
0.0
 11
434.0681239623
 21
451.7574711036
 31
0.0
  0
ARC
  5
77
330
1F
100
AcDbEntity
  8
0
  6
SLD-CONTINUA
 62
     7
100
AcDbCircle
 10
443.4681313295
 20
451.7574681234
 30
0.0
 40
1.0
100
AcDbArc
 50
180.0
 51
0.0
  0
LINE
  5
78
330
1F
100
AcDbEntity
  8
0
  6
SLD-CONTINUA
 62
     7
100
AcDbLine
 10
444.4681360978
 20
459.7574724149
 30
0.0
 11
444.4681360978
 21
451.7574711036
 31
0.0
  0
LINE
  5
79
330
1F
100
AcDbEntity
  8
0
  6
SLD-CONTINUA
 62
     7
100
AcDbLine
 10
446.4681252498
 20
461.7574615668
 30
0.0
 11
444.4681360978
 21
459.7574724149
 31
0.0
  0
LINE
  5
7A
330
1F
100
AcDbEntity
  8
0
  6
SLD-CONTINUA
 62
     7
100
AcDbLine
 10
467.4681380052
 20
461.7574615668
 30
0.0
 11
446.4681252498
 21
461.7574615668
 31
0.0
  0
LINE
  5
7B
330
1F
100
AcDbEntity
  8
0
  6
SLD-CONTINUA
 62
     7
100
AcDbLine
 10
469.4681420583
 20
459.7574724149
 30
0.0
 11
467.4681380052
 21
461.7574615668
 31
0.0
  0
LINE
  5
7C
330
1F
100
AcDbEntity
  8
0
  6
SLD-CONTINUA
 62
     7
100
AcDbLine
 10
469.4681420583
 20
459.7574724149
 30
0.0
 11
469.4681420583
 21
451.7574711036
 31
0.0
  0
ARC
  5
7D
330
1F
100
AcDbEntity
  8
0
  6
SLD-CONTINUA
 62
     7
100
AcDbCircle
 10
470.4681313295
 20
451.7574681234
 30
0.0
 40
1.0
100
AcDbArc
 50
180.0
 51
0.0
  0
LINE
  5
7E
330
1F
100
AcDbEntity
  8
0
  6
SLD-CONTINUA
 62
     7
100
AcDbLine
 10
494.4681182164
 20
451.7574711036
 30
0.0
 11
471.4681461114
 21
451.7574711036
 31
0.0
  0
LINE
  5
7F
330
1F
100
AcDbEntity
  8
0
  6
SLD-CONTINUA
 62
     7
100
AcDbLine
 10
494.4681182164
 20
251.7574681234
 30
0.0
 11
494.4681182164
 21
451.7574711036
 31
0.0
  0
LINE
  5
80
330
1F
100
AcDbEntity
  8
0
  6
SLD-CONTINUA
 62
     7
100
AcDbLine
 10
426.4681294221
 20
251.7574681234
 30
0.0
 11
494.4681182164
 21
251.7574681234
 31
0.0
  0
ARC
  5
81
330
1F
100
AcDbEntity
  8
0
  6
SLD-CONTINUA
 62
     7
100
AcDbCircle
 10
425.4681313295
 20
251.7574681234
 30
0.0
 40
1.0
100
AcDbArc
 50
0.0
 51
180.0
  0
LINE
  5
82
330
1F
100
AcDbEntity
  8
0
  6
SLD-CONTINUA
 62
     7
100
AcDbLine
 10
424.468125369
 20
243.7574677434
 30
0.0
 11
424.468125369
 21
251.7574681234
 31
0.0
  0
LINE
  5
83
330
1F
100
AcDbEntity
  8
0
  6
SLD-CONTINUA
 62
     7
100
AcDbLine
 10
422.468136217
 20
241.7574683469
 30
0.0
 11
424.468125369
 21
243.7574677434
 31
0.0
  0
LINE
  5
84
330
1F
100
AcDbEntity
  8
0
  6
SLD-CONTINUA
 62
     7
100
AcDbLine
 10
386.4681377668
 20
241.7574683469
 30
0.0
 11
422.468136217
 21
241.7574683469
 31
0.0
  0
LINE
  5
85
330
1F
100
AcDbEntity
  8
0
  6
SLD-CONTINUA
 62
     7
100
AcDbLine
 10
384.4681337136
 20
243.7574677434
 30
0.0
 11
386.4681377668
 21
241.7574683469
 31
0.0
  0
LINE
  5
86
330
1F
100
AcDbEntity
  8
0
  6
SLD-CONTINUA
 62
     7
100
AcDbLine
 10
384.4681337136
 20
243.7574677434
 30
0.0
 11
384.4681337136
 21
251.7574681234
 31
0.0
  0
ARC
  5
87
330
1F
100
AcDbEntity
  8
0
  6
SLD-CONTINUA
 62
     7
100
AcDbCircle
 10
383.4681313295
 20
251.7574681234
 30
0.0
 40
1.0
100
AcDbArc
 50
0.0
 51
180.0
  0
LINE
  5
88
330
1F
100
AcDbEntity
  8
0
  6
SLD-CONTINUA
 62
     7
100
AcDbLine
 10
311.4681347865
 20
251.7574681234
 30
0.0
 11
382.4681296605
 21
251.7574681234
 31
0.0
  0
ARC
  5
89
330
1F
100
AcDbEntity
  8
0
  6
SLD-CONTINUA
 62
     7
100
AcDbCircle
 10
310.4681313295
 20
251.7574681234
 30
0.0
 40
1.0
100
AcDbArc
 50
0.0
 51
180.0
  0
LINE
  5
8A
330
1F
100
AcDbEntity
  8
0
  6
SLD-CONTINUA
 62
     7
100
AcDbLine
 10
309.4681307334
 20
243.7574677434
 30
0.0
 11
309.4681307334
 21
251.7574681234
 31
0.0
  0
LINE
  5
8B
330
1F
100
AcDbEntity
  8
0
  6
SLD-CONTINUA
 62
     7
100
AcDbLine
 10
307.4681341309
 20
241.7574683469
 30
0.0
 11
309.4681307334
 21
243.7574677434
 31
0.0
  0
LINE
  5
8C
330
1F
100
AcDbEntity
  8
0
  6
SLD-CONTINUA
 62
     7
100
AcDbLine
 10
271.46812823
 20
241.7574683469
 30
0.0
 11
307.4681341309
 21
241.7574683469
 31
0.0
  0
LINE
  5
8D
330
1F
100
AcDbEntity
  8
0
  6
SLD-CONTINUA
 62
     7
100
AcDbLine
 10
269.4681316275
 20
243.7574677434
 30
0.0
 11
271.46812823
 21
241.7574683469
 31
0.0
  0
LINE
  5
8E
330
1F
100
AcDbEntity
  8
0
  6
SLD-CONTINUA
 62
     7
100
AcDbLine
 10
269.4681316275
 20
243.7574677434
 30
0.0
 11
269.4681316275
 21
251.7574681234
 31
0.0
  0
ARC
  5
8F
330
1F
100
AcDbEntity
  8
0
  6
SLD-CONTINUA
 62
     7
100
AcDbCircle
 10
268.4681313295
 20
251.7574681234
 30
0.0
 40
1.0
100
AcDbArc
 50
0.0
 51
180.0
  0
LINE
  5
90
330
1F
100
AcDbEntity
  8
0
  6
SLD-CONTINUA
 62
     7
100
AcDbLine
 10
199.4681313295
 20
251.7574681234
 30
0.0
 11
267.4681350249
 21
251.7574681234
 31
0.0
  0
LINE
  5
91
330
1F
100
AcDbEntity
  8
0
  6
SLD-CONTINUA
 62
     7
100
AcDbLine
 10
199.4681313295
 20
451.7574711036
 30
0.0
 11
199.4681313295
 21
251.7574681234
 31
0.0
  0
LINE
  5
92
330
1F
100
AcDbEntity
  8
0
  6
SLD-CONTINUA
 62
     7
100
AcDbLine
 10
222.4681313742
 20
451.7574711036
 30
0.0
 11
199.4681313295
 21
451.7574711036
 31
0.0
  0
ARC
  5
93
330
1F
100
AcDbEntity
  8
0
  6
SLD-CONTINUA
 62
     7
100
AcDbCircle
 10
223.4681313295
 20
451.7574681234
 30
0.0
 40
1.0
100
AcDbArc
 50
180.0
 51
0.0
  0
LINE
  5
94
330
1F
100
AcDbEntity
  8
0
  6
SLD-CONTINUA
 62
     7
100
AcDbLine
 10
224.468131702
 20
459.7574724149
 30
0.0
 11
224.468131702
 21
451.7574711036
 31
0.0
  0
LINE
  5
95
330
1F
100
AcDbEntity
  8
0
  6
SLD-CONTINUA
 62
     7
100
AcDbLine
 10
226.4681320298
 20
461.7574615668
 30
0.0
 11
224.468131702
 21
459.7574724149
 31
0.0
  0
LINE
  5
96
330
1F
100
AcDbEntity
  8
0
  6
SLD-CONTINUA
 62
     7
100
AcDbLine
 10
247.4681317467
 20
461.7574615668
 30
0.0
 11
226.4681320298
 21
461.7574615668
 31
0.0
  0
LINE
  5
97
330
1F
100
AcDbEntity
  8
0
  6
SLD-CONTINUA
 62
     7
100
AcDbLine
 10
249.4681320745
 20
459.7574724149
 30
0.0
 11
247.4681317467
 21
461.7574615668
 31
0.0
  0
LINE
  5
98
330
1F
100
AcDbEntity
  8
0
  6
SLD-CONTINUA
 62
     7
100
AcDbLine
 10
249.4681320745
 20
459.7574724149
 30
0.0
 11
249.4681320745
 21
451.7574711036
 31
0.0
  0
ARC
  5
99
330
1F
100
AcDbEntity
  8
0
  6
SLD-CONTINUA
 62
     7
100
AcDbCircle
 10
250.4681313295
 20
451.7574681234
 30
0.0
 40
1.000000000000028
100
AcDbArc
 50
180.0
 51
0.0
  0
LINE
  5
9A
330
1F
100
AcDbEntity
  8
0
  6
SLD-CONTINUA
 62
     7
100
AcDbLine
 10
259.8681330341
 20
451.7574711036
 30
0.0
 11
251.4681324023
 21
451.7574711036
 31
0.0
  0
LINE
  5
9B
330
1F
100
AcDbEntity
  8
0
  6
SLD-CONTINUA
 62
     7
100
AcDbLine
 10
259.8681330341
 20
447.6574613046
 30
0.0
 11
259.8681330341
 21
451.7574711036
 31
0.0
  0
ARC
  5
9C
330
1F
100
AcDbEntity
  8
0
  6
SLD-CONTINUA
 62
     7
100
AcDbCircle
 10
259.8681313295
 20
446.6574681234
 30
0.0
 40
1.0
100
AcDbArc
 50
90.0
 51
0.0
  0
LINE
  5
9D
330
1F
100
AcDbEntity
  8
0
  6
SLD-CONTINUA
 62
     7
100
AcDbLine
 10
279.0681302208
 20
446.6574741792
 30
0.0
 11
260.8681313354
 21
446.6574741792
 31
0.0
  0
ARC
  5
9E
330
1F
100
AcDbEntity
  8
0
  6
SLD-CONTINUA
 62
     7
100
AcDbCircle
 10
280.0681313295
 20
446.6574681234
 30
0.0
 40
1.0
100
AcDbArc
 50
180.0
 51
90.0
  0
LINE
  5
9F
330
1F
100
AcDbEntity
  8
0
  6
SLD-CONTINUA
 62
     7
100
AcDbLine
 10
280.0681322474
 20
451.7574711036
 30
0.0
 11
280.0681322474
 21
447.6574613046
 31
0.0
  0
LINE
  5
A0
330
1F
100
AcDbEntity
  8
0
  6
SLD-CONTINUA
 62
     7
100
AcDbLine
 10
295.8014636892
 20
451.7574711036
 30
0.0
 11
280.0681322474
 21
451.7574711036
 31
0.0
  0
ARC
  5
A1
330
1F
100
AcDbEntity
  8
0
  6
SLD-CONTINUA
 62
     7
100
AcDbCircle
 10
296.8014646628
 20
451.7574681234
 30
0.0
 40
1.0
100
AcDbArc
 50
180.0
 51
0.0
  0
LINE
  5
A2
330
1F
100
AcDbEntity
  8
0
  6
SLD-CONTINUA
 62
     7
100
AcDbLine
 10
297.8014677424
 20
459.7574724149
 30
0.0
 11
297.8014677424
 21
451.7574711036
 31
0.0
  0
LINE
  5
A3
330
1F
100
AcDbEntity
  8
0
  6
SLD-CONTINUA
 62
     7
100
AcDbLine
 10
299.8014643449
 20
461.7574615668
 30
0.0
 11
297.8014677424
 21
459.7574724149
 31
0.0
  0
LINE
  5
A4
330
1F
100
AcDbEntity
  8
0
  6
SLD-CONTINUA
 62
     7
100
AcDbLine
 10
320.8014621991
 20
461.7574615668
 30
0.0
 11
299.8014643449
 21
461.7574615668
 31
0.0
  0
LINE
  5
A5
330
1F
100
AcDbEntity
  8
0
  6
SLD-CONTINUA
 62
     7
100
AcDbLine
 10
322.8014662522
 20
459.7574724149
 30
0.0
 11
320.8014621991
 21
461.7574615668
 31
0.0
  0
LINE
  5
A6
330
1F
100
AcDbEntity
  8
0
  6
SLD-CONTINUA
 62
     7
100
AcDbLine
 10
322.8014662522
 20
459.7574724149
 30
0.0
 11
322.8014662522
 21
451.7574711036
 31
0.0
  0
ARC
  5
A7
330
1F
100
AcDbEntity
  8
0
  6
SLD-CONTINUA
 62
     7
100
AcDbCircle
 10
323.8014646628
 20
451.7574681234
 30
0.0
 40
1.0
100
AcDbArc
 50
180.0
 51
0.0
  0
LINE
  5
A8
330
1F
100
AcDbEntity
  8
0
  6
SLD-CONTINUA
 62
     7
100
AcDbLine
 10
336.8681326169
 20
451.7574711036
 30
0.0
 11
324.8014703054
 21
451.7574711036
 31
0.0
  0
LINE
  5
A9
330
1F
100
AcDbEntity
  8
0
  6
SLD-CONTINUA
 62
     7
100
AcDbLine
 10
336.8681326169
 20
447.6574613046
 30
0.0
 11
336.8681326169
 21
451.7574711036
 31
0.0
  0
ARC
  5
AA
330
1F
100
AcDbEntity
  8
0
  6
SLD-CONTINUA
 62
     7
100
AcDbCircle
 10
336.8681313295
 20
446.6574681234
 30
0.0
 40
1.0
100
AcDbArc
 50
90.0
 51
0.0
  0
LINE
  5
AB
330
1F
100
AcDbEntity
  8
0
  6
SLD-CONTINUA
 62
     7
100
AcDbLine
 10
356.0681298036
 20
446.6574741792
 30
0.0
 11
337.8681346435
 21
446.6574741792
 31
0.0
  0
ARC
  5
AC
330
1F
100
AcDbEntity
  8
0
  6
SLD-CONTINUA
 62
     7
100
AcDbCircle
 10
357.0681313295
 20
446.6574681234
 30
0.0
 40
1.0
100
AcDbArc
 50
180.0
 51
90.0
  0
LINE
  5
AD
330
1F
100
AcDbEntity
  8
0
  6
SLD-CONTINUA
 62
     7
100
AcDbLine
 10
357.0681318301
 20
451.7574711036
 30
0.0
 11
357.0681318301
 21
447.6574613046
 31
0.0
  0
LINE
  5
AE
330
1F
100
AcDbEntity
  8
0
  6
SLD-CONTINUA
 62
     7
100
AcDbLine
 10
369.1347941417
 20
451.7574711036
 30
0.0
 11
357.0681318301
 21
451.7574711036
 31
0.0
  0
ARC
  5
AF
330
1F
100
AcDbEntity
  8
0
  6
SLD-CONTINUA
 62
     7
100
AcDbCircle
 10
370.1347979961
 20
451.7574681234
 30
0.0
 40
1.0
100
AcDbArc
 50
180.0
 51
0.0
  0
LINE
  5
B0
330
1F
100
AcDbEntity
  8
0
  6
SLD-CONTINUA
 62
     7
100
AcDbLine
 10
371.1347981948
 20
459.7574724149
 30
0.0
 11
371.1347981948
 21
451.7574711036
 31
0.0
  0
LINE
  5
B1
330
1F
100
AcDbEntity
  8
0
  6
SLD-CONTINUA
 62
     7
100
AcDbLine
 10
373.1348022479
 20
461.7574615668
 30
0.0
 11
371.1347981948
 21
459.7574724149
 31
0.0
  0
LINE
  5
B2
330
1F
100
AcDbEntity
  8
0
  6
SLD-CONTINUA
 62
     7
100
AcDbLine
 10
394.1348001022
 20
461.7574615668
 30
0.0
 11
373.1348022479
 21
461.7574615668
 31
0.0
  0
LINE
  5
B3
330
1F
100
AcDbEntity
  8
0
  6
SLD-CONTINUA
 62
     7
100
AcDbLine
 10
396.1348041553
 20
459.7574724149
 30
0.0
 11
394.1348001022
 21
461.7574615668
 31
0.0
  0
LINE
  5
B4
330
1F
100
AcDbEntity
  8
0
  6
SLD-CONTINUA
 62
     7
100
AcDbLine
 10
396.1348041553
 20
459.7574724149
 30
0.0
 11
396.1348041553
 21
451.7574711036
 31
0.0
  0
ARC
  5
B5
330
1F
100
AcDbEntity
  8
0
  6
SLD-CONTINUA
 62
     7
100
AcDbCircle
 10
397.1347979961
 20
451.7574681234
 30
0.0
 40
1.0
100
AcDbArc
 50
180.0
 51
0.0
  0
LINE
  5
B6
330
1F
100
AcDbEntity
  8
0
  6
SLD-CONTINUA
 62
     7
100
AcDbLine
 10
413.8681247491
 20
451.7574711036
 30
0.0
 11
398.1347933072
 21
451.7574711036
 31
0.0
  0
LINE
  5
B7
330
1F
100
AcDbEntity
  8
0
  6
SLD-CONTINUA
 62
     7
100
AcDbLine
 10
413.8681247491
 20
447.6574613046
 30
0.0
 11
413.8681247491
 21
451.7574711036
 31
0.0
  0
ARC
  5
B8
330
1F
100
AcDbEntity
  8
0
  6
SLD-CONTINUA
 62
     7
100
AcDbCircle
 10
413.8681313295
 20
446.6574681234
 30
0.0
 40
1.0
100
AcDbArc
 50
90.0
 51
0.0
  0
LINE
  5
B9
330
1F
100
AcDbEntity
  8
0
  6
SLD-CONTINUA
 62
     7
100
AcDbLine
 10
433.0681368369
 20
446.6574741792
 30
0.0
 11
414.8681267757
 21
446.6574741792
 31
0.0
  0
ARC
  5
BA
330
1F
100
AcDbEntity
  8
0
  6
SLD-CONTINUA
 62
     7
100
AcDbCircle
 10
434.0681313295
 20
446.6574681234
 30
0.0
 40
1.0
100
AcDbArc
 50
180.0
 51
90.0
  0
LINE
  5
BB
330
1F
100
AcDbEntity
  8
0
  6
SLD-CONTINUA
 62
     7
100
AcDbLine
 10
484.0181424874
 20
271.7074686926
 30
0.0
 11
475.9181394834
 21
271.7074686926
 31
0.0
  0
ARC
  5
BC
330
1F
100
AcDbEntity
  8
0
  6
SLD-CONTINUA
 62
     7
100
AcDbCircle
 10
485.0181313295
 20
271.7074681234
 30
0.0
 40
1.0
100
AcDbArc
 50
180.0
 51
90.0
  0
LINE
  5
BD
330
1F
100
AcDbEntity
  8
0
  6
SLD-CONTINUA
 62
     7
100
AcDbLine
 10
485.0181296128
 20
305.8074666452
 30
0.0
 11
485.0181296128
 21
272.7074688565
 31
0.0
  0
ARC
  5
BE
330
1F
100
AcDbEntity
  8
0
  6
SLD-CONTINUA
 62
     7
100
AcDbCircle
 10
485.0181313295
 20
306.8074681234
 30
0.0
 40
1.0
100
AcDbArc
 50
270.0
 51
180.0
  0
LINE
  5
BF
330
1F
100
AcDbEntity
  8
0
  6
SLD-CONTINUA
 62
     7
100
AcDbLine
 10
475.9181394834
 20
306.8074686717
 30
0.0
 11
484.0181424874
 21
306.8074686717
 31
0.0
  0
ARC
  5
C0
330
1F
100
AcDbEntity
  8
0
  6
SLD-CONTINUA
 62
     7
100
AcDbCircle
 10
474.9181313295
 20
306.8074681234
 30
0.0
 40
1.0
100
AcDbArc
 50
0.0
 51
270.0
  0
LINE
  5
C1
330
1F
100
AcDbEntity
  8
0
  6
SLD-CONTINUA
 62
     7
100
AcDbLine
 10
474.9181225557
 20
272.7074688565
 30
0.0
 11
474.9181225557
 21
305.8074666452
 31
0.0
  0
ARC
  5
C2
330
1F
100
AcDbEntity
  8
0
  6
SLD-CONTINUA
 62
     7
100
AcDbCircle
 10
474.9181313295
 20
271.7074681234
 30
0.0
 40
1.0
100
AcDbArc
 50
90.0
 51
0.0
  0
LINE
  5
C3
330
1F
100
AcDbEntity
  8
0
  6
SLD-CONTINUA
 62
     7
100
AcDbLine
 10
474.9181225557
 20
335.2074651312
 30
0.0
 11
474.9181225557
 21
368.3074666452
 31
0.0
  0
ARC
  5
C4
330
1F
100
AcDbEntity
  8
0
  6
SLD-CONTINUA
 62
     7
100
AcDbCircle
 10
474.9181313295
 20
334.2074681234
 30
0.0
 40
1.0
100
AcDbArc
 50
90.0
 51
0.0
  0
LINE
  5
C5
330
1F
100
AcDbEntity
  8
0
  6
SLD-CONTINUA
 62
     7
100
AcDbLine
 10
484.0181424874
 20
334.2074705552
 30
0.0
 11
475.9181394834
 21
334.2074705552
 31
0.0
  0
ARC
  5
C6
330
1F
100
AcDbEntity
  8
0
  6
SLD-CONTINUA
 62
     7
100
AcDbCircle
 10
485.0181313295
 20
334.2074681234
 30
0.0
 40
1.0
100
AcDbArc
 50
180.0
 51
90.0
  0
LINE
  5
C7
330
1F
100
AcDbEntity
  8
0
  6
SLD-CONTINUA
 62
     7
100
AcDbLine
 10
485.0181296128
 20
368.3074666452
 30
0.0
 11
485.0181296128
 21
335.2074651312
 31
0.0
  0
ARC
  5
C8
330
1F
100
AcDbEntity
  8
0
  6
SLD-CONTINUA
 62
     7
100
AcDbCircle
 10
485.0181313295
 20
369.3074681234
 30
0.0
 40
1.0
100
AcDbArc
 50
270.0
 51
180.0
  0
LINE
  5
C9
330
1F
100
AcDbEntity
  8
0
  6
SLD-CONTINUA
 62
     7
100
AcDbLine
 10
475.9181394834
 20
369.3074686717
 30
0.0
 11
484.0181424874
 21
369.3074686717
 31
0.0
  0
ARC
  5
CA
330
1F
100
AcDbEntity
  8
0
  6
SLD-CONTINUA
 62
     7
100
AcDbCircle
 10
474.9181313295
 20
369.3074681234
 30
0.0
 40
1.0
100
AcDbArc
 50
0.0
 51
270.0
  0
LINE
  5
CB
330
1F
100
AcDbEntity
  8
0
  6
SLD-CONTINUA
 62
     7
100
AcDbLine
 10
219.0181307155
 20
368.3074666452
 30
0.0
 11
219.0181307155
 21
335.2074651312
 31
0.0
  0
ARC
  5
CC
330
1F
100
AcDbEntity
  8
0
  6
SLD-CONTINUA
 62
     7
100
AcDbCircle
 10
219.0181313295
 20
369.3074681234
 30
0.0
 40
1.0
100
AcDbArc
 50
270.0
 51
180.0
  0
LINE
  5
CD
330
1F
100
AcDbEntity
  8
0
  6
SLD-CONTINUA
 62
     7
100
AcDbLine
 10
209.9181312728
 20
369.3074686717
 30
0.0
 11
218.0181305516
 21
369.3074686717
 31
0.0
  0
ARC
  5
CE
330
1F
100
AcDbEntity
  8
0
  6
SLD-CONTINUA
 62
     7
100
AcDbCircle
 10
208.9181313295
 20
369.3074681234
 30
0.0
 40
1.0
100
AcDbArc
 50
0.0
 51
270.0
  0
LINE
  5
CF
330
1F
100
AcDbEntity
  8
0
  6
SLD-CONTINUA
 62
     7
100
AcDbLine
 10
208.9181311089
 20
335.2074651312
 30
0.0
 11
208.9181311089
 21
368.3074666452
 31
0.0
  0
ARC
  5
D0
330
1F
100
AcDbEntity
  8
0
  6
SLD-CONTINUA
 62
     7
100
AcDbCircle
 10
208.9181313295
 20
334.2074681234
 30
0.0
 40
1.0
100
AcDbArc
 50
90.0
 51
0.0
  0
LINE
  5
D1
330
1F
100
AcDbEntity
  8
0
  6
SLD-CONTINUA
 62
     7
100
AcDbLine
 10
218.0181305516
 20
334.2074705552
 30
0.0
 11
209.9181312728
 21
334.2074705552
 31
0.0
  0
ARC
  5
D2
330
1F
100
AcDbEntity
  8
0
  6
SLD-CONTINUA
 62
     7
100
AcDbCircle
 10
219.0181313295
 20
334.2074681234
 30
0.0
 40
1.0
100
AcDbArc
 50
180.0
 51
90.0
  0
CIRCLE
  5
D3
330
1F
100
AcDbEntity
  8
0
  6
SLD-CONTINUA
 62
     7
100
AcDbCircle
 10
289.9681313295
 20
425.7574681234
 30
0.0
 40
7.0
  0
CIRCLE
  5
D4
330
1F
100
AcDbEntity
  8
0
  6
SLD-CONTINUA
 62
     7
100
AcDbCircle
 10
403.9681313295
 20
425.7574681234
 30
0.0
 40
7.0
  0
CIRCLE
  5
D5
330
1F
100
AcDbEntity
  8
0
  6
SLD-CONTINUA
 62
     7
100
AcDbCircle
 10
403.9681313295
 20
277.7574681234
 30
0.0
 40
7.0
  0
CIRCLE
  5
D6
330
1F
100
AcDbEntity
  8
0
  6
SLD-CONTINUA
 62
     7
100
AcDbCircle
 10
289.9681313295
 20
277.7574681234
 30
0.0
 40
7.0
  0
CIRCLE
  5
D7
330
1F
100
AcDbEntity
  8
0
  6
SLD-CONTINUA
 62
     7
100
AcDbCircle
 10
289.9681313295
 20
351.7574681234
 30
0.0
 40
34.99999999999994
  0
CIRCLE
  5
D8
330
1F
100
AcDbEntity
  8
0
  6
SLD-CONTINUA
 62
     7
100
AcDbCircle
 10
403.9681313295
 20
351.7574681234
 30
0.0
 40
35.00000000000017
  0
LINE
  5
D9
330
1F
100
AcDbEntity
  8
0
  6
SLD-CONTINUA
 62
     7
100
AcDbLine
 10
208.9181311089
 20
397.7074725818
 30
0.0
 11
208.9181311089
 21
430.8074666452
 31
0.0
  0
ARC
  5
DA
330
1F
100
AcDbEntity
  8
0
  6
SLD-CONTINUA
 62
     7
100
AcDbCircle
 10
208.9181313295
 20
396.7074681234
 30
0.0
 40
1.0
100
AcDbArc
 50
90.0
 51
0.0
  0
LINE
  5
DB
330
1F
100
AcDbEntity
  8
0
  6
SLD-CONTINUA
 62
     7
100
AcDbLine
 10
218.0181305516
 20
396.7074705552
 30
0.0
 11
209.9181312728
 21
396.7074705552
 31
0.0
  0
ARC
  5
DC
330
1F
100
AcDbEntity
  8
0
  6
SLD-CONTINUA
 62
     7
100
AcDbCircle
 10
219.0181313295
 20
396.7074681234
 30
0.0
 40
1.0
100
AcDbArc
 50
180.0
 51
90.0
  0
LINE
  5
DD
330
1F
100
AcDbEntity
  8
0
  6
SLD-CONTINUA
 62
     7
100
AcDbLine
 10
219.0181307155
 20
430.8074666452
 30
0.0
 11
219.0181307155
 21
397.7074725818
 31
0.0
  0
ARC
  5
DE
330
1F
100
AcDbEntity
  8
0
  6
SLD-CONTINUA
 62
     7
100
AcDbCircle
 10
219.0181313295
 20
431.8074681234
 30
0.0
 40
1.0
100
AcDbArc
 50
270.0
 51
180.0
  0
LINE
  5
DF
330
1F
100
AcDbEntity
  8
0
  6
SLD-CONTINUA
 62
     7
100
AcDbLine
 10
209.9181312728
 20
431.8074686717
 30
0.0
 11
218.0181305516
 21
431.8074686717
 31
0.0
  0
ARC
  5
E0
330
1F
100
AcDbEntity
  8
0
  6
SLD-CONTINUA
 62
     7
100
AcDbCircle
 10
208.9181313295
 20
431.8074681234
 30
0.0
 40
1.000000000000028
100
AcDbArc
 50
360.0
 51
270.0
  0
LINE
  5
E1
330
1F
100
AcDbEntity
  8
0
  6
SLD-CONTINUA
 62
     7
100
AcDbLine
 10
219.0181307155
 20
305.8074666452
 30
0.0
 11
219.0181307155
 21
272.7074688565
 31
0.0
  0
ARC
  5
E2
330
1F
100
AcDbEntity
  8
0
  6
SLD-CONTINUA
 62
     7
100
AcDbCircle
 10
219.0181313295
 20
306.8074681234
 30
0.0
 40
1.0
100
AcDbArc
 50
270.0
 51
180.0
  0
LINE
  5
E3
330
1F
100
AcDbEntity
  8
0
  6
SLD-CONTINUA
 62
     7
100
AcDbLine
 10
209.9181312728
 20
306.8074686717
 30
0.0
 11
218.0181305516
 21
306.8074686717
 31
0.0
  0
ARC
  5
E4
330
1F
100
AcDbEntity
  8
0
  6
SLD-CONTINUA
 62
     7
100
AcDbCircle
 10
208.9181313295
 20
306.8074681234
 30
0.0
 40
1.0
100
AcDbArc
 50
0.0
 51
270.0
  0
LINE
  5
E5
330
1F
100
AcDbEntity
  8
0
  6
SLD-CONTINUA
 62
     7
100
AcDbLine
 10
208.9181311089
 20
272.7074688565
 30
0.0
 11
208.9181311089
 21
305.8074666452
 31
0.0
  0
ARC
  5
E6
330
1F
100
AcDbEntity
  8
0
  6
SLD-CONTINUA
 62
     7
100
AcDbCircle
 10
208.9181313295
 20
271.7074681234
 30
0.0
 40
1.0
100
AcDbArc
 50
90.0
 51
0.0
  0
LINE
  5
E7
330
1F
100
AcDbEntity
  8
0
  6
SLD-CONTINUA
 62
     7
100
AcDbLine
 10
218.0181305516
 20
271.7074686926
 30
0.0
 11
209.9181312728
 21
271.7074686926
 31
0.0
  0
ARC
  5
E8
330
1F
100
AcDbEntity
  8
0
  6
SLD-CONTINUA
 62
     7
100
AcDbCircle
 10
219.0181313295
 20
271.7074681234
 30
0.0
 40
1.0
100
AcDbArc
 50
180.0
 51
90.0
  0
LINE
  5
E9
330
1F
100
AcDbEntity
  8
0
  6
SLD-CONTINUA
 62
     7
100
AcDbLine
 10
485.0181296128
 20
430.8074666452
 30
0.0
 11
485.0181296128
 21
397.7074725818
 31
0.0
  0
ARC
  5
EA
330
1F
100
AcDbEntity
  8
0
  6
SLD-CONTINUA
 62
     7
100
AcDbCircle
 10
485.0181313295
 20
431.8074681234
 30
0.0
 40
1.0
100
AcDbArc
 50
270.0
 51
180.0
  0
LINE
  5
EB
330
1F
100
AcDbEntity
  8
0
  6
SLD-CONTINUA
 62
     7
100
AcDbLine
 10
475.9181394834
 20
431.8074686717
 30
0.0
 11
484.0181424874
 21
431.8074686717
 31
0.0
  0
ARC
  5
EC
330
1F
100
AcDbEntity
  8
0
  6
SLD-CONTINUA
 62
     7
100
AcDbCircle
 10
474.9181313295
 20
431.8074681234
 30
0.0
 40
1.0
100
AcDbArc
 50
0.0
 51
270.0
  0
LINE
  5
ED
330
1F
100
AcDbEntity
  8
0
  6
SLD-CONTINUA
 62
     7
100
AcDbLine
 10
474.9181225557
 20
397.7074725818
 30
0.0
 11
474.9181225557
 21
430.8074666452
 31
0.0
  0
ARC
  5
EE
330
1F
100
AcDbEntity
  8
0
  6
SLD-CONTINUA
 62
     7
100
AcDbCircle
 10
474.9181313295
 20
396.7074681234
 30
0.0
 40
1.0
100
AcDbArc
 50
90.0
 51
0.0
  0
LINE
  5
EF
330
1F
100
AcDbEntity
  8
0
  6
SLD-CONTINUA
 62
     7
100
AcDbLine
 10
484.0181424874
 20
396.7074705552
 30
0.0
 11
475.9181394834
 21
396.7074705552
 31
0.0
  0
ARC
  5
F0
330
1F
100
AcDbEntity
  8
0
  6
SLD-CONTINUA
 62
     7
100
AcDbCircle
 10
485.0181313295
 20
396.7074681234
 30
0.0
 40
1.0
100
AcDbArc
 50
180.0
 51
90.0
  0
ENDSEC
  0
SECTION
  2
OBJECTS
  0
DICTIONARY
  5
C
330
0
100
AcDbDictionary
  3
ACAD_GROUP
350
D
  3
ACAD_MLINESTYLE
350
17
  3
ACAD_SCALELIST
350
47
1001
ACAD
1000
TREAT_AS_HARD
1070
     0
  0
DICTIONARY
  5
D
102
{ACAD_REACTORS
330
C
102
}
330
C
100
AcDbDictionary
1001
ACAD
1000
TREAT_AS_HARD
1070
     0
  0
DICTIONARY
  5
17
102
{ACAD_REACTORS
330
C
102
}
330
C
100
AcDbDictionary
  3
STANDARD
350
18
1001
ACAD
1000
TREAT_AS_HARD
1070
     0
  0
DICTIONARY
  5
47
102
{ACAD_REACTORS
330
C
102
}
330
C
100
AcDbDictionary
1001
ACAD
1000
TREAT_AS_HARD
1070
     0
  0
MLINESTYLE
  5
18
102
{ACAD_REACTORS
330
17
102
}
330
17
100
AcDbMlineStyle
  2
Standard
 70
     0
  3

 62
   256
 51
90.0
 52
90.0
 71
     2
 49
0.5
 62
   256
  6
BYLAYER
 49
-0.5
 62
   256
  6
BYLAYER
  0
ENDSEC
  0
EOF
