  0
SECTION
  2
HEADER
  9
$ACADVER
  1
AC1012
  9
$DWGCODEPAGE
  3
ansi_1252
  9
$INSBASE
 10
0.0
 20
0.0
 30
0.0
  9
$EXTMIN
 10
0.0
 20
0.0
 30
0.0
  9
$EXTMAX
 10
700.0
 20
700.0
 30
0.0
  9
$LIMMIN
 10
0.0
 20
0.0
  9
$LIMMAX
 10
700.0
 20
700.0
  9
$ORTHOMODE
 70
     0
  9
$REGENMODE
 70
     1
  9
$FILLMODE
 70
     1
  9
$QTEXTMODE
 70
     0
  9
$MIRRTEXT
 70
     1
  9
$DRAGMODE
 70
     2
  9
$LTSCALE
 40
1.0
  9
$OSMODE
 70
    37
  9
$ATTMODE
 70
     1
  9
$TEXTSIZE
 40
3.5
  9
$TRACEWID
 40
1.0
  9
$TEXTSTYLE
  7
STANDARD
  9
$CLAYER
  8
0
  9
$CELTYPE
  6
BYLAYER
  9
$CECOLOR
 62
   256
  9
$CELTSCALE
 40
1.0
  9
$DELOBJ
 70
     1
  9
$DISPSILH
 70
     0
  9
$DIMSCALE
 40
1.0
  9
$DIMASZ
 40
3.302
  9
$DIMEXO
 40
1.0
  9
$DIMDLI
 40
3.75
  9
$DIMRND
 40
0.0
  9
$DIMDLE
 40
0.0
  9
$DIMEXE
 40
1.0
  9
$DIMTP
 40
0.0
  9
$DIMTM
 40
0.0
  9
$DIMTXT
 40
3.5
  9
$DIMCEN
 40
2.5
  9
$DIMTSZ
 40
0.0
  9
$DIMTOL
 70
     0
  9
$DIMLIM
 70
     0
  9
$DIMTIH
 70
     1
  9
$DIMTOH
 70
     1
  9
$DIMSE1
 70
     0
  9
$DIMSE2
 70
     0
  9
$DIMTAD
 70
     1
  9
$DIMZIN
 70
     1
  9
$DIMBLK
  1

  9
$DIMASO
 70
     1
  9
$DIMSHO
 70
     1
  9
$DIMPOST
  1

  9
$DIMAPOST
  1

  9
$DIMALT
 70
     0
  9
$DIMALTD
 70
     3
  9
$DIMALTF
 40
0.0393700787
  9
$DIMLFAC
 40
1.0
  9
$DIMTOFL
 70
     1
  9
$DIMTVP
 40
0.0
  9
$DIMTIX
 70
     0
  9
$DIMSOXD
 70
     0
  9
$DIMSAH
 70
     0
  9
$DIMBLK1
  1

  9
$DIMBLK2
  1

  9
$DIMSTYLE
  2
ISO-25
  9
$DIMCLRD
 70
     0
  9
$DIMCLRE
 70
     0
  9
$DIMCLRT
 70
     0
  9
$DIMTFAC
 40
1.0
  9
$DIMGAP
 40
1.524
  9
$DIMJUST
 70
     0
  9
$DIMSD1
 70
     0
  9
$DIMSD2
 70
     0
  9
$DIMTOLJ
 70
     0
  9
$DIMTZIN
 70
     1
  9
$DIMALTZ
 70
     0
  9
$DIMALTTZ
 70
     0
  9
$DIMFIT
 70
     3
  9
$DIMUPT
 70
     0
  9
$DIMUNIT
 70
     2
  9
$DIMDEC
 70
     2
  9
$DIMTDEC
 70
     2
  9
$DIMALTU
 70
     2
  9
$DIMALTTD
 70
     3
  9
$DIMTXSTY
  7
STANDARD
  9
$DIMAUNIT
 70
     0
  9
$LUNITS
 70
     2
  9
$LUPREC
 70
     2
  9
$SKETCHINC
 40
1.0
  9
$FILLETRAD
 40
10.0
  9
$AUNITS
 70
     0
  9
$AUPREC
 70
     2
  9
$MENU
  1
.
  9
$ELEVATION
 40
0.0
  9
$PELEVATION
 40
0.0
  9
$THICKNESS
 40
0.0
  9
$LIMCHECK
 70
     0
  9
$CHAMFERA
 40
0.0
  9
$CHAMFERB
 40
0.0
  9
$CHAMFERC
 40
0.0
  9
$CHAMFERD
 40
0.0
  9
$SKPOLY
 70
     0
  9
$TDCREATE
 40
2458843.784234283
  9
$TDUPDATE
 40
2458843.784234757
  9
$TDINDWG
 40
0.0000000116
  9
$TDUSRTIMER
 40
0.0000000116
  9
$USRTIMER
 70
     1
  9
$ANGBASE
 50
0.0
  9
$ANGDIR
 70
     0
  9
$PDMODE
 70
     0
  9
$PDSIZE
 40
-1.0
  9
$PLINEWID
 40
0.0
  9
$COORDS
 70
     1
  9
$SPLFRAME
 70
     0
  9
$SPLINETYPE
 70
     6
  9
$SPLINESEGS
 70
     8
  9
$ATTDIA
 70
     0
  9
$ATTREQ
 70
     1
  9
$HANDLING
 70
     1
  9
$HANDSEED
  5
14B
  9
$SURFTAB1
 70
     6
  9
$SURFTAB2
 70
     6
  9
$SURFTYPE
 70
     6
  9
$SURFU
 70
     6
  9
$SURFV
 70
     6
  9
$UCSNAME
  2

  9
$UCSORG
 10
0.0
 20
0.0
 30
0.0
  9
$UCSXDIR
 10
1.0
 20
0.0
 30
0.0
  9
$UCSYDIR
 10
0.0
 20
1.0
 30
0.0
  9
$PUCSNAME
  2

  9
$PUCSORG
 10
0.0
 20
0.0
 30
0.0
  9
$PUCSXDIR
 10
1.0
 20
0.0
 30
0.0
  9
$PUCSYDIR
 10
0.0
 20
1.0
 30
0.0
  9
$USERI1
 70
     0
  9
$USERI2
 70
     0
  9
$USERI3
 70
     0
  9
$USERI4
 70
     0
  9
$USERI5
 70
     0
  9
$USERR1
 40
0.0
  9
$USERR2
 40
0.0
  9
$USERR3
 40
0.0
  9
$USERR4
 40
0.0
  9
$USERR5
 40
0.0
  9
$WORLDVIEW
 70
     1
  9
$SHADEDGE
 70
     3
  9
$SHADEDIF
 70
    70
  9
$TILEMODE
 70
     1
  9
$MAXACTVP
 70
    64
  9
$PINSBASE
 10
0.0
 20
0.0
 30
0.0
  9
$PLIMCHECK
 70
     0
  9
$PEXTMIN
 10
1.0000000000E+20
 20
1.0000000000E+20
 30
1.0000000000E+20
  9
$PEXTMAX
 10
-1.0000000000E+20
 20
-1.0000000000E+20
 30
-1.0000000000E+20
  9
$PLIMMIN
 10
0.0
 20
0.0
  9
$PLIMMAX
 10
420.0
 20
297.0
  9
$UNITMODE
 70
     0
  9
$VISRETAIN
 70
     1
  9
$PLINEGEN
 70
     0
  9
$PSLTSCALE
 70
     1
  9
$TREEDEPTH
 70
  3020
  9
$PICKSTYLE
 70
     1
  9
$CMLSTYLE
  2
STANDARD
  9
$CMLJUST
 70
     0
  9
$CMLSCALE
 40
20.0
  9
$SAVEIMAGES
 70
     1
  0
ENDSEC
  0
SECTION
  2
CLASSES
  0
CLASS
  1
ACDBDICTIONARYWDFLT
  2
AcDbDictionaryWithDefault
  3
ObjectDBX Classes
 90
    32768
280
     0
281
     0
  0
CLASS
  1
VISUALSTYLE
  2
AcDbVisualStyle
  3
ObjectDBX Classes
 90
     4095
280
     0
281
     0
  0
CLASS
  1
MATERIAL
  2
AcDbMaterial
  3
ObjectDBX Classes
 90
     1153
280
     0
281
     0
  0
CLASS
  1
SCALE
  2
AcDbScale
  3
ObjectDBX Classes
 90
     1153
280
     0
281
     0
  0
CLASS
  1
TABLESTYLE
  2
AcDbTableStyle
  3
ObjectDBX Classes
 90
     4095
280
     0
281
     0
  0
CLASS
  1
MLEADERSTYLE
  2
AcDbMLeaderStyle
  3
ACDB_MLEADERSTYLE_CLASS
 90
     4095
280
     0
281
     0
  0
CLASS
  1
SUN
  2
AcDbSun
  3
SCENEOE
 90
     1153
280
     0
281
     0
  0
CLASS
  1
XRECORD
  2
AcDbXrecord
  3
ObjectDBX Classes
 90
    32768
280
     0
281
     0
  0
ENDSEC
  0
SECTION
  2
TABLES
  0
TABLE
  2
VPORT
  5
8
330
0
100
AcDbSymbolTable
 70
     1
  0
VPORT
  5
29
330
8
100
AcDbSymbolTableRecord
100
AcDbViewportTableRecord
  2
*ACTIVE
 70
     0
 10
0.0
 20
0.0
 11
1.0
 21
1.0
 12
350.0
 22
350.0
 13
0.0
 23
0.0
 14
10.0
 24
10.0
 15
10.0
 25
10.0
 16
0.0
 26
0.0
 36
1.0
 17
0.0
 27
0.0
 37
0.0
 40
700.0
 41
1.0
 42
50.0
 43
0.0
 44
0.0
 50
0.0
 51
0.0
 71
     0
 72
  2000
 73
     1
 74
     3
 75
     0
 76
     0
 77
     0
 78
     0
  0
ENDTAB
  0
TABLE
  2
LTYPE
  5
5
330
0
100
AcDbSymbolTable
 70
     8
  0
LTYPE
  5
14
330
5
100
AcDbSymbolTableRecord
100
AcDbLinetypeTableRecord
  2
BYBLOCK
 70
     0
  3

 72
    65
 73
     0
 40
0.0
  0
LTYPE
  5
15
330
5
100
AcDbSymbolTableRecord
100
AcDbLinetypeTableRecord
  2
BYLAYER
 70
     0
  3

 72
    65
 73
     0
 40
0.0
  0
LTYPE
  5
16
330
5
100
AcDbSymbolTableRecord
100
AcDbLinetypeTableRecord
  2
CONTINUOUS
 70
     0
  3
Solid line
 72
    65
 73
     0
 40
0.0
  0
LTYPE
  5
6E
330
5
100
AcDbSymbolTableRecord
100
AcDbLinetypeTableRecord
  2
SLD-CONTINUA
 70
     0
  3
SolidWorks Line Style
 72
    65
 73
     0
 40
0.0
  0
LTYPE
  5
6F
330
5
100
AcDbSymbolTableRecord
100
AcDbLinetypeTableRecord
  2
SLD-DISCONTINUA
 70
     0
  3
SolidWorks Line Style
 72
    65
 73
     2
 40
1.905
 49
1.27
 74
     0
 49
-0.635
 74
     0
  0
LTYPE
  5
70
330
5
100
AcDbSymbolTableRecord
100
AcDbLinetypeTableRecord
  2
SLD-CENTRADA-DOBLE
 70
     0
  3
SolidWorks Line Style
 72
    65
 73
     6
 40
12.7
 49
6.35
 74
     0
 49
-1.27
 74
     0
 49
1.27
 74
     0
 49
-1.27
 74
     0
 49
1.27
 74
     0
 49
-1.27
 74
     0
  0
LTYPE
  5
71
330
5
100
AcDbSymbolTableRecord
100
AcDbLinetypeTableRecord
  2
SLD-CENTRADA-SIMPLE
 70
     0
  3
SolidWorks Line Style
 72
    65
 73
     4
 40
10.16
 49
6.35
 74
     0
 49
-1.27
 74
     0
 49
1.27
 74
     0
 49
-1.27
 74
     0
  0
LTYPE
  5
72
330
5
100
AcDbSymbolTableRecord
100
AcDbLinetypeTableRecord
  2
SLD-CENTRADA-TRAZOS-LARGOS
 70
     0
  3
SolidWorks Line Style
 72
    65
 73
     4
 40
19.05
 49
15.24
 74
     0
 49
-1.27
 74
     0
 49
1.27
 74
     0
 49
-1.27
 74
     0
  0
LTYPE
  5
73
330
5
100
AcDbSymbolTableRecord
100
AcDbLinetypeTableRecord
  2
SLD-PUNTOS
 70
     0
  3
SolidWorks Line Style
 72
    65
 73
     2
 40
0.635
 49
0.0
 74
     0
 49
-0.635
 74
     0
  0
LTYPE
  5
74
330
5
100
AcDbSymbolTableRecord
100
AcDbLinetypeTableRecord
  2
SLD-DELGADA-GRUESA
 70
     0
  3
SolidWorks Line Style
 72
    65
 73
     4
 40
10.16
 49
6.35
 74
     0
 49
-1.27
 74
     0
 49
1.27
 74
     0
 49
-1.27
 74
     0
  0
ENDTAB
  0
TABLE
  2
LAYER
  5
2
330
0
100
AcDbSymbolTable
 70
     1
  0
LAYER
  5
10
330
2
100
AcDbSymbolTableRecord
100
AcDbLayerTableRecord
  2
0
 70
     0
 62
     7
  6
CONTINUOUS
  0
ENDTAB
  0
TABLE
  2
STYLE
  5
3
330
0
100
AcDbSymbolTable
 70
     1
  0
STYLE
  5
11
330
3
100
AcDbSymbolTableRecord
100
AcDbTextStyleTableRecord
  2
STANDARD
 70
     0
 40
0.0
 41
1.0
 50
0.0
 71
     0
 42
3.5
  3
txt
  4

  0
ENDTAB
  0
TABLE
  2
VIEW
  5
6
330
0
100
AcDbSymbolTable
 70
     0
  0
ENDTAB
  0
TABLE
  2
UCS
  5
7
330
0
100
AcDbSymbolTable
 70
     0
  0
ENDTAB
  0
TABLE
  2
APPID
  5
9
330
0
100
AcDbSymbolTable
 70
     1
  0
APPID
  5
12
330
9
100
AcDbSymbolTableRecord
100
AcDbRegAppTableRecord
  2
ACAD
 70
     0
  0
ENDTAB
  0
TABLE
  2
DIMSTYLE
  5
A
330
0
100
AcDbSymbolTable
 70
     1
  0
DIMSTYLE
105
27
330
A
100
AcDbSymbolTableRecord
100
AcDbDimStyleTableRecord
  2
ISO-25
 70
     0
  3

  4

  5

  6

  7

 40
1.0
 41
2.5
 42
0.625
 43
3.75
 44
1.25
 45
0.0
 46
0.0
 47
0.0
 48
0.0
140
2.5
141
2.5
142
0.0
143
0.0393700787
144
1.0
145
0.0
146
1.0
147
0.625
 71
     0
 72
     0
 73
     0
 74
     0
 75
     0
 76
     0
 77
     1
 78
     8
170
     0
171
     3
172
     1
173
     0
174
     0
175
     0
176
     0
177
     0
178
     0
270
     2
271
     2
272
     2
273
     2
274
     3
340
11
275
     0
280
     0
281
     0
282
     0
283
     0
284
     8
285
     0
286
     0
287
     3
288
     0
  0
ENDTAB
  0
TABLE
  2
BLOCK_RECORD
  5
1
330
0
100
AcDbSymbolTable
 70
     1
  0
BLOCK_RECORD
  5
1F
330
1
100
AcDbSymbolTableRecord
100
AcDbBlockTableRecord
  2
*MODEL_SPACE
  0
BLOCK_RECORD
  5
1B
330
1
100
AcDbSymbolTableRecord
100
AcDbBlockTableRecord
  2
*PAPER_SPACE
  0
BLOCK_RECORD
  5
23
330
1
100
AcDbSymbolTableRecord
100
AcDbBlockTableRecord
  2
*PAPER_SPACE0
  0
ENDTAB
  0
ENDSEC
  0
SECTION
  2
BLOCKS
  0
BLOCK
  5
20
330
1F
100
AcDbEntity
  8
0
100
AcDbBlockBegin
  2
*MODEL_SPACE
 70
     0
 10
0.0
 20
0.0
 30
0.0
  3
*MODEL_SPACE
  1

  0
ENDBLK
  5
21
330
1F
100
AcDbEntity
  8
0
100
AcDbBlockEnd
  0
BLOCK
  5
1C
330
1B
100
AcDbEntity
 67
     1
  8
0
100
AcDbBlockBegin
  2
*PAPER_SPACE
 70
     0
 10
0.0
 20
0.0
 30
0.0
  3
*PAPER_SPACE
  1

  0
ENDBLK
  5
1D
330
1B
100
AcDbEntity
 67
     1
  8
0
100
AcDbBlockEnd
  0
BLOCK
  5
24
330
23
100
AcDbEntity
  8
0
100
AcDbBlockBegin
  2
*PAPER_SPACE0
 70
     0
 10
0.0
 20
0.0
 30
0.0
  3
*PAPER_SPACE0
  1

  0
ENDBLK
  5
25
330
23
100
AcDbEntity
  8
0
100
AcDbBlockEnd
  0
ENDSEC
  0
SECTION
  2
ENTITIES
  0
ARC
  5
75
330
1F
100
AcDbEntity
  8
0
  6
SLD-CONTINUA
 62
     7
100
AcDbCircle
 10
575.1349202023
 20
383.9900461625
 30
0.0
 40
1.0
100
AcDbArc
 50
270.0
 51
180.0
  0
LINE
  5
76
330
1F
100
AcDbEntity
  8
0
  6
SLD-CONTINUA
 62
     7
100
AcDbLine
 10
574.134925829
 20
383.9900453519
 30
0.0
 11
565.0349058972
 21
383.9900453519
 31
0.0
  0
LINE
  5
77
330
1F
100
AcDbEntity
  8
0
  6
SLD-CONTINUA
 62
     7
100
AcDbLine
 10
565.0349058972
 20
448.7900470328
 30
0.0
 11
565.0349058972
 21
383.9900453519
 31
0.0
  0
LINE
  5
78
330
1F
100
AcDbEntity
  8
0
  6
SLD-CONTINUA
 62
     7
100
AcDbLine
 10
565.0349058972
 20
448.7900470328
 30
0.0
 11
574.134925829
 21
448.7900470328
 31
0.0
  0
ARC
  5
79
330
1F
100
AcDbEntity
  8
0
  6
SLD-CONTINUA
 62
     7
100
AcDbCircle
 10
575.1349202023
 20
448.7900461625
 30
0.0
 40
1.0
100
AcDbArc
 50
180.0
 51
90.0
  0
LINE
  5
7A
330
1F
100
AcDbEntity
  8
0
  6
SLD-CONTINUA
 62
     7
100
AcDbLine
 10
575.1349129544
 20
449.7900490593
 30
0.0
 11
575.1349129544
 21
477.9900495838
 31
0.0
  0
ARC
  5
7B
330
1F
100
AcDbEntity
  8
0
  6
SLD-CONTINUA
 62
     7
100
AcDbCircle
 10
575.1349202023
 20
478.9900461625
 30
0.0
 40
1.0
100
AcDbArc
 50
270.0
 51
180.0
  0
LINE
  5
7C
330
1F
100
AcDbEntity
  8
0
  6
SLD-CONTINUA
 62
     7
100
AcDbLine
 10
574.134925829
 20
478.9900441598
 30
0.0
 11
565.0349058972
 21
478.9900441598
 31
0.0
  0
LINE
  5
7D
330
1F
100
AcDbEntity
  8
0
  6
SLD-CONTINUA
 62
     7
100
AcDbLine
 10
565.0349058972
 20
486.8900475036
 30
0.0
 11
565.0349058972
 21
478.9900441598
 31
0.0
  0
LINE
  5
7E
330
1F
100
AcDbEntity
  8
0
  6
SLD-CONTINUA
 62
     7
100
AcDbLine
 10
555.0349154339
 20
496.8900454175
 30
0.0
 11
565.0349058972
 21
486.8900475036
 31
0.0
  0
LINE
  5
7F
330
1F
100
AcDbEntity
  8
0
  6
SLD-CONTINUA
 62
     7
100
AcDbLine
 10
533.7849058972
 20
496.8900454175
 30
0.0
 11
555.0349154339
 21
496.8900454175
 31
0.0
  0
LINE
  5
80
330
1F
100
AcDbEntity
  8
0
  6
SLD-CONTINUA
 62
     7
100
AcDbLine
 10
533.7849058972
 20
505.89004503
 30
0.0
 11
533.7849058972
 21
496.8900454175
 31
0.0
  0
ARC
  5
81
330
1F
100
AcDbEntity
  8
0
  6
SLD-CONTINUA
 62
     7
100
AcDbCircle
 10
533.7849202023
 20
506.8900461625
 30
0.0
 40
1.0
100
AcDbArc
 50
270.0
 51
180.0
  0
LINE
  5
82
330
1F
100
AcDbEntity
  8
0
  6
SLD-CONTINUA
 62
     7
100
AcDbLine
 10
528.2849171029
 20
506.8900470566
 30
0.0
 11
532.7849187718
 21
506.8900470566
 31
0.0
  0
ARC
  5
83
330
1F
100
AcDbEntity
  8
0
  6
SLD-CONTINUA
 62
     7
100
AcDbCircle
 10
527.2849202023
 20
506.8900461625
 30
0.0
 40
1.0
100
AcDbArc
 50
0.0
 51
270.0
  0
LINE
  5
84
330
1F
100
AcDbEntity
  8
0
  6
SLD-CONTINUA
 62
     7
100
AcDbLine
 10
527.2849299775
 20
496.8900454175
 30
0.0
 11
527.2849299775
 21
505.89004503
 31
0.0
  0
LINE
  5
85
330
1F
100
AcDbEntity
  8
0
  6
SLD-CONTINUA
 62
     7
100
AcDbLine
 10
458.7849178181
 20
496.8900454175
 30
0.0
 11
527.2849299775
 21
496.8900454175
 31
0.0
  0
LINE
  5
86
330
1F
100
AcDbEntity
  8
0
  6
SLD-CONTINUA
 62
     7
100
AcDbLine
 10
458.7849178181
 20
505.89004503
 30
0.0
 11
458.7849178181
 21
496.8900454175
 31
0.0
  0
ARC
  5
87
330
1F
100
AcDbEntity
  8
0
  6
SLD-CONTINUA
 62
     7
100
AcDbCircle
 10
458.7849202023
 20
506.8900461625
 30
0.0
 40
1.0
100
AcDbArc
 50
270.0
 51
180.0
  0
LINE
  5
88
330
1F
100
AcDbEntity
  8
0
  6
SLD-CONTINUA
 62
     7
100
AcDbLine
 10
453.2849290238
 20
506.8900470566
 30
0.0
 11
457.7849306927
 21
506.8900470566
 31
0.0
  0
ARC
  5
89
330
1F
100
AcDbEntity
  8
0
  6
SLD-CONTINUA
 62
     7
100
AcDbCircle
 10
452.2849202023
 20
506.8900461625
 30
0.0
 40
1.0
100
AcDbArc
 50
0.0
 51
270.0
  0
LINE
  5
8A
330
1F
100
AcDbEntity
  8
0
  6
SLD-CONTINUA
 62
     7
100
AcDbLine
 10
452.2849120961
 20
496.8900454175
 30
0.0
 11
452.2849120961
 21
505.89004503
 31
0.0
  0
LINE
  5
8B
330
1F
100
AcDbEntity
  8
0
  6
SLD-CONTINUA
 62
     7
100
AcDbLine
 10
371.2849118577
 20
496.8900454175
 30
0.0
 11
452.2849120961
 21
496.8900454175
 31
0.0
  0
LINE
  5
8C
330
1F
100
AcDbEntity
  8
0
  6
SLD-CONTINUA
 62
     7
100
AcDbLine
 10
371.2849118577
 20
505.89004503
 30
0.0
 11
371.2849118577
 21
496.8900454175
 31
0.0
  0
ARC
  5
8D
330
1F
100
AcDbEntity
  8
0
  6
SLD-CONTINUA
 62
     7
100
AcDbCircle
 10
371.2849202023
 20
506.8900461625
 30
0.0
 40
1.0
100
AcDbArc
 50
270.0
 51
180.0
  0
LINE
  5
8E
330
1F
100
AcDbEntity
  8
0
  6
SLD-CONTINUA
 62
     7
100
AcDbLine
 10
365.7849230633
 20
506.8900470566
 30
0.0
 11
370.2849247323
 21
506.8900470566
 31
0.0
  0
ARC
  5
8F
330
1F
100
AcDbEntity
  8
0
  6
SLD-CONTINUA
 62
     7
100
AcDbCircle
 10
364.7849202023
 20
506.8900461625
 30
0.0
 40
1.0
100
AcDbArc
 50
0.0
 51
270.0
  0
LINE
  5
90
330
1F
100
AcDbEntity
  8
0
  6
SLD-CONTINUA
 62
     7
100
AcDbLine
 10
364.7849061356
 20
496.8900454175
 30
0.0
 11
364.7849061356
 21
505.89004503
 31
0.0
  0
LINE
  5
91
330
1F
100
AcDbEntity
  8
0
  6
SLD-CONTINUA
 62
     7
100
AcDbLine
 10
296.2849237786
 20
496.8900454175
 30
0.0
 11
364.7849061356
 21
496.8900454175
 31
0.0
  0
LINE
  5
92
330
1F
100
AcDbEntity
  8
0
  6
SLD-CONTINUA
 62
     7
100
AcDbLine
 10
296.2849237786
 20
505.89004503
 30
0.0
 11
296.2849237786
 21
496.8900454175
 31
0.0
  0
ARC
  5
93
330
1F
100
AcDbEntity
  8
0
  6
SLD-CONTINUA
 62
     7
100
AcDbCircle
 10
296.2849202023
 20
506.8900461625
 30
0.0
 40
1.0
100
AcDbArc
 50
270.0
 51
180.0
  0
LINE
  5
94
330
1F
100
AcDbEntity
  8
0
  6
SLD-CONTINUA
 62
     7
100
AcDbLine
 10
290.7849200831
 20
506.8900470566
 30
0.0
 11
295.284921752
 21
506.8900470566
 31
0.0
  0
ARC
  5
95
330
1F
100
AcDbEntity
  8
0
  6
SLD-CONTINUA
 62
     7
100
AcDbCircle
 10
289.7849202023
 20
506.8900461625
 30
0.0
 40
1.0
100
AcDbArc
 50
0.0
 51
270.0
  0
LINE
  5
96
330
1F
100
AcDbEntity
  8
0
  6
SLD-CONTINUA
 62
     7
100
AcDbLine
 10
289.7849180565
 20
496.8900454175
 30
0.0
 11
289.7849180565
 21
505.89004503
 31
0.0
  0
LINE
  5
97
330
1F
100
AcDbEntity
  8
0
  6
SLD-CONTINUA
 62
     7
100
AcDbLine
 10
268.534923421
 20
496.8900454175
 30
0.0
 11
289.7849180565
 21
496.8900454175
 31
0.0
  0
LINE
  5
98
330
1F
100
AcDbEntity
  8
0
  6
SLD-CONTINUA
 62
     7
100
AcDbLine
 10
258.5349180565
 20
486.8900475036
 30
0.0
 11
268.534923421
 21
496.8900454175
 31
0.0
  0
LINE
  5
99
330
1F
100
AcDbEntity
  8
0
  6
SLD-CONTINUA
 62
     7
100
AcDbLine
 10
258.5349180565
 20
476.9900475573
 30
0.0
 11
258.5349180565
 21
486.8900475036
 31
0.0
  0
LINE
  5
9A
330
1F
100
AcDbEntity
  8
0
  6
SLD-CONTINUA
 62
     7
100
AcDbLine
 10
249.4349130259
 20
476.9900475573
 30
0.0
 11
258.5349180565
 21
476.9900475573
 31
0.0
  0
ARC
  5
9B
330
1F
100
AcDbEntity
  8
0
  6
SLD-CONTINUA
 62
     7
100
AcDbCircle
 10
248.4349202023
 20
476.9900461625
 30
0.0
 40
1.0
100
AcDbArc
 50
0.0
 51
270.0
  0
LINE
  5
9C
330
1F
100
AcDbEntity
  8
0
  6
SLD-CONTINUA
 62
     7
100
AcDbLine
 10
248.4349259005
 20
447.7900450062
 30
0.0
 11
248.4349259005
 21
475.9900455307
 31
0.0
  0
ARC
  5
9D
330
1F
100
AcDbEntity
  8
0
  6
SLD-CONTINUA
 62
     7
100
AcDbCircle
 10
248.4349202023
 20
446.7900461625
 30
0.0
 40
1.0
100
AcDbArc
 50
90.0
 51
0.0
  0
LINE
  5
9E
330
1F
100
AcDbEntity
  8
0
  6
SLD-CONTINUA
 62
     7
100
AcDbLine
 10
258.5349180565
 20
446.7900429796
 30
0.0
 11
249.4349130259
 21
446.7900429796
 31
0.0
  0
LINE
  5
9F
330
1F
100
AcDbEntity
  8
0
  6
SLD-CONTINUA
 62
     7
100
AcDbLine
 10
258.5349180565
 20
383.9900453519
 30
0.0
 11
258.5349180565
 21
446.7900429796
 31
0.0
  0
LINE
  5
A0
330
1F
100
AcDbEntity
  8
0
  6
SLD-CONTINUA
 62
     7
100
AcDbLine
 10
249.4349130259
 20
383.9900453519
 30
0.0
 11
258.5349180565
 21
383.9900453519
 31
0.0
  0
ARC
  5
A1
330
1F
100
AcDbEntity
  8
0
  6
SLD-CONTINUA
 62
     7
100
AcDbCircle
 10
248.4349202023
 20
383.9900461625
 30
0.0
 40
1.0
100
AcDbArc
 50
0.0
 51
270.0
  0
LINE
  5
A2
330
1F
100
AcDbEntity
  8
0
  6
SLD-CONTINUA
 62
     7
100
AcDbLine
 10
248.4349259005
 20
354.7900428008
 30
0.0
 11
248.4349259005
 21
382.9900433253
 31
0.0
  0
ARC
  5
A3
330
1F
100
AcDbEntity
  8
0
  6
SLD-CONTINUA
 62
     7
100
AcDbCircle
 10
248.4349202023
 20
353.7900461625
 30
0.0
 40
1.0
100
AcDbArc
 50
90.0
 51
0.0
  0
LINE
  5
A4
330
1F
100
AcDbEntity
  8
0
  6
SLD-CONTINUA
 62
     7
100
AcDbLine
 10
258.5349180565
 20
353.7900407743
 30
0.0
 11
249.4349130259
 21
353.7900407743
 31
0.0
  0
LINE
  5
A5
330
1F
100
AcDbEntity
  8
0
  6
SLD-CONTINUA
 62
     7
100
AcDbLine
 10
258.5349180565
 20
290.9900505971
 30
0.0
 11
258.5349180565
 21
353.7900407743
 31
0.0
  0
LINE
  5
A6
330
1F
100
AcDbEntity
  8
0
  6
SLD-CONTINUA
 62
     7
100
AcDbLine
 10
249.4349130259
 20
290.9900505971
 30
0.0
 11
258.5349180565
 21
290.9900505971
 31
0.0
  0
ARC
  5
A7
330
1F
100
AcDbEntity
  8
0
  6
SLD-CONTINUA
 62
     7
100
AcDbCircle
 10
248.4349202023
 20
290.9900461625
 30
0.0
 40
1.0
100
AcDbArc
 50
360.0
 51
270.0
  0
LINE
  5
A8
330
1F
100
AcDbEntity
  8
0
  6
SLD-CONTINUA
 62
     7
100
AcDbLine
 10
248.4349259005
 20
261.7900331449
 30
0.0
 11
248.4349259005
 21
289.9900336694
 31
0.0
  0
ARC
  5
A9
330
1F
100
AcDbEntity
  8
0
  6
SLD-CONTINUA
 62
     7
100
AcDbCircle
 10
248.4349202023
 20
260.7900461625
 30
0.0
 40
1.0
100
AcDbArc
 50
90.0
 51
360.0
  0
LINE
  5
AA
330
1F
100
AcDbEntity
  8
0
  6
SLD-CONTINUA
 62
     7
100
AcDbLine
 10
258.5349180565
 20
260.7900460195
 30
0.0
 11
249.4349130259
 21
260.7900460195
 31
0.0
  0
LINE
  5
AB
330
1F
100
AcDbEntity
  8
0
  6
SLD-CONTINUA
 62
     7
100
AcDbLine
 10
258.5349180565
 20
250.8900423478
 30
0.0
 11
258.5349180565
 21
260.7900460195
 31
0.0
  0
LINE
  5
AC
330
1F
100
AcDbEntity
  8
0
  6
SLD-CONTINUA
 62
     7
100
AcDbLine
 10
268.534923421
 20
240.8900518846
 30
0.0
 11
258.5349180565
 21
250.8900423478
 31
0.0
  0
LINE
  5
AD
330
1F
100
AcDbEntity
  8
0
  6
SLD-CONTINUA
 62
     7
100
AcDbLine
 10
296.0349269972
 20
240.8900518846
 30
0.0
 11
268.534923421
 21
240.8900518846
 31
0.0
  0
LINE
  5
AE
330
1F
100
AcDbEntity
  8
0
  6
SLD-CONTINUA
 62
     7
100
AcDbLine
 10
296.0349269972
 20
240.8900518846
 30
0.0
 11
296.0349269972
 21
231.8900485467
 31
0.0
  0
ARC
  5
AF
330
1F
100
AcDbEntity
  8
0
  6
SLD-CONTINUA
 62
     7
100
AcDbCircle
 10
296.0349202023
 20
230.8900461625
 30
0.0
 40
1.000000000000057
100
AcDbArc
 50
90.0
 51
0.0
  0
LINE
  5
B0
330
1F
100
AcDbEntity
  8
0
  6
SLD-CONTINUA
 62
     7
100
AcDbLine
 10
297.0349141226
 20
230.890031619
 30
0.0
 11
301.5349306927
 21
230.890031619
 31
0.0
  0
ARC
  5
B1
330
1F
100
AcDbEntity
  8
0
  6
SLD-CONTINUA
 62
     7
100
AcDbCircle
 10
302.5349202023
 20
230.8900461625
 30
0.0
 40
1.0
100
AcDbArc
 50
180.0
 51
90.0
  0
LINE
  5
B2
330
1F
100
AcDbEntity
  8
0
  6
SLD-CONTINUA
 62
     7
100
AcDbLine
 10
302.5349178181
 20
231.8900485467
 30
0.0
 11
302.5349178181
 21
240.8900518846
 31
0.0
  0
LINE
  5
B3
330
1F
100
AcDbEntity
  8
0
  6
SLD-CONTINUA
 62
     7
100
AcDbLine
 10
371.0349299775
 20
240.8900518846
 30
0.0
 11
302.5349178181
 21
240.8900518846
 31
0.0
  0
LINE
  5
B4
330
1F
100
AcDbEntity
  8
0
  6
SLD-CONTINUA
 62
     7
100
AcDbLine
 10
371.0349299775
 20
240.8900518846
 30
0.0
 11
371.0349299775
 21
231.8900485467
 31
0.0
  0
ARC
  5
B5
330
1F
100
AcDbEntity
  8
0
  6
SLD-CONTINUA
 62
     7
100
AcDbCircle
 10
371.0349202023
 20
230.8900461625
 30
0.0
 40
1.0
100
AcDbArc
 50
90.0
 51
360.0
  0
LINE
  5
B6
330
1F
100
AcDbEntity
  8
0
  6
SLD-CONTINUA
 62
     7
100
AcDbLine
 10
372.0349171029
 20
230.890031619
 30
0.0
 11
376.5349187718
 21
230.890031619
 31
0.0
  0
ARC
  5
B7
330
1F
100
AcDbEntity
  8
0
  6
SLD-CONTINUA
 62
     7
100
AcDbCircle
 10
377.5349202023
 20
230.8900461625
 30
0.0
 40
1.0
100
AcDbArc
 50
180.0
 51
90.0
  0
LINE
  5
B8
330
1F
100
AcDbEntity
  8
0
  6
SLD-CONTINUA
 62
     7
100
AcDbLine
 10
377.5349058972
 20
231.8900485467
 30
0.0
 11
377.5349058972
 21
240.8900518846
 31
0.0
  0
LINE
  5
B9
330
1F
100
AcDbEntity
  8
0
  6
SLD-CONTINUA
 62
     7
100
AcDbLine
 10
446.0349180565
 20
240.8900518846
 30
0.0
 11
377.5349058972
 21
240.8900518846
 31
0.0
  0
LINE
  5
BA
330
1F
100
AcDbEntity
  8
0
  6
SLD-CONTINUA
 62
     7
100
AcDbLine
 10
446.0349180565
 20
240.8900518846
 30
0.0
 11
446.0349180565
 21
231.8900485467
 31
0.0
  0
ARC
  5
BB
330
1F
100
AcDbEntity
  8
0
  6
SLD-CONTINUA
 62
     7
100
AcDbCircle
 10
446.0349202023
 20
230.8900461625
 30
0.0
 40
1.0
100
AcDbArc
 50
90.0
 51
360.0
  0
LINE
  5
BC
330
1F
100
AcDbEntity
  8
0
  6
SLD-CONTINUA
 62
     7
100
AcDbLine
 10
447.0349349843
 20
230.890031619
 30
0.0
 11
451.5349068509
 21
230.890031619
 31
0.0
  0
ARC
  5
BD
330
1F
100
AcDbEntity
  8
0
  6
SLD-CONTINUA
 62
     7
100
AcDbCircle
 10
452.5349202023
 20
230.8900461625
 30
0.0
 40
1.0
100
AcDbArc
 50
180.0
 51
90.0
  0
LINE
  5
BE
330
1F
100
AcDbEntity
  8
0
  6
SLD-CONTINUA
 62
     7
100
AcDbLine
 10
452.5349237786
 20
231.8900485467
 30
0.0
 11
452.5349237786
 21
240.8900518846
 31
0.0
  0
LINE
  5
BF
330
1F
100
AcDbEntity
  8
0
  6
SLD-CONTINUA
 62
     7
100
AcDbLine
 10
521.0349061356
 20
240.8900518846
 30
0.0
 11
452.5349237786
 21
240.8900518846
 31
0.0
  0
LINE
  5
C0
330
1F
100
AcDbEntity
  8
0
  6
SLD-CONTINUA
 62
     7
100
AcDbLine
 10
521.0349061356
 20
240.8900518846
 30
0.0
 11
521.0349061356
 21
231.8900485467
 31
0.0
  0
ARC
  5
C1
330
1F
100
AcDbEntity
  8
0
  6
SLD-CONTINUA
 62
     7
100
AcDbCircle
 10
521.0349202023
 20
230.8900461625
 30
0.0
 40
1.0
100
AcDbArc
 50
90.0
 51
0.0
  0
LINE
  5
C2
330
1F
100
AcDbEntity
  8
0
  6
SLD-CONTINUA
 62
     7
100
AcDbLine
 10
522.0349230633
 20
230.890031619
 30
0.0
 11
526.5349247323
 21
230.890031619
 31
0.0
  0
ARC
  5
C3
330
1F
100
AcDbEntity
  8
0
  6
SLD-CONTINUA
 62
     7
100
AcDbCircle
 10
527.5349202023
 20
230.8900461625
 30
0.0
 40
1.0
100
AcDbArc
 50
180.0
 51
90.0
  0
LINE
  5
C4
330
1F
100
AcDbEntity
  8
0
  6
SLD-CONTINUA
 62
     7
100
AcDbLine
 10
527.5349118577
 20
231.8900485467
 30
0.0
 11
527.5349118577
 21
240.8900518846
 31
0.0
  0
LINE
  5
C5
330
1F
100
AcDbEntity
  8
0
  6
SLD-CONTINUA
 62
     7
100
AcDbLine
 10
555.0349154339
 20
240.8900518846
 30
0.0
 11
527.5349118577
 21
240.8900518846
 31
0.0
  0
LINE
  5
C6
330
1F
100
AcDbEntity
  8
0
  6
SLD-CONTINUA
 62
     7
100
AcDbLine
 10
565.0349058972
 20
250.8900423478
 30
0.0
 11
555.0349154339
 21
240.8900518846
 31
0.0
  0
LINE
  5
C7
330
1F
100
AcDbEntity
  8
0
  6
SLD-CONTINUA
 62
     7
100
AcDbLine
 10
565.0349058972
 20
258.7900419664
 30
0.0
 11
565.0349058972
 21
250.8900423478
 31
0.0
  0
LINE
  5
C8
330
1F
100
AcDbEntity
  8
0
  6
SLD-CONTINUA
 62
     7
100
AcDbLine
 10
565.0349058972
 20
258.7900419664
 30
0.0
 11
574.134925829
 21
258.7900419664
 31
0.0
  0
ARC
  5
C9
330
1F
100
AcDbEntity
  8
0
  6
SLD-CONTINUA
 62
     7
100
AcDbCircle
 10
575.1349202023
 20
258.7900461625
 30
0.0
 40
1.0
100
AcDbArc
 50
180.0
 51
90.0
  0
LINE
  5
CA
330
1F
100
AcDbEntity
  8
0
  6
SLD-CONTINUA
 62
     7
100
AcDbLine
 10
575.1349129544
 20
259.7900588941
 30
0.0
 11
575.1349129544
 21
287.9900594186
 31
0.0
  0
ARC
  5
CB
330
1F
100
AcDbEntity
  8
0
  6
SLD-CONTINUA
 62
     7
100
AcDbCircle
 10
575.1349202023
 20
288.9900461625
 30
0.0
 40
1.0
100
AcDbArc
 50
270.0
 51
180.0
  0
LINE
  5
CC
330
1F
100
AcDbEntity
  8
0
  6
SLD-CONTINUA
 62
     7
100
AcDbLine
 10
574.134925829
 20
288.990046544
 30
0.0
 11
565.0349058972
 21
288.990046544
 31
0.0
  0
LINE
  5
CD
330
1F
100
AcDbEntity
  8
0
  6
SLD-CONTINUA
 62
     7
100
AcDbLine
 10
565.0349058972
 20
353.7900407743
 30
0.0
 11
565.0349058972
 21
288.990046544
 31
0.0
  0
LINE
  5
CE
330
1F
100
AcDbEntity
  8
0
  6
SLD-CONTINUA
 62
     7
100
AcDbLine
 10
565.0349058972
 20
353.7900407743
 30
0.0
 11
574.134925829
 21
353.7900407743
 31
0.0
  0
ARC
  5
CF
330
1F
100
AcDbEntity
  8
0
  6
SLD-CONTINUA
 62
     7
100
AcDbCircle
 10
575.1349202023
 20
353.7900461625
 30
0.0
 40
1.0
100
AcDbArc
 50
180.0
 51
90.0
  0
LINE
  5
D0
330
1F
100
AcDbEntity
  8
0
  6
SLD-CONTINUA
 62
     7
100
AcDbLine
 10
575.1349129544
 20
354.7900428008
 30
0.0
 11
575.1349129544
 21
382.9900433253
 31
0.0
  0
ARC
  5
D1
330
1F
100
AcDbEntity
  8
0
  6
SLD-CONTINUA
 62
     7
100
AcDbCircle
 10
585.1349202023
 20
230.9400461625
 30
0.0
 40
1.0
100
AcDbArc
 50
270.0
 51
180.0
  0
LINE
  5
D2
330
1F
100
AcDbEntity
  8
0
  6
SLD-CONTINUA
 62
     7
100
AcDbLine
 10
584.1349162922
 20
230.940039916
 30
0.0
 11
575.9349264966
 21
230.940039916
 31
0.0
  0
ARC
  5
D3
330
1F
100
AcDbEntity
  8
0
  6
SLD-CONTINUA
 62
     7
100
AcDbCircle
 10
574.9349202023
 20
230.9400461625
 30
0.0
 40
1.0
100
AcDbArc
 50
0.0
 51
270.0
  0
LINE
  5
D4
330
1F
100
AcDbEntity
  8
0
  6
SLD-CONTINUA
 62
     7
100
AcDbLine
 10
574.9349393712
 20
229.9400527906
 30
0.0
 11
574.9349393712
 21
211.7400427293
 31
0.0
  0
ARC
  5
D5
330
1F
100
AcDbEntity
  8
0
  6
SLD-CONTINUA
 62
     7
100
AcDbCircle
 10
574.9349202023
 20
210.7400461625
 30
0.0
 40
1.0
100
AcDbArc
 50
90.0
 51
0.0
  0
LINE
  5
D6
330
1F
100
AcDbEntity
  8
0
  6
SLD-CONTINUA
 62
     7
100
AcDbLine
 10
575.9349264966
 20
210.7400556039
 30
0.0
 11
584.1349162922
 21
210.7400556039
 31
0.0
  0
ARC
  5
D7
330
1F
100
AcDbEntity
  8
0
  6
SLD-CONTINUA
 62
     7
100
AcDbCircle
 10
585.1349202023
 20
210.7400461625
 30
0.0
 40
1.0
100
AcDbArc
 50
180.0
 51
90.0
  0
LINE
  5
D8
330
1F
100
AcDbEntity
  8
0
  6
SLD-CONTINUA
 62
     7
100
AcDbLine
 10
585.1349034176
 20
211.7400427293
 30
0.0
 11
585.1349034176
 21
229.9400527906
 31
0.0
  0
ARC
  5
D9
330
1F
100
AcDbEntity
  8
0
  6
SLD-CONTINUA
 62
     7
100
AcDbCircle
 10
585.1349202023
 20
308.7900461625
 30
0.0
 40
1.0
100
AcDbArc
 50
180.0
 51
90.0
  0
LINE
  5
DA
330
1F
100
AcDbEntity
  8
0
  6
SLD-CONTINUA
 62
     7
100
AcDbLine
 10
585.1349034176
 20
327.9900510739
 30
0.0
 11
585.1349034176
 21
309.7900410127
 31
0.0
  0
ARC
  5
DB
330
1F
100
AcDbEntity
  8
0
  6
SLD-CONTINUA
 62
     7
100
AcDbCircle
 10
585.1349202023
 20
328.9900461625
 30
0.0
 40
1.0
100
AcDbArc
 50
270.0
 51
180.0
  0
LINE
  5
DC
330
1F
100
AcDbEntity
  8
0
  6
SLD-CONTINUA
 62
     7
100
AcDbLine
 10
575.9349264966
 20
328.9900531005
 30
0.0
 11
584.1349162922
 21
328.9900531005
 31
0.0
  0
ARC
  5
DD
330
1F
100
AcDbEntity
  8
0
  6
SLD-CONTINUA
 62
     7
100
AcDbCircle
 10
574.9349202023
 20
328.9900461625
 30
0.0
 40
1.0
100
AcDbArc
 50
0.0
 51
270.0
  0
LINE
  5
DE
330
1F
100
AcDbEntity
  8
0
  6
SLD-CONTINUA
 62
     7
100
AcDbLine
 10
574.9349393712
 20
309.7900410127
 30
0.0
 11
574.9349393712
 21
327.9900510739
 31
0.0
  0
ARC
  5
DF
330
1F
100
AcDbEntity
  8
0
  6
SLD-CONTINUA
 62
     7
100
AcDbCircle
 10
574.9349202023
 20
308.7900461625
 30
0.0
 40
1.0
100
AcDbArc
 50
90.0
 51
0.0
  0
LINE
  5
E0
330
1F
100
AcDbEntity
  8
0
  6
SLD-CONTINUA
 62
     7
100
AcDbLine
 10
584.1349162922
 20
308.7900389861
 30
0.0
 11
575.9349264966
 21
308.7900389861
 31
0.0
  0
ARC
  5
E1
330
1F
100
AcDbEntity
  8
0
  6
SLD-CONTINUA
 62
     7
100
AcDbCircle
 10
585.1349202023
 20
428.9900461625
 30
0.0
 40
1.0
100
AcDbArc
 50
270.0
 51
180.0
  0
LINE
  5
E2
330
1F
100
AcDbEntity
  8
0
  6
SLD-CONTINUA
 62
     7
100
AcDbLine
 10
575.9349264966
 20
428.99004714
 30
0.0
 11
584.1349162922
 21
428.99004714
 31
0.0
  0
ARC
  5
E3
330
1F
100
AcDbEntity
  8
0
  6
SLD-CONTINUA
 62
     7
100
AcDbCircle
 10
574.9349202023
 20
428.9900461625
 30
0.0
 40
1.0
100
AcDbArc
 50
0.0
 51
270.0
  0
LINE
  5
E4
330
1F
100
AcDbEntity
  8
0
  6
SLD-CONTINUA
 62
     7
100
AcDbLine
 10
574.9349393712
 20
409.7900499534
 30
0.0
 11
574.9349393712
 21
427.9900451135
 31
0.0
  0
ARC
  5
E5
330
1F
100
AcDbEntity
  8
0
  6
SLD-CONTINUA
 62
     7
100
AcDbCircle
 10
574.9349202023
 20
408.7900461625
 30
0.0
 40
1.0
100
AcDbArc
 50
90.0
 51
0.0
  0
LINE
  5
E6
330
1F
100
AcDbEntity
  8
0
  6
SLD-CONTINUA
 62
     7
100
AcDbLine
 10
584.1349162922
 20
408.7900479268
 30
0.0
 11
575.9349264966
 21
408.7900479268
 31
0.0
  0
ARC
  5
E7
330
1F
100
AcDbEntity
  8
0
  6
SLD-CONTINUA
 62
     7
100
AcDbCircle
 10
585.1349202023
 20
408.7900461625
 30
0.0
 40
1.0
100
AcDbArc
 50
180.0
 51
90.0
  0
LINE
  5
E8
330
1F
100
AcDbEntity
  8
0
  6
SLD-CONTINUA
 62
     7
100
AcDbLine
 10
585.1349034176
 20
427.9900451135
 30
0.0
 11
585.1349034176
 21
409.7900499534
 31
0.0
  0
ARC
  5
E9
330
1F
100
AcDbEntity
  8
0
  6
SLD-CONTINUA
 62
     7
100
AcDbCircle
 10
585.1349202023
 20
506.8400461625
 30
0.0
 40
1.0
100
AcDbArc
 50
180.0
 51
90.0
  0
LINE
  5
EA
330
1F
100
AcDbEntity
  8
0
  6
SLD-CONTINUA
 62
     7
100
AcDbLine
 10
585.1349034176
 20
507.8400445115
 30
0.0
 11
585.1349034176
 21
526.0400452595
 31
0.0
  0
ARC
  5
EB
330
1F
100
AcDbEntity
  8
0
  6
SLD-CONTINUA
 62
     7
100
AcDbCircle
 10
585.1349202023
 20
527.0400461625
 30
0.0
 40
1.0
100
AcDbArc
 50
270.0
 51
180.0
  0
LINE
  5
EC
330
1F
100
AcDbEntity
  8
0
  6
SLD-CONTINUA
 62
     7
100
AcDbLine
 10
584.1349162922
 20
527.0400454234
 30
0.0
 11
575.9349264966
 21
527.0400454234
 31
0.0
  0
ARC
  5
ED
330
1F
100
AcDbEntity
  8
0
  6
SLD-CONTINUA
 62
     7
100
AcDbCircle
 10
574.9349202023
 20
527.0400461625
 30
0.0
 40
1.0
100
AcDbArc
 50
0.0
 51
270.0
  0
LINE
  5
EE
330
1F
100
AcDbEntity
  8
0
  6
SLD-CONTINUA
 62
     7
100
AcDbLine
 10
574.9349393712
 20
526.0400452595
 30
0.0
 11
574.9349393712
 21
507.8400445115
 31
0.0
  0
ARC
  5
EF
330
1F
100
AcDbEntity
  8
0
  6
SLD-CONTINUA
 62
     7
100
AcDbCircle
 10
574.9349202023
 20
506.8400461625
 30
0.0
 40
1.0
100
AcDbArc
 50
90.0
 51
0.0
  0
LINE
  5
F0
330
1F
100
AcDbEntity
  8
0
  6
SLD-CONTINUA
 62
     7
100
AcDbLine
 10
575.9349264966
 20
506.8400462102
 30
0.0
 11
584.1349162922
 21
506.8400462102
 31
0.0
  0
ARC
  5
F1
330
1F
100
AcDbEntity
  8
0
  6
SLD-CONTINUA
 62
     7
100
AcDbCircle
 10
218.5849202023
 20
230.8400461625
 30
0.0
 40
1.000000000000028
100
AcDbArc
 50
180.0
 51
90.0
  0
LINE
  5
F2
330
1F
100
AcDbEntity
  8
0
  6
SLD-CONTINUA
 62
     7
100
AcDbLine
 10
218.584919797
 20
239.9400432538
 30
0.0
 11
218.584919797
 21
231.8400402497
 31
0.0
  0
ARC
  5
F3
330
1F
100
AcDbEntity
  8
0
  6
SLD-CONTINUA
 62
     7
100
AcDbCircle
 10
218.5849202023
 20
240.9400461625
 30
0.0
 40
1.0
100
AcDbArc
 50
270.0
 51
180.0
  0
LINE
  5
F4
330
1F
100
AcDbEntity
  8
0
  6
SLD-CONTINUA
 62
     7
100
AcDbLine
 10
169.484923111
 20
240.9400601815
 30
0.0
 11
217.5849177704
 21
240.9400601815
 31
0.0
  0
ARC
  5
F5
330
1F
100
AcDbEntity
  8
0
  6
SLD-CONTINUA
 62
     7
100
AcDbCircle
 10
168.4849202023
 20
240.9400461625
 30
0.0
 40
1.0
100
AcDbArc
 50
0.0
 51
270.0
  0
LINE
  5
F6
330
1F
100
AcDbEntity
  8
0
  6
SLD-CONTINUA
 62
     7
100
AcDbLine
 10
168.4849210845
 20
231.8400402497
 30
0.0
 11
168.4849210845
 21
239.9400432538
 31
0.0
  0
ARC
  5
F7
330
1F
100
AcDbEntity
  8
0
  6
SLD-CONTINUA
 62
     7
100
AcDbCircle
 10
168.4849202023
 20
230.8400461625
 30
0.0
 40
1.000000000000028
100
AcDbArc
 50
90.0
 51
0.0
  0
LINE
  5
F8
330
1F
100
AcDbEntity
  8
0
  6
SLD-CONTINUA
 62
     7
100
AcDbLine
 10
217.5849177704
 20
230.8400531243
 30
0.0
 11
169.484923111
 21
230.8400531243
 31
0.0
  0
ARC
  5
F9
330
1F
100
AcDbEntity
  8
0
  6
SLD-CONTINUA
 62
     7
100
AcDbCircle
 10
238.4349202023
 20
313.7900461625
 30
0.0
 40
1.0
100
AcDbArc
 50
90.0
 51
0.0
  0
LINE
  5
FA
330
1F
100
AcDbEntity
  8
0
  6
SLD-CONTINUA
 62
     7
100
AcDbLine
 10
247.6349272595
 20
313.7900491189
 30
0.0
 11
239.4349225627
 21
313.7900491189
 31
0.0
  0
ARC
  5
FB
330
1F
100
AcDbEntity
  8
0
  6
SLD-CONTINUA
 62
     7
100
AcDbCircle
 10
248.6349202023
 20
313.7900461625
 30
0.0
 40
1.0
100
AcDbArc
 50
180.0
 51
90.0
  0
LINE
  5
FC
330
1F
100
AcDbEntity
  8
0
  6
SLD-CONTINUA
 62
     7
100
AcDbLine
 10
248.6349143849
 20
332.9900463056
 30
0.0
 11
248.6349143849
 21
314.7900511455
 31
0.0
  0
ARC
  5
FD
330
1F
100
AcDbEntity
  8
0
  6
SLD-CONTINUA
 62
     7
100
AcDbCircle
 10
248.6349202023
 20
333.9900461625
 30
0.0
 40
1.000000000000057
100
AcDbArc
 50
270.0
 51
180.0
  0
LINE
  5
FE
330
1F
100
AcDbEntity
  8
0
  6
SLD-CONTINUA
 62
     7
100
AcDbLine
 10
239.4349225627
 20
333.9900483321
 30
0.0
 11
247.6349272595
 21
333.9900483321
 31
0.0
  0
ARC
  5
FF
330
1F
100
AcDbEntity
  8
0
  6
SLD-CONTINUA
 62
     7
100
AcDbCircle
 10
238.4349202023
 20
333.9900461625
 30
0.0
 40
1.000000000000057
100
AcDbArc
 50
0.0
 51
270.0
  0
LINE
  5
100
330
1F
100
AcDbEntity
  8
0
  6
SLD-CONTINUA
 62
     7
100
AcDbLine
 10
238.4349205361
 20
314.7900511455
 30
0.0
 11
238.4349205361
 21
332.9900463056
 31
0.0
  0
ARC
  5
101
330
1F
100
AcDbEntity
  8
0
  6
SLD-CONTINUA
 62
     7
100
AcDbCircle
 10
238.4349202023
 20
423.9900461625
 30
0.0
 40
1.0
100
AcDbArc
 50
0.0
 51
270.0
  0
LINE
  5
102
330
1F
100
AcDbEntity
  8
0
  6
SLD-CONTINUA
 62
     7
100
AcDbLine
 10
238.4349205361
 20
404.7900398206
 30
0.0
 11
238.4349205361
 21
422.9900498819
 31
0.0
  0
ARC
  5
103
330
1F
100
AcDbEntity
  8
0
  6
SLD-CONTINUA
 62
     7
100
AcDbCircle
 10
238.4349202023
 20
403.7900461625
 30
0.0
 40
1.0
100
AcDbArc
 50
90.0
 51
0.0
  0
LINE
  5
104
330
1F
100
AcDbEntity
  8
0
  6
SLD-CONTINUA
 62
     7
100
AcDbLine
 10
247.6349272595
 20
403.7900526952
 30
0.0
 11
239.4349225627
 21
403.7900526952
 31
0.0
  0
ARC
  5
105
330
1F
100
AcDbEntity
  8
0
  6
SLD-CONTINUA
 62
     7
100
AcDbCircle
 10
248.6349202023
 20
403.7900461625
 30
0.0
 40
1.0
100
AcDbArc
 50
180.0
 51
90.0
  0
LINE
  5
106
330
1F
100
AcDbEntity
  8
0
  6
SLD-CONTINUA
 62
     7
100
AcDbLine
 10
248.6349143849
 20
422.9900498819
 30
0.0
 11
248.6349143849
 21
404.7900398206
 31
0.0
  0
ARC
  5
107
330
1F
100
AcDbEntity
  8
0
  6
SLD-CONTINUA
 62
     7
100
AcDbCircle
 10
248.6349202023
 20
423.9900461625
 30
0.0
 40
1.0
100
AcDbArc
 50
270.0
 51
180.0
  0
LINE
  5
108
330
1F
100
AcDbEntity
  8
0
  6
SLD-CONTINUA
 62
     7
100
AcDbLine
 10
239.4349225627
 20
423.9900444578
 30
0.0
 11
247.6349272595
 21
423.9900444578
 31
0.0
  0
ARC
  5
109
330
1F
100
AcDbEntity
  8
0
  6
SLD-CONTINUA
 62
     7
100
AcDbCircle
 10
168.4849202023
 20
496.8400461625
 30
0.0
 40
1.0
100
AcDbArc
 50
90.0
 51
0.0
  0
LINE
  5
10A
330
1F
100
AcDbEntity
  8
0
  6
SLD-CONTINUA
 62
     7
100
AcDbLine
 10
217.5849177704
 20
496.8400445711
 30
0.0
 11
169.484923111
 21
496.8400445711
 31
0.0
  0
ARC
  5
10B
330
1F
100
AcDbEntity
  8
0
  6
SLD-CONTINUA
 62
     7
100
AcDbCircle
 10
218.5849202023
 20
496.8400461625
 30
0.0
 40
1.0
100
AcDbArc
 50
180.0
 51
90.0
  0
LINE
  5
10C
330
1F
100
AcDbEntity
  8
0
  6
SLD-CONTINUA
 62
     7
100
AcDbLine
 10
218.584919797
 20
505.9400458764
 30
0.0
 11
218.584919797
 21
497.8400465976
 31
0.0
  0
ARC
  5
10D
330
1F
100
AcDbEntity
  8
0
  6
SLD-CONTINUA
 62
     7
100
AcDbCircle
 10
218.5849202023
 20
506.9400461625
 30
0.0
 40
1.000000000000114
100
AcDbArc
 50
270.0
 51
180.0
  0
LINE
  5
10E
330
1F
100
AcDbEntity
  8
0
  6
SLD-CONTINUA
 62
     7
100
AcDbLine
 10
169.484923111
 20
506.940047903
 30
0.0
 11
217.5849177704
 21
506.940047903
 31
0.0
  0
ARC
  5
10F
330
1F
100
AcDbEntity
  8
0
  6
SLD-CONTINUA
 62
     7
100
AcDbCircle
 10
168.4849202023
 20
506.9400461625
 30
0.0
 40
1.0
100
AcDbArc
 50
0.0
 51
270.0
  0
LINE
  5
110
330
1F
100
AcDbEntity
  8
0
  6
SLD-CONTINUA
 62
     7
100
AcDbLine
 10
168.4849210845
 20
497.8400465976
 30
0.0
 11
168.4849210845
 21
505.9400458764
 31
0.0
  0
ARC
  5
111
330
1F
100
AcDbEntity
  8
0
  6
SLD-CONTINUA
 62
     7
100
AcDbCircle
 10
89.9349202023
 20
491.4900461625
 30
0.0
 40
1.0
100
AcDbArc
 50
0.0
 51
270.0
  0
LINE
  5
112
330
1F
100
AcDbEntity
  8
0
  6
SLD-CONTINUA
 62
     7
100
AcDbLine
 10
89.9349213408
 20
467.2900472712
 30
0.0
 11
89.9349213408
 21
490.4900451135
 31
0.0
  0
ARC
  5
113
330
1F
100
AcDbEntity
  8
0
  6
SLD-CONTINUA
 62
     7
100
AcDbCircle
 10
89.9349202023
 20
466.2900461625
 30
0.0
 40
1.0
100
AcDbArc
 50
90.0
 51
0.0
  0
LINE
  5
114
330
1F
100
AcDbEntity
  8
0
  6
SLD-CONTINUA
 62
     7
100
AcDbLine
 10
99.1349206136
 20
466.2900452446
 30
0.0
 11
90.934919642
 21
466.2900452446
 31
0.0
  0
ARC
  5
115
330
1F
100
AcDbEntity
  8
0
  6
SLD-CONTINUA
 62
     7
100
AcDbCircle
 10
100.1349202023
 20
466.2900461625
 30
0.0
 40
0.9999999999999716
100
AcDbArc
 50
180.0
 51
90.0
  0
LINE
  5
116
330
1F
100
AcDbEntity
  8
0
  6
SLD-CONTINUA
 62
     7
100
AcDbLine
 10
100.1349189148
 20
490.4900451135
 30
0.0
 11
100.1349189148
 21
467.2900472712
 31
0.0
  0
ARC
  5
117
330
1F
100
AcDbEntity
  8
0
  6
SLD-CONTINUA
 62
     7
100
AcDbCircle
 10
100.1349202023
 20
491.4900461625
 30
0.0
 40
1.0
100
AcDbArc
 50
270.0
 51
180.0
  0
LINE
  5
118
330
1F
100
AcDbEntity
  8
0
  6
SLD-CONTINUA
 62
     7
100
AcDbLine
 10
90.934919642
 20
491.49004714
 30
0.0
 11
99.1349206136
 21
491.49004714
 31
0.0
  0
ARC
  5
119
330
1F
100
AcDbEntity
  8
0
  6
SLD-CONTINUA
 62
     7
100
AcDbCircle
 10
100.1349202023
 20
392.9567128292
 30
0.0
 40
1.0
100
AcDbArc
 50
180.0
 51
90.0
  0
LINE
  5
11A
330
1F
100
AcDbEntity
  8
0
  6
SLD-CONTINUA
 62
     7
100
AcDbLine
 10
100.1349189148
 20
417.1567072105
 30
0.0
 11
100.1349189148
 21
393.9567168187
 31
0.0
  0
ARC
  5
11B
330
1F
100
AcDbEntity
  8
0
  6
SLD-CONTINUA
 62
     7
100
AcDbCircle
 10
100.1349202023
 20
418.1567128292
 30
0.0
 40
1.0
100
AcDbArc
 50
270.0
 51
180.0
  0
LINE
  5
11C
330
1F
100
AcDbEntity
  8
0
  6
SLD-CONTINUA
 62
     7
100
AcDbLine
 10
90.934919642
 20
418.156709237
 30
0.0
 11
99.1349206136
 21
418.156709237
 31
0.0
  0
ARC
  5
11D
330
1F
100
AcDbEntity
  8
0
  6
SLD-CONTINUA
 62
     7
100
AcDbCircle
 10
89.9349202023
 20
418.1567128292
 30
0.0
 40
1.0
100
AcDbArc
 50
0.0
 51
270.0
  0
LINE
  5
11E
330
1F
100
AcDbEntity
  8
0
  6
SLD-CONTINUA
 62
     7
100
AcDbLine
 10
89.9349213408
 20
393.9567168187
 30
0.0
 11
89.9349213408
 21
417.1567072105
 31
0.0
  0
ARC
  5
11F
330
1F
100
AcDbEntity
  8
0
  6
SLD-CONTINUA
 62
     7
100
AcDbCircle
 10
89.9349202023
 20
392.9567128292
 30
0.0
 40
1.0
100
AcDbArc
 50
90.0
 51
0.0
  0
LINE
  5
120
330
1F
100
AcDbEntity
  8
0
  6
SLD-CONTINUA
 62
     7
100
AcDbLine
 10
99.1349206136
 20
392.9567147922
 30
0.0
 11
90.934919642
 21
392.9567147922
 31
0.0
  0
ARC
  5
121
330
1F
100
AcDbEntity
  8
0
  6
SLD-CONTINUA
 62
     7
100
AcDbCircle
 10
89.9349202023
 20
319.6233794959
 30
0.0
 40
1.0
100
AcDbArc
 50
90.0
 51
0.0
  0
LINE
  5
122
330
1F
100
AcDbEntity
  8
0
  6
SLD-CONTINUA
 62
     7
100
AcDbLine
 10
99.1349206136
 20
319.6233768891
 30
0.0
 11
90.934919642
 21
319.6233768891
 31
0.0
  0
ARC
  5
123
330
1F
100
AcDbEntity
  8
0
  6
SLD-CONTINUA
 62
     7
100
AcDbCircle
 10
100.1349202023
 20
319.6233794959
 30
0.0
 40
1.0
100
AcDbArc
 50
180.0
 51
90.0
  0
LINE
  5
124
330
1F
100
AcDbEntity
  8
0
  6
SLD-CONTINUA
 62
     7
100
AcDbLine
 10
100.1349189148
 20
343.8233842086
 30
0.0
 11
100.1349189148
 21
320.6233789157
 31
0.0
  0
ARC
  5
125
330
1F
100
AcDbEntity
  8
0
  6
SLD-CONTINUA
 62
     7
100
AcDbCircle
 10
100.1349202023
 20
344.8233794959
 30
0.0
 40
1.0
100
AcDbArc
 50
270.0
 51
180.0
  0
LINE
  5
126
330
1F
100
AcDbEntity
  8
0
  6
SLD-CONTINUA
 62
     7
100
AcDbLine
 10
90.934919642
 20
344.8233862352
 30
0.0
 11
99.1349206136
 21
344.8233862352
 31
0.0
  0
ARC
  5
127
330
1F
100
AcDbEntity
  8
0
  6
SLD-CONTINUA
 62
     7
100
AcDbCircle
 10
89.9349202023
 20
344.8233794959
 30
0.0
 40
1.0
100
AcDbArc
 50
0.0
 51
270.0
  0
LINE
  5
128
330
1F
100
AcDbEntity
  8
0
  6
SLD-CONTINUA
 62
     7
100
AcDbLine
 10
89.9349213408
 20
320.6233789157
 30
0.0
 11
89.9349213408
 21
343.8233842086
 31
0.0
  0
ARC
  5
129
330
1F
100
AcDbEntity
  8
0
  6
SLD-CONTINUA
 62
     7
100
AcDbCircle
 10
100.1349202023
 20
271.4900461625
 30
0.0
 40
1.0
100
AcDbArc
 50
270.0
 51
180.0
  0
LINE
  5
12A
330
1F
100
AcDbEntity
  8
0
  6
SLD-CONTINUA
 62
     7
100
AcDbLine
 10
90.934919642
 20
271.490033431
 30
0.0
 11
99.1349206136
 21
271.490033431
 31
0.0
  0
ARC
  5
12B
330
1F
100
AcDbEntity
  8
0
  6
SLD-CONTINUA
 62
     7
100
AcDbCircle
 10
89.9349202023
 20
271.4900461625
 30
0.0
 40
1.0
100
AcDbArc
 50
0.0
 51
270.0
  0
LINE
  5
12C
330
1F
100
AcDbEntity
  8
0
  6
SLD-CONTINUA
 62
     7
100
AcDbLine
 10
89.9349213408
 20
247.2900410127
 30
0.0
 11
89.9349213408
 21
270.4900463056
 31
0.0
  0
ARC
  5
12D
330
1F
100
AcDbEntity
  8
0
  6
SLD-CONTINUA
 62
     7
100
AcDbCircle
 10
89.9349202023
 20
246.2900461625
 30
0.0
 40
1.0
100
AcDbArc
 50
90.0
 51
0.0
  0
LINE
  5
12E
330
1F
100
AcDbEntity
  8
0
  6
SLD-CONTINUA
 62
     7
100
AcDbLine
 10
99.1349206136
 20
246.2900538873
 30
0.0
 11
90.934919642
 21
246.2900538873
 31
0.0
  0
ARC
  5
12F
330
1F
100
AcDbEntity
  8
0
  6
SLD-CONTINUA
 62
     7
100
AcDbCircle
 10
100.1349202023
 20
246.2900461625
 30
0.0
 40
1.0
100
AcDbArc
 50
180.0
 51
90.0
  0
LINE
  5
130
330
1F
100
AcDbEntity
  8
0
  6
SLD-CONTINUA
 62
     7
100
AcDbLine
 10
100.1349189148
 20
270.4900463056
 30
0.0
 11
100.1349189148
 21
247.2900410127
 31
0.0
  0
CIRCLE
  5
131
330
1F
100
AcDbEntity
  8
0
  6
SLD-CONTINUA
 62
     7
100
AcDbCircle
 10
605.0349202023
 20
210.8900461625
 30
0.0
 40
6.25
  0
CIRCLE
  5
132
330
1F
100
AcDbEntity
  8
0
  6
SLD-CONTINUA
 62
     7
100
AcDbCircle
 10
348.5349202023
 20
210.8900461625
 30
0.0
 40
6.25
  0
CIRCLE
  5
133
330
1F
100
AcDbEntity
  8
0
  6
SLD-CONTINUA
 62
     7
100
AcDbCircle
 10
475.0349202023
 20
210.8900461625
 30
0.0
 40
6.25
  0
CIRCLE
  5
134
330
1F
100
AcDbEntity
  8
0
  6
SLD-CONTINUA
 62
     7
100
AcDbCircle
 10
348.5349202023
 20
526.8900461625
 30
0.0
 40
6.25
  0
CIRCLE
  5
135
330
1F
100
AcDbEntity
  8
0
  6
SLD-CONTINUA
 62
     7
100
AcDbCircle
 10
475.0349202023
 20
526.8900461625
 30
0.0
 40
6.25
  0
CIRCLE
  5
136
330
1F
100
AcDbEntity
  8
0
  6
SLD-CONTINUA
 62
     7
100
AcDbCircle
 10
605.0349202023
 20
526.8900461625
 30
0.0
 40
6.249999999999886
  0
CIRCLE
  5
137
330
1F
100
AcDbEntity
  8
0
  6
SLD-CONTINUA
 62
     7
100
AcDbCircle
 10
228.5349202023
 20
526.8900461625
 30
0.0
 40
6.25
  0
CIRCLE
  5
138
330
1F
100
AcDbEntity
  8
0
  6
SLD-CONTINUA
 62
     7
100
AcDbCircle
 10
70.0349202023
 20
526.8900461625
 30
0.0
 40
6.250000000000043
  0
LINE
  5
139
330
1F
100
AcDbEntity
  8
0
  6
SLD-CONTINUA
 62
     7
100
AcDbLine
 10
625.0349082814
 20
536.890046386
 30
0.0
 11
615.0349178181
 21
546.8900461625
 31
0.0
  0
LINE
  5
13A
330
1F
100
AcDbEntity
  8
0
  6
SLD-CONTINUA
 62
     7
100
AcDbLine
 10
625.0349082814
 20
536.890046386
 30
0.0
 11
625.0349082814
 21
200.8900602292
 31
0.0
  0
LINE
  5
13B
330
1F
100
AcDbEntity
  8
0
  6
SLD-CONTINUA
 62
     7
100
AcDbLine
 10
615.0349178181
 20
190.8900399636
 30
0.0
 11
625.0349082814
 21
200.8900602292
 31
0.0
  0
LINE
  5
13C
330
1F
100
AcDbEntity
  8
0
  6
SLD-CONTINUA
 62
     7
100
AcDbLine
 10
615.0349178181
 20
190.8900399636
 30
0.0
 11
60.0349199788
 21
190.8900399636
 31
0.0
  0
LINE
  5
13D
330
1F
100
AcDbEntity
  8
0
  6
SLD-CONTINUA
 62
     7
100
AcDbLine
 10
50.0349202023
 20
200.8900602292
 30
0.0
 11
60.0349199788
 21
190.8900399636
 31
0.0
  0
LINE
  5
13E
330
1F
100
AcDbEntity
  8
0
  6
SLD-CONTINUA
 62
     7
100
AcDbLine
 10
50.0349202023
 20
200.8900602292
 30
0.0
 11
50.0349202023
 21
536.890046386
 31
0.0
  0
LINE
  5
13F
330
1F
100
AcDbEntity
  8
0
  6
SLD-CONTINUA
 62
     7
100
AcDbLine
 10
60.0349199788
 20
546.8900461625
 30
0.0
 11
50.0349202023
 21
536.890046386
 31
0.0
  0
LINE
  5
140
330
1F
100
AcDbEntity
  8
0
  6
SLD-CONTINUA
 62
     7
100
AcDbLine
 10
60.0349199788
 20
546.8900461625
 30
0.0
 11
615.0349178181
 21
546.8900461625
 31
0.0
  0
CIRCLE
  5
141
330
1F
100
AcDbEntity
  8
0
  6
SLD-CONTINUA
 62
     7
100
AcDbCircle
 10
228.5349202023
 20
210.8900461625
 30
0.0
 40
6.25
  0
CIRCLE
  5
142
330
1F
100
AcDbEntity
  8
0
  6
SLD-CONTINUA
 62
     7
100
AcDbCircle
 10
70.0349202023
 20
210.8900461625
 30
0.0
 40
6.249999999999986
  0
LINE
  5
143
330
1F
100
AcDbEntity
  8
0
  6
SLD-CONTINUA
 62
     7
100
AcDbLine
 10
205.0349213944
 20
271.8900402021
 30
0.0
 11
195.03491603
 21
261.8900497388
 31
0.0
  0
LINE
  5
144
330
1F
100
AcDbEntity
  8
0
  6
SLD-CONTINUA
 62
     7
100
AcDbLine
 10
205.0349213944
 20
465.8900459241
 30
0.0
 11
205.0349213944
 21
271.8900402021
 31
0.0
  0
LINE
  5
145
330
1F
100
AcDbEntity
  8
0
  6
SLD-CONTINUA
 62
     7
100
AcDbLine
 10
195.03491603
 20
475.8900438379
 30
0.0
 11
205.0349213944
 21
465.8900459241
 31
0.0
  0
LINE
  5
146
330
1F
100
AcDbEntity
  8
0
  6
SLD-CONTINUA
 62
     7
100
AcDbLine
 10
121.0349225269
 20
475.8900438379
 30
0.0
 11
195.03491603
 21
475.8900438379
 31
0.0
  0
LINE
  5
147
330
1F
100
AcDbEntity
  8
0
  6
SLD-CONTINUA
 62
     7
100
AcDbLine
 10
111.0349208878
 20
465.8900459241
 30
0.0
 11
121.0349225269
 21
475.8900438379
 31
0.0
  0
LINE
  5
148
330
1F
100
AcDbEntity
  8
0
  6
SLD-CONTINUA
 62
     7
100
AcDbLine
 10
111.0349208878
 20
271.8900402021
 30
0.0
 11
111.0349208878
 21
465.8900459241
 31
0.0
  0
LINE
  5
149
330
1F
100
AcDbEntity
  8
0
  6
SLD-CONTINUA
 62
     7
100
AcDbLine
 10
121.0349225269
 20
261.8900497388
 30
0.0
 11
111.0349208878
 21
271.8900402021
 31
0.0
  0
LINE
  5
14A
330
1F
100
AcDbEntity
  8
0
  6
SLD-CONTINUA
 62
     7
100
AcDbLine
 10
195.03491603
 20
261.8900497388
 30
0.0
 11
121.0349225269
 21
261.8900497388
 31
0.0
  0
ENDSEC
  0
SECTION
  2
OBJECTS
  0
DICTIONARY
  5
C
330
0
100
AcDbDictionary
  3
ACAD_GROUP
350
D
  3
ACAD_MLINESTYLE
350
17
  3
ACAD_SCALELIST
350
47
1001
ACAD
1000
TREAT_AS_HARD
1070
     0
  0
DICTIONARY
  5
D
102
{ACAD_REACTORS
330
C
102
}
330
C
100
AcDbDictionary
1001
ACAD
1000
TREAT_AS_HARD
1070
     0
  0
DICTIONARY
  5
17
102
{ACAD_REACTORS
330
C
102
}
330
C
100
AcDbDictionary
  3
STANDARD
350
18
1001
ACAD
1000
TREAT_AS_HARD
1070
     0
  0
DICTIONARY
  5
47
102
{ACAD_REACTORS
330
C
102
}
330
C
100
AcDbDictionary
1001
ACAD
1000
TREAT_AS_HARD
1070
     0
  0
MLINESTYLE
  5
18
102
{ACAD_REACTORS
330
17
102
}
330
17
100
AcDbMlineStyle
  2
Standard
 70
     0
  3

 62
   256
 51
90.0
 52
90.0
 71
     2
 49
0.5
 62
   256
  6
BYLAYER
 49
-0.5
 62
   256
  6
BYLAYER
  0
ENDSEC
  0
EOF
