<svg xmlns="http://www.w3.org/2000/svg" viewBox="0 0 1165.15 539.9"><title>Precious Plastic Logo horizontal outline</title><g id="PP_logo_horizontal" data-name="PP logo horizontal"><g id="outline-3" data-name="outline"><path d="M601.24,177.25c-4-2.16-9.35-3.26-15.73-3.26h-22.8a4.74,4.74,0,0,0-3.56,1.51,5,5,0,0,0-1.44,3.59v61.2a4.92,4.92,0,0,0,5,5,5,5,0,0,0,3.59-1.44,4.74,4.74,0,0,0,1.51-3.56v-20.9h17.7c6.38,0,11.68-1.09,15.73-3.25a20.39,20.39,0,0,0,8.81-8.42,24.2,24.2,0,0,0,0-22.06A20.37,20.37,0,0,0,601.24,177.25Zm1.37,19.44a12.35,12.35,0,0,1-4,9.34c-2.65,2.5-7.37,3.76-14,3.76h-16.8v-26.2h16.8c6.63,0,11.34,1.27,14,3.77A12.34,12.34,0,0,1,602.61,196.69Z" style="fill:#141414"/><path d="M683.47,206a19.68,19.68,0,0,0,3.44-11.23,18.66,18.66,0,0,0-7-15.08c-4.6-3.79-11.57-5.72-20.71-5.72h-23.3a4.74,4.74,0,0,0-3.56,1.51,5,5,0,0,0-1.44,3.59v61.2a4.92,4.92,0,0,0,5,5,5,5,0,0,0,3.59-1.44,4.74,4.74,0,0,0,1.51-3.56v-22.7h20.2c4.44,0,7.78,1.08,9.94,3.21a14.5,14.5,0,0,1,4.17,7.35,44.28,44.28,0,0,1,.89,9.14v3a4.93,4.93,0,0,0,1.39,3.61,5.06,5.06,0,0,0,3.71,1.39,4.94,4.94,0,0,0,5-5v-4.6a39.84,39.84,0,0,0-2.69-14,14.17,14.17,0,0,0-8.77-8.82A18.78,18.78,0,0,0,683.47,206Zm-6.66-10.53a10.36,10.36,0,0,1-4.83,9.19c-3.27,2.2-7.77,3.31-13.37,3.31H641v-24.4h17.1c6.85,0,11.75,1,14.55,3.11S676.81,191.63,676.81,195.49Z" style="fill:#141414"/><path d="M753.2,183.49a4.75,4.75,0,0,0,3.4-1.34,4.47,4.47,0,0,0,1.4-3.36,4.76,4.76,0,0,0-4.8-4.8H713.1a4.77,4.77,0,0,0-3.56,1.51,5,5,0,0,0-1.44,3.59v60.7a4.94,4.94,0,0,0,5,5h40.1a4.73,4.73,0,0,0,3.4-1.34,4.47,4.47,0,0,0,1.4-3.36,4.76,4.76,0,0,0-4.8-4.8h-35v-21.2h31.4a4.75,4.75,0,0,0,3.4-1.34,4.47,4.47,0,0,0,1.4-3.36,4.76,4.76,0,0,0-4.8-4.8H718.2v-21.1Z" style="fill:#141414"/><path d="M790.31,241.38a37.4,37.4,0,0,0,18.19,4.41,43,43,0,0,0,12.3-1.62,52.29,52.29,0,0,0,10.74-4.64,4.49,4.49,0,0,0,2.46-4.24,4.16,4.16,0,0,0-1.24-3A4.43,4.43,0,0,0,829.5,231a4.55,4.55,0,0,0-2,.46,45.51,45.51,0,0,1-8.5,3.46,34.85,34.85,0,0,1-9.57,1.18A28.09,28.09,0,0,1,795,232.61a22.33,22.33,0,0,1-8.91-9.49,32.9,32.9,0,0,1,0-27.45,22.33,22.33,0,0,1,8.91-9.49,28,28,0,0,1,14.39-3.49,35.24,35.24,0,0,1,9.57,1.18,45.52,45.52,0,0,1,8.51,3.47,4.47,4.47,0,0,0,2,.45,4.32,4.32,0,0,0,3.27-1.3,4.23,4.23,0,0,0,1.23-3,4.49,4.49,0,0,0-2.45-4.23,53,53,0,0,0-10.75-4.65A43.37,43.37,0,0,0,808.5,173a37.52,37.52,0,0,0-18.19,4.41,32,32,0,0,0-12.69,12.7,42.6,42.6,0,0,0,0,38.59A31.88,31.88,0,0,0,790.31,241.38Z" style="fill:#141414"/><path d="M857.7,245.29a5,5,0,0,0,3.6-1.44,4.73,4.73,0,0,0,1.5-3.56v-61.7a5.1,5.1,0,0,0-5.1-5.1,4.77,4.77,0,0,0-3.56,1.51,5,5,0,0,0-1.44,3.59v61.7a4.94,4.94,0,0,0,5,5Z" style="fill:#141414"/><path d="M949.59,228.18a40.58,40.58,0,0,0,0-37.57,32.5,32.5,0,0,0-12.38-13,39.5,39.5,0,0,0-37.26,0,32.18,32.18,0,0,0-12.39,12.9,41.18,41.18,0,0,0,0,37.67A32.18,32.18,0,0,0,900,241.13a39.57,39.57,0,0,0,37.26,0A32.5,32.5,0,0,0,949.59,228.18Zm-5.49-18.79a30.54,30.54,0,0,1-3,13.78,23.28,23.28,0,0,1-8.82,9.6,28.28,28.28,0,0,1-27.33,0,23.33,23.33,0,0,1-8.76-9.6,32.63,32.63,0,0,1,0-27.55,23.33,23.33,0,0,1,8.76-9.6,28.21,28.21,0,0,1,27.33,0,23.34,23.34,0,0,1,8.82,9.6A30.53,30.53,0,0,1,944.1,209.39Z" style="fill:#141414"/><path d="M1027.2,173.49a4.77,4.77,0,0,0-3.56,1.51,5,5,0,0,0-1.44,3.59v39.8a17.82,17.82,0,0,1-2.67,9.93,16.74,16.74,0,0,1-7,6.12,22.53,22.53,0,0,1-18.78,0,16.74,16.74,0,0,1-7-6.12,17.8,17.8,0,0,1-2.67-9.93v-39.8a5.1,5.1,0,0,0-5.1-5.1,4.77,4.77,0,0,0-3.56,1.51,5,5,0,0,0-1.44,3.59v39.5a25.88,25.88,0,0,0,15.29,24.66,33.34,33.34,0,0,0,27.82,0,25.88,25.88,0,0,0,15.29-24.66v-39.5a5.1,5.1,0,0,0-5.1-5.1Z" style="fill:#141414"/><path d="M1101.23,214.67a21.37,21.37,0,0,0-8.5-6,100.13,100.13,0,0,0-12.82-3.82,91.56,91.56,0,0,1-9.59-2.64,15.48,15.48,0,0,1-5.72-3.39,7.18,7.18,0,0,1-2.2-5.49,8.81,8.81,0,0,1,4.71-8c3.21-1.94,7.44-2.93,12.59-2.93a48.44,48.44,0,0,1,15.91,2.67,5.11,5.11,0,0,0,1.79.43,4.1,4.1,0,0,0,3.28-1.47,4.89,4.89,0,0,0,1.22-3.23,4.37,4.37,0,0,0-3.13-4.47A57.63,57.63,0,0,0,1078.7,173a33.55,33.55,0,0,0-14.26,2.8,21.26,21.26,0,0,0-9.06,7.58A19.3,19.3,0,0,0,1052.3,194c0,4.45,1.26,8.06,3.73,10.74a23.36,23.36,0,0,0,8.79,6,123.08,123.08,0,0,0,13.15,4.07c4,1.06,7.19,2,9.37,2.74a15.79,15.79,0,0,1,5.38,3,5.88,5.88,0,0,1,2.08,4.62c0,7.41-5.56,11-17,11a47.6,47.6,0,0,1-19.5-4.05,5,5,0,0,0-2.1-.45,4.32,4.32,0,0,0-3.32,1.42,4.76,4.76,0,0,0-.39,6,5,5,0,0,0,2.22,1.82,59.9,59.9,0,0,0,24,4.84,34.19,34.19,0,0,0,13.6-2.54,21.63,21.63,0,0,0,9.21-7.11,17.4,17.4,0,0,0,3.29-10.35C1104.8,221.16,1103.6,217.41,1101.23,214.67Z" style="fill:#141414"/><path d="M601.24,307.25c-4-2.16-9.35-3.26-15.73-3.26h-22.8a4.74,4.74,0,0,0-3.56,1.51,5,5,0,0,0-1.44,3.59v61.2a4.92,4.92,0,0,0,5,5,5,5,0,0,0,3.59-1.44,4.74,4.74,0,0,0,1.51-3.56v-20.9h17.7c6.38,0,11.68-1.09,15.73-3.25a20.39,20.39,0,0,0,8.81-8.42,24.2,24.2,0,0,0,0-22.06A20.37,20.37,0,0,0,601.24,307.25Zm1.37,19.44a12.35,12.35,0,0,1-4,9.34c-2.65,2.5-7.37,3.76-14,3.76h-16.8v-26.2h16.8c6.63,0,11.34,1.27,14,3.77A12.34,12.34,0,0,1,602.61,326.69Z" style="fill:#141414"/><path d="M673.21,364.69H641v-56.1a5.12,5.12,0,0,0-5.1-5.1,4.74,4.74,0,0,0-3.56,1.51,5,5,0,0,0-1.44,3.59V368a6.79,6.79,0,0,0,6.8,6.8h35.5a5,5,0,0,0,3.59-1.44,4.74,4.74,0,0,0,1.51-3.56,5.12,5.12,0,0,0-5.1-5.1Z" style="fill:#141414"/><path d="M727.36,307.89a8.25,8.25,0,0,0-2.39-3.14,6.11,6.11,0,0,0-3.87-1.26h-1a6.11,6.11,0,0,0-3.86,1.26,8.2,8.2,0,0,0-2.39,3.15l-25.51,60.2a6,6,0,0,0-.53,2.19,4.94,4.94,0,0,0,1.38,3.55,4.84,4.84,0,0,0,3.62,1.45,5.11,5.11,0,0,0,2.82-.83,5.39,5.39,0,0,0,1.94-2.27l6.37-15.3h33.33l6.38,15.31a5.33,5.33,0,0,0,1.93,2.26,5.11,5.11,0,0,0,2.82.83,4.81,4.81,0,0,0,3.61-1.45,4.91,4.91,0,0,0,1.39-3.55,5.74,5.74,0,0,0-.54-2.19Zm6,39.7H707.85L720.6,316.9Z" style="fill:#141414"/><path d="M809.64,338.63a100.85,100.85,0,0,0-12.83-3.82,91.56,91.56,0,0,1-9.59-2.64,15.56,15.56,0,0,1-5.72-3.39,7.18,7.18,0,0,1-2.2-5.49,8.81,8.81,0,0,1,4.71-8c3.21-1.94,7.44-2.93,12.59-2.93a48.45,48.45,0,0,1,15.92,2.67,5,5,0,0,0,1.78.43,4.12,4.12,0,0,0,3.29-1.47,4.93,4.93,0,0,0,1.21-3.23,4.38,4.38,0,0,0-3.12-4.47A57.69,57.69,0,0,0,795.6,303a33.55,33.55,0,0,0-14.26,2.8,21.26,21.26,0,0,0-9.06,7.58A19.3,19.3,0,0,0,769.2,324c0,4.45,1.26,8.06,3.74,10.74a23.33,23.33,0,0,0,8.78,6,122.63,122.63,0,0,0,13.16,4.07c4,1.06,7.18,2,9.36,2.74a15.7,15.7,0,0,1,5.38,3.05,5.88,5.88,0,0,1,2.08,4.62c0,7.41-5.56,11-17,11a47.58,47.58,0,0,1-19.49-4.05,5.1,5.1,0,0,0-2.11-.45,4.3,4.3,0,0,0-3.31,1.42,4.67,4.67,0,0,0-1.29,3.28,4.74,4.74,0,0,0,.89,2.74,5.06,5.06,0,0,0,2.22,1.82,59.93,59.93,0,0,0,24,4.84,34.19,34.19,0,0,0,13.6-2.54,21.63,21.63,0,0,0,9.21-7.11,17.34,17.34,0,0,0,3.29-10.35c0-4.63-1.2-8.38-3.57-11.12A21.41,21.41,0,0,0,809.64,338.63Z" style="fill:#141414"/><path d="M883.1,304H833.31a4.52,4.52,0,0,0-3.37,1.41,4.77,4.77,0,0,0-1.34,3.39,4.6,4.6,0,0,0,4.71,4.7h19.9v56.8a4.92,4.92,0,0,0,5,5,5,5,0,0,0,3.59-1.44,4.74,4.74,0,0,0,1.51-3.56v-56.8H883.1a4.75,4.75,0,0,0,3.4-1.34,4.47,4.47,0,0,0,1.4-3.36,4.76,4.76,0,0,0-4.8-4.8Z" style="fill:#141414"/><path d="M908.9,303.49a4.77,4.77,0,0,0-3.56,1.51,5,5,0,0,0-1.44,3.59v61.7a4.94,4.94,0,0,0,5,5,5,5,0,0,0,3.6-1.44,4.73,4.73,0,0,0,1.5-3.56v-61.7a5.1,5.1,0,0,0-5.1-5.1Z" style="fill:#141414"/><path d="M956.21,316.18a28,28,0,0,1,14.39-3.49,35.24,35.24,0,0,1,9.57,1.18,45.52,45.52,0,0,1,8.51,3.47,4.47,4.47,0,0,0,2,.45,4.32,4.32,0,0,0,3.27-1.3,4.23,4.23,0,0,0,1.23-3,4.49,4.49,0,0,0-2.45-4.23A53,53,0,0,0,982,304.61,43.37,43.37,0,0,0,969.7,303a37.52,37.52,0,0,0-18.19,4.41,32,32,0,0,0-12.69,12.7,42.6,42.6,0,0,0,0,38.59,31.88,31.88,0,0,0,12.69,12.69,37.4,37.4,0,0,0,18.19,4.41,43,43,0,0,0,12.3-1.62,52.29,52.29,0,0,0,10.74-4.64,4.49,4.49,0,0,0,2.46-4.24,4.2,4.2,0,0,0-1.24-3.05A4.43,4.43,0,0,0,990.7,361a4.55,4.55,0,0,0-2,.46,45.51,45.51,0,0,1-8.5,3.46,34.85,34.85,0,0,1-9.57,1.18,28.09,28.09,0,0,1-14.39-3.48,22.33,22.33,0,0,1-8.91-9.49,32.9,32.9,0,0,1,0-27.45A22.33,22.33,0,0,1,956.21,316.18Z" style="fill:#141414"/><path d="M491.67,261c-.19-2.05-.31-4.13-.42-6.14a103,103,0,0,0-1-11,193.08,193.08,0,0,0-8.31-31.29c-3-8.7-5.7-16.54-8.66-24.35-.68-1.79-1.33-3.67-2-5.49l-.09-.25c-1.95-5.66-4-11.51-7.33-16.49-2.88-4.27-5.66-8.88-8.12-13-4.64-7.7-9.45-15.66-15.47-22.81-5.81-6.91-10.66-11.38-16.22-15a47.2,47.2,0,0,1-10.86-9.17A82.73,82.73,0,0,0,386,85.05c-11.41-5.47-23.61-11.15-36.39-15.17-1.36-.42-2.72-.89-4.05-1.33l-.29-.1A74.44,74.44,0,0,0,332.71,65c-5.42-.86-11.81-1.93-18.07-3.36a119.57,119.57,0,0,0-22.32-2.87c-1,0-2.06-.06-3.21-.06-4.37,0-8.67.3-12.83.6-2.69.19-5.75.4-8.66.51A71.59,71.59,0,0,0,254,61.26c-7.13,1.66-14.46,3-21.56,4.24l-1.9.34c-1.54.27-3.11.52-4.64.76a100.68,100.68,0,0,0-11.15,2.2c-3.78,1-7.46,2.43-11,3.77l-.08,0c-2.27.86-4.62,1.75-6.94,2.52-9.49,3.17-19.4,7.69-31.16,14.23a222.47,222.47,0,0,0-37.85,26.51,83.87,83.87,0,0,0-13.89,16.08c-2.7,3.95-5.25,8.05-7.73,12l-.11.18c-2,3.21-4.07,6.54-6.19,9.73a224.92,224.92,0,0,0-20,37.64l-1.19,2.83c-2.91,6.89-5.91,14-8.43,21.27-3.58,10.33-5.15,20.74-6.7,32.3-.66,5-.85,9.93-1,14.75-.13,3.5-.27,7.11-.59,10.67A114.58,114.58,0,0,0,63,301.1c.22,1.41.42,2.82.62,4.23l0,.34a132.22,132.22,0,0,0,3,16.29,251.17,251.17,0,0,0,15.41,41.93c7.37,15.44,16.48,29.93,24.44,42.3a214.78,214.78,0,0,0,17.11,23.19,73.87,73.87,0,0,0,19.67,16.19c3.24,1.88,6.5,3.87,9.38,5.64l.18.11c3.33,2,6.77,4.14,10.22,6.12,2.92,1.67,5.83,3.45,8.64,5.17,7.59,4.65,15.45,9.46,24.23,12.59,2.91,1,5.83,2.27,8.67,3.47,5.36,2.27,10.9,4.61,16.85,5.83,2.39.49,4.81.86,7.19,1.23,1.39.22,2.79.43,4.17.67a69.91,69.91,0,0,0,7.27.74h.1a68.77,68.77,0,0,1,6.88.68,138.11,138.11,0,0,0,18.79,1.45c3.4.11,7.25.22,10.92.51,2.39.19,4.81.29,7.31.29a128.88,128.88,0,0,0,22.4-2.17c2.9-.51,5.87-.85,8.74-1.17a94.3,94.3,0,0,0,14-2.28c2.9-.78,5.77-1.73,8.61-2.67,1.87-.63,4-1.33,6.05-1.94a155.61,155.61,0,0,0,28.55-11.55c5.54-3,11-6.23,16.27-9.39l.15-.09c6.14-3.69,12.48-7.5,19-10.82a35.11,35.11,0,0,0,9.57-6.65c7.73-8.06,16.79-17.69,25.38-28,6.6-7.94,13.49-16.53,18.69-26.41,1.45-2.76,2.78-5.62,4.07-8.39a127.57,127.57,0,0,1,5.95-11.72c6.79-11.37,14.52-35,16-39.63l0-.12a82.88,82.88,0,0,0,3.47-18.43c.21-2.42.52-4.94.78-7.17A111.77,111.77,0,0,0,493,286.18C492.85,277.23,492.42,269,491.67,261Zm-7.61,39.54c-.27,2.28-.58,4.86-.81,7.41a74.51,74.51,0,0,1-3.12,16.69l0,.15c-1.44,4.48-8.91,27.38-15.26,38a131.26,131.26,0,0,0-6.33,12.44c-1.25,2.68-2.54,5.45-3.91,8-4.84,9.21-11.44,17.42-17.78,25-8.42,10.13-17.37,19.64-25,27.6a27.93,27.93,0,0,1-7.47,5.08c-6.78,3.45-13.25,7.34-19.5,11.09l-.14.09c-5.19,3.11-10.56,6.33-15.93,9.19a146.6,146.6,0,0,1-27.1,10.95c-2.18.65-4.36,1.38-6.34,2-2.67.89-5.43,1.8-8.1,2.52a90.07,90.07,0,0,1-12.83,2.06c-2.85.32-6.08.69-9.22,1.24-10.68,1.87-19.49,2.44-27.74,1.79-3.84-.3-7.8-.43-11.29-.53a131.89,131.89,0,0,1-17.72-1.35c-2.52-.42-5-.59-7.34-.75-3-10.69-6.44-24.95-7.71-35.64q-.51-4.31-1-8.6a244.09,244.09,0,0,0-4.56-26.37l-.63-2.58c-1.53-6.32-3.12-12.86-4.34-19.37-.41-2.2-.77-4.46-1.11-6.65a97.43,97.43,0,0,0-3.58-16.44c-.27-.81-.53-1.62-.77-2.43a132.69,132.69,0,0,1-3-13.23l-.36-1.88c-.69-3.58-1.48-7.19-2.26-10.68q-.58-2.64-1.16-5.3c-.19-.91-.59-3-1.11-5.83l0,0c.58.18,1.38.43,1.75.6a25.75,25.75,0,0,0,2.42.91c.37.12.75.24,1.13.38,1.46.55,2.95,1,4.25,1.44,1.58.51,3,1,4.37,1.49a56.07,56.07,0,0,1,5.47,2.56,54.27,54.27,0,0,0,6.59,3c1.23.44,2.47.86,3.7,1.28l.27.09A69.79,69.79,0,0,1,251.38,341c.8.44,1.61.88,2.45,1.31A101.16,101.16,0,0,0,275.15,350c3.33.86,6.7,1.55,10,2.07a76.54,76.54,0,0,0,18.1.88c6.16-.52,14-.29,21.6-.06,6.41.18,12.46.36,17.77.13,2.24-.1,4.81,0,7.52.06h.11a93,93,0,0,0,9.61,0,20.63,20.63,0,0,1,4.32,0,54.74,54.74,0,0,0,9,.07c2.09-.11,4.78,0,7.43,0,2.91.09,5.92.18,8.43,0a34.79,34.79,0,0,1,4.89.08H394c1.11.08,2.12.14,3.25.14h.1a26.63,26.63,0,0,0,3.42-.22,81.84,81.84,0,0,0,8.93-1.63l3-.72,1.57-.39a27.57,27.57,0,0,0,4.06-1.66l.57-.26.68-.31a58.17,58.17,0,0,0,6-3c1.24-.68,2.51-1.38,4-2.1.49-.23,1-.46,1.46-.66a22.53,22.53,0,0,1,5.43-1.43,20.48,20.48,0,0,0,9.9-4,17.68,17.68,0,0,0,3.41-3.49,45.86,45.86,0,0,0,6.5-11.18l.19-.49,0-.15c3.48-9.12,5.15-16.87,5.1-23.67a80,80,0,0,0-.85-12.4,50.91,50.91,0,0,1,.5-14.34c.93-6-2-11.5-4.54-16.4l-.07-.13c-.69-1.32-1.34-2.56-1.88-3.76-1-2.24-2.05-4.1-3-5.75a46.21,46.21,0,0,1-4-8.77,44.84,44.84,0,0,0-1.87-4.76l-.56-1.29a23.67,23.67,0,0,0-6-9c-.9-.85-.93-3-1-4.95v-.4A28.34,28.34,0,0,0,436,204c-3.15-6.46-8.19-9.63-15.39-9.7-2.9,0-5.32,0-7.69.06-3.61.06-7,.12-11.51-.08h-.11a14.58,14.58,0,0,1-4.88-.9c-7.54-3.41-13.65-3.32-20.17-3.21a63.81,63.81,0,0,1-12.19-.63c-.17,0-.89-.11-2.89-.33-3.19-.35-10.66-1.16-11.45-1.39-6.77-2.34-12.41-6.67-18.38-11.25l-1.46-1.13c-6.7-5.12-14.65-7.89-21.55-9.93-10.75-3.18-22.05-3.81-34.55-1.92-8.53,1.29-16.69,3.81-24.58,6.25l-.17,0c-3.35,1-6.82,2.11-10.23,3.06a46.32,46.32,0,0,1-11.5,1.7c-5.61.09-11.33-.23-16.86-.53a202.59,202.59,0,0,0-21.54-.38l-3.25.17-3.4.15c-1.25.05-2.16.08-4.45.25h-.17l-.16.06-.43.13c-.91-4.84-3-14-3.92-16.95a2,2,0,0,1,.53-2.09,14.49,14.49,0,0,0,1.94-2.51c.29-.44.57-.85.85-1.22,3.41-4.43.73-10-1.14-15.28A16.25,16.25,0,0,0,163.36,126a19.58,19.58,0,0,0-21,7.89c-2,3.05-1.45,6.71-.94,9.94.06.36.12.72.17,1.08,1.19,8,6.95,12.55,13,16.26,2.65,1.62,3.1,2.93,3.19,3.9.08.77.77,6.58,1.22,10.14a5.45,5.45,0,0,1-.94-.25l-.35-.13-.35.09a3.5,3.5,0,0,0-.89.34,3.1,3.1,0,0,0-1.55,2.57,17.67,17.67,0,0,0,.8,5.84,21.81,21.81,0,0,1,.74,3.6c.27,2.28,1.23,7.75,4.18,9.06a17.07,17.07,0,0,0,2.83.93,219.58,219.58,0,0,1,4.45,22l.23,1.39h0c.36,2.16.72,4.32,1.11,6.47q1.81,10.14,3.68,20.28c.24,1.34.47,2.69.69,4,.55,3.24,1.11,6.59,2,9.85,2.89,11.22,5.27,22.75,7.41,33.55.13.64.19,1.3.26,2v0c-1.7.78-2.64,1.89-2.78,3.31-1.43,6.93,2.25,10.52,5.68,12.41a1.59,1.59,0,0,0,.06.38c.8,2.75,1.48,5.56,2.09,8.6.33,1.68.82,3.3,1.28,4.87l.18.6A37.9,37.9,0,0,1,191,331.8a345.43,345.43,0,0,0,8.23,35.35,226.55,226.55,0,0,1,5.22,26.55c.76,5.09,1.72,10.22,2.65,15.18.45,2.44.91,4.88,1.35,7.33.36,2.05.73,4.09,1.09,6.13l.22,1.26c1.75,9.79,3.56,19.93,5.29,29.9,1.34,7.69,3.38,15.65,5.27,22.62a102,102,0,0,1-12.57-4.69c-2.93-1.24-5.95-2.51-9.07-3.63-8-2.85-15.52-7.44-22.77-11.89-2.86-1.75-5.82-3.56-8.84-5.28-3.36-1.92-6.75-4-10-6l-.18-.11c-2.92-1.79-6.22-3.81-9.55-5.74a66.22,66.22,0,0,1-17.62-14.48,207.69,207.69,0,0,1-16.49-22.36c-7.83-12.17-16.79-26.41-24-41.43a243.22,243.22,0,0,1-14.92-40.62,125.34,125.34,0,0,1-2.82-15.32l0-.35c-.21-1.44-.41-2.87-.63-4.31A107.15,107.15,0,0,1,69.61,274c.35-3.77.49-7.49.62-11.08.18-4.64.36-9.42,1-14,1.49-11.13,3-21.13,6.34-30.77,2.43-7,5.38-14,8.24-20.8L87,194.55a218.27,218.27,0,0,1,19.33-36.34c2.19-3.29,4.29-6.66,6.32-9.92l.11-.18c2.43-3.9,5-7.93,7.55-11.74a75.82,75.82,0,0,1,12.56-14.59,214.61,214.61,0,0,1,36.51-25.57c11.33-6.3,20.81-10.63,29.84-13.64,2.47-.83,4.89-1.75,7.23-2.63l.08,0c3.38-1.28,6.88-2.6,10.31-3.55a93.47,93.47,0,0,1,10.31-2c1.57-.25,3.19-.5,4.78-.79l1.9-.34c7.19-1.28,14.63-2.61,22-4.31a65,65,0,0,1,12.15-1.24c3-.11,6.17-.33,8.92-.53,4-.28,8.19-.57,12.28-.57,1.05,0,2,0,2.91.05a111.58,111.58,0,0,1,20.86,2.68c6.5,1.49,13.05,2.58,18.61,3.46a69.19,69.19,0,0,1,11.27,3.14L343,76c1.38.47,2.8,1,4.22,1.39,12.27,3.86,24.18,9.41,35.33,14.76a74.69,74.69,0,0,1,24.67,19.09,54.85,54.85,0,0,0,12.61,10.68c4.85,3.12,9.17,7.12,14.45,13.4,5.62,6.68,10.26,14.38,14.75,21.82,2.51,4.15,5.35,8.86,8.34,13.28,2.78,4.13,4.63,9.49,6.42,14.68l.08.24c.65,1.88,1.32,3.82,2,5.72,2.92,7.7,5.61,15.47,8.58,24.11a185.17,185.17,0,0,1,8,30,95.09,95.09,0,0,1,.93,10.12c.12,2,.25,4.23.45,6.42.73,7.79,1.15,15.83,1.28,24.58A106.05,106.05,0,0,1,484.06,300.53Zm-286.66,7h0l-3.06.82a17.29,17.29,0,0,1-1.74.35l-.44-.15c-5.21-1.73-6.22-3.59-5.87-6.3l.58-.16a2.54,2.54,0,0,1,.35-.06l1.2-.14a73.67,73.67,0,0,1,10.89-.69,29.64,29.64,0,0,1,4.42.46c9.72,1.76,19.43.92,28.83.11,4.94-.43,10.05-.87,15-.9.92,0,1.85,0,2.86,0,1.52,0,3.08,0,4.66,0a31.84,31.84,0,0,0,8.63-1.34c1.74-.55,4.12-1.31,5.32-4,1.7-3.7,3.35-7.47,5-11.14l1.18-2.68c3.18-7.23,2.66-10.21-2.76-16l-.39-.39-.11-.12-.23-.23a17.62,17.62,0,0,1-1.62-1.91,1.76,1.76,0,0,0-.24-.3,1.66,1.66,0,0,0-.12-.31c-.16-.34-.38-.82,1.29-3.54a19,19,0,0,0,2.76-11.54,56.4,56.4,0,0,0-1-9.22,47.1,47.1,0,0,1-.64-15.85,53.58,53.58,0,0,1,2.25-9.85l.09,0,.3.09c1.22.4,1.63.53,3.52,2.55a3,3,0,0,0,2.22,1h0a3,3,0,0,0,2.07-.82,3.07,3.07,0,0,0,.14-4.31c-2.83-3-4.11-3.54-6.11-4.18l-.3-.09c-1-.34-2.12-.66-3.15-.95-4.94-1.4-10-2.43-13.78-3.17s-7.47-1.69-11.1-2.62l-.16,0L244,198.88l-3.22-.87-1.18-.33a10.59,10.59,0,0,0-1.37-.42l-3-.73a110.42,110.42,0,0,0-14.35-2.87c-8.18-.89-16.47-1-24.53-1.08-2,0-4.58-.13-7.06-.24-3.62-.15-7-.3-9-.21l-1.56.1c-.44,0-.59,0-2,0h-4c-.91,0-1.86,0-2.8-.11a27.07,27.07,0,0,1-6.37-1.15,19.77,19.77,0,0,1-1.1-4.41,27.39,27.39,0,0,0-.93-4.53l-.19-.73a17.25,17.25,0,0,0,4.18.11c2.05-.22,4.1-.41,6.1-.56,4.77-.38,9.61-.63,14.29-.88l3.27-.17a196.28,196.28,0,0,1,20.88.39c5.63.3,11.45.62,17.28.53a52.4,52.4,0,0,0,13-1.92c3.53-1,7.05-2.07,10.46-3.12l.17,0c7.66-2.37,15.59-4.82,23.64-6,11.6-1.75,22-1.18,31.92,1.74,6.36,1.88,13.66,4.41,19.58,8.93l1.46,1.12c4.16,3.2,13.75,8.9,19.47,12.3,2.25,1.33,4.36,2.59,4.61,2.78a34.11,34.11,0,0,0,3.55,2.79l.91.66a72.21,72.21,0,0,1,5.69,4.82c2.84,2.57,5.78,5.23,8.62,6.8l.21.11q2.73,1.51,5.49,3a3,3,0,0,0,2.89-5.36l-4.33-2.37-1.33-.73c-2.62-1.44-5.45-4-8.2-6.48-1.84-1.66-3.74-3.37-5.58-4.76l.66.13c.52.1,1.13.2,1.76.29l1,.16a69.93,69.93,0,0,0,13.32.71c6-.1,11.23-.18,17.54,2.67a20.24,20.24,0,0,0,7.19,1.44c4.68.21,8.19.16,11.92.09,2.35,0,4.69-.08,7.53-.06,4.87,0,7.85,1.93,10,6.29a23,23,0,0,1,1.86,9.59v.39c.05,2.81.12,6.66,2.89,9.28a18.15,18.15,0,0,1,4.55,6.88c.2.48.4.94.63,1.44a40.73,40.73,0,0,1,1.62,4.13,51.74,51.74,0,0,0,4.52,9.92c.89,1.61,1.81,3.27,2.71,5.25.65,1.43,1.42,2.9,2.1,4.19,2.23,4.26,4.54,8.65,3.92,12.63a56.31,56.31,0,0,0-.53,16.06,74.47,74.47,0,0,1,.8,11.67c.05,6.13-1.53,13.26-4.83,21.8a4.3,4.3,0,0,1-.88.21,36.14,36.14,0,0,1-4.54.19c-4.14,0-9.28,0-14,2.11a30,30,0,0,1-11.41,2h0c-1.75,0-4.82-1.28-6.52-2-.65-.28-1.16-.49-1.59-.64-4.55-1.59-7.81-2.94-10.68-4.13l-.09,0a70.51,70.51,0,0,0-9.07-3.29,110.39,110.39,0,0,0-15.52-3.26,165.62,165.62,0,0,0-18.37-.84,143.25,143.25,0,0,1-27.6-3.18c-10.13-2-20.45-2.66-30.1-3-2.11-.09-4.24-.12-6.36-.12-6.31,0-12.62.31-18.8.62h-.12c-3.62.18-7.37.37-11,.48-3,.09-6.06.16-9.1.23l-2,0-4.46.11-1.4,0c-1.37,0-2.78,0-4.27-.09h-.09c-3.54-.16-7.2-.32-10.85.82a8.78,8.78,0,0,1-4,.23l-.64-.06c-.61-.05-1.27-.1-2-.11h-.53a50.42,50.42,0,0,0-5.26.1c-1,.11-1.95.19-3,.24-2.13.09-4.34.06-6.55,0-2.61,0-5.3-.07-8,.12A24.59,24.59,0,0,0,197.4,307.51Zm41.91-49.69a33.71,33.71,0,0,0,.49,3.41,40.73,40.73,0,0,1,1,9.79c0,.63,0,1.27,0,1.75a49.06,49.06,0,0,0,1,7.27,59.14,59.14,0,0,0,3.62,11.14,10.37,10.37,0,0,1,.76,2.79,6.18,6.18,0,0,1,.08.8c-4.81.09-9.62.51-14.29.91-9,.78-18.29,1.59-27.21,0-.72-.13-1.45-.24-2.19-.32-.48-2.65-1-5.3-1.53-7.87-.41-2-.82-4-1.2-6-.56-2.92-1.14-5.83-1.71-8.74-1.84-9.32-3.74-19-5.1-28.49-.6-4.22-1.56-8.37-2.49-12.39-.41-1.79-.84-3.65-1.23-5.47-.34-1.61-.66-3.21-1-4.82a135.13,135.13,0,0,0-3.81-15.66c-.22-.69-.46-1.39-.71-2.08s-.39-1.14-.58-1.7a25.93,25.93,0,0,1-1-3.75c4.66.2,9.37.26,14,.31,7.88.09,16,.18,23.92,1a105.28,105.28,0,0,1,13.6,2.73l1.43.36c.49.13,1.39.37,2.41.66l.14.07a1.2,1.2,0,0,1,.05.53,15.31,15.31,0,0,0,1.78,6.74,16.74,16.74,0,0,1,1.16,3.05l0,.25c1.07,5.53.76,11,.43,16.79l-.11,2.08c-.16,2.91-.56,5.9-.94,8.8C239.5,247,238.79,252.33,239.31,257.82Zm27.53-18.36a51.42,51.42,0,0,1,.89,8.25,13.09,13.09,0,0,1-1.87,8c-2.09,3.41-3.08,6.15-1.62,9.3a2.63,2.63,0,0,0,.49.72,2.76,2.76,0,0,0,.38.77,22.79,22.79,0,0,0,2.17,2.62c.15.15.3.31.46.46s.18.17.28.28c3.81,4,3.85,4.31,1.63,9.35l-1.35,3.09c-1.54,3.5-3.14,7.12-4.75,10.65-.07.15-.46.32-1.69.7a25.24,25.24,0,0,1-6.94,1.05c-.85,0-1.71,0-2.51,0a16,16,0,0,0-.15-1.66,16.8,16.8,0,0,0-1.19-4.33,53.23,53.23,0,0,1-3.26-10h0a42.42,42.42,0,0,1-.86-6.37,9.92,9.92,0,0,1,0-1.09,45.12,45.12,0,0,0-1.16-11.25c-.17-.92-.31-1.87-.4-2.82-.45-4.8.18-9.59.86-14.66.39-2.87.82-6.12,1-9.29l.12-2.12c.34-6.16.67-12-.54-18.25l-.08-.37a22.43,22.43,0,0,0-1.56-4.27,15.44,15.44,0,0,1-1.15-3.13l2.82.72c3.73,1,7.58,2,11.44,2.7,2.85.55,6.51,1.29,10.29,2.25a59.43,59.43,0,0,0-2.43,10.73A53.23,53.23,0,0,0,266.84,239.46Zm-107-93.12h-2.16c-1.79,0-2.34-.11-3.09-1s-.61-2.8,0-4a4.74,4.74,0,0,1,1.24-1.76c.74-.55,1.61-1.2,2.52-1.75a1.15,1.15,0,0,1,.55-.21h.18a8,8,0,0,1,.8.06,7.67,7.67,0,0,1,5,2.18,3.64,3.64,0,0,1,.4.48,4.82,4.82,0,0,1,.13,1.07,5.59,5.59,0,0,1-2.85,4.73A17,17,0,0,1,159.87,146.34Zm86.3,166c.12.82.29,1.63.46,2.42,0,.18.08.65.13,1.13a21.24,21.24,0,0,0-5.7-1.62l-.73-.09a20.11,20.11,0,0,1-6-2.19h0l0-.15a28.34,28.34,0,0,1,8.23-.39c1.15.05,2.33.1,3.52.1,0,.23,0,.46.08.69v.1Zm-36.27.36h.15c2.18,0,4.43.05,6.68-.05,1.24-.05,2.36-.14,3.42-.26a40.88,40.88,0,0,1,4.09-.07,5.73,5.73,0,0,0,1,.69l0,0c.75.5,2.32,1.51,4.38,2.63,2.83,1.55,6.86,3.46,10,3.78h.1l.4.05c3,.41,5.64.88,7.66,2.55l.11.09.22.15.24.13a1.51,1.51,0,0,0,.18.09l.15.05.31.1.18,0a3.33,3.33,0,0,0,.56.05,3.18,3.18,0,0,0,.78-.11l.22-.07a4.22,4.22,0,0,0,.53-.25l.19-.12a3.28,3.28,0,0,0,.48-.42l.13-.13a3,3,0,0,0,.38-.61l.08-.15.07-.2,0-.11c.87-2.36.33-4.87-.14-7.1-.14-.68-.29-1.39-.38-2v-.07l2.47-.06c3.22-.08,6.44-.15,9.66-.25,3.65-.12,7.34-.3,10.92-.47l.47,0c8.06-.39,16.39-.8,24.5-.49,9.38.37,19.41,1,29.14,2.93a148.88,148.88,0,0,0,28.76,3.29,161.65,161.65,0,0,1,17.69.8,107,107,0,0,1,14.68,3.1,64.61,64.61,0,0,1,8.29,3c2.8,1.16,6.28,2.61,11.1,4.29l1.21.49.1.05c2.32,1,5.83,2.43,8.88,2.43h0a35.69,35.69,0,0,0,13.49-2.4l.2-.07c3.59-1.6,7.86-1.61,11.63-1.63l2.1,0a37.92,37.92,0,0,1-2.38,3.37,13,13,0,0,1-2.16,2.31,14.74,14.74,0,0,1-7.41,3,27.89,27.89,0,0,0-6.73,1.81c-.61.25-1.22.53-1.8.81-1.58.77-2.91,1.51-4.26,2.25a54.22,54.22,0,0,1-5.45,2.76l-1,.44-.51.23a31.28,31.28,0,0,1-2.89,1.25l-1.15.28-3.42.81A75.94,75.94,0,0,1,400,347.2a20.6,20.6,0,0,1-2.69.18c-1,0-1.86-.06-2.82-.12h-.08a40.22,40.22,0,0,0-5.76-.09c-2.24.13-5.11,0-7.9,0s-5.57-.16-7.91,0a49.17,49.17,0,0,1-8.2-.05,26.65,26.65,0,0,0-5.29,0,88.08,88.08,0,0,1-9.06,0c-2.71-.08-5.51-.16-8-.06-5.05.22-11,.05-17.33-.13-7.73-.23-15.73-.47-22.28.08a70.83,70.83,0,0,1-16.65-.83c-3.11-.48-6.28-1.14-9.43-1.95a95.63,95.63,0,0,1-20.06-7.25c-.77-.4-1.53-.8-2.26-1.21a75.3,75.3,0,0,0-12.93-5.33c-1.28-.43-2.56-.87-3.85-1.33a50.26,50.26,0,0,1-5.87-2.71,61.46,61.46,0,0,0-6.07-2.83c-1.5-.57-3-1.05-4.47-1.53l-.31-.1c-1.3-.41-2.63-.84-3.88-1.31-.43-.16-.87-.3-1.37-.47a18.61,18.61,0,0,1-1.77-.65,21.74,21.74,0,0,0-2.48-.88c-.65-.2-1.38-.43-1.73-.59a12.9,12.9,0,0,0-1.33-.51h-.05l-.84-4.77Z" style="fill:#141414"/></g></g></svg>