<svg xmlns="http://www.w3.org/2000/svg" viewBox="0 0 939.42 945.03"><title>Precious Plastic Logo circled</title><g id="PP_logo_circled" data-name="PP logo circled"><g id="color-4" data-name="color"><g id="Calque_6" data-name="Calque 6"><path d="M737.17,446a122.76,122.76,0,0,0-1.25-13.43c-1.95-11.75-5.25-24.17-10.37-39.07-3.8-11-7.25-21-11-30.88-.93-2.46-1.8-5-2.65-7.45-2.39-6.91-4.85-14.06-8.76-19.87-3.7-5.47-7.15-11.19-10.49-16.71-5.82-9.66-11.86-19.64-19.26-28.44-7.06-8.41-12.91-13.81-19.54-18.06a65.55,65.55,0,0,1-15-12.65,100.31,100.31,0,0,0-33.07-25.6c-14.38-6.9-29.75-14.06-45.7-19.07-1.88-.59-3.76-1.22-5.57-1.84a91.45,91.45,0,0,0-15.2-4.2c-7-1.11-15.27-2.49-23.36-4.35a146.71,146.71,0,0,0-27.52-3.53c-1.3-.05-2.6-.08-3.9-.08-5.35,0-10.74.38-16,.75-3.66.26-7.46.53-11.21.66a86.85,86.85,0,0,0-16.44,1.71c-9.21,2.14-18.62,3.82-27.72,5.44l-2.42.44c-2,.36-4.05.68-6,1a123.71,123.71,0,0,0-13.65,2.68c-4.63,1.27-9.23,3-13.69,4.7-2.94,1.11-6,2.26-9,3.28-11.79,3.93-24.14,9.58-38.86,17.76a276.94,276.94,0,0,0-47.38,33.19,101.57,101.57,0,0,0-16.86,19.54c-3.37,4.94-6.61,10.12-9.73,15.14-2.62,4.2-5.32,8.54-8.11,12.75A281.94,281.94,0,0,0,222.37,367l-1.52,3.61c-3.68,8.73-7.48,17.76-10.62,26.81-4.41,12.72-6.37,25.72-8.31,40.18-.81,6.08-1,12.3-1.27,18.33-.17,4.53-.35,9.22-.77,13.85-.93,10.21-.43,21.39,1.52,34.19.3,1.95.58,3.92.86,5.88A162.84,162.84,0,0,0,206,529.94a315.47,315.47,0,0,0,19.33,52.6c9.25,19.39,20.77,37.7,30.83,53.35a272.42,272.42,0,0,0,21.41,29,89.06,89.06,0,0,0,23.77,19.54c4.07,2.36,8.13,4.84,12.05,7.25,4.29,2.62,8.71,5.33,13.13,7.86,3.77,2.16,7.51,4.45,11.14,6.67,9.47,5.8,19.26,11.79,29.95,15.59,3.84,1.37,7.63,3,11.29,4.53,6.61,2.79,13.45,5.69,20.55,7.14,2.94.6,6,1.07,8.92,1.53,1.8.28,3.6.56,5.4.87a85.62,85.62,0,0,0,8.84.88,88.59,88.59,0,0,1,9.31.92c7.65,1.3,15.58,1.54,23.26,1.78,4.64.14,9.43.3,14.15.67,10.93.86,22.57.12,36.61-2.34,3.81-.67,7.69-1.11,11.44-1.53a117.6,117.6,0,0,0,17.08-2.78c3.58-1,7.19-2.15,10.68-3.32,2.57-.85,5.22-1.73,7.86-2.52a192.5,192.5,0,0,0,35.46-14.33c7-3.74,14-7.92,20.7-12,7.92-4.76,16.11-9.68,24.54-14a39.85,39.85,0,0,0,10.86-7.47c9.78-10.19,21.24-22.37,32.1-35.43,8.26-9.92,16.85-20.63,23.24-32.78,1.8-3.42,3.47-7,5.08-10.48a168.87,168.87,0,0,1,7.83-15.4c9.08-15.19,19.71-48.84,20-49.63a100.43,100.43,0,0,0,4.2-22.38c.28-3.13.65-6.26,1-9.29a138.59,138.59,0,0,0,1.4-18.8c-.17-11.29-.71-21.66-1.65-31.71C737.48,451.36,737.33,448.65,737.17,446Z" style="fill:#b8d9e5"/></g><g id="yellow"><path d="M892.15,445.26c-.37-4-.61-8.13-.83-12.12a203.17,203.17,0,0,0-2-21.55C886.2,393,881,373.44,873,350c-5.89-17.13-11.24-32.57-17.08-48-1.4-3.7-2.74-7.58-4-11.33-3.84-11.13-7.8-22.63-14.39-32.4-5.61-8.3-10.9-17.07-16-25.55-9.16-15.17-18.63-30.85-30.44-44.9-11.42-13.59-20.94-22.36-31.84-29.35-9.13-5.85-16-11.63-21.55-18.17a162.08,162.08,0,0,0-53.51-41.41c-22.47-10.79-46.51-22-71.64-29.87-2.82-.89-5.69-1.86-8.46-2.8-7.88-2.67-16-5.42-24.67-6.79-10.74-1.69-23.37-3.81-35.67-6.63a234.57,234.57,0,0,0-43.88-5.64c-10.61-.42-21.25.33-31.54,1.05-5.61.4-11.41.81-17.09,1-9.21.34-18.18.81-26.78,2.81-14.07,3.27-28.54,5.85-42.53,8.35l-3.74.67c-3,.54-6.16,1-9.18,1.51A196.25,196.25,0,0,0,347,66.91c-7.49,2.06-14.77,4.82-21.81,7.48-4.48,1.7-9.11,3.45-13.7,5-18.67,6.23-38.16,15.12-61.33,28a437.18,437.18,0,0,0-74.49,52.19c-9.47,8.26-18.4,18.59-27.28,31.58-5.31,7.77-10.35,15.86-15.23,23.69-4,6.44-8.17,13.12-12.43,19.53a444.43,444.43,0,0,0-39.44,74.11L79,314c-5.73,13.6-11.66,27.68-16.59,41.9-7,20.31-10.14,40.8-13.18,63.55-1.31,9.74-1.68,19.55-2,29-.26,6.91-.53,14.07-1.16,21.05-1.49,16.38-.7,34.24,2.41,54.61.46,3,.88,6,1.31,9,1.5,10.56,3.05,21.47,5.94,32A495.27,495.27,0,0,0,86,647.8c14.5,30.38,32.45,58.93,48.14,83.31a426.1,426.1,0,0,0,33.68,45.66,144.78,144.78,0,0,0,38.62,31.78c6.22,3.6,12.47,7.42,18.5,11.12,6.67,4.08,13.57,8.3,20.5,12.27,5.72,3.28,11.48,6.8,17,10.2,14.95,9.16,30.42,18.63,47.66,24.76,5.74,2.05,11.5,4.49,17.08,6.85,10.54,4.46,21.45,9.08,33.13,11.47,4.71,1,9.5,1.7,14.13,2.42,2.75.43,5.5.85,8.24,1.32a135.16,135.16,0,0,0,14.42,1.45,135.74,135.74,0,0,1,13.67,1.35c12.31,2.09,24.83,2.47,36.95,2.85,7.08.22,14.4.45,21.54,1,4.7.38,9.46.56,14.36.56a253.66,253.66,0,0,0,44.05-4.27c5.69-1,11.58-1.66,17.27-2.3,9-1,18.37-2.06,27.45-4.49,5.74-1.53,11.44-3.42,16.94-5.25,3.92-1.3,8-2.65,12-3.84a304.71,304.71,0,0,0,56.15-22.71c11-5.86,21.86-12.37,32.34-18.67,12.15-7.29,24.72-14.83,37.52-21.35,6.06-3.09,13-7,18.72-13,15.21-15.85,33-34.8,50-55.17,13-15.64,26.57-32.54,36.78-52,2.86-5.43,5.48-11.07,8-16.52a252.76,252.76,0,0,1,11.75-23.16c14.52-24.29,31.6-78.21,31.6-78.39,3.36-10.37,5.51-21.83,6.78-36,.42-4.73,1-9.52,1.55-14.16,1.17-9.75,2.37-19.85,2.22-30C894.47,477.22,893.63,461,892.15,445.26ZM738.58,505.52c-.36,3-.74,6.17-1,9.29a99.85,99.85,0,0,1-4.2,22.39c-.25.79-10.88,34.43-20,49.63a167.31,167.31,0,0,0-7.82,15.39c-1.62,3.47-3.29,7.07-5.09,10.48-6.39,12.16-15,22.86-23.23,32.78-10.87,13.06-22.33,25.24-32.1,35.43a39.93,39.93,0,0,1-10.87,7.48c-8.42,4.28-16.61,9.2-24.54,14-6.73,4-13.68,8.22-20.7,11.95a192.69,192.69,0,0,1-35.45,14.34c-2.65.79-5.3,1.67-7.86,2.52-3.5,1.16-7.11,2.36-10.69,3.32A116.1,116.1,0,0,1,518,737.25c-3.76.42-7.64.86-11.45,1.53-14,2.47-25.67,3.21-36.61,2.34-4.72-.37-9.51-.52-14.15-.66-7.67-.24-15.61-.49-23.26-1.78a90.93,90.93,0,0,0-9.3-.93,82.68,82.68,0,0,1-8.84-.88c-1.8-.31-3.6-.59-5.41-.87-2.94-.45-6-.92-8.91-1.53-7.11-1.45-13.94-4.34-20.55-7.14-3.67-1.55-7.46-3.15-11.3-4.52-10.69-3.81-20.48-9.8-29.95-15.6-3.62-2.21-7.37-4.51-11.13-6.66-4.42-2.53-8.85-5.24-13.13-7.86-3.93-2.41-8-4.9-12.06-7.25a89,89,0,0,1-23.76-19.54,268.86,268.86,0,0,1-21.41-29c-10.07-15.64-21.58-34-30.84-53.35a316.24,316.24,0,0,1-19.33-52.59,165.23,165.23,0,0,1-3.72-20.15c-.28-2-.56-3.92-.86-5.88-1.95-12.8-2.45-24-1.52-34.18.42-4.64.6-9.33.77-13.86.23-6,.46-12.25,1.28-18.32,1.93-14.46,3.89-27.47,8.3-40.19,3.15-9.05,6.95-18.08,10.62-26.81l1.52-3.6a282.43,282.43,0,0,1,25.08-47.14c2.79-4.2,5.5-8.55,8.11-12.74,3.13-5,6.36-10.21,9.74-15.15a101.52,101.52,0,0,1,16.86-19.54,278.38,278.38,0,0,1,47.37-33.19C344.85,232,357.2,226.36,369,222.43c3.05-1,6.09-2.17,9-3.29,4.45-1.68,9.05-3.43,13.68-4.7a123.88,123.88,0,0,1,13.66-2.68c2-.31,4-.63,6-1l2.42-.43c9.1-1.62,18.52-3.3,27.73-5.45a87.51,87.51,0,0,1,16.44-1.7c3.75-.14,7.54-.41,11.2-.66,5.25-.37,10.64-.75,16-.75,1.31,0,2.61,0,3.9.07a146.7,146.7,0,0,1,27.52,3.54c8.09,1.85,16.35,3.23,23.37,4.34a91.38,91.38,0,0,1,15.19,4.21c1.82.61,3.7,1.25,5.57,1.84,15.95,5,31.32,12.16,45.7,19.07a100.19,100.19,0,0,1,33.08,25.59,64.84,64.84,0,0,0,15,12.65c6.62,4.25,12.47,9.65,19.54,18.06,7.4,8.8,13.43,18.79,19.26,28.44,3.33,5.53,6.79,11.25,10.48,16.72,3.92,5.81,6.38,12.95,8.76,19.86.85,2.46,1.72,5,2.66,7.46,3.75,9.89,7.19,19.83,11,30.87,5.12,14.91,8.42,27.32,10.38,39.08A125.28,125.28,0,0,1,737.78,447c.15,2.62.31,5.33.56,8,.93,10.05,1.48,20.43,1.65,31.71A140.25,140.25,0,0,1,738.58,505.52Z" style="fill:#fee77b"/></g><g id="circle_outlines" data-name="circle outlines"><path d="M742.77,446.72a128.29,128.29,0,0,0-1.31-14c-2-12-5.36-24.69-10.58-39.88-3.81-11.09-7.28-21.08-11-31-.87-2.28-1.69-4.68-2.49-7l-.12-.32c-2.48-7.21-5.05-14.67-9.34-21-3.66-5.43-7.21-11.31-10.34-16.5-5.92-9.81-12-20-19.71-29.07-7.41-8.82-13.59-14.51-20.67-19.06a60.23,60.23,0,0,1-13.85-11.68,105.36,105.36,0,0,0-34.72-26.86c-14.54-7-30.09-14.22-46.37-19.34-1.74-.54-3.48-1.13-5.17-1.7l-.37-.12a95.39,95.39,0,0,0-15.94-4.39c-6.91-1.09-15-2.45-23-4.28a151.43,151.43,0,0,0-28.44-3.65c-1.28-.06-2.62-.08-4.1-.08-5.56,0-11,.39-16.34.76-3.43.24-7.33.52-11,.65A91.61,91.61,0,0,0,440.4,200c-9.08,2.12-18.42,3.78-27.47,5.4l-2.42.43c-2,.35-4,.66-5.92,1a129,129,0,0,0-14.2,2.8c-4.82,1.33-9.5,3.1-14,4.81l-.1,0c-2.89,1.09-5.88,2.22-8.84,3.21-12.1,4-24.72,9.8-39.72,18.13a283.47,283.47,0,0,0-48.23,33.79,106.24,106.24,0,0,0-17.7,20.49c-3.44,5-6.7,10.26-9.85,15.32l-.14.22c-2.55,4.1-5.19,8.33-7.89,12.4a286.8,286.8,0,0,0-25.53,48l-1.51,3.6c-3.71,8.79-7.53,17.88-10.74,27.11-4.56,13.16-6.57,26.43-8.54,41.16-.85,6.32-1.09,12.67-1.32,18.8-.16,4.46-.34,9.06-.75,13.59-1,10.62-.45,22.2,1.56,35.39.28,1.8.53,3.6.79,5.39l.06.44a167.6,167.6,0,0,0,3.85,20.76,320.44,320.44,0,0,0,19.64,53.44c9.39,19.67,21,38.13,31.14,53.9a276.27,276.27,0,0,0,21.8,29.55,93.75,93.75,0,0,0,25.08,20.63c4.12,2.39,8.28,4.94,11.95,7.19l.23.14c4.24,2.6,8.62,5.28,13,7.8,3.72,2.13,7.43,4.39,11,6.59,9.68,5.92,19.69,12,30.88,16,3.7,1.32,7.42,2.89,11.05,4.42,6.83,2.89,13.89,5.88,21.48,7.43,3,.63,6.12,1.11,9.15,1.58,1.78.27,3.55.54,5.31.85a86.6,86.6,0,0,0,9.27.93h.13a85.93,85.93,0,0,1,8.77.87c8,1.35,16.1,1.6,23.94,1.84,4.33.14,9.25.29,13.91.66,3.05.24,6.14.36,9.32.36a164.17,164.17,0,0,0,28.54-2.77c3.71-.65,7.49-1.07,11.14-1.48a120.33,120.33,0,0,0,17.81-2.91c3.7-1,7.36-2.2,11-3.41,2.38-.79,5.08-1.69,7.71-2.47a196.93,196.93,0,0,0,36.37-14.72c7.07-3.76,14-7.93,20.74-12l.19-.11c7.82-4.7,15.9-9.56,24.23-13.8a44.18,44.18,0,0,0,12.2-8.47c9.86-10.27,21.4-22.54,32.34-35.69,8.42-10.12,17.2-21.06,23.82-33.65,1.85-3.53,3.55-7.17,5.19-10.7a166.12,166.12,0,0,1,7.58-14.94c8.66-14.48,18.51-44.61,20.39-50.5l0-.15a104.69,104.69,0,0,0,4.42-23.48c.28-3.09.67-6.31,1-9.14A141.27,141.27,0,0,0,745,486.65c-.18-11.42-.72-21.92-1.68-32.1C743.07,451.94,742.92,449.28,742.77,446.72Zm-9.15,58.21c-.35,2.9-.75,6.19-1,9.44a95.08,95.08,0,0,1-4,21.28l-.06.19c-1.83,5.71-11.35,34.88-19.45,48.42A172.6,172.6,0,0,0,701,600.11c-1.59,3.42-3.24,6.95-5,10.26-6.17,11.74-14.58,22.2-22.66,31.92-10.74,12.9-22.13,25-31.86,35.16a35.52,35.52,0,0,1-9.53,6.48c-8.63,4.4-16.87,9.35-24.84,14.13l-.18.11c-6.62,4-13.46,8.08-20.3,11.72a187.89,187.89,0,0,1-34.53,14c-2.78.82-5.56,1.75-8.09,2.59-3.4,1.13-6.91,2.3-10.32,3.21a113.61,113.61,0,0,1-16.34,2.63c-3.63.41-7.75.87-11.76,1.58-13.6,2.38-24.83,3.11-35.34,2.28-4.9-.39-9.94-.54-14.39-.68-7.5-.23-15.27-.47-22.58-1.71a95.78,95.78,0,0,0-9.82-1h-.1a76,76,0,0,1-8.22-.81c-1.82-.31-3.65-.59-5.52-.88-2.87-.45-5.83-.91-8.64-1.49-6.61-1.34-13.21-4.14-19.61-6.85-3.73-1.57-7.59-3.21-11.56-4.62-10.22-3.64-19.78-9.49-29-15.15-3.64-2.23-7.41-4.54-11.26-6.74-4.28-2.45-8.6-5.09-12.77-7.65l-.23-.14c-3.71-2.27-7.92-4.85-12.16-7.31A84.15,84.15,0,0,1,282,662.66a267,267,0,0,1-21-28.49c-10-15.51-21.39-33.66-30.53-52.8a310.15,310.15,0,0,1-19-51.76,159.84,159.84,0,0,1-3.6-19.54l-.06-.44c-.26-1.82-.52-3.66-.8-5.48-1.9-12.39-2.38-23.18-1.49-33,.44-4.8.62-9.54.79-14.12.22-5.9.45-12,1.23-17.85,1.9-14.19,3.82-26.93,8.08-39.21,3.1-8.92,6.86-17.86,10.5-26.51l1.52-3.61a276.88,276.88,0,0,1,24.64-46.3c2.78-4.19,5.46-8.49,8-12.65l.14-.22c3.1-5,6.3-10.11,9.61-15a96.63,96.63,0,0,1,16-18.6,273.36,273.36,0,0,1,46.52-32.59c14.44-8,26.52-13.55,38-17.38,3.15-1,6.24-2.22,9.22-3.35l.1,0c4.31-1.63,8.77-3.32,13.14-4.52a119.67,119.67,0,0,1,13.14-2.56c2-.32,4.06-.64,6.09-1l2.42-.43c9.17-1.63,18.65-3.32,28-5.5a84.14,84.14,0,0,1,15.49-1.58c3.88-.14,7.86-.42,11.37-.67,5.13-.36,10.44-.73,15.64-.73,1.34,0,2.55,0,3.71.07a141.88,141.88,0,0,1,26.59,3.41c8.28,1.89,16.63,3.29,23.71,4.41a88.17,88.17,0,0,1,14.37,4l.3.1c1.76.6,3.57,1.21,5.37,1.78,15.65,4.91,30.83,12,45,18.81a95.08,95.08,0,0,1,31.43,24.33,70.38,70.38,0,0,0,16.07,13.61c6.18,4,11.69,9.07,18.41,17.07,7.17,8.52,13.08,18.32,18.8,27.8,3.2,5.3,6.82,11.29,10.62,16.94,3.55,5.25,5.9,12.08,8.19,18.69l.1.32c.83,2.39,1.68,4.86,2.6,7.28,3.72,9.81,7.16,19.72,10.94,30.73,5,14.65,8.27,26.81,10.18,38.27a122.67,122.67,0,0,1,1.19,12.89c.14,2.53.31,5.4.57,8.19.92,9.92,1.46,20.17,1.63,31.32A135.2,135.2,0,0,1,733.62,504.93Z" style="fill:#141414"/><path d="M897.13,444.8c-.37-4-.61-8.24-.83-12a204.24,204.24,0,0,0-2.07-22c-3.14-18.85-8.4-38.68-16.55-62.4-5.94-17.26-11.33-32.8-17.13-48.11-1.35-3.56-2.65-7.31-3.9-10.95l-.08-.24c-3.94-11.43-8-23.25-15-33.56-5.47-8.11-10.67-16.72-15.69-25l-.25-.41c-9.24-15.29-18.8-31.11-30.83-45.42-11.77-14-21.63-23.07-33-30.34-8.7-5.59-15.2-11.05-20.44-17.22a167.18,167.18,0,0,0-55.16-42.67C663.62,83.55,639.39,72.27,614,64.28c-2.68-.84-5.37-1.75-8.36-2.77l-.1,0c-8-2.72-16.35-5.53-25.4-7C569.5,52.85,557,50.77,544.77,48A239.5,239.5,0,0,0,500,42.19c-10.92-.43-21.68.33-32.09,1.07l-.31,0c-5.47.38-11.12.78-16.62,1-9.46.35-18.71.84-27.73,2.94C409.34,50.43,395,53,381.13,55.47l-3.92.7c-2.79.5-5.69,1-8.49,1.4l-.59.09a202.92,202.92,0,0,0-22.44,4.43C338,64.21,330.6,67,323.44,69.71l-.1,0c-4.4,1.67-9,3.39-13.41,4.88C291,81,271.19,90,247.76,103a441.49,441.49,0,0,0-75.35,52.79c-9.8,8.54-19,19.18-28.13,32.53-5.37,7.86-10.44,16-15.34,23.86l-.17.28c-4,6.33-8,12.87-12.19,19.13A449.49,449.49,0,0,0,76.7,306.53l-2.34,5.56c-5.75,13.66-11.69,27.77-16.71,42.21C50.46,375,47.33,395.79,44.24,418.82c-1.34,10-1.71,19.93-2.07,29.55-.26,6.84-.53,13.91-1.15,20.75-1.53,16.78-.73,35,2.45,55.81.45,3,.87,6,1.3,9,1.52,10.7,3.1,21.76,6.07,32.63A500.13,500.13,0,0,0,81.49,650c14.62,30.63,32.67,59.35,48.45,83.87A430.49,430.49,0,0,0,164,780a149.8,149.8,0,0,0,39.92,32.86c6.23,3.62,12.7,7.57,18.4,11.07C229,828,236,832.27,243,836.28c5.7,3.26,11.4,6.75,16.91,10.13,15.17,9.29,30.86,18.89,48.6,25.2,5.46,1.95,11,4.29,16.39,6.57l.42.17c10.77,4.56,21.91,9.28,34.08,11.76,4.73,1,9.48,1.71,14.08,2.43l.72.11c2.57.4,5.15.8,7.72,1.24a139.29,139.29,0,0,0,14.87,1.51h.16A128.83,128.83,0,0,1,410,896.69c12.61,2.14,25.26,2.53,37.5,2.91h.16c7,.22,14.27.44,21.28,1,4.81.38,9.77.57,14.75.57a260,260,0,0,0,44.92-4.34c5.44-1,11.15-1.61,16.68-2.23l.28,0c9.2-1,18.71-2.1,28.18-4.62,5.86-1.57,11.6-3.48,17.23-5.35l.18-.06c3.82-1.27,7.77-2.58,11.62-3.73a309.63,309.63,0,0,0,57.07-23.08c11-5.88,21.83-12.36,32.27-18.62l.3-.18c12.05-7.24,24.51-14.72,37.22-21.19,6.43-3.28,13.85-7.51,20-14,15.27-15.91,33.17-34.94,50.22-55.43,13.19-15.86,26.93-33,37.36-52.83,3-5.66,5.72-11.55,8.13-16.74l.06-.13a247.29,247.29,0,0,1,11.45-22.57c6.2-10.36,13.48-26.88,21.65-49.08.1-.26,8.64-23.77,10.36-30.36l.06,0c3.48-10.74,5.7-22.54,7-37.14.39-4.48.94-9.08,1.47-13.52l.06-.48c1.19-9.88,2.42-20.11,2.26-30.71C899.47,477,898.62,460.67,897.13,444.8Zm-9.58,79.52-.06.49c-.54,4.51-1.09,9.18-1.5,13.82-1.23,13.83-3.32,24.93-6.55,35l-.25.75v0c-1.87,5.88-17.59,54.33-30.89,76.58a256.43,256.43,0,0,0-11.94,23.48l-.06.13c-2.36,5.09-5,10.86-7.91,16.3-10,19-23.35,35.65-36.2,51.09-16.84,20.25-34.6,39.12-49.75,54.91-5.17,5.39-11.69,9.09-17.37,12-13,6.63-25.63,14.2-37.83,21.53l-.29.17c-10.34,6.2-21,12.62-31.83,18.37a299.21,299.21,0,0,1-55.23,22.33c-4,1.19-8,2.53-11.91,3.82l-.26.09c-5.41,1.8-11,3.66-16.57,5.14-8.75,2.34-17.89,3.36-26.73,4.35l-.29,0c-5.67.65-11.54,1.31-17.28,2.32a250.12,250.12,0,0,1-43.19,4.19c-4.72,0-9.41-.18-14-.54-7.25-.57-14.63-.8-21.79-1h-.12c-11.91-.37-24.22-.76-36.15-2.78a118.29,118.29,0,0,0-12.19-1.27h0l-2.68-.17A127.11,127.11,0,0,1,383.56,884c-2.62-.44-5.25-.85-7.88-1.26l-.72-.12c-4.48-.69-9.11-1.41-13.61-2.33-11.19-2.29-21.86-6.81-32.19-11.18l-.42-.18c-5.5-2.32-11.2-4.73-16.93-6.77-16.76-6-32-15.29-46.72-24.31-5.58-3.41-11.34-6.94-17.17-10.28-6.87-3.93-13.73-8.13-20.37-12.19-5.75-3.52-12.27-7.52-18.6-11.19a140.11,140.11,0,0,1-37.32-30.68,420.47,420.47,0,0,1-33.28-45.13c-15.61-24.26-33.47-52.67-47.83-82.76a490.31,490.31,0,0,1-30-81.72c-2.8-10.27-4.33-21-5.81-31.43-.43-3-.86-6.06-1.32-9.07C50.3,503.46,49.52,486,51,470c.64-7.1.92-14.31,1.18-21.32.35-9.34.72-19,2-28.55,3-22.49,6.07-42.72,12.95-62.57C72,343.45,77.89,329.48,83.58,316l2.34-5.57a439.57,439.57,0,0,1,39-73.27c4.24-6.38,8.36-13,12.34-19.38l.18-.28c4.84-7.78,9.85-15.82,15.11-23.5,8.64-12.65,17.28-22.67,26.43-30.64a432.33,432.33,0,0,1,73.64-51.59C275.5,99,294.72,90.24,313.1,84.12c4.64-1.55,9.29-3.31,13.78-5l.12,0c6.93-2.62,14.09-5.33,21.34-7.33a193.65,193.65,0,0,1,21.36-4.19l.58-.09c2.85-.45,5.8-.92,8.69-1.44l3.92-.7c14-2.5,28.47-5.08,42.6-8.37,8.15-1.9,16.87-2.36,25.83-2.69,5.66-.2,11.4-.61,16.95-1l.31,0c10.14-.71,20.63-1.45,31-1a230.07,230.07,0,0,1,43,5.52c12.55,2.88,25.24,5,36,6.7,8.2,1.29,16.1,4,23.74,6.55l.1,0c3,1,5.79,2,8.58,2.84,24.8,7.79,48.66,18.9,71,29.61a157.08,157.08,0,0,1,51.86,40.14c5.91,6.93,13.11,13,22.67,19.14,10.44,6.7,19.62,15.18,30.7,28.36,11.53,13.72,20.89,29.19,29.93,44.16l.24.41c5.09,8.43,10.36,17.15,16,25.46,6.23,9.23,10.08,20.41,13.81,31.23l.09.24c1.27,3.71,2.6,7.54,4,11.24,5.75,15.17,11.11,30.63,17,47.82,8,23.17,13.1,42.49,16.15,60.78a198.08,198.08,0,0,1,2,21c.22,3.8.47,8.1.85,12.31h0c1.47,15.61,2.31,31.71,2.57,49.22C889.89,504.88,888.7,514.76,887.55,524.32Z" style="fill:#141414"/></g><g id="text-9" data-name="text"><path d="M283.89,726.46l-17-11.54a5.27,5.27,0,0,0-4.21-.84,5.52,5.52,0,0,0-3.55,2.38l-31,45.55a5.48,5.48,0,0,0,1.47,7.71,5.51,5.51,0,0,0,3.16,1,5.83,5.83,0,0,0,1-.09,5.31,5.31,0,0,0,3.61-2.33l10-14.69,12.3,8.36c4.9,3.34,9.56,5.26,13.84,5.72A19.36,19.36,0,0,0,285,765.78a22.88,22.88,0,0,0,11.7-17.22,19.35,19.35,0,0,0-2.41-11.33C292.29,733.41,288.79,729.79,283.89,726.46Zm-.22,25.82a10,10,0,0,1-7,4.49c-3,.47-6.86-.92-11.58-4.12l-11.63-7.91L265.55,727l11.63,7.91c4.71,3.2,7.43,6.31,8.09,9.25A10,10,0,0,1,283.67,752.28Z" style="fill:#141414"/><path d="M344.51,817.26l-25.95-10.33L336.86,761a5.49,5.49,0,0,0-.06-4.32,5.58,5.58,0,0,0-7.39-2.92,5.54,5.54,0,0,0-2.94,3.09l-19.79,49.67a7.18,7.18,0,0,0,4,9.31l29.68,11.83a5.77,5.77,0,0,0,2.13.42,5.6,5.6,0,0,0,2.14-.43,5.29,5.29,0,0,0,3-3.06,5.65,5.65,0,0,0-3.15-7.33Z" style="fill:#141414"/><path d="M423.73,783.75a8.46,8.46,0,0,0-1.93-3.56,6.49,6.49,0,0,0-3.87-2l-.89-.14a6.46,6.46,0,0,0-4.28.7,8.45,8.45,0,0,0-2.95,2.82l-31.08,50a6.26,6.26,0,0,0-.93,2.26,5.44,5.44,0,0,0,.92,4.11,5.32,5.32,0,0,0,3.7,2.23,5.62,5.62,0,0,0,3.22-.42,5.87,5.87,0,0,0,2.51-2.17l7.43-12.11,28.26,4.44,3.38,13.86a5.77,5.77,0,0,0,1.7,2.77,5.56,5.56,0,0,0,2.94,1.39,5.77,5.77,0,0,0,1,.08,5.21,5.21,0,0,0,3.21-1.07,5.44,5.44,0,0,0,2.13-3.63,6.18,6.18,0,0,0-.19-2.45Zm-2.61,35.13-19.57-3.07,13.48-22Z" style="fill:#141414"/><path d="M519.64,817a20.31,20.31,0,0,0-8.46-5.12,92.56,92.56,0,0,0-11.91-2.62,83.66,83.66,0,0,1-8.67-1.7,13.17,13.17,0,0,1-5-2.46,5.51,5.51,0,0,1-1.95-4.05,7,7,0,0,1,3.26-6.54c2.59-1.84,6.15-2.94,10.57-3.27a42.78,42.78,0,0,1,14.07,1.29,5.43,5.43,0,0,0,2,.32,4.73,4.73,0,0,0,3.61-2,5.36,5.36,0,0,0,1.08-3.67,5,5,0,0,0-3.85-4.73,52.73,52.73,0,0,0-18.61-1.7,31.15,31.15,0,0,0-13.06,3.58,20.18,20.18,0,0,0-8,7.82,18.42,18.42,0,0,0-2.19,10.32c.32,4.26,1.79,7.65,4.39,10.08a22.24,22.24,0,0,0,8.69,5,111.4,111.4,0,0,0,12.2,2.81c3.67.68,6.53,1.29,8.5,1.82a13.3,13.3,0,0,1,4.67,2.2,4.33,4.33,0,0,1,1.77,3.26c.16,2.18.65,8.83-13.57,9.87a41.68,41.68,0,0,1-17.34-2.29,5.63,5.63,0,0,0-2.34-.32,5,5,0,0,0-3.63,1.89,5.33,5.33,0,0,0,.05,6.74,5.64,5.64,0,0,0,2.59,1.83,54.49,54.49,0,0,0,17.91,3c1.44,0,2.9-.06,4.36-.16a31.9,31.9,0,0,0,12.45-3.3,20.51,20.51,0,0,0,8.2-7.38,16.7,16.7,0,0,0,2.43-10.13C523.56,823,522.13,819.49,519.64,817Z" style="fill:#141414"/><path d="M588.51,764a5.21,5.21,0,0,0-4.09-.46l-43.08,12.37a5.09,5.09,0,0,0-3.2,2.56,5.32,5.32,0,0,0-.4,4.05,5.19,5.19,0,0,0,6.54,3.62l16.2-4.65,13.81,48.13a5.39,5.39,0,0,0,2.64,3.34,5.25,5.25,0,0,0,2.62.7,5.77,5.77,0,0,0,1.61-.24,5.51,5.51,0,0,0,3.37-2.62,5.4,5.4,0,0,0,.52-4.27l-13.81-48.13,16.12-4.62a5.29,5.29,0,0,0,3.22-2.49,5.09,5.09,0,0,0,.48-4.06A5.21,5.21,0,0,0,588.51,764Z" style="fill:#141414"/><path d="M624.52,751a5.67,5.67,0,0,0-7.55-2.59,5.32,5.32,0,0,0-2.82,3.24,5.57,5.57,0,0,0,.31,4.27l24.37,49.9a5.39,5.39,0,0,0,3.17,2.83h0a5.68,5.68,0,0,0,7.11-3.45,5.29,5.29,0,0,0-.24-4.3Z" style="fill:#141414"/><path d="M723.71,742.49a5,5,0,0,0-3.8,1,5.11,5.11,0,0,0-1.54,1.8,39.75,39.75,0,0,1-4.18,6.89,30.2,30.2,0,0,1-6.07,5.77,24.26,24.26,0,0,1-11.76,5,19.09,19.09,0,0,1-10.93-2,28.63,28.63,0,0,1-14.18-19.1,19.14,19.14,0,0,1,1.28-11,24.24,24.24,0,0,1,8.2-9.81A30.28,30.28,0,0,1,688,717a40.57,40.57,0,0,1,7.82-2,5,5,0,0,0,2.15-1,5,5,0,0,0,1.16-7,5.11,5.11,0,0,0-5-2.16,49,49,0,0,0-10.49,2.47,39.93,39.93,0,0,0-10,5.57,34.67,34.67,0,0,0-11.1,13.35,29.77,29.77,0,0,0-2.46,16.55,39.47,39.47,0,0,0,21.31,28.71,29.56,29.56,0,0,0,16.56,2.45,34.76,34.76,0,0,0,16-6.77,39.78,39.78,0,0,0,8.24-8,48.35,48.35,0,0,0,5.38-9.3,5.09,5.09,0,0,0-.6-5.45A4.84,4.84,0,0,0,723.71,742.49Z" style="fill:#141414"/><path d="M216.8,227a22.26,22.26,0,0,0-9.69-4.56,19.34,19.34,0,0,0-11.49,1.51c-4,1.69-7.85,4.9-11.55,9.51l-12.85,16a5.29,5.29,0,0,0-1.17,4.13,5.51,5.51,0,0,0,2.1,3.72l42.95,34.48a5.4,5.4,0,0,0,3.44,1.25,4.82,4.82,0,0,0,.65,0,5.39,5.39,0,0,0,3.72-2.06,5.59,5.59,0,0,0,1.24-4.09,5.34,5.34,0,0,0-2-3.79l-13.85-11.11,9.31-11.61c3.71-4.62,6-9.11,6.79-13.34a19.35,19.35,0,0,0-1-11.54A22.3,22.3,0,0,0,216.8,227ZM213.71,243c.23,3-1.46,6.77-5,11.21l-8.81,11-16.75-13.45,8.81-11c3.56-4.45,6.88-6.91,9.86-7.33A10.57,10.57,0,0,1,213.71,243Z" style="fill:#141414"/><path d="M311.36,205.67a5.4,5.4,0,0,0-1-4.13l-2.45-3.34a36.74,36.74,0,0,0-9.66-9,13.87,13.87,0,0,0-9.64-2.38,17.41,17.41,0,0,0,1.7-8.07,18.81,18.81,0,0,0-3.67-10.57,17.83,17.83,0,0,0-13.87-7.69c-5.6-.32-11.92,2-18.77,7l-16.93,12.37a5.32,5.32,0,0,0-2.22,3.68,5.54,5.54,0,0,0,1.06,4.14l32.49,44.48a5.37,5.37,0,0,0,3.62,2.24,6.8,6.8,0,0,0,.89.07,5.39,5.39,0,0,0,3.24-1.1,5.55,5.55,0,0,0,2.27-3.62,5.34,5.34,0,0,0-1-4.19L266,209.93l13.84-10.1c3-2.19,5.75-3.12,8.15-2.76a11.81,11.81,0,0,1,6.38,2.87,38.84,38.84,0,0,1,5.36,6l1.59,2.18a5.4,5.4,0,0,0,3.61,2.29,5.51,5.51,0,0,0,4.22-1.14A5.39,5.39,0,0,0,311.36,205.67Zm-32.18-22.15c-1.13,3.13-3.69,6.17-7.59,9l-11.94,8.72-11.72-16,11.58-8.45c4.8-3.51,8.7-5.3,11.61-5.27a8.18,8.18,0,0,1,6.84,3.76A8.35,8.35,0,0,1,279.18,183.52Z" style="fill:#141414"/><path d="M338.42,186.49a5.37,5.37,0,0,0,2.92,3.1,5.55,5.55,0,0,0,2.2.47,5.62,5.62,0,0,0,2.06-.4l33.65-13a5.31,5.31,0,0,0,3-2.76,5.36,5.36,0,0,0-6.84-7.17l-28.39,11-6.14-15.83L366.24,152a5.31,5.31,0,0,0,3-2.76,5.36,5.36,0,0,0-6.84-7.17L337,151.93l-6.11-15.75,28.39-11a5.33,5.33,0,0,0,3-2.77,5.13,5.13,0,0,0,.11-4.1,5.35,5.35,0,0,0-6.95-3.06l-33.65,13a5.3,5.3,0,0,0-3.08,3,5.5,5.5,0,0,0-.05,4.27Z" style="fill:#141414"/><path d="M461.66,149.31a5,5,0,0,0-3.81-1,5,5,0,0,0-2.24.79,39.56,39.56,0,0,1-7.07,3.85,30.37,30.37,0,0,1-8.15,1.95,24.25,24.25,0,0,1-12.68-1.57,19.09,19.09,0,0,1-8.47-7.2,28.55,28.55,0,0,1-2.67-23.62,19.12,19.12,0,0,1,6.64-8.91,24.24,24.24,0,0,1,12-4.36,30.19,30.19,0,0,1,8.38.08,40.12,40.12,0,0,1,7.77,2.18,5.06,5.06,0,0,0,2.34.26,4.91,4.91,0,0,0,3.5-1.9,4.79,4.79,0,0,0,1-3.56A5.11,5.11,0,0,0,455,101.9a48.65,48.65,0,0,0-10.32-3.13,40.13,40.13,0,0,0-11.46-.22,34.73,34.73,0,0,0-16.3,6,29.89,29.89,0,0,0-10.44,13.09,36.29,36.29,0,0,0-2.25,18.25,36.18,36.18,0,0,0,6.27,17.28,29.82,29.82,0,0,0,13.1,10.43A33.42,33.42,0,0,0,436.33,166a42.42,42.42,0,0,0,15.6-3,48.43,48.43,0,0,0,9.33-5.35,5.09,5.09,0,0,0,2.21-5A4.83,4.83,0,0,0,461.66,149.31Z" style="fill:#141414"/><path d="M498.5,165.27l.59,0a5.55,5.55,0,0,0,3.51-1.24,5.31,5.31,0,0,0,2-3.79L509.8,105a5.64,5.64,0,0,0-5.09-6.14,5.27,5.27,0,0,0-4.1,1.3,5.52,5.52,0,0,0-1.95,3.8l-5.17,55.29a5.5,5.5,0,0,0,5,6Z" style="fill:#141414"/><path d="M601.07,124.9a36.62,36.62,0,0,0-32.84-10.85,30,30,0,0,0-14.74,7.8A38.14,38.14,0,0,0,542.55,155a29.94,29.94,0,0,0,7.2,15h0a33.93,33.93,0,0,0,15.08,9.55,36.44,36.44,0,0,0,11.46,2,30,30,0,0,0,6.31-.66A30.36,30.36,0,0,0,597.34,173,37.58,37.58,0,0,0,608.25,140,30.27,30.27,0,0,0,601.07,124.9Zm-4.84,29.43a26.51,26.51,0,0,1-6.24,10.5,20,20,0,0,1-9.74,5.44,24.36,24.36,0,0,1-22.31-7.37,20,20,0,0,1-4.55-10.15,28.33,28.33,0,0,1,7.48-22.65,19.94,19.94,0,0,1,9.7-5.45,18.79,18.79,0,0,1,4.4-.51,24.77,24.77,0,0,1,7.72,1.33A22.13,22.13,0,0,1,592.88,132a19.86,19.86,0,0,1,4.59,10.16A26.56,26.56,0,0,1,596.23,154.33Z" style="fill:#141414"/><path d="M668.93,222.78a25,25,0,0,0,11.56-9.47l20.4-29.11a5.65,5.65,0,0,0-1.39-7.86,5.34,5.34,0,0,0-4.2-.9,5.59,5.59,0,0,0-3.58,2.33l-20.55,29.34a15,15,0,0,1-6.62,5.57,14.11,14.11,0,0,1-7.78.82,19.16,19.16,0,0,1-13.11-9.19,14.14,14.14,0,0,1-1.9-7.59,15.13,15.13,0,0,1,3-8.13l20.55-29.34a5.63,5.63,0,0,0-1.38-7.85,5.3,5.3,0,0,0-4.2-.9,5.54,5.54,0,0,0-3.58,2.33L635.72,182a24.36,24.36,0,0,0-1.5,27.21A31,31,0,0,0,655.44,224a24.93,24.93,0,0,0,4.55.42A25.21,25.21,0,0,0,668.93,222.78Z" style="fill:#141414"/><path d="M763.62,245.93a53.13,53.13,0,0,0-9.49-16.1,31.29,31.29,0,0,0-10.54-8.5,20.23,20.23,0,0,0-11-2,18.39,18.39,0,0,0-9.65,4.26,14.79,14.79,0,0,0-5.62,9.45,22.28,22.28,0,0,0,1,10,110.7,110.7,0,0,0,4.85,11.54c1.59,3.37,2.76,6,3.49,8a13.39,13.39,0,0,1,.94,5.07,4.3,4.3,0,0,1-1.62,3.34,7.2,7.2,0,0,1-7.08,1.68c-2.71-.81-5.69-3.14-8.85-6.92a41.65,41.65,0,0,1-8.27-15.41,5.7,5.7,0,0,0-1.11-2.09,5,5,0,0,0-3.65-1.85,5.36,5.36,0,0,0-5.45,4,5.6,5.6,0,0,0,0,3.17,55,55,0,0,0,10.73,19.72,31.88,31.88,0,0,0,9.94,8.17,20.87,20.87,0,0,0,9.46,2.4c.44,0,.88,0,1.32-.05a16.58,16.58,0,0,0,9.64-3.95c3.39-2.84,5.4-6.05,6-9.53a20.41,20.41,0,0,0-.78-9.85,93.71,93.71,0,0,0-4.84-11.2,82.41,82.41,0,0,1-3.68-8,12.94,12.94,0,0,1-.9-5.47,5.47,5.47,0,0,1,2.14-3.95,6.94,6.94,0,0,1,7.21-1.17c3,1,6,3.27,8.83,6.67a42.51,42.51,0,0,1,7.17,12.17,5.46,5.46,0,0,0,.92,1.83,4.8,4.8,0,0,0,3.72,1.79h0a5.44,5.44,0,0,0,3.58-1.27A5,5,0,0,0,763.62,245.93Z" style="fill:#141414"/></g><g id="Calque_7" data-name="Calque 7"><path d="M435.49,524.73c-34.85-15.9-47.09-25.62-57.88-10.34-.84,1.18,1.3,11.36,1.3,11.36s70.68,29.39,106.45,37.46c28.11,6.35,91.15.83,91.15.83l52.86-.16s25.16-5.18,36.19-14.08c6.11-4.93,20.57-.06,26.09-19.29,2.39-8.35-123.89-33.41-142.87-30.83s-67.13-5.84-75.35-5.82-38.86,5.6-39.53,12.51S438.29,526,435.49,524.73Z" style="fill:#aeadad"/><path d="M453.32,495.59c-5.39,2.47-87.73,3.19-98,2.75s-.84,13.25,4.24,14.17c3.08.56,133.18-4,155-3.08,22.07,1,66.54,7.63,80.3,7.11,18.35-.69,41.93,20.05,57.49,18.1,12-1.5,40.82-3.69,44.22-11.88,2.76-6.66,5.29-50.35,4.39-66.54s-25.65-44.39-28.88-61.72c-5.21-27.93-17.56-25.61-32.73-25.53-10.08.06-43.39-5.07-48.14-5.39s-23.87-2.86-26.72-1.7S547.2,350.08,535.17,344c-19.59-9.93-48.83-21-62.72-15.1-12.25,5.21-48.08,15.83-57.57,14.9s-20.55,1-35.13.11-59.49.18-59.49.18c-4.26.1,2.7,16.72,3.19,19.93s41.18,3.18,64.91,2,69,15.44,75.69,18.23c-8.49,18.56-1.94,25.24-2.2,43.34s-2.6,17.67-3.16,23.28c-.59,6,7.31,10,7.32,13.81S458.72,493.11,453.32,495.59Z" style="fill:#fff"/><path d="M425.54,375s3.49,13.88,4.81,20.23-.73,20.85-2.27,33.59-1,17.11-.06,19.64,2,18.86,2,23,5.29,9.67,6.05,18.56,8.49,5.29,13.48,5,9.13-6,13.83-19.95-2.19-16-5-20.85c-1.83-3.22-2.71-3.14,1.06-13.35s0-15.36-.64-23.3,3.31-33.47,3.31-33.47Z" style="fill:#aeadad"/><path d="M704.41,481.38a64.76,64.76,0,0,1,.65-18.28c1.18-7.59-2.52-14.65-5.79-20.9l-.09-.16c-.88-1.68-1.71-3.27-2.4-4.79-1.3-2.86-2.61-5.23-3.77-7.33a58.57,58.57,0,0,1-5.12-11.18,59.8,59.8,0,0,0-2.38-6.06c-.24-.55-.48-1.09-.71-1.65a30.42,30.42,0,0,0-7.64-11.42c-1.14-1.08-1.19-3.85-1.23-6.31l0-.51c-.09-4.66-.55-10.14-3.15-15.47-4-8.24-10.43-12.29-19.61-12.37-3.7,0-6.78,0-9.8.08-4.6.08-8.94.15-14.67-.11h-.14a19,19,0,0,1-6.22-1.15c-9.61-4.35-17.39-4.23-25.7-4.1a82.18,82.18,0,0,1-15.53-.79c-.23,0-1.14-.14-3.68-.42-4.07-.45-13.59-1.49-14.6-1.78-8.63-3-15.81-8.5-23.42-14.34l-1.87-1.43c-8.53-6.53-18.67-10.06-27.45-12.66-13.7-4.05-28.1-4.85-44-2.45-10.87,1.65-21.27,4.86-31.33,8l-.22.07c-4.26,1.32-8.68,2.68-13,3.89a58.3,58.3,0,0,1-14.66,2.16c-7.14.12-14.43-.28-21.48-.66a255.05,255.05,0,0,0-27.44-.49l-4.16.21c-2,.11-3.27.16-4.32.2-1.6.06-2.76.1-5.68.31l-.21,0-.2.07c-.19.07-.37.12-.56.17-1.15-6.17-3.79-17.86-5-21.6a2.52,2.52,0,0,1,.68-2.66,19.16,19.16,0,0,0,2.47-3.21c.37-.55.72-1.08,1.08-1.54,4.34-5.65.93-12.77-1.46-19.48a20.67,20.67,0,0,0-15.21-13.29c-10.53-2.44-21,1.51-26.73,10.05-2.6,3.89-1.85,8.55-1.2,12.67.08.46.15.92.21,1.37,1.52,10.21,8.86,16,16.56,20.72,3.37,2.07,3.94,3.75,4.06,5,.1,1,1,8.38,1.56,12.92a6,6,0,0,1-1.2-.33l-.44-.16-.45.11a4.75,4.75,0,0,0-1.13.44,3.92,3.92,0,0,0-2,3.27,22.62,22.62,0,0,0,1,7.45,27.79,27.79,0,0,1,.94,4.58c.35,2.92,1.57,9.88,5.33,11.55a21.37,21.37,0,0,0,3.6,1.19,277,277,0,0,1,5.67,28l.3,1.78h0c.46,2.75.92,5.51,1.42,8.25q2.31,12.92,4.68,25.85c.31,1.71.6,3.42.89,5.13.69,4.13,1.41,8.4,2.48,12.55,3.69,14.3,6.71,29,9.44,42.76a24.4,24.4,0,0,1,.33,2.54v0c-2.17,1-3.37,2.4-3.54,4.2-1.83,8.84,2.87,13.41,7.23,15.83a2,2,0,0,0,.09.48c1,3.5,1.88,7.08,2.65,11,.43,2.13,1.05,4.21,1.64,6.21l.23.76a48.19,48.19,0,0,1,1.5,6c2.54,15.53,6.57,30.77,10.49,45.06A288.73,288.73,0,0,1,377.62,619c1,6.49,2.19,13,3.37,19.35q.88,4.67,1.73,9.34c.46,2.61.92,5.21,1.39,7.82l.29,1.6c2.22,12.48,4.52,25.39,6.73,38.1,2.09,12,5.54,24.57,8.31,34.64l0,.13c1.46.19,3,.32,4.56.44l2.5,2.67,13.09,3.34,2.91-4c.87.23,1.72.48,2.54.78a2.36,2.36,0,0,0,.24-1.88c-4.05-13.87-9-33.93-10.76-48.66q-.65-5.49-1.34-11a308.53,308.53,0,0,0-5.81-33.61l-.8-3.28c-2-8.06-4-16.39-5.53-24.69-.52-2.79-1-5.68-1.41-8.47-1.09-6.93-2.22-14.1-4.57-21-.35-1-.67-2.07-1-3.1-1.63-5.51-2.72-11.27-3.78-16.86l-.45-2.4c-.87-4.56-1.89-9.15-2.87-13.6-.5-2.25-1-4.5-1.48-6.76-.25-1.16-.76-3.8-1.43-7.43l.07,0c.74.24,1.76.56,2.23.77a30,30,0,0,0,3.08,1.16c.48.15,1,.31,1.44.49,1.87.69,3.76,1.3,5.43,1.83,2,.65,3.82,1.23,5.56,1.9a73.1,73.1,0,0,1,7,3.26,71.34,71.34,0,0,0,8.39,3.85q2.37.84,4.72,1.63l.35.12c5.32,1.81,10.34,3.51,15.15,6.21,1,.56,2.05,1.12,3.12,1.67a129.35,129.35,0,0,0,27.17,9.84c4.25,1.1,8.54,2,12.74,2.64a97,97,0,0,0,23.07,1.12c7.85-.65,17.82-.36,27.52-.08,8.18.24,15.89.47,22.65.17,2.85-.13,6.13,0,9.59.08h.14a115.76,115.76,0,0,0,12.24,0,26.24,26.24,0,0,1,5.51,0,69.62,69.62,0,0,0,11.48.08c2.66-.14,6.09,0,9.47.06,3.71.11,7.54.22,10.74,0a44.19,44.19,0,0,1,6.23.11h.11c1.41.11,2.7.19,4.14.19h.12a36.26,36.26,0,0,0,4.37-.28,105.83,105.83,0,0,0,11.37-2.08l3.88-.92,2-.49a35.37,35.37,0,0,0,5.18-2.12l.72-.33.87-.39a79.54,79.54,0,0,0,7.69-3.87c1.57-.87,3.19-1.77,5-2.68.62-.3,1.25-.59,1.87-.84a28.31,28.31,0,0,1,6.91-1.83,26.18,26.18,0,0,0,12.62-5.09,23.6,23.6,0,0,0,4.35-4.45,59,59,0,0,0,8.28-14.25l.24-.62.06-.2c4.44-11.62,6.57-21.49,6.5-30.16A100.54,100.54,0,0,0,704.41,481.38ZM320.87,303.82h-2.75c-2.28,0-3-.14-3.93-1.27s-.78-3.57,0-5.05a6,6,0,0,1,1.58-2.24A37.83,37.83,0,0,1,319,293a1.44,1.44,0,0,1,.71-.27h.23a7.72,7.72,0,0,1,1,.08,9.76,9.76,0,0,1,6.32,2.77,4.23,4.23,0,0,1,.51.61,6.19,6.19,0,0,1,.16,1.37,7.12,7.12,0,0,1-3.63,6A23.39,23.39,0,0,1,320.87,303.82Zm31.5,75.9c-.29-.88-.6-1.77-.9-2.65-.26-.72-.51-1.45-.75-2.17a32.94,32.94,0,0,1-1.26-4.78c5.94.26,11.94.33,17.81.4,10.05.11,20.43.23,30.49,1.32a135.66,135.66,0,0,1,17.33,3.49l1.82.45,3.07.84a.64.64,0,0,1,.18.1,1.49,1.49,0,0,1,.07.67c-.08,3.33,1.16,6.11,2.26,8.58a22.23,22.23,0,0,1,1.48,3.89l.07.32c1.35,7.05,1,14,.54,21.4l-.14,2.65c-.2,3.71-.71,7.52-1.2,11.21-.88,6.61-1.8,13.44-1.13,20.45.14,1.47.35,2.93.62,4.35a51.42,51.42,0,0,1,1.34,12.47,19.87,19.87,0,0,0,0,2.23,62.29,62.29,0,0,0,1.25,9.26A75.76,75.76,0,0,0,430,488.4a14,14,0,0,1,1,3.55c0,.32.07.65.1,1-6.14.12-12.27.65-18.21,1.17-11.46,1-23.32,2-34.69-.05-.91-.16-1.84-.3-2.78-.41-.62-3.37-1.29-6.74-2-10-.52-2.54-1-5.08-1.53-7.63q-1.06-5.56-2.17-11.14c-2.34-11.87-4.77-24.15-6.49-36.3-.77-5.37-2-10.67-3.18-15.79-.53-2.28-1.07-4.65-1.57-7-.43-2-.84-4.09-1.25-6.13A172.45,172.45,0,0,0,352.37,379.72ZM457.2,422.49A66.65,66.65,0,0,1,458.33,433,16.77,16.77,0,0,1,456,443.26c-2.66,4.34-3.93,7.84-2.06,11.86a3.54,3.54,0,0,0,.61.91,3.88,3.88,0,0,0,.48,1,30.79,30.79,0,0,0,2.78,3.34c.18.2.38.39.58.58l.35.36c4.86,5.16,4.92,5.49,2.09,11.92l-1.73,3.93c-2,4.47-4,9.08-6.05,13.57-.09.2-.59.41-2.15.91A32.83,32.83,0,0,1,442,493c-1.08,0-2.18,0-3.2,0,0-.77-.09-1.47-.18-2.13a22,22,0,0,0-1.52-5.51,68.36,68.36,0,0,1-4.16-12.76h0a54.92,54.92,0,0,1-1.1-8.11c0-.4,0-1,0-1.39a58.79,58.79,0,0,0-1.47-14.34c-.23-1.17-.4-2.38-.52-3.59-.58-6.12.24-12.22,1.1-18.68.49-3.66,1-7.8,1.26-11.84l.15-2.7c.43-7.85.85-15.26-.69-23.27l-.1-.47a28.58,28.58,0,0,0-2-5.43,19.72,19.72,0,0,1-1.46-4l3.58.92c4.76,1.22,9.67,2.48,14.59,3.44,3.63.7,8.3,1.64,13.11,2.86a77.38,77.38,0,0,0-3.1,13.68A67.68,67.68,0,0,0,457.2,422.49ZM684.36,537.57a17.64,17.64,0,0,1-2.75,2.94,18.76,18.76,0,0,1-9.45,3.78,35.8,35.8,0,0,0-8.57,2.31c-.78.32-1.55.67-2.3,1-2,1-3.7,1.92-5.42,2.87a71.55,71.55,0,0,1-7,3.52l-1.23.55-.64.29c-2.63,1.21-3.46,1.54-3.69,1.6l-1.46.35c-1.61.4-3,.74-4.36,1a95.07,95.07,0,0,1-10.59,1.94,28.91,28.91,0,0,1-3.43.23c-1.24,0-2.38-.08-3.59-.16h-.11a52.82,52.82,0,0,0-7.34-.12c-2.85.17-6.51.07-10.06,0s-7.1-.21-10.09-.05a61.89,61.89,0,0,1-10.44-.07,34.25,34.25,0,0,0-6.75,0c-3.42.27-7.73.13-11.54,0-3.46-.11-7-.21-10.17-.07-6.43.28-14,.06-22.08-.18-9.86-.29-20.05-.59-28.39.11a90.62,90.62,0,0,1-21.23-1c-4-.63-8-1.47-12-2.5a121.14,121.14,0,0,1-25.57-9.24c-1-.5-1.94-1-2.87-1.54a96.56,96.56,0,0,0-16.48-6.79c-1.63-.55-3.27-1.11-4.91-1.7a64.33,64.33,0,0,1-7.49-3.44,74.14,74.14,0,0,0-7.73-3.61c-1.9-.73-3.83-1.35-5.69-1.95l-.4-.13c-1.65-.53-3.35-1.07-4.95-1.66-.54-.21-1.1-.39-1.74-.61a23.16,23.16,0,0,1-2.26-.83,28.18,28.18,0,0,0-3.16-1.12c-.82-.26-1.76-.55-2.2-.75a16.2,16.2,0,0,0-1.69-.65l-.06,0c-.4-2.23-.78-4.34-1.08-6.07l3.2,0h.19c2.78,0,5.65.06,8.52-.07,1.57-.07,3-.18,4.35-.33a50.74,50.74,0,0,1,5.21-.09,7.58,7.58,0,0,0,1.33.88l0,0c1,.64,3,1.93,5.58,3.36,3.6,2,8.74,4.41,12.76,4.82h.12c.16,0,.32,0,.52.07,3.82.51,7.18,1.12,9.76,3.25l.14.1a2.26,2.26,0,0,0,.28.19,2.16,2.16,0,0,0,.3.17l.23.12.19.07.4.12.23,0a4.07,4.07,0,0,0,.71.07,4,4,0,0,0,1-.15,1.74,1.74,0,0,0,.28-.09,3.84,3.84,0,0,0,.69-.32l.24-.15a4.46,4.46,0,0,0,.61-.53l.16-.17a3.47,3.47,0,0,0,.48-.77.75.75,0,0,0,.1-.2l.1-.25c0-.05,0-.09,0-.14,1.1-3,.42-6.21-.18-9.05-.18-.87-.37-1.77-.48-2.54v-.09l3.14-.07c4.1-.1,8.2-.19,12.31-.32,4.64-.15,9.36-.38,13.92-.6l.59,0c10.27-.51,20.89-1,31.22-.62,12,.46,24.74,1.23,37.13,3.72,14,2.8,25.63,4.13,36.66,4.19a208.13,208.13,0,0,1,22.54,1,134.15,134.15,0,0,1,18.72,3.95,82.44,82.44,0,0,1,10.56,3.86c3.57,1.48,8,3.32,14.14,5.47.37.13.9.35,1.54.62l.13.06c3,1.23,7.43,3.1,11.32,3.1h0a45.64,45.64,0,0,0,17.19-3.06l.25-.09c4.58-2,10-2,14.83-2.07,1,0,1.84,0,2.67,0A49.19,49.19,0,0,1,684.36,537.57Zm-253.5-22.25c.14,1,.36,2.09.57,3.09.05.23.11.82.17,1.44a27,27,0,0,0-7.26-2.07c-.31,0-.63-.08-.93-.11a25.85,25.85,0,0,1-7.69-2.79h0a1.06,1.06,0,0,0,0-.19c3.18-.82,6.72-.66,10.5-.49,1.46.06,3,.13,4.48.13,0,.29.06.58.1.88v0ZM691.6,525a6,6,0,0,1-1.13.27,44.76,44.76,0,0,1-5.78.24c-5.27,0-11.83.06-17.81,2.69a38.38,38.38,0,0,1-14.54,2.54h0c-2.24,0-6.15-1.64-8.31-2.54-.83-.35-1.48-.62-2-.82-5.8-2-10-3.74-13.61-5.25l-.12,0a87.87,87.87,0,0,0-11.55-4.2,142,142,0,0,0-19.78-4.15,210.9,210.9,0,0,0-23.41-1.07,183,183,0,0,1-35.17-4c-12.91-2.59-26.07-3.39-38.36-3.87-2.7-.11-5.4-.15-8.11-.15-8,0-16.08.39-23.95.78h-.16c-4.62.23-9.38.46-14,.61-3.87.12-7.73.21-11.6.3l-2.55.06c-1.9,0-3.79.08-5.68.14l-1.78,0c-1.76.05-3.55,0-5.44-.12h-.12c-4.51-.2-9.17-.41-13.83,1.05a11.31,11.31,0,0,1-5.12.29l-.81-.08c-.78-.06-1.63-.13-2.6-.14h-.67a64.22,64.22,0,0,0-6.71.13c-1.22.14-2.47.24-3.83.3-2.72.12-5.54.08-8.35,0-3.32,0-6.75-.08-10.2.15a37.08,37.08,0,0,0-7.28,1.45v0l-.14,0h0l-.75.2-.86.23a25.55,25.55,0,0,1-2.82.6l-.56-.19c-6.64-2.2-7.93-4.57-7.48-8,.22-.07.47-.14.73-.2l.45-.09,1.53-.17a92.63,92.63,0,0,1,13.87-.88,38.84,38.84,0,0,1,5.64.59c12.39,2.25,24.76,1.18,36.74.14,6.29-.54,12.81-1.11,19.16-1.15,1.18,0,2.36,0,3.65,0,1.93,0,3.93,0,5.94,0a40.3,40.3,0,0,0,11-1.71c2.22-.7,5.25-1.67,6.79-5.05,2.16-4.71,4.27-9.51,6.32-14.19l1.51-3.42c4.05-9.21,3.39-13-3.52-20.35-.16-.17-.32-.34-.49-.5l-.15-.14-.29-.3a21.5,21.5,0,0,1-2.05-2.44c-.1-.13-.2-.26-.31-.38a3.53,3.53,0,0,0-.15-.39c-.21-.44-.49-1,1.64-4.52a24.21,24.21,0,0,0,3.51-14.7,71.1,71.1,0,0,0-1.29-11.75,60,60,0,0,1-.81-20.2,68.13,68.13,0,0,1,2.87-12.55l.12,0,.37.12c1.56.5,2.08.67,4.49,3.24a3.89,3.89,0,0,0,2.83,1.23h0a3.88,3.88,0,0,0,2.81-6.54c-3.6-3.86-5.23-4.51-7.78-5.32l-.38-.13c-1.34-.43-2.7-.83-4-1.2-6.3-1.79-12.69-3.1-17.55-4.05s-9.52-2.15-14.15-3.34l-.21-.05-5.3-1.35-4.1-1.11-1.5-.41a13.93,13.93,0,0,0-1.75-.54l-3.84-.94a143.5,143.5,0,0,0-18.28-3.65c-10.43-1.13-21-1.25-31.27-1.37-2.55,0-5.82-.17-9-.3-4.61-.2-9-.39-11.46-.27-1.11.05-1.62.09-2,.12-.56,0-.75.05-2.51.05h-2.14l-2.91,0c-1.17,0-2.37,0-3.57-.13a34.4,34.4,0,0,1-8.11-1.47,24.59,24.59,0,0,1-1.41-5.62,35.65,35.65,0,0,0-1.18-5.77l-.25-.93a22.55,22.55,0,0,0,5.33.14c2.61-.28,5.22-.52,7.77-.72,6.08-.48,12.25-.8,18.22-1.11l4.16-.22a248.32,248.32,0,0,1,26.61.49c7.18.39,14.59.79,22,.68a66.43,66.43,0,0,0,16.61-2.45c4.49-1.25,9-2.64,13.33-4l.21-.06c9.77-3,19.87-6.14,30.12-7.69,14.79-2.23,28.1-1.5,40.69,2.22,8.1,2.39,17.41,5.61,24.94,11.38l1.86,1.42c5.3,4.07,17.52,11.34,24.82,15.68,2.86,1.69,5.56,3.3,5.88,3.54a42.39,42.39,0,0,0,4.52,3.55l1.16.84a93.15,93.15,0,0,1,7.24,6.15c3.62,3.28,7.37,6.67,11,8.66l.26.14,7,3.84a3.75,3.75,0,0,0,1.86.46,3.84,3.84,0,0,0,3.39-2,3.88,3.88,0,0,0-1.56-5.26l-5.52-3-1.7-.94c-3.33-1.83-6.94-5.09-10.44-8.25-2.35-2.12-4.77-4.3-7.12-6.06l.85.16c.66.12,1.44.25,2.23.37l1.27.2a88.62,88.62,0,0,0,17,.9c7.68-.12,14.32-.22,22.36,3.41a26,26,0,0,0,9.16,1.84c6,.27,10.44.19,15.2.11,3-.05,6-.1,9.59-.07,6.2,0,10,2.45,12.72,8,1.94,4,2.28,8.41,2.36,12.22v.5c.06,3.58.15,8.49,3.67,11.82a22.88,22.88,0,0,1,5.8,8.77c.26.61.52,1.2.8,1.84a48.27,48.27,0,0,1,2.07,5.26,66.58,66.58,0,0,0,5.76,12.64c1.14,2.05,2.31,4.17,3.45,6.69.83,1.82,1.82,3.69,2.68,5.34,2.85,5.42,5.78,11,5,16.09a71.63,71.63,0,0,0-.68,20.48,94.38,94.38,0,0,1,1,14.87C697.81,505.05,695.8,514.14,691.6,525Z" style="fill:#141414"/></g></g></g></svg>