<svg xmlns="http://www.w3.org/2000/svg" viewBox="0 0 939.42 945.03"><title>Precious Plastic Logo circled outline</title><g id="PP_logo_circled" data-name="PP logo circled"><g id="outline-4" data-name="outline"><g id="flag_rings" data-name="flag + rings"><path d="M744.62,449.46a131,131,0,0,0-1.31-14c-2-12-5.36-24.68-10.59-39.87-3.81-11.09-7.27-21.08-11-31-.87-2.28-1.7-4.68-2.5-7l-.11-.33c-2.49-7.21-5.06-14.66-9.34-21-3.67-5.43-7.22-11.31-10.35-16.5-5.92-9.82-12-20-19.71-29.08-7.4-8.81-13.59-14.5-20.67-19.05a60.23,60.23,0,0,1-13.85-11.68,105.15,105.15,0,0,0-34.72-26.86c-14.53-7-30.09-14.22-46.37-19.34-1.73-.54-3.47-1.13-5.16-1.7l-.37-.13a96.71,96.71,0,0,0-15.95-4.38c-6.91-1.09-15.05-2.45-23-4.28a152.36,152.36,0,0,0-28.44-3.66c-1.29-.05-2.63-.07-4.1-.07-5.56,0-11,.38-16.35.76-3.43.24-7.32.51-11,.65a91.53,91.53,0,0,0-17.39,1.83c-9.08,2.12-18.43,3.78-27.47,5.4l-2.42.43c-2,.35-4,.66-5.92,1a127.28,127.28,0,0,0-14.21,2.8c-4.82,1.32-9.5,3.09-14,4.81l-.11,0c-2.89,1.09-5.88,2.22-8.84,3.21-12.1,4-24.72,9.8-39.71,18.13a282.52,282.52,0,0,0-48.23,33.79,106.24,106.24,0,0,0-17.7,20.49c-3.44,5-6.7,10.26-9.85,15.32l-.14.22c-2.55,4.1-5.19,8.33-7.9,12.4a287.5,287.5,0,0,0-25.52,48l-1.52,3.6c-3.7,8.79-7.53,17.88-10.73,27.11-4.57,13.16-6.57,26.43-8.54,41.16-.85,6.32-1.09,12.66-1.32,18.8-.17,4.46-.34,9.06-.75,13.59-1,10.62-.46,22.2,1.56,35.39q.41,2.7.78,5.39l.07.44A165.77,165.77,0,0,0,203.61,535a320.44,320.44,0,0,0,19.64,53.44c9.39,19.67,21,38.13,31.14,53.9a274.92,274.92,0,0,0,21.8,29.55,94,94,0,0,0,25.07,20.63c4.13,2.39,8.29,4.94,11.95,7.19l.23.14c4.24,2.59,8.62,5.28,13,7.8,3.72,2.12,7.42,4.39,11,6.58,9.68,5.93,19.69,12.06,30.89,16,3.7,1.32,7.42,2.89,11,4.42,6.83,2.89,13.9,5.88,21.48,7.43,3,.62,6.12,1.1,9.16,1.57,1.77.28,3.55.55,5.31.86a86.34,86.34,0,0,0,9.27.93h.12a85.84,85.84,0,0,1,8.78.87c8,1.35,16.09,1.6,23.94,1.84,4.33.14,9.24.29,13.91.66,3,.24,6.14.36,9.32.36a164.26,164.26,0,0,0,28.54-2.77c3.7-.65,7.48-1.07,11.14-1.48a121.66,121.66,0,0,0,17.81-2.91c3.69-1,7.35-2.21,11-3.41,2.39-.79,5.09-1.69,7.71-2.47a196.75,196.75,0,0,0,36.38-14.72c7.06-3.76,14-7.93,20.74-12l.18-.11c7.82-4.7,15.91-9.56,24.24-13.8a44.33,44.33,0,0,0,12.2-8.47c9.85-10.27,21.4-22.54,32.34-35.69,8.42-10.12,17.19-21.06,23.81-33.65,1.86-3.53,3.56-7.17,5.2-10.7a163.53,163.53,0,0,1,7.58-14.94c8.66-14.48,18.5-44.61,20.39-50.5l.05-.15A105.37,105.37,0,0,0,744.39,518c.27-3.09.66-6.31,1-9.14a142.86,142.86,0,0,0,1.44-19.48c-.17-11.41-.72-21.91-1.67-32.09C744.92,454.67,744.76,452,744.62,449.46Zm-9.16,58.2c-.35,2.91-.74,6.2-1,9.45a96.34,96.34,0,0,1-4,21.28l-.07.19C728.57,544.29,719,573.46,711,587a170.24,170.24,0,0,0-8.07,15.85c-1.59,3.42-3.23,6.95-5,10.26-6.16,11.74-14.57,22.2-22.65,31.92-10.74,12.9-22.14,25-31.87,35.16a35.47,35.47,0,0,1-9.52,6.48C625.22,691.07,617,696,609,700.8l-.18.11c-6.62,4-13.46,8.07-20.3,11.72a188.18,188.18,0,0,1-34.53,14c-2.78.82-5.56,1.75-8.09,2.59-3.4,1.13-6.92,2.3-10.32,3.21A114,114,0,0,1,519.25,735c-3.63.41-7.74.87-11.75,1.57-13.6,2.39-24.83,3.12-35.34,2.29-4.91-.39-10-.55-14.39-.68-7.51-.24-15.27-.48-22.58-1.71a89.51,89.51,0,0,0-9.36-1c-3.85-13.63-8.21-31.8-9.83-45.42q-.64-5.49-1.34-11a308.79,308.79,0,0,0-5.81-33.6l-.8-3.28c-2-8.06-4-16.39-5.53-24.69-.52-2.8-1-5.68-1.41-8.47-1.1-6.93-2.22-14.1-4.57-21-.35-1-.68-2.06-1-3.09-1.63-5.51-2.72-11.28-3.78-16.86l-.45-2.4c-.87-4.56-1.89-9.15-2.87-13.6-.5-2.25-1-4.5-1.48-6.76-.25-1.16-.76-3.8-1.43-7.43l.07,0a23.44,23.44,0,0,1,2.23.77,27.72,27.72,0,0,0,3.08,1.15c.48.16,1,.32,1.44.5,1.87.69,3.76,1.3,5.42,1.83,2,.65,3.83,1.23,5.57,1.9a70.74,70.74,0,0,1,7,3.26,69,69,0,0,0,8.39,3.84c1.58.57,3.15,1.11,4.72,1.64l.35.12c5.32,1.81,10.34,3.51,15.15,6.2,1,.57,2.05,1.12,3.12,1.68a129.35,129.35,0,0,0,27.17,9.84c4.25,1.09,8.54,2,12.74,2.64A97.54,97.54,0,0,0,505,574.51c7.85-.66,17.82-.36,27.52-.08,8.18.24,15.89.47,22.65.17,2.85-.13,6.13,0,9.59.07h.14a121.38,121.38,0,0,0,12.24,0,26.24,26.24,0,0,1,5.51,0,70.85,70.85,0,0,0,11.48.08c2.66-.14,6.09,0,9.47.06,3.71.11,7.54.22,10.74,0a44.19,44.19,0,0,1,6.23.11h.11c1.41.1,2.7.19,4.14.19H625a36.43,36.43,0,0,0,4.37-.29,103.47,103.47,0,0,0,11.37-2.07l3.88-.92,2-.49a35.37,35.37,0,0,0,5.18-2.12l.72-.33.87-.39a77.25,77.25,0,0,0,7.69-3.88c1.57-.87,3.19-1.77,5-2.67.62-.31,1.25-.59,1.87-.84a28.86,28.86,0,0,1,6.91-1.84,26,26,0,0,0,12.62-5.09,23.18,23.18,0,0,0,4.35-4.44,59,59,0,0,0,8.28-14.26l.24-.62.06-.19c4.44-11.63,6.57-21.49,6.5-30.16a100.54,100.54,0,0,0-1.09-15.8,64.84,64.84,0,0,1,.65-18.29c1.18-7.58-2.52-14.64-5.79-20.89l-.09-.16c-.88-1.69-1.71-3.27-2.4-4.8-1.3-2.85-2.61-5.22-3.77-7.32a58.68,58.68,0,0,1-5.12-11.19,59.5,59.5,0,0,0-2.38-6c-.24-.55-.48-1.09-.71-1.65A30.42,30.42,0,0,0,678.61,407c-1.14-1.08-1.19-3.85-1.23-6.31l0-.51c-.09-4.66-.55-10.14-3.15-15.48-4-8.23-10.43-12.28-19.61-12.36-3.7,0-6.78,0-9.81.08-4.59.08-8.93.15-14.66-.11H630a18.69,18.69,0,0,1-6.22-1.14c-9.61-4.35-17.4-4.23-25.7-4.1a82.23,82.23,0,0,1-15.53-.8c-.23,0-1.14-.14-3.68-.41-4.07-.45-13.59-1.49-14.6-1.78-8.63-3-15.81-8.5-23.42-14.34L539,348.26c-8.53-6.52-18.67-10.06-27.45-12.65-13.7-4.05-28.1-4.85-44-2.45-10.87,1.64-21.27,4.86-31.33,8l-.22.07c-4.27,1.31-8.68,2.68-13,3.88a58.39,58.39,0,0,1-14.66,2.17c-7.14.12-14.43-.28-21.48-.66a257.64,257.64,0,0,0-27.44-.5l-4.16.22c-2,.11-3.27.15-4.32.19-1.6.06-2.76.11-5.68.32H345l-.21.08a5,5,0,0,1-.55.17c-1.15-6.17-3.79-17.86-5-21.6a2.52,2.52,0,0,1,.68-2.66,20,20,0,0,0,2.47-3.21c.37-.55.72-1.08,1.08-1.55,4.34-5.64.93-12.76-1.46-19.47a20.7,20.7,0,0,0-15.21-13.3c-10.53-2.43-21,1.52-26.73,10.06-2.6,3.89-1.85,8.55-1.2,12.67.08.46.15.92.21,1.37,1.52,10.21,8.86,16,16.56,20.72,3.37,2.07,3.94,3.74,4.06,5,.1,1,1,8.39,1.56,12.93a6.71,6.71,0,0,1-1.2-.33l-.44-.16-.45.11a4.75,4.75,0,0,0-1.13.44,3.92,3.92,0,0,0-2,3.27,22.66,22.66,0,0,0,1,7.45,27.79,27.79,0,0,1,.94,4.58c.35,2.92,1.57,9.88,5.33,11.55a22.32,22.32,0,0,0,3.6,1.19,276.42,276.42,0,0,1,5.67,28l.3,1.77h0c.46,2.75.92,5.51,1.42,8.24Q336.62,427.08,339,440c.31,1.7.6,3.42.89,5.13.69,4.13,1.41,8.4,2.48,12.55,3.68,14.29,6.71,29,9.44,42.76a24.4,24.4,0,0,1,.33,2.54v0c-2.17,1-3.37,2.39-3.54,4.2-1.83,8.84,2.87,13.41,7.23,15.82a2,2,0,0,0,.09.49c1,3.5,1.88,7.08,2.65,11,.43,2.13,1.05,4.2,1.64,6.21l.23.76a48.19,48.19,0,0,1,1.5,6c2.54,15.52,6.57,30.77,10.49,45.05a288.88,288.88,0,0,1,6.65,33.83c1,6.49,2.19,13,3.37,19.34.59,3.12,1.17,6.23,1.73,9.35.46,2.61.92,5.21,1.39,7.82l.28,1.6c2.23,12.48,4.53,25.39,6.74,38.1,1.7,9.79,4.31,19.95,6.72,28.82a132,132,0,0,1-16-6c-3.73-1.58-7.58-3.21-11.56-4.62-10.21-3.64-19.77-9.49-29-15.15-3.65-2.23-7.42-4.54-11.27-6.74-4.27-2.45-8.59-5.09-12.76-7.65l-.23-.14c-3.72-2.28-7.93-4.86-12.17-7.31a84.15,84.15,0,0,1-22.46-18.45,266,266,0,0,1-21-28.5c-10-15.5-21.39-33.65-30.53-52.79a311.06,311.06,0,0,1-19-51.76,159.82,159.82,0,0,1-3.59-19.54l-.07-.44c-.26-1.83-.52-3.66-.8-5.49-1.89-12.38-2.38-23.17-1.48-33,.43-4.8.61-9.54.78-14.12.22-5.9.45-12,1.24-17.85,1.9-14.19,3.82-26.93,8.07-39.21,3.1-8.93,6.87-17.86,10.51-26.51l1.52-3.61a277.57,277.57,0,0,1,24.63-46.3c2.79-4.19,5.47-8.49,8.06-12.65l.13-.22c3.1-5,6.3-10.12,9.62-15a96.65,96.65,0,0,1,16-18.6,273.19,273.19,0,0,1,46.52-32.59c14.44-8,26.53-13.55,38-17.38,3.15-1.06,6.23-2.22,9.21-3.35l.11,0c4.31-1.63,8.76-3.32,13.14-4.52A119.21,119.21,0,0,1,408,219.44c2-.32,4.06-.64,6.09-1l2.42-.43c9.16-1.64,18.64-3.33,28-5.5A84.12,84.12,0,0,1,460,210.92c3.88-.14,7.87-.42,11.38-.67,5.13-.36,10.43-.73,15.64-.73,1.34,0,2.55,0,3.7.07a141.88,141.88,0,0,1,26.6,3.41c8.27,1.89,16.63,3.29,23.71,4.41a88.34,88.34,0,0,1,14.36,4l.31.1c1.75.6,3.57,1.21,5.37,1.78,15.64,4.91,30.82,12,45,18.8a95.38,95.38,0,0,1,31.44,24.33A70.1,70.1,0,0,0,653.6,280c6.19,4,11.69,9.07,18.42,17.07,7.16,8.52,13.08,18.32,18.8,27.8,3.19,5.29,6.81,11.29,10.62,16.93,3.55,5.26,5.9,12.09,8.18,18.7l.11.32c.82,2.39,1.68,4.86,2.6,7.28,3.72,9.81,7.15,19.72,10.94,30.73,5,14.65,8.27,26.81,10.17,38.27A120.05,120.05,0,0,1,734.63,450c.15,2.53.31,5.4.57,8.19.93,9.92,1.46,20.17,1.63,31.32A135.06,135.06,0,0,1,735.46,507.66ZM368.61,517v0l-.14,0v0a36.56,36.56,0,0,1-4.43,1l-.56-.19c-6.64-2.2-7.93-4.57-7.48-8,.22-.07.47-.14.73-.2l.44-.09,1.54-.17a92.63,92.63,0,0,1,13.87-.88,38.84,38.84,0,0,1,5.64.59c12.39,2.24,24.76,1.17,36.74.14,6.29-.55,12.81-1.11,19.16-1.16,1.18,0,2.36,0,3.65,0,1.93,0,3.93,0,5.94,0a39.54,39.54,0,0,0,11-1.71c2.22-.7,5.25-1.66,6.79-5,2.16-4.71,4.27-9.52,6.32-14.2l1.51-3.41c4.05-9.21,3.39-13-3.52-20.35-.16-.17-.32-.34-.49-.5l-.15-.15-.29-.29a22.42,22.42,0,0,1-2.05-2.44c-.1-.14-.2-.26-.31-.39l-.15-.38c-.21-.44-.49-1,1.64-4.52A24.25,24.25,0,0,0,467.51,440a71.09,71.09,0,0,0-1.29-11.74,60.06,60.06,0,0,1-.81-20.2,67.94,67.94,0,0,1,2.87-12.55l.12,0,.37.11c1.56.5,2.08.67,4.49,3.25a3.89,3.89,0,0,0,2.83,1.23h0a3.84,3.84,0,0,0,2.64-1.06,3.89,3.89,0,0,0,.17-5.48c-3.61-3.86-5.23-4.51-7.78-5.33l-.38-.12c-1.34-.43-2.7-.84-4-1.21-6.3-1.78-12.69-3.1-17.56-4s-9.51-2.15-14.14-3.34l-.21,0-5.3-1.35-4.1-1.11-1.5-.41a13.93,13.93,0,0,0-1.75-.54l-3.84-.94a141.79,141.79,0,0,0-18.28-3.65c-10.43-1.13-21-1.25-31.27-1.37-2.55,0-5.82-.17-9-.31-4.61-.19-9-.38-11.46-.26-1.11,0-1.62.09-2,.11a23.31,23.31,0,0,1-2.51.06h-2.14l-2.91,0c-1.17,0-2.37,0-3.57-.13a34.4,34.4,0,0,1-8.11-1.47,24.59,24.59,0,0,1-1.41-5.62,36,36,0,0,0-1.18-5.78l-.25-.92a22.07,22.07,0,0,0,5.33.13c2.61-.28,5.22-.52,7.77-.71,6.08-.48,12.25-.81,18.22-1.12l4.16-.22a248.32,248.32,0,0,1,26.61.5c7.18.39,14.59.79,22,.67A66,66,0,0,0,425,352.56c4.49-1.24,9-2.63,13.33-4l.21-.07c9.77-3,19.87-6.13,30.12-7.68,14.79-2.23,28.1-1.5,40.69,2.21,8.1,2.4,17.41,5.62,24.94,11.38l1.86,1.43c5.3,4.07,17.52,11.33,24.82,15.67,2.86,1.7,5.56,3.3,5.88,3.54a42.46,42.46,0,0,0,4.52,3.56l1.16.84a91,91,0,0,1,7.24,6.15c3.62,3.27,7.37,6.66,11,8.66l.26.14q3.48,1.92,7,3.83a3.65,3.65,0,0,0,1.86.47,3.84,3.84,0,0,0,3.39-2,3.88,3.88,0,0,0-1.56-5.26l-5.52-3-1.7-.93c-3.33-1.83-6.94-5.09-10.44-8.25-2.35-2.12-4.77-4.3-7.12-6.06l.85.16c.66.12,1.44.24,2.23.37l1.27.2a88.58,88.58,0,0,0,17,.9c7.68-.12,14.32-.23,22.36,3.41a26,26,0,0,0,9.16,1.84c6,.26,10.44.19,15.2.11,3,0,6-.1,9.59-.08,6.2.06,10,2.46,12.71,8,2,4,2.29,8.41,2.37,12.22v.5c.06,3.58.15,8.49,3.67,11.81a23,23,0,0,1,5.8,8.78l.8,1.84A48.27,48.27,0,0,1,682,428.5a66.87,66.87,0,0,0,5.76,12.64c1.14,2.05,2.31,4.17,3.45,6.69.83,1.82,1.82,3.69,2.68,5.34,2.85,5.42,5.78,11,5,16.09a71.56,71.56,0,0,0-.68,20.47,94.46,94.46,0,0,1,1,14.87c.06,7.81-2,16.9-6.15,27.78a6,6,0,0,1-1.13.27,44.76,44.76,0,0,1-5.78.24c-5.27,0-11.83.05-17.81,2.69a38.38,38.38,0,0,1-14.54,2.54h0c-2.24,0-6.15-1.64-8.31-2.54-.83-.35-1.48-.63-2-.82-5.8-2-10-3.74-13.61-5.26l-.12,0a87.77,87.77,0,0,0-11.55-4.19,140.65,140.65,0,0,0-19.78-4.16A213.58,213.58,0,0,0,575,520c-10.53-.06-21.71-1.34-35.18-4-12.9-2.6-26.06-3.4-38.35-3.88q-4.05-.15-8.11-.15c-8,0-16.08.4-24,.79h-.15c-4.62.23-9.39.46-14.05.61-3.87.12-7.73.21-11.6.3l-2.55.06-5.68.13-1.78,0c-1.76.05-3.55,0-5.45-.12H428c-4.51-.2-9.17-.41-13.83,1.05a11.31,11.31,0,0,1-5.12.29l-.81-.08c-.78-.06-1.63-.13-2.6-.14H405a61.59,61.59,0,0,0-6.71.13c-1.22.14-2.47.24-3.83.3-2.72.12-5.54.08-8.35,0-3.32,0-6.75-.08-10.2.15A37.08,37.08,0,0,0,368.61,517Zm54.95-63.73c.14,1.47.35,2.93.62,4.34a51.48,51.48,0,0,1,1.33,12.48c0,.8,0,1.61.05,2.23a62.64,62.64,0,0,0,1.25,9.26,75.45,75.45,0,0,0,4.61,14.19,14.1,14.1,0,0,1,1,3.56c0,.31.07.65.1,1-6.14.12-12.27.65-18.21,1.16-11.46,1-23.32,2-34.69,0-.91-.17-1.84-.3-2.78-.41-.62-3.37-1.29-6.75-2-10-.52-2.54-1-5.08-1.53-7.63q-1.06-5.56-2.17-11.14c-2.35-11.87-4.77-24.15-6.5-36.3-.76-5.37-2-10.67-3.17-15.79-.53-2.28-1.07-4.65-1.57-7-.43-2-.84-4.09-1.25-6.13a172.45,172.45,0,0,0-4.85-20c-.29-.89-.6-1.77-.91-2.65s-.5-1.45-.74-2.17a32.94,32.94,0,0,1-1.26-4.78c5.94.25,11.94.33,17.81.39,10,.12,20.43.23,30.49,1.33a134,134,0,0,1,17.33,3.49l1.82.45,3.07.84a.64.64,0,0,1,.18.1,1.49,1.49,0,0,1,.07.67c-.08,3.33,1.16,6.11,2.26,8.58a21.93,21.93,0,0,1,1.48,3.89l.07.32c1.35,7,1,14,.54,21.4l-.14,2.64c-.2,3.72-.71,7.53-1.2,11.22C423.81,439.41,422.89,446.24,423.56,453.25Zm35.09-23.4a66.65,66.65,0,0,1,1.13,10.5,16.82,16.82,0,0,1-2.38,10.27c-2.66,4.34-3.94,7.84-2.07,11.85a3.72,3.72,0,0,0,.62.92,3.88,3.88,0,0,0,.48,1,29.9,29.9,0,0,0,2.78,3.33c.18.2.38.4.58.59l.35.36c4.86,5.16,4.92,5.49,2.09,11.92l-1.73,3.93c-2,4.46-4,9.08-6.05,13.57-.09.2-.59.41-2.15.9a32.06,32.06,0,0,1-8.85,1.33c-1.08,0-2.18,0-3.2,0,0-.77-.09-1.46-.18-2.12a21.9,21.9,0,0,0-1.52-5.51A68.36,68.36,0,0,1,434.39,480h0a55.05,55.05,0,0,1-1.1-8.12c0-.39-.05-1,0-1.39a58.27,58.27,0,0,0-1.46-14.33c-.23-1.17-.4-2.38-.52-3.6-.58-6.11.23-12.21,1.1-18.67.49-3.66,1-7.8,1.25-11.84l.16-2.7c.43-7.85.85-15.27-.69-23.27l-.1-.47a28.76,28.76,0,0,0-2-5.43,19.72,19.72,0,0,1-1.46-4l3.58.91c4.76,1.23,9.67,2.49,14.59,3.44,3.62.71,8.3,1.65,13.11,2.87a77.18,77.18,0,0,0-3.1,13.68A67.68,67.68,0,0,0,458.65,429.85ZM322.32,311.18h-2.75c-2.28,0-3-.14-3.93-1.27s-.78-3.57,0-5.05a5.94,5.94,0,0,1,1.58-2.24c.94-.71,2-1.53,3.2-2.24a1.5,1.5,0,0,1,.71-.26h.23A11.61,11.61,0,0,1,328.7,303a4.23,4.23,0,0,1,.51.61,6.19,6.19,0,0,1,.16,1.37,7.12,7.12,0,0,1-3.63,6A21.93,21.93,0,0,1,322.32,311.18Zm110,211.5c.14,1.05.36,2.08.57,3.08.05.24.11.83.17,1.45a27,27,0,0,0-7.26-2.07l-.93-.12a25.67,25.67,0,0,1-7.69-2.78h0a1.29,1.29,0,0,0,0-.19c3.18-.82,6.72-.66,10.5-.49,1.46.06,3,.13,4.48.13,0,.29.06.58.1.88v0Zm-46.23.46h.19c2.78,0,5.65.07,8.52-.06,1.57-.07,3-.18,4.35-.34s3.55-.11,5.21-.08a7.58,7.58,0,0,0,1.33.88l.05,0c1,.64,2.95,1.93,5.58,3.36,3.6,2,8.74,4.41,12.76,4.81l.12,0,.52.06c3.82.52,7.18,1.13,9.75,3.25l.15.11.28.19c.12.08.25.14.3.17l.23.12.19.07.4.11.23.06a4.08,4.08,0,0,0,.71.06,3.53,3.53,0,0,0,1-.14l.28-.09a3.84,3.84,0,0,0,.69-.32l.24-.15a4.46,4.46,0,0,0,.61-.53l.16-.17a3.47,3.47,0,0,0,.48-.77.93.93,0,0,0,.1-.2l.09-.26a.5.5,0,0,0,.05-.13c1.1-3,.42-6.21-.18-9.05-.18-.87-.38-1.78-.48-2.54l0-.09,3.15-.08c4.1-.09,8.2-.18,12.31-.31,4.64-.15,9.36-.38,13.92-.6l.59,0c10.27-.51,20.89-1,31.22-.63,12,.47,24.74,1.24,37.13,3.73,14,2.8,25.63,4.13,36.66,4.19a205.62,205.62,0,0,1,22.54,1,134.15,134.15,0,0,1,18.72,3.95,82.44,82.44,0,0,1,10.56,3.86c3.57,1.48,8,3.32,14.14,5.46.37.14.9.36,1.54.63l.13,0c3,1.24,7.43,3.11,11.32,3.11h0a45.64,45.64,0,0,0,17.19-3.06l.25-.09c4.58-2,10-2.06,14.83-2.07l2.67,0a49.19,49.19,0,0,1-3,4.3,17.64,17.64,0,0,1-2.75,2.94,18.76,18.76,0,0,1-9.45,3.78A35.33,35.33,0,0,0,665,554c-.78.32-1.55.67-2.3,1-2,1-3.7,1.92-5.42,2.87a71.55,71.55,0,0,1-7,3.52c-.31.13-.74.32-1.23.55l-.64.29c-2.63,1.21-3.46,1.54-3.69,1.6l-1.46.35c-1.61.39-3,.74-4.36,1a97.42,97.42,0,0,1-10.59,1.94,26.9,26.9,0,0,1-3.43.22c-1.24,0-2.38-.07-3.59-.15h-.11a51.3,51.3,0,0,0-7.34-.12c-2.85.17-6.51.06-10.06,0s-7.1-.21-10.09-.06a62.39,62.39,0,0,1-10.44-.06,33.47,33.47,0,0,0-6.75,0c-3.42.27-7.73.13-11.54,0-3.46-.11-7-.21-10.17-.08-6.43.28-14,.06-22.08-.17-9.86-.29-20-.59-28.39.1a89.55,89.55,0,0,1-21.23-1c-4-.62-8-1.46-12-2.49A121.14,121.14,0,0,1,445.59,554c-1-.51-1.94-1-2.88-1.54a95.34,95.34,0,0,0-16.47-6.79c-1.63-.55-3.27-1.11-4.91-1.7a62.85,62.85,0,0,1-7.49-3.45,76.2,76.2,0,0,0-7.73-3.6c-1.9-.73-3.83-1.35-5.69-1.95l-.4-.13c-1.65-.53-3.35-1.07-4.95-1.67-.54-.2-1.1-.39-1.74-.6a23.16,23.16,0,0,1-2.26-.83,26.31,26.31,0,0,0-3.16-1.12c-.82-.26-1.76-.55-2.2-.75a16.2,16.2,0,0,0-1.69-.65l-.07,0c-.4-2.23-.77-4.34-1.07-6.07Z" style="fill:none;stroke:#141414;stroke-miterlimit:10"/><path d="M899,447.54c-.38-4-.62-8.24-.83-12.05a206.88,206.88,0,0,0-2.07-22c-3.15-18.86-8.4-38.68-16.55-62.4-5.94-17.27-11.33-32.81-17.14-48.11-1.34-3.56-2.64-7.32-3.9-10.95l-.08-.24c-3.94-11.43-8-23.25-15-33.57-5.48-8.1-10.67-16.71-15.7-25l-.24-.41c-9.25-15.3-18.8-31.12-30.84-45.42-11.76-14-21.62-23.08-33-30.35-8.7-5.58-15.2-11.05-20.45-17.21A167,167,0,0,0,688.1,97.15C665.46,86.29,641.24,75,615.8,67c-2.68-.84-5.37-1.75-8.37-2.77l-.1,0c-8-2.72-16.34-5.53-25.39-7-10.59-1.67-23.07-3.75-35.32-6.56a239.61,239.61,0,0,0-44.81-5.77c-10.91-.43-21.68.33-32.09,1.07l-.31,0c-5.46.38-11.11.78-16.61,1-9.47.35-18.71.84-27.73,2.94-13.88,3.23-28.22,5.79-42.09,8.27l-3.93.7c-2.79.5-5.69,1-8.49,1.4l-.59.09a202.75,202.75,0,0,0-22.43,4.43c-7.71,2.12-15.09,4.91-22.25,7.62l-.1,0c-4.41,1.67-9,3.39-13.41,4.88-19,6.32-38.74,15.34-62.18,28.37a441.49,441.49,0,0,0-75.35,52.79c-9.8,8.54-19,19.18-28.12,32.53-5.38,7.86-10.45,16-15.35,23.86l-.17.28c-3.94,6.33-8,12.87-12.18,19.13a449.49,449.49,0,0,0-39.88,74.94l-2.34,5.56C70.46,328.49,64.51,342.6,59.5,357c-7.19,20.74-10.33,41.49-13.41,64.52-1.34,10-1.72,19.93-2.08,29.54-.26,6.85-.52,13.92-1.14,20.76-1.53,16.78-.73,35,2.44,55.81.46,3,.88,6,1.31,9,1.52,10.7,3.09,21.76,6.06,32.63a500.14,500.14,0,0,0,30.66,83.39C98,683.31,116,712,131.78,736.56a430.55,430.55,0,0,0,34.08,46.19,149.8,149.8,0,0,0,39.92,32.86c6.23,3.61,12.69,7.57,18.4,11.06,6.7,4.1,13.62,8.34,20.62,12.34,5.69,3.27,11.4,6.76,16.91,10.14,15.17,9.28,30.85,18.89,48.6,25.2,5.45,1.94,11,4.29,16.39,6.56l.41.18c10.78,4.56,21.92,9.28,34.08,11.76,4.73,1,9.49,1.71,14.08,2.42l.72.12c2.58.4,5.16.8,7.72,1.24a142.11,142.11,0,0,0,14.88,1.51h.16a129.12,129.12,0,0,1,13.07,1.28c12.6,2.13,25.26,2.53,37.5,2.91h.16c7,.22,14.26.44,21.27,1,4.81.38,9.78.57,14.76.57a259.84,259.84,0,0,0,44.91-4.34c5.44-1,11.16-1.61,16.68-2.23l.28,0c9.2-1,18.72-2.1,28.19-4.63,5.86-1.56,11.6-3.47,17.22-5.34l.19-.06c3.81-1.27,7.76-2.58,11.61-3.73a309,309,0,0,0,57.08-23.09c11-5.87,21.82-12.35,32.27-18.61l.29-.18c12-7.24,24.52-14.72,37.22-21.19,6.44-3.28,13.85-7.51,20-14,15.27-15.91,33.18-34.94,50.23-55.43,13.18-15.86,26.93-33,37.36-52.83,3-5.66,5.71-11.55,8.13-16.74l0-.13a248.63,248.63,0,0,1,11.46-22.57c6.19-10.37,13.48-26.88,21.65-49.08.09-.26,8.64-23.77,10.36-30.36l.06,0c3.47-10.74,5.69-22.54,7-37.14.4-4.49,1-9.08,1.48-13.52l.06-.48c1.18-9.89,2.42-20.11,2.26-30.71C901.32,479.76,900.46,463.41,899,447.54Zm-9.58,79.52-.06.49c-.54,4.51-1.1,9.18-1.51,13.81-1.23,13.84-3.31,24.94-6.55,35l-.24.75v0c-1.88,5.89-17.6,54.34-30.9,76.58a256.49,256.49,0,0,0-11.93,23.49l-.06.13c-2.37,5.09-5,10.86-7.91,16.3-10,19-23.36,35.65-36.2,51.09-16.85,20.25-34.6,39.12-49.75,54.91-5.18,5.39-11.69,9.09-17.38,12-13,6.63-25.63,14.2-37.82,21.53l-.3.17c-10.33,6.2-21,12.62-31.83,18.37A299.9,299.9,0,0,1,601.73,874c-4,1.19-8,2.53-11.9,3.82l-.27.09c-5.41,1.8-11,3.66-16.57,5.14-8.75,2.34-17.88,3.36-26.73,4.35l-.28,0c-5.68.64-11.55,1.31-17.29,2.32a249.92,249.92,0,0,1-43.18,4.19c-4.72,0-9.42-.18-14-.54-7.25-.58-14.62-.8-21.78-1h-.13c-11.9-.37-24.21-.76-36.14-2.78a136.76,136.76,0,0,0-14.1-1.4h0a1.2,1.2,0,0,0-.28,0l-3.65-.25c-3.36-.24-6.76-.56-10-1.13-2.62-.45-5.25-.86-7.88-1.26l-.72-.12c-4.48-.69-9.11-1.41-13.61-2.33-11.2-2.29-21.87-6.81-32.19-11.18l-.42-.18c-5.51-2.32-11.2-4.73-16.93-6.77-16.76-6-32-15.29-46.73-24.31-5.57-3.41-11.34-6.94-17.16-10.28-6.87-3.93-13.74-8.13-20.37-12.2-5.75-3.52-12.27-7.51-18.61-11.18a139.9,139.9,0,0,1-37.31-30.69,419.53,419.53,0,0,1-33.29-45.13c-15.61-24.26-33.47-52.66-47.83-82.75a490.41,490.41,0,0,1-30-81.73c-2.81-10.26-4.33-21-5.81-31.42-.43-3-.86-6.06-1.32-9.08-3.05-20-3.83-37.43-2.37-53.4.64-7.1.91-14.31,1.18-21.32.35-9.34.71-19,2-28.55,3-22.49,6.06-42.72,13-62.57,4.9-14.13,10.79-28.1,16.48-41.61l2.34-5.57a438.84,438.84,0,0,1,39-73.27c4.24-6.39,8.36-13,12.34-19.38l.17-.28c4.85-7.78,9.86-15.82,15.11-23.5,8.64-12.65,17.29-22.67,26.44-30.64a431.38,431.38,0,0,1,73.64-51.59C277.34,101.76,296.56,93,315,86.85c4.63-1.55,9.28-3.31,13.78-5l.12,0c6.92-2.62,14.08-5.33,21.34-7.33a193.48,193.48,0,0,1,21.35-4.19l.58-.09c2.86-.45,5.8-.92,8.69-1.44l3.93-.7c14-2.5,28.46-5.08,42.59-8.38,8.16-1.89,16.88-2.35,25.83-2.68,5.67-.2,11.41-.61,17-1l.31,0c10.14-.72,20.63-1.45,31-1a230.07,230.07,0,0,1,43,5.52c12.56,2.88,25.25,5,36,6.69,8.21,1.3,16.11,4,23.75,6.56l.09,0c3,1,5.8,2,8.58,2.84,24.81,7.79,48.66,18.9,71,29.61a157,157,0,0,1,51.87,40.14c5.9,6.93,13.1,13,22.66,19.14,10.44,6.7,19.63,15.18,30.71,28.36C800.54,207.52,809.89,223,818.94,238l.24.41c5.09,8.43,10.36,17.15,16,25.46,6.22,9.22,10.08,20.41,13.81,31.23l.08.24c1.28,3.71,2.6,7.54,4,11.23,5.76,15.18,11.12,30.64,17,47.82,8,23.18,13.09,42.5,16.14,60.79a198.08,198.08,0,0,1,2,21c.22,3.8.46,8.1.85,12.3h0c1.46,15.61,2.3,31.71,2.57,49.22C891.74,507.62,890.55,517.5,889.4,527.06Z" style="fill:none;stroke:#141414;stroke-miterlimit:10"/></g><g id="text-7" data-name="text"><path d="M285.74,729.2l-17-11.54a5.29,5.29,0,0,0-4.22-.84A5.5,5.5,0,0,0,261,719.2l-31,45.55a5.49,5.49,0,0,0,1.46,7.71,5.51,5.51,0,0,0,3.17,1,7,7,0,0,0,1-.08,5.32,5.32,0,0,0,3.61-2.34l10-14.68,12.3,8.36c4.9,3.34,9.55,5.26,13.84,5.72a19.32,19.32,0,0,0,11.42-1.92,22.86,22.86,0,0,0,11.71-17.22A19.34,19.34,0,0,0,296.14,740C294.13,736.15,290.63,732.53,285.74,729.2ZM285.52,755a10,10,0,0,1-7,4.49c-3,.47-6.87-.92-11.58-4.12l-11.64-7.91,12.08-17.77L279,737.62c4.71,3.21,7.43,6.32,8.08,9.25A9.93,9.93,0,0,1,285.52,755Z" style="fill:none;stroke:#141414;stroke-miterlimit:10"/><path d="M346.35,820l-25.94-10.34,18.3-45.92a5.65,5.65,0,0,0-3.15-7.33,5.36,5.36,0,0,0-4.3.09,5.49,5.49,0,0,0-2.95,3.09l-19.79,49.67a7.18,7.18,0,0,0,4,9.31l29.68,11.83a5.82,5.82,0,0,0,2.14.42,5.55,5.55,0,0,0,2.13-.43,5.31,5.31,0,0,0,3-3.06,5.66,5.66,0,0,0-3.16-7.33Z" style="fill:none;stroke:#141414;stroke-miterlimit:10"/><path d="M425.58,786.49a8.37,8.37,0,0,0-1.94-3.56,6.44,6.44,0,0,0-3.86-2l-.89-.14a6.44,6.44,0,0,0-4.29.7,8.62,8.62,0,0,0-3,2.82l-31.08,50a6.22,6.22,0,0,0-.92,2.26,5.44,5.44,0,0,0,.92,4.11,5.3,5.3,0,0,0,3.7,2.23,5.63,5.63,0,0,0,3.22-.42,5.85,5.85,0,0,0,2.5-2.17l7.44-12.11,28.25,4.44,3.38,13.86a5.79,5.79,0,0,0,1.71,2.77,5.6,5.6,0,0,0,2.94,1.39,6.85,6.85,0,0,0,1,.08,5.18,5.18,0,0,0,3.2-1.07,5.45,5.45,0,0,0,2.14-3.63,6.58,6.58,0,0,0-.19-2.45ZM423,821.62l-19.56-3.07,13.48-22Z" style="fill:none;stroke:#141414;stroke-miterlimit:10"/><path d="M521.48,819.73a20.36,20.36,0,0,0-8.45-5.11A93.15,93.15,0,0,0,501.11,812a81.19,81.19,0,0,1-8.67-1.71,13.05,13.05,0,0,1-5-2.46,5.45,5.45,0,0,1-2-4,7,7,0,0,1,3.26-6.54c2.59-1.84,6.15-2.94,10.58-3.27a42.72,42.72,0,0,1,14.06,1.29,5.48,5.48,0,0,0,2,.32,4.76,4.76,0,0,0,3.62-2,5.41,5.41,0,0,0,1.08-3.67,5,5,0,0,0-3.86-4.73,52.73,52.73,0,0,0-18.61-1.7,31.11,31.11,0,0,0-13.05,3.58,20.11,20.11,0,0,0-8,7.82,18.34,18.34,0,0,0-2.19,10.32,14.75,14.75,0,0,0,4.39,10.08,22.17,22.17,0,0,0,8.69,5,111.15,111.15,0,0,0,12.19,2.81c3.67.68,6.54,1.29,8.51,1.82a13.34,13.34,0,0,1,4.66,2.2,4.3,4.3,0,0,1,1.77,3.26c.16,2.18.65,8.82-13.56,9.87A41.64,41.64,0,0,1,483.72,838a5.68,5.68,0,0,0-2.34-.32,5,5,0,0,0-3.64,1.89,5.34,5.34,0,0,0,.06,6.74,5.48,5.48,0,0,0,2.58,1.82,54.28,54.28,0,0,0,17.91,3c1.45,0,2.9-.06,4.37-.17a32,32,0,0,0,12.44-3.29,20.47,20.47,0,0,0,8.21-7.38,16.71,16.71,0,0,0,2.42-10.13C525.4,825.73,524,822.23,521.48,819.73Z" style="fill:none;stroke:#141414;stroke-miterlimit:10"/><path d="M590.35,766.69a5.17,5.17,0,0,0-4.09-.46l-43.08,12.36a5.12,5.12,0,0,0-3.19,2.57,5.28,5.28,0,0,0-.4,4.05,5.19,5.19,0,0,0,6.53,3.62l16.21-4.65,13.81,48.13a5.53,5.53,0,0,0,5.25,4,5.66,5.66,0,0,0,1.61-.24,5.53,5.53,0,0,0,3.38-2.62,5.36,5.36,0,0,0,.51-4.27l-13.81-48.13,16.12-4.62a5.31,5.31,0,0,0,3.23-2.49,5.34,5.34,0,0,0-2.08-7.29Z" style="fill:none;stroke:#141414;stroke-miterlimit:10"/><path d="M626.36,753.74a5.65,5.65,0,0,0-7.54-2.59,5.32,5.32,0,0,0-2.82,3.24,5.49,5.49,0,0,0,.31,4.26l24.36,49.9a5.39,5.39,0,0,0,3.18,2.84h0a5.67,5.67,0,0,0,1.79.31,5.8,5.8,0,0,0,5.32-3.76,5.33,5.33,0,0,0-.23-4.3Z" style="fill:none;stroke:#141414;stroke-miterlimit:10"/><path d="M725.55,745.23a4.94,4.94,0,0,0-3.79,1,5.14,5.14,0,0,0-1.55,1.8A39.62,39.62,0,0,1,716,755a30.49,30.49,0,0,1-6.07,5.78,24.3,24.3,0,0,1-11.76,5,19.13,19.13,0,0,1-10.94-2,28.65,28.65,0,0,1-14.17-19.1,19.19,19.19,0,0,1,1.28-11,24.33,24.33,0,0,1,8.19-9.8,30.47,30.47,0,0,1,7.29-4.14,40.76,40.76,0,0,1,7.82-2,5.07,5.07,0,0,0,2.16-.95,5,5,0,0,0,1.16-7,5.1,5.1,0,0,0-5-2.16,47.88,47.88,0,0,0-10.49,2.47,40,40,0,0,0-10,5.56A34.8,34.8,0,0,0,664.36,729a29.76,29.76,0,0,0-2.45,16.55,39.4,39.4,0,0,0,21.31,28.71,29.56,29.56,0,0,0,16.56,2.45,34.76,34.76,0,0,0,16-6.77,40,40,0,0,0,8.23-8,47.66,47.66,0,0,0,5.39-9.31,5.1,5.1,0,0,0-.61-5.44A4.78,4.78,0,0,0,725.55,745.23Z" style="fill:none;stroke:#141414;stroke-miterlimit:10"/><path d="M218.65,229.72a22.25,22.25,0,0,0-9.7-4.56,19.3,19.3,0,0,0-11.48,1.51c-4,1.69-7.85,4.89-11.56,9.51l-12.84,16a5.29,5.29,0,0,0-1.17,4.14A5.53,5.53,0,0,0,174,260l43,34.48a5.38,5.38,0,0,0,3.44,1.25,4.68,4.68,0,0,0,.64,0,5.39,5.39,0,0,0,3.72-2.06,5.54,5.54,0,0,0,1.24-4.09,5.27,5.27,0,0,0-2-3.79L210.1,274.68l9.32-11.61c3.71-4.62,6-9.11,6.79-13.34a19.27,19.27,0,0,0-1-11.54A22.28,22.28,0,0,0,218.65,229.72Zm-3.1,16.05c.24,3-1.45,6.77-5,11.21l-8.8,11L185,254.51l8.8-11c3.57-4.45,6.89-6.91,9.86-7.33a10.55,10.55,0,0,1,11.91,9.56Z" style="fill:none;stroke:#141414;stroke-miterlimit:10"/><path d="M313.21,208.41a5.41,5.41,0,0,0-1-4.13l-2.44-3.35a37,37,0,0,0-9.67-9,13.89,13.89,0,0,0-9.63-2.37,17.4,17.4,0,0,0,1.69-8.07,18.77,18.77,0,0,0-3.66-10.57,17.85,17.85,0,0,0-13.87-7.69c-5.62-.32-11.93,2.05-18.78,7.05l-16.93,12.36a5.33,5.33,0,0,0-2.21,3.69,5.5,5.5,0,0,0,1.06,4.14l32.48,44.48a5.41,5.41,0,0,0,3.62,2.24,7,7,0,0,0,.9.07,5.41,5.41,0,0,0,3.24-1.1,5.5,5.5,0,0,0,2.26-3.62,5.3,5.3,0,0,0-1-4.19l-11.43-15.65,13.83-10.1c3-2.19,5.74-3.12,8.16-2.76a11.84,11.84,0,0,1,6.38,2.87,39.32,39.32,0,0,1,5.35,6l1.6,2.18a5.36,5.36,0,0,0,3.61,2.29A5.48,5.48,0,0,0,311,212,5.41,5.41,0,0,0,313.21,208.41ZM281,186.26c-1.14,3.13-3.69,6.17-7.59,9L261.49,204l-11.71-16,11.58-8.46c4.79-3.49,8.68-5.26,11.58-5.26h0A8.17,8.17,0,0,1,279.8,178,8.33,8.33,0,0,1,281,186.26Z" style="fill:none;stroke:#141414;stroke-miterlimit:10"/><path d="M340.27,189.23a5.3,5.3,0,0,0,2.92,3.09,5.36,5.36,0,0,0,2.2.48,5.62,5.62,0,0,0,2.06-.4l33.64-13.05a5.28,5.28,0,0,0,3-2.76,5.09,5.09,0,0,0,.11-4.1,5.21,5.21,0,0,0-2.83-3,5.26,5.26,0,0,0-4.12-.08l-28.39,11-6.13-15.83,25.36-9.84a5.28,5.28,0,0,0,3-2.76,5.09,5.09,0,0,0,.11-4.1,5.35,5.35,0,0,0-6.95-3.07l-25.37,9.84-6.1-15.75,28.39-11a5.26,5.26,0,0,0,3-2.76,5.34,5.34,0,0,0-2.72-7.08,5.24,5.24,0,0,0-4.11-.09l-33.65,13a5.34,5.34,0,0,0-3.09,3,5.54,5.54,0,0,0-.05,4.27Z" style="fill:none;stroke:#141414;stroke-miterlimit:10"/><path d="M463.5,152a5,5,0,0,0-3.8-1,4.94,4.94,0,0,0-2.24.79,39.56,39.56,0,0,1-7.07,3.85,30.46,30.46,0,0,1-8.15,1.95,24.27,24.27,0,0,1-12.69-1.57,19.12,19.12,0,0,1-8.46-7.2,28.6,28.6,0,0,1-2.68-23.62,19.16,19.16,0,0,1,6.65-8.91,24.34,24.34,0,0,1,12-4.37,31,31,0,0,1,8.38.08,40.79,40.79,0,0,1,7.78,2.19,5,5,0,0,0,2.33.26,5,5,0,0,0,3.51-1.9,4.89,4.89,0,0,0,1-3.56,5.1,5.1,0,0,0-3.26-4.39,48,48,0,0,0-10.31-3.13,39.79,39.79,0,0,0-11.46-.22,34.77,34.77,0,0,0-16.31,6,29.8,29.8,0,0,0-10.43,13.09,36.18,36.18,0,0,0-2.25,18.25,36.18,36.18,0,0,0,6.27,17.28,29.79,29.79,0,0,0,13.09,10.43,33.47,33.47,0,0,0,12.76,2.43,37.83,37.83,0,0,0,4.47-.26,39.55,39.55,0,0,0,11.12-2.77,48.14,48.14,0,0,0,9.34-5.34,5.11,5.11,0,0,0,2.21-5A4.83,4.83,0,0,0,463.5,152Z" style="fill:none;stroke:#141414;stroke-miterlimit:10"/><path d="M500.35,168l.58,0a5.51,5.51,0,0,0,3.51-1.24,5.32,5.32,0,0,0,2-3.79l5.17-55.29a5.66,5.66,0,0,0-5.09-6.14,5.28,5.28,0,0,0-4.1,1.3,5.52,5.52,0,0,0-1.95,3.8L495.34,162a5.49,5.49,0,0,0,5,6Z" style="fill:none;stroke:#141414;stroke-miterlimit:10"/><path d="M602.92,127.64a36.63,36.63,0,0,0-32.85-10.85,30,30,0,0,0-14.74,7.8,38.1,38.1,0,0,0-10.93,33.13,29.94,29.94,0,0,0,7.2,15h0a34,34,0,0,0,15.08,9.55,36.44,36.44,0,0,0,11.46,1.95,29.94,29.94,0,0,0,6.3-.66,30.35,30.35,0,0,0,14.75-7.84,37.58,37.58,0,0,0,10.91-33A30.35,30.35,0,0,0,602.92,127.64Zm-4.85,29.43a26.28,26.28,0,0,1-6.24,10.5A19.86,19.86,0,0,1,582.1,173a24.32,24.32,0,0,1-22.31-7.36,19.89,19.89,0,0,1-4.55-10.15,28.37,28.37,0,0,1,7.48-22.66,20,20,0,0,1,9.7-5.44,18.7,18.7,0,0,1,4.39-.51,24.83,24.83,0,0,1,7.73,1.33,22.13,22.13,0,0,1,10.19,6.55,19.85,19.85,0,0,1,4.58,10.15A26.32,26.32,0,0,1,598.07,157.07Z" style="fill:none;stroke:#141414;stroke-miterlimit:10"/><path d="M670.77,225.52a25,25,0,0,0,11.57-9.47l20.39-29.12a5.63,5.63,0,0,0-1.38-7.85,5.34,5.34,0,0,0-4.2-.9,5.52,5.52,0,0,0-3.58,2.33L673,209.85a15,15,0,0,1-6.62,5.57,14,14,0,0,1-7.78.81,19.18,19.18,0,0,1-13.12-9.18,14.15,14.15,0,0,1-1.89-7.59,15,15,0,0,1,3-8.13L667.13,162a5.65,5.65,0,0,0-1.38-7.85,5.29,5.29,0,0,0-4.21-.9,5.59,5.59,0,0,0-3.58,2.33l-20.39,29.12a24.31,24.31,0,0,0-1.5,27.21,31,31,0,0,0,21.21,14.86,24.89,24.89,0,0,0,13.49-1.24Z" style="fill:none;stroke:#141414;stroke-miterlimit:10"/><path d="M765.46,248.66A52.79,52.79,0,0,0,756,232.57a31.1,31.1,0,0,0-10.54-8.5,20.18,20.18,0,0,0-11-2,18.42,18.42,0,0,0-9.65,4.25c-3.28,2.75-5.17,5.93-5.62,9.46a22,22,0,0,0,1,10A110.32,110.32,0,0,0,725,257.34c1.59,3.37,2.77,6.05,3.49,8a13.2,13.2,0,0,1,.94,5.07,4.32,4.32,0,0,1-1.61,3.34,7.2,7.2,0,0,1-7.08,1.68c-2.71-.82-5.69-3.14-8.86-6.92a41.77,41.77,0,0,1-8.26-15.41,5.72,5.72,0,0,0-1.12-2.09,5,5,0,0,0-3.65-1.85,5.33,5.33,0,0,0-5.44,4,5.69,5.69,0,0,0,0,3.17A55.21,55.21,0,0,0,704.14,276a31.91,31.91,0,0,0,10,8.17,20.83,20.83,0,0,0,9.45,2.4c.44,0,.89,0,1.33-.05a16.64,16.64,0,0,0,9.63-3.95c3.4-2.84,5.41-6.05,6-9.53a20.4,20.4,0,0,0-.79-9.85,92.73,92.73,0,0,0-4.83-11.2,81.1,81.1,0,0,1-3.68-8,13.14,13.14,0,0,1-.91-5.47,5.43,5.43,0,0,1,2.15-4,6.94,6.94,0,0,1,7.21-1.17c3,1,6,3.27,8.83,6.67a42.71,42.71,0,0,1,7.16,12.17,5.46,5.46,0,0,0,.93,1.83,4.78,4.78,0,0,0,3.71,1.79h0a5.4,5.4,0,0,0,3.57-1.27A5,5,0,0,0,765.46,248.66Z" style="fill:none;stroke:#141414;stroke-miterlimit:10"/></g></g></g></svg>