<svg xmlns="http://www.w3.org/2000/svg" viewBox="0 0 939.42 945.03"><title>Precious Plastic Logo circled B&amp;amp;W</title><g id="PP_logo_circled" data-name="PP logo circled"><g id="B_W-4" data-name="B&amp;W"><g id="white-4" data-name="white"><path d="M892.49,449.74c-.37-4-.61-8.14-.83-12.13a203.42,203.42,0,0,0-2-21.55c-3.1-18.57-8.29-38.14-16.35-61.59-5.89-17.13-11.24-32.57-17.08-48-1.4-3.7-2.74-7.58-4-11.33-3.83-11.12-7.8-22.63-14.39-32.39-5.61-8.31-10.9-17.08-16-25.56-9.16-15.17-18.63-30.85-30.44-44.89C779.91,178.74,770.39,170,759.5,163c-9.13-5.86-16-11.63-21.56-18.18a162.08,162.08,0,0,0-53.51-41.41c-22.47-10.78-46.51-22-71.64-29.87-2.82-.89-5.69-1.86-8.46-2.8-7.88-2.66-16-5.42-24.67-6.79-10.74-1.69-23.37-3.81-35.66-6.63a235.63,235.63,0,0,0-43.89-5.64c-10.61-.42-21.25.33-31.54,1.06-5.61.39-11.41.8-17.09,1-9.21.34-18.18.81-26.78,2.81-14.07,3.28-28.54,5.86-42.53,8.36l-3.74.66c-3,.55-6.16,1-9.17,1.51a200.61,200.61,0,0,0-21.9,4.31c-7.49,2.06-14.77,4.82-21.81,7.48-4.48,1.7-9.11,3.46-13.69,5-18.68,6.22-38.17,15.12-61.33,28A437.48,437.48,0,0,0,176,164c-9.47,8.25-18.4,18.58-27.28,31.58-5.31,7.76-10.35,15.85-15.23,23.68-4,6.45-8.17,13.12-12.43,19.53a444.43,444.43,0,0,0-39.44,74.11l-2.34,5.57c-5.73,13.61-11.65,27.68-16.59,41.9-7,20.31-10.14,40.8-13.18,63.55-1.31,9.74-1.68,19.55-2,29-.27,6.92-.54,14.07-1.17,21.05-1.49,16.38-.7,34.24,2.41,54.61.46,3,.88,6,1.31,9,1.5,10.56,3,21.47,5.94,32.05a495.16,495.16,0,0,0,30.34,82.55c14.5,30.38,32.46,58.93,48.14,83.31a426.1,426.1,0,0,0,33.68,45.66A144.94,144.94,0,0,0,206.78,813c6.22,3.6,12.47,7.43,18.5,11.12,6.67,4.08,13.57,8.31,20.5,12.27,5.72,3.29,11.48,6.8,17,10.21,14.95,9.15,30.42,18.62,47.66,24.76,5.74,2,11.5,4.48,17.08,6.84,10.55,4.46,21.45,9.08,33.14,11.47,4.7,1,9.49,1.7,14.12,2.42,2.75.43,5.5.86,8.24,1.33a137.8,137.8,0,0,0,14.42,1.45,135.72,135.72,0,0,1,13.67,1.34c12.31,2.09,24.83,2.47,37,2.85,7.08.22,14.4.45,21.54,1,4.7.37,9.47.56,14.36.56a254.65,254.65,0,0,0,44-4.27c5.69-1,11.58-1.66,17.27-2.31,9-1,18.37-2.06,27.46-4.48,5.73-1.53,11.43-3.43,16.93-5.26,3.92-1.3,8-2.64,11.95-3.83a304.71,304.71,0,0,0,56.15-22.71c11-5.87,21.86-12.38,32.34-18.67,12.15-7.3,24.72-14.84,37.53-21.36,6.06-3.09,13-7,18.71-13,15.21-15.86,33-34.8,50-55.18,13-15.64,26.57-32.54,36.78-52,2.86-5.43,5.48-11.07,8-16.52A252.59,252.59,0,0,1,852.93,658c14.52-24.29,31.61-78.22,31.61-78.39,3.35-10.37,5.5-21.83,6.77-36.05.42-4.73,1-9.52,1.55-14.15,1.17-9.76,2.37-19.85,2.22-30C894.82,481.7,894,465.47,892.49,449.74Z" style="fill:#fff"/></g><g id="text-8" data-name="text"><path d="M284.19,731.45l-17-11.54a5.26,5.26,0,0,0-4.21-.84,5.54,5.54,0,0,0-3.55,2.38l-31,45.55a5.51,5.51,0,0,0,1.47,7.71,5.51,5.51,0,0,0,3.17,1,6.85,6.85,0,0,0,1-.08,5.29,5.29,0,0,0,3.61-2.34l10-14.69L260,767c4.9,3.33,9.55,5.26,13.83,5.72a19.35,19.35,0,0,0,11.43-1.93A22.82,22.82,0,0,0,297,753.54a19.36,19.36,0,0,0-2.42-11.33C292.59,738.4,289.09,734.78,284.19,731.45ZM284,757.27a9.93,9.93,0,0,1-7,4.48c-3,.47-6.86-.91-11.57-4.12l-11.64-7.91L265.85,732l11.63,7.91c4.71,3.21,7.44,6.32,8.09,9.25A10,10,0,0,1,284,757.27Z" style="fill:#141414"/><path d="M344.81,822.25l-25.95-10.34L337.16,766a5.61,5.61,0,0,0-7.45-7.24,5.56,5.56,0,0,0-2.94,3.1L307,811.51a7.18,7.18,0,0,0,4,9.31l29.68,11.83a5.58,5.58,0,0,0,4.27,0,5.29,5.29,0,0,0,3-3.06,5.49,5.49,0,0,0-.06-4.32A5.41,5.41,0,0,0,344.81,822.25Z" style="fill:#141414"/><path d="M424,788.74a8.35,8.35,0,0,0-1.93-3.56,6.45,6.45,0,0,0-3.87-2l-.88-.13a6.43,6.43,0,0,0-4.29.7,8.36,8.36,0,0,0-2.95,2.82l-31.08,50a6.41,6.41,0,0,0-.93,2.26,5.46,5.46,0,0,0,.92,4.12,5.34,5.34,0,0,0,3.71,2.23,5.52,5.52,0,0,0,3.21-.43,5.78,5.78,0,0,0,2.51-2.16l7.43-12.11,28.26,4.44,3.38,13.86a5.71,5.71,0,0,0,1.71,2.77,5.57,5.57,0,0,0,2.93,1.39,7,7,0,0,0,1,.08,5.19,5.19,0,0,0,3.21-1.07,5.4,5.4,0,0,0,2.13-3.63,6.17,6.17,0,0,0-.19-2.45Zm-2.61,35.13-19.57-3.07,13.48-22Z" style="fill:#141414"/><path d="M519.94,822a20.46,20.46,0,0,0-8.46-5.12,92.77,92.77,0,0,0-11.91-2.61,81.19,81.19,0,0,1-8.67-1.71,13.17,13.17,0,0,1-5-2.46A5.49,5.49,0,0,1,484,806a7,7,0,0,1,3.26-6.53c2.59-1.84,6.15-3,10.57-3.27a42.78,42.78,0,0,1,14.07,1.29,5.43,5.43,0,0,0,2,.32,4.76,4.76,0,0,0,3.62-2,5.48,5.48,0,0,0,1.08-3.67,5,5,0,0,0-3.86-4.74,53.2,53.2,0,0,0-18.61-1.7,31.26,31.26,0,0,0-13.05,3.59,20.14,20.14,0,0,0-8,7.82,18.41,18.41,0,0,0-2.19,10.31,14.81,14.81,0,0,0,4.4,10.09,22.1,22.1,0,0,0,8.69,5,111.15,111.15,0,0,0,12.19,2.81c3.67.68,6.53,1.29,8.51,1.82a13.16,13.16,0,0,1,4.66,2.2,4.3,4.3,0,0,1,1.77,3.26c.16,2.18.65,8.82-13.56,9.87a41.8,41.8,0,0,1-17.34-2.29,5.7,5.7,0,0,0-2.35-.32,5,5,0,0,0-3.63,1.88,5.34,5.34,0,0,0,.05,6.75,5.62,5.62,0,0,0,2.59,1.82,54.23,54.23,0,0,0,17.91,3c1.44,0,2.9-.05,4.36-.16a31.9,31.9,0,0,0,12.45-3.3,20.36,20.36,0,0,0,8.2-7.37,16.65,16.65,0,0,0,2.43-10.13C523.86,828,522.43,824.48,519.94,822Z" style="fill:#141414"/><path d="M588.81,768.93a5.21,5.21,0,0,0-4.09-.45l-43.08,12.36a5.14,5.14,0,0,0-3.2,2.57,5.27,5.27,0,0,0-.39,4.05,5.17,5.17,0,0,0,6.53,3.62l16.2-4.65,13.81,48.13a5.52,5.52,0,0,0,5.26,4,5.69,5.69,0,0,0,1.61-.23,5.51,5.51,0,0,0,3.37-2.62,5.36,5.36,0,0,0,.52-4.27l-13.81-48.13,16.12-4.62a5.29,5.29,0,0,0,3.22-2.49,5.11,5.11,0,0,0,.48-4.07A5.24,5.24,0,0,0,588.81,768.93Z" style="fill:#141414"/><path d="M624.82,756a5.63,5.63,0,0,0-7.54-2.59,5.31,5.31,0,0,0-2.83,3.24,5.54,5.54,0,0,0,.32,4.26l24.36,49.9a5.39,5.39,0,0,0,3.18,2.84h0a5.6,5.6,0,0,0,1.79.3,5.42,5.42,0,0,0,2.45-.59,5.56,5.56,0,0,0,2.87-3.17,5.27,5.27,0,0,0-.24-4.29Z" style="fill:#141414"/><path d="M724,747.47a5,5,0,0,0-3.8,1,5.23,5.23,0,0,0-1.54,1.81,39.65,39.65,0,0,1-4.18,6.88,30.23,30.23,0,0,1-6.07,5.78,24.26,24.26,0,0,1-11.76,5,19,19,0,0,1-10.93-2,28.52,28.52,0,0,1-14.17-19.09,19.09,19.09,0,0,1,1.27-11,24.36,24.36,0,0,1,8.2-9.8,30.47,30.47,0,0,1,7.29-4.14,39.86,39.86,0,0,1,7.82-2,5,5,0,0,0,2.15-.95,4.91,4.91,0,0,0,2.07-3.41,4.8,4.8,0,0,0-.91-3.58,5.09,5.09,0,0,0-5-2.16A47.74,47.74,0,0,0,684,712.3a39.76,39.76,0,0,0-10,5.56,34.75,34.75,0,0,0-11.1,13.35,29.81,29.81,0,0,0-2.46,16.56,39.47,39.47,0,0,0,21.31,28.71,29.88,29.88,0,0,0,16.56,2.45,34.75,34.75,0,0,0,16-6.77,40,40,0,0,0,8.23-8,48.47,48.47,0,0,0,5.39-9.31,5.12,5.12,0,0,0-.61-5.45A4.86,4.86,0,0,0,724,747.47Z" style="fill:#141414"/><path d="M217.1,232a22.49,22.49,0,0,0-9.69-4.56,19.37,19.37,0,0,0-11.48,1.51c-4,1.7-7.85,4.9-11.56,9.52l-12.84,16a5.29,5.29,0,0,0-1.18,4.14,5.54,5.54,0,0,0,2.1,3.72l43,34.48a5.35,5.35,0,0,0,3.43,1.25c.22,0,.43,0,.65,0a5.36,5.36,0,0,0,3.72-2.07,5.51,5.51,0,0,0,1.24-4.08,5.3,5.3,0,0,0-2-3.79l-13.85-11.12,9.31-11.6c3.71-4.62,6-9.11,6.79-13.34a19.34,19.34,0,0,0-1-11.54A22.41,22.41,0,0,0,217.1,232ZM214,248c.24,3-1.45,6.77-5,11.21l-8.81,11-16.75-13.44,8.81-11c3.56-4.44,6.88-6.9,9.86-7.32A10.55,10.55,0,0,1,214,248Z" style="fill:#141414"/><path d="M311.66,210.66a5.36,5.36,0,0,0-1-4.13l-2.44-3.35a37.12,37.12,0,0,0-9.67-9,13.87,13.87,0,0,0-9.64-2.37,17.29,17.29,0,0,0,1.7-8.07,18.71,18.71,0,0,0-3.67-10.57,17.8,17.8,0,0,0-13.87-7.69c-5.61-.32-11.92,2.05-18.77,7l-16.93,12.37a5.27,5.27,0,0,0-2.21,3.69,5.54,5.54,0,0,0,1.05,4.14l32.49,44.48a5.36,5.36,0,0,0,3.62,2.23,5.42,5.42,0,0,0,.89.07,5.36,5.36,0,0,0,3.24-1.09,5.57,5.57,0,0,0,2.27-3.62,5.34,5.34,0,0,0-1-4.19l-11.43-15.65,13.84-10.1c3-2.19,5.74-3.12,8.16-2.76a11.81,11.81,0,0,1,6.37,2.87,38.75,38.75,0,0,1,5.36,6l1.59,2.19a5.44,5.44,0,0,0,3.62,2.29,5.53,5.53,0,0,0,4.21-1.14A5.36,5.36,0,0,0,311.66,210.66Zm-32.18-22.15c-1.13,3.13-3.68,6.16-7.59,9L260,206.25l-11.71-16,11.58-8.46c4.78-3.49,8.68-5.27,11.57-5.27h0a8.16,8.16,0,0,1,6.84,3.77A8.3,8.3,0,0,1,279.48,188.51Z" style="fill:#141414"/><path d="M338.72,191.48a5.56,5.56,0,0,0,5.12,3.57,5.62,5.62,0,0,0,2.06-.4l33.65-13.05a5.28,5.28,0,0,0,3-2.76,5.17,5.17,0,0,0,.11-4.1,5.34,5.34,0,0,0-6.95-3.07l-28.39,11-6.14-15.83L366.54,157a5.31,5.31,0,0,0,3-2.76,5.17,5.17,0,0,0,.11-4.1,5.34,5.34,0,0,0-6.95-3.07l-25.37,9.84-6.11-15.75,28.39-11a5.28,5.28,0,0,0,3-2.76,5.09,5.09,0,0,0,.11-4.1,5.33,5.33,0,0,0-6.95-3.07l-33.64,13a5.27,5.27,0,0,0-3.09,3,5.52,5.52,0,0,0,0,4.28Z" style="fill:#141414"/><path d="M462,154.29a5,5,0,0,0-3.81-1,5.13,5.13,0,0,0-2.24.78,39.63,39.63,0,0,1-7.07,3.86,30.37,30.37,0,0,1-8.15,1.95A24.25,24.25,0,0,1,428,158.31a19.14,19.14,0,0,1-8.47-7.2,28.57,28.57,0,0,1-2.67-23.63,19.11,19.11,0,0,1,6.65-8.9,24.27,24.27,0,0,1,12-4.37,31,31,0,0,1,8.38.08,40.7,40.7,0,0,1,7.77,2.19,5.06,5.06,0,0,0,2.34.26,4.91,4.91,0,0,0,3.5-1.9,4.81,4.81,0,0,0,1-3.56,5.09,5.09,0,0,0-3.25-4.39A48.17,48.17,0,0,0,445,103.76a39.79,39.79,0,0,0-11.46-.22,34.73,34.73,0,0,0-16.31,6,29.89,29.89,0,0,0-10.44,13.09,36.29,36.29,0,0,0-2.25,18.25,36.43,36.43,0,0,0,6.27,17.28,29.82,29.82,0,0,0,13.1,10.43A33.42,33.42,0,0,0,436.63,171a40.27,40.27,0,0,0,4.48-.26A39.72,39.72,0,0,0,452.23,168a48.37,48.37,0,0,0,9.33-5.34,5.09,5.09,0,0,0,2.21-5A4.82,4.82,0,0,0,462,154.29Z" style="fill:#141414"/><path d="M498.8,170.26l.59,0a5.53,5.53,0,0,0,3.51-1.24,5.37,5.37,0,0,0,2-3.79L510.1,110a5.64,5.64,0,0,0-5.09-6.14,5.25,5.25,0,0,0-4.09,1.3,5.54,5.54,0,0,0-2,3.8l-5.17,55.28a5.51,5.51,0,0,0,5,6Z" style="fill:#141414"/><path d="M601.37,129.89a33.53,33.53,0,0,0-15-9.54,34,34,0,0,0-17.8-1.31,30,30,0,0,0-14.74,7.8A38.14,38.14,0,0,0,542.85,160a30,30,0,0,0,7.2,15h0a34,34,0,0,0,15.08,9.56,36.77,36.77,0,0,0,11.47,1.94,30.29,30.29,0,0,0,21-8.49,37.58,37.58,0,0,0,10.91-33A30.27,30.27,0,0,0,601.37,129.89Zm-4.84,29.43a26.51,26.51,0,0,1-6.24,10.5,19.91,19.91,0,0,1-9.73,5.43,24.39,24.39,0,0,1-22.32-7.36,20,20,0,0,1-4.54-10.15,28.37,28.37,0,0,1,7.48-22.66,20,20,0,0,1,9.69-5.45,19.33,19.33,0,0,1,4.4-.5,24.49,24.49,0,0,1,7.72,1.33A22.19,22.19,0,0,1,593.18,137a19.93,19.93,0,0,1,4.59,10.16A26.59,26.59,0,0,1,596.53,159.32Z" style="fill:#141414"/><path d="M669.23,227.77a25,25,0,0,0,11.56-9.47l20.4-29.12a5.65,5.65,0,0,0-1.38-7.85,5.33,5.33,0,0,0-4.21-.9,5.55,5.55,0,0,0-3.58,2.33L671.47,212.1a15,15,0,0,1-6.62,5.57,14.11,14.11,0,0,1-7.78.81A19.19,19.19,0,0,1,644,209.3a14.06,14.06,0,0,1-1.89-7.59,15,15,0,0,1,3-8.13l20.56-29.34a5.64,5.64,0,0,0-1.39-7.85,5.26,5.26,0,0,0-4.2-.9,5.52,5.52,0,0,0-3.58,2.33L636,186.94a25.07,25.07,0,0,0-4.94,14.11,24.81,24.81,0,0,0,3.44,13.1A31,31,0,0,0,655.74,229a24.89,24.89,0,0,0,13.49-1.24Z" style="fill:#141414"/><path d="M763.92,250.91a53.08,53.08,0,0,0-9.49-16.09,31,31,0,0,0-10.54-8.5,20,20,0,0,0-11-2,18.45,18.45,0,0,0-9.65,4.25,14.83,14.83,0,0,0-5.62,9.46,22.15,22.15,0,0,0,1,10,109.06,109.06,0,0,0,4.84,11.54c1.59,3.37,2.76,6.05,3.49,8a13.43,13.43,0,0,1,.94,5.08,4.32,4.32,0,0,1-1.61,3.34,7.24,7.24,0,0,1-7.09,1.68c-2.71-.82-5.69-3.15-8.85-6.92A41.9,41.9,0,0,1,702,255.31a5.51,5.51,0,0,0-1.11-2.08,4.93,4.93,0,0,0-3.65-1.85,5.33,5.33,0,0,0-5.44,4,5.51,5.51,0,0,0,0,3.17,55.21,55.21,0,0,0,10.73,19.72,31.88,31.88,0,0,0,9.94,8.17,21,21,0,0,0,9.46,2.4c.44,0,.88,0,1.33-.05a16.71,16.71,0,0,0,9.63-3.95c3.4-2.84,5.41-6.05,6-9.53a20.33,20.33,0,0,0-.78-9.86,93.67,93.67,0,0,0-4.84-11.19,84.88,84.88,0,0,1-3.68-8,13.05,13.05,0,0,1-.9-5.46,5.45,5.45,0,0,1,2.14-4,7,7,0,0,1,7.21-1.18c3,1,6,3.28,8.83,6.68a42.51,42.51,0,0,1,7.17,12.17,5.28,5.28,0,0,0,.93,1.83,4.76,4.76,0,0,0,3.71,1.79h0a5.44,5.44,0,0,0,3.58-1.27A5,5,0,0,0,763.92,250.91Z" style="fill:#141414"/></g><g id="outside_ring" data-name="outside ring"><path d="M897.43,449.79c-.37-4-.61-8.24-.83-12.05a204.3,204.3,0,0,0-2.07-22c-3.14-18.86-8.4-38.68-16.55-62.4-5.94-17.27-11.33-32.81-17.13-48.11-1.35-3.56-2.64-7.32-3.9-10.95l-.08-.24c-3.94-11.43-8-23.25-15-33.57-5.47-8.1-10.67-16.71-15.69-25l-.25-.41c-9.24-15.3-18.8-31.12-30.83-45.43-11.77-14-21.62-23.07-33-30.34-8.71-5.58-15.2-11.05-20.45-17.21A167.12,167.12,0,0,0,686.56,99.4c-22.64-10.86-46.87-22.14-72.31-30.13-2.68-.84-5.37-1.75-8.36-2.77l-.1,0c-8-2.72-16.35-5.54-25.39-7-10.59-1.66-23.07-3.74-35.32-6.56a239.73,239.73,0,0,0-44.81-5.76c-10.92-.43-21.68.33-32.09,1.06l-.31,0c-5.47.38-11.12.78-16.62,1-9.46.35-18.7.84-27.73,2.93-13.88,3.24-28.22,5.8-42.08,8.28l-3.93.7c-2.79.5-5.69,1-8.49,1.4l-.59.09A203.3,203.3,0,0,0,346,67.07c-7.7,2.13-15.09,4.92-22.25,7.63l-.1,0c-4.4,1.67-9,3.39-13.4,4.88C291.25,85.94,271.5,95,248.06,108a441.49,441.49,0,0,0-75.35,52.79c-9.8,8.54-19,19.18-28.13,32.53-5.37,7.85-10.44,16-15.34,23.86l-.17.28c-3.95,6.33-8,12.87-12.18,19.13A448.79,448.79,0,0,0,77,311.52l-2.33,5.56C68.91,330.73,63,344.85,58,359.29,50.77,380,47.63,400.78,44.54,423.81c-1.34,10-1.71,19.92-2.07,29.54-.26,6.84-.53,13.92-1.15,20.75-1.53,16.79-.73,35,2.45,55.82.45,3,.88,6,1.3,9,1.52,10.71,3.1,21.77,6.07,32.64a500.13,500.13,0,0,0,30.65,83.39c14.62,30.62,32.67,59.35,48.45,83.87A430.49,430.49,0,0,0,164.31,785a149.8,149.8,0,0,0,39.92,32.86c6.24,3.61,12.7,7.57,18.4,11.06,6.7,4.1,13.63,8.34,20.62,12.34,5.7,3.27,11.4,6.76,16.92,10.13,15.16,9.29,30.85,18.9,48.59,25.21,5.46,1.94,11,4.29,16.39,6.56l.42.18c10.77,4.56,21.91,9.28,34.08,11.76,4.73,1,9.48,1.71,14.08,2.42l.72.12c2.57.4,5.15.8,7.72,1.24A141.92,141.92,0,0,0,397,900.39h.17a128.92,128.92,0,0,1,13.06,1.28c12.61,2.13,25.27,2.53,37.5,2.91h.16c7,.21,14.27.44,21.28,1,4.81.39,9.77.58,14.75.58a259.14,259.14,0,0,0,44.92-4.35c5.44-1,11.15-1.6,16.68-2.22l.28,0c9.2-1,18.71-2.09,28.19-4.62,5.85-1.56,11.59-3.47,17.22-5.34l.18-.06c3.82-1.27,7.77-2.58,11.62-3.73a309,309,0,0,0,57.07-23.09c11-5.87,21.83-12.35,32.27-18.62l.3-.17c12-7.24,24.51-14.72,37.22-21.19,6.43-3.28,13.85-7.51,20.05-14,15.27-15.91,33.17-35,50.22-55.43,13.19-15.86,26.93-33,37.36-52.84,3-5.65,5.72-11.54,8.13-16.74l.06-.12a246,246,0,0,1,11.45-22.57c6.2-10.37,13.48-26.88,21.65-49.08.1-.26,8.64-23.77,10.37-30.36l0,0c3.48-10.74,5.7-22.55,7-37.14.4-4.49.94-9.08,1.47-13.52l.06-.48c1.19-9.89,2.42-20.11,2.26-30.72C899.77,482,898.92,465.66,897.43,449.79Zm-9.58,79.52-.06.49c-.53,4.51-1.09,9.18-1.5,13.81-1.23,13.83-3.31,24.94-6.55,34.95l-.24.75v0c-1.88,5.89-17.6,54.34-30.9,76.58a256.59,256.59,0,0,0-11.94,23.49l-.06.13c-2.36,5.09-5.05,10.86-7.91,16.3-10,19-23.35,35.64-36.2,51.09-16.84,20.25-34.6,39.12-49.75,54.91-5.17,5.39-11.69,9.09-17.37,12-13,6.62-25.63,14.2-37.83,21.52l-.29.18c-10.34,6.2-21,12.61-31.83,18.37a299.9,299.9,0,0,1-55.23,22.33c-4,1.19-8,2.53-11.91,3.82l-.26.08c-5.41,1.8-11,3.66-16.57,5.15-8.75,2.33-17.89,3.36-26.73,4.35l-.28,0c-5.68.64-11.55,1.31-17.29,2.31a249.13,249.13,0,0,1-43.19,4.2c-4.71,0-9.41-.18-14-.54-7.25-.58-14.63-.81-21.79-1h-.12c-11.91-.38-24.21-.76-36.15-2.78a133.59,133.59,0,0,0-14.09-1.4h0a1.29,1.29,0,0,0-.29,0l-3.64-.25c-3.37-.24-6.76-.56-10.06-1.13-2.62-.45-5.25-.86-7.87-1.27l-.73-.11c-4.48-.69-9.11-1.41-13.6-2.34-11.2-2.28-21.87-6.8-32.2-11.17l-.41-.18c-5.51-2.33-11.2-4.73-16.94-6.77-16.76-6-32-15.29-46.72-24.31-5.58-3.42-11.34-6.94-17.17-10.28-6.87-3.94-13.73-8.14-20.36-12.2-5.76-3.52-12.28-7.51-18.61-11.18a140,140,0,0,1-37.32-30.69,420.47,420.47,0,0,1-33.28-45.13c-15.61-24.26-33.47-52.66-47.83-82.75a490.43,490.43,0,0,1-30-81.73c-2.8-10.26-4.33-21-5.81-31.42-.43-3-.86-6.06-1.32-9.08-3-20-3.82-37.43-2.37-53.4.64-7.1.92-14.31,1.18-21.32.35-9.34.72-19,2-28.55,3-22.49,6.07-42.72,13-62.58,4.91-14.13,10.79-28.09,16.48-41.6l2.35-5.57a438.9,438.9,0,0,1,39-73.28c4.25-6.38,8.36-13,12.34-19.37l.18-.28c4.84-7.78,9.85-15.83,15.11-23.51,8.64-12.64,17.29-22.66,26.43-30.63a431.46,431.46,0,0,1,73.65-51.59C275.8,104,295,95.23,313.4,89.1c4.64-1.55,9.29-3.31,13.78-5l.13,0c6.92-2.62,14.08-5.33,21.34-7.32A193.48,193.48,0,0,1,370,72.53l.58-.1c2.85-.45,5.8-.91,8.69-1.43l3.92-.7c14-2.5,28.47-5.08,42.6-8.38,8.16-1.89,16.87-2.35,25.83-2.68,5.66-.21,11.4-.61,16.95-1l.31,0c10.15-.72,20.63-1.45,31-1a230.07,230.07,0,0,1,43,5.52c12.55,2.88,25.24,5,36,6.69,8.2,1.3,16.1,4,23.74,6.56l.1,0c3.05,1,5.79,2,8.58,2.84,24.8,7.79,48.66,18.9,71,29.61a157.19,157.19,0,0,1,51.87,40.13c5.9,6.94,13.1,13,22.66,19.15,10.44,6.7,19.62,15.18,30.7,28.36,11.54,13.71,20.89,29.19,29.93,44.16l.25.4c5.09,8.44,10.35,17.16,16,25.47,6.23,9.22,10.08,20.41,13.81,31.23l.09.24c1.28,3.71,2.6,7.53,4,11.23,5.75,15.17,11.11,30.64,17,47.82,8,23.18,13.1,42.5,16.15,60.79a198.08,198.08,0,0,1,2,21c.22,3.79.47,8.1.86,12.3h0c1.46,15.61,2.3,31.71,2.56,49.21C890.19,509.86,889,519.75,887.85,529.31Z" style="fill:#141414"/></g><g id="flag_inner_ring" data-name="flag + inner ring"><path d="M743.07,451.71a128.47,128.47,0,0,0-1.31-14c-2-12-5.36-24.68-10.58-39.88-3.81-11.08-7.28-21.07-11-31-.86-2.28-1.69-4.68-2.49-7l-.11-.33c-2.49-7.21-5.06-14.66-9.34-21-3.67-5.43-7.22-11.32-10.35-16.51-5.92-9.81-12.05-19.95-19.71-29.07-7.41-8.81-13.59-14.51-20.67-19.05a60.23,60.23,0,0,1-13.85-11.68,105.12,105.12,0,0,0-34.72-26.86c-14.54-7-30.09-14.22-46.37-19.34-1.74-.54-3.48-1.13-5.16-1.7l-.38-.13A94.42,94.42,0,0,0,541,209.78c-6.91-1.09-15-2.45-23-4.28a151.31,151.31,0,0,0-28.44-3.66c-1.28-.05-2.62-.07-4.1-.07-5.56,0-11,.38-16.34.76-3.43.24-7.32.51-11,.65A91.51,91.51,0,0,0,440.71,205c-9.09,2.11-18.43,3.78-27.48,5.39l-2.41.44c-2,.35-4,.66-5.93,1a127.12,127.12,0,0,0-14.2,2.8c-4.82,1.32-9.5,3.09-14,4.8l-.1,0c-2.89,1.1-5.88,2.23-8.84,3.22-12.1,4-24.72,9.79-39.72,18.13a282.74,282.74,0,0,0-48.23,33.79,106.94,106.94,0,0,0-17.7,20.49c-3.44,5-6.7,10.26-9.85,15.32l-.14.22c-2.55,4.1-5.19,8.33-7.89,12.4a288.27,288.27,0,0,0-25.53,48l-1.51,3.6c-3.7,8.79-7.53,17.88-10.74,27.11-4.56,13.16-6.57,26.43-8.54,41.16-.84,6.32-1.08,12.66-1.31,18.8-.17,4.45-.34,9.06-.76,13.59-1,10.62-.45,22.19,1.56,35.39.28,1.8.53,3.59.79,5.39l.06.44a167.6,167.6,0,0,0,3.85,20.76,320,320,0,0,0,19.64,53.43c9.39,19.68,21,38.14,31.14,53.91a275,275,0,0,0,21.81,29.55,93.93,93.93,0,0,0,25.07,20.63c4.13,2.39,8.28,4.94,11.95,7.19l.23.14c4.24,2.59,8.62,5.27,13,7.79,3.73,2.13,7.43,4.4,11,6.59,9.68,5.93,19.69,12.06,30.89,16,3.69,1.31,7.42,2.89,11,4.42,6.83,2.89,13.89,5.88,21.48,7.43,3,.62,6.12,1.1,9.15,1.57,1.78.28,3.55.55,5.31.85a86.61,86.61,0,0,0,9.27.94h.13a85.65,85.65,0,0,1,8.77.87c8,1.35,16.1,1.6,23.94,1.84,4.34.13,9.25.29,13.91.66,3.05.24,6.14.36,9.32.36a164.36,164.36,0,0,0,28.55-2.77c3.7-.65,7.48-1.07,11.14-1.48a121.31,121.31,0,0,0,17.8-2.91c3.7-1,7.36-2.21,11-3.41,2.38-.79,5.08-1.69,7.71-2.47A198,198,0,0,0,591.7,723.7c7.06-3.76,14-7.93,20.74-12l.18-.12c7.82-4.69,15.91-9.55,24.24-13.79a44.48,44.48,0,0,0,12.2-8.47c9.85-10.27,21.39-22.54,32.33-35.69,8.42-10.12,17.2-21.06,23.82-33.65,1.85-3.53,3.55-7.18,5.19-10.7A166.21,166.21,0,0,1,718,594.38c8.65-14.48,18.5-44.61,20.38-50.51l0-.15a104.58,104.58,0,0,0,4.42-23.48c.28-3.09.67-6.3,1-9.14a142.6,142.6,0,0,0,1.44-19.47c-.18-11.41-.72-21.91-1.67-32.1C743.37,456.92,743.22,454.27,743.07,451.71Zm-9.15,58.2c-.35,2.91-.75,6.2-1,9.45a95,95,0,0,1-4,21.27l-.06.2c-1.83,5.71-11.35,34.88-19.45,48.42a172.6,172.6,0,0,0-8.06,15.85c-1.59,3.41-3.24,6.95-5,10.26-6.17,11.73-14.57,22.2-22.66,31.91-10.73,12.91-22.13,25-31.86,35.17a35.63,35.63,0,0,1-9.52,6.48c-8.64,4.39-16.88,9.34-24.85,14.13l-.18.11c-6.62,4-13.46,8.07-20.3,11.72a187.18,187.18,0,0,1-34.53,14c-2.77.83-5.55,1.76-8.08,2.6-3.4,1.13-6.92,2.29-10.32,3.2a112.6,112.6,0,0,1-16.35,2.64c-3.63.41-7.75.87-11.75,1.57-13.61,2.39-24.84,3.12-35.35,2.29-4.9-.39-9.94-.55-14.39-.68-7.5-.24-15.26-.48-22.58-1.71a86.72,86.72,0,0,0-9.35-1c-3.85-13.63-8.21-31.8-9.83-45.42q-.65-5.49-1.34-11a308.38,308.38,0,0,0-5.81-33.6l-.8-3.28c-2-8.06-4-16.39-5.54-24.69-.52-2.8-1-5.68-1.41-8.47-1.09-6.94-2.21-14.1-4.56-21-.35-1-.68-2.06-1-3.09a171.31,171.31,0,0,1-3.78-16.86l-.46-2.4c-.87-4.56-1.88-9.16-2.87-13.6-.5-2.25-1-4.5-1.48-6.76-.24-1.16-.75-3.8-1.42-7.43l.06,0a22.78,22.78,0,0,1,2.24.77,27.72,27.72,0,0,0,3.08,1.15c.48.16,1,.32,1.44.5,1.87.69,3.76,1.3,5.42,1.83,2,.64,3.82,1.23,5.57,1.89a74.32,74.32,0,0,1,7,3.27,69,69,0,0,0,8.39,3.84c1.57.57,3.15,1.1,4.72,1.64l.35.12a88,88,0,0,1,15.15,6.2c1,.57,2.05,1.12,3.12,1.67A128.57,128.57,0,0,0,467.69,573c4.25,1.09,8.54,2,12.74,2.64a97.5,97.5,0,0,0,23.07,1.12c7.85-.66,17.81-.37,27.52-.08,8.17.24,15.89.46,22.65.17,2.85-.13,6.12,0,9.59.07h.14a121.41,121.41,0,0,0,12.24,0,25.48,25.48,0,0,1,5.5,0,71,71,0,0,0,11.49.08c2.66-.14,6.09,0,9.47.06,3.7.11,7.53.22,10.74,0a45.93,45.93,0,0,1,6.23.1h.1c1.42.1,2.71.19,4.15.19h.12a36.13,36.13,0,0,0,4.36-.29A105.63,105.63,0,0,0,639.18,575l3.88-.93,2-.48a35.38,35.38,0,0,0,5.17-2.12l.73-.34.87-.39a76,76,0,0,0,7.68-3.87c1.57-.87,3.2-1.77,5.06-2.68.62-.3,1.25-.58,1.86-.84a28.84,28.84,0,0,1,6.92-1.83A26.12,26.12,0,0,0,686,556.46a23.3,23.3,0,0,0,4.34-4.45,58.5,58.5,0,0,0,8.28-14.25l.24-.62a.6.6,0,0,0,.06-.19c4.45-11.63,6.57-21.5,6.5-30.16A100.61,100.61,0,0,0,704.32,491,64.73,64.73,0,0,1,705,472.7c1.19-7.58-2.51-14.64-5.78-20.89l-.09-.17c-.88-1.68-1.71-3.26-2.4-4.79-1.31-2.85-2.61-5.22-3.78-7.32a59.94,59.94,0,0,1-5.12-11.19,58.65,58.65,0,0,0-2.37-6.06c-.25-.54-.48-1.08-.72-1.64a30.2,30.2,0,0,0-7.63-11.42c-1.15-1.08-1.2-3.85-1.24-6.31v-.51c-.1-4.66-.55-10.14-3.15-15.48-4-8.24-10.43-12.28-19.61-12.36-3.7,0-6.78,0-9.81.08-4.59.07-8.93.15-14.67-.11h-.14a18.68,18.68,0,0,1-6.21-1.14c-9.61-4.35-17.4-4.23-25.71-4.1a82.16,82.16,0,0,1-15.52-.8c-.23,0-1.14-.14-3.69-.42-4.06-.44-13.58-1.49-14.6-1.77-8.63-3-15.81-8.5-23.41-14.34l-1.87-1.44c-8.54-6.52-18.67-10.06-27.45-12.65-13.7-4.05-28.1-4.85-44-2.45-10.86,1.64-21.26,4.86-31.32,8l-.22.06c-4.27,1.32-8.68,2.69-13,3.89a58.92,58.92,0,0,1-14.66,2.17c-7.14.11-14.43-.28-21.48-.67a257.8,257.8,0,0,0-27.45-.49l-4.15.22c-2.05.11-3.28.15-4.32.19-1.61.06-2.77.11-5.68.32h-.22l-.2.08c-.18.07-.37.12-.55.17-1.16-6.17-3.79-17.86-5-21.61a2.47,2.47,0,0,1,.68-2.65,20.6,20.6,0,0,0,2.47-3.21c.37-.55.72-1.08,1.07-1.55,4.35-5.64.94-12.76-1.45-19.47a20.72,20.72,0,0,0-15.22-13.3c-10.52-2.43-21,1.51-26.73,10.06-2.59,3.89-1.85,8.55-1.19,12.67.07.46.15.92.21,1.37,1.51,10.21,8.85,16,16.56,20.72,3.37,2.07,3.94,3.74,4.06,5,.1,1,1,8.39,1.56,12.93a7,7,0,0,1-1.21-.33l-.44-.16-.45.11a4.5,4.5,0,0,0-1.13.44,3.93,3.93,0,0,0-2,3.27,22.55,22.55,0,0,0,1,7.44,29.27,29.27,0,0,1,.94,4.59c.35,2.92,1.56,9.88,5.33,11.55a22.64,22.64,0,0,0,3.6,1.19,279.19,279.19,0,0,1,5.67,28l.29,1.77h0c.47,2.75.93,5.5,1.42,8.24q2.33,12.93,4.69,25.85c.31,1.71.6,3.43.88,5.14.7,4.13,1.42,8.39,2.49,12.55,3.68,14.29,6.71,29,9.44,42.76a24.6,24.6,0,0,1,.32,2.53v0c-2.17,1-3.37,2.4-3.54,4.21-1.83,8.84,2.86,13.41,7.23,15.82a2.78,2.78,0,0,0,.08.49c1,3.5,1.89,7.08,2.66,11,.43,2.14,1,4.21,1.64,6.22l.23.76a50,50,0,0,1,1.5,6c2.54,15.52,6.57,30.77,10.48,45.05a289,289,0,0,1,6.66,33.83c1,6.49,2.19,13,3.37,19.34.58,3.11,1.17,6.23,1.72,9.34q.69,3.92,1.4,7.83l.28,1.59c2.23,12.49,4.53,25.4,6.74,38.11,1.7,9.79,4.31,19.94,6.71,28.82a132.43,132.43,0,0,1-16-6c-3.73-1.58-7.59-3.21-11.56-4.62-10.22-3.64-19.77-9.49-29-15.16-3.64-2.23-7.41-4.53-11.26-6.74-4.28-2.44-8.59-5.09-12.77-7.64l-.23-.14c-3.71-2.28-7.92-4.86-12.16-7.31a84.34,84.34,0,0,1-22.46-18.45,266.1,266.1,0,0,1-21-28.5c-10-15.5-21.38-33.65-30.52-52.79a310,310,0,0,1-19-51.77,159.33,159.33,0,0,1-3.6-19.53l-.06-.44c-.26-1.83-.52-3.66-.8-5.49-1.89-12.39-2.38-23.17-1.49-33,.44-4.8.62-9.54.79-14.12.22-5.91.45-12,1.23-17.86,1.9-14.18,3.82-26.92,8.08-39.2,3.1-8.93,6.86-17.86,10.51-26.51l1.51-3.61a278.1,278.1,0,0,1,24.64-46.31c2.78-4.19,5.46-8.49,8-12.64l.14-.23c3.1-5,6.3-10.11,9.62-15a96.52,96.52,0,0,1,16-18.59,272.8,272.8,0,0,1,46.52-32.59c14.44-8,26.52-13.55,38-17.38,3.15-1.06,6.24-2.22,9.22-3.35l.1,0c4.31-1.63,8.77-3.32,13.15-4.52a121.42,121.42,0,0,1,13.13-2.57c2-.31,4.06-.64,6.1-1l2.41-.43c9.17-1.64,18.65-3.33,28-5.5a83.09,83.09,0,0,1,15.48-1.58c3.88-.14,7.86-.42,11.37-.67,5.13-.36,10.44-.73,15.64-.73,1.34,0,2.55,0,3.71.06a142,142,0,0,1,26.6,3.42c8.27,1.89,16.62,3.29,23.7,4.41a88.17,88.17,0,0,1,14.37,4l.3.1c1.76.6,3.57,1.21,5.38,1.77,15.64,4.92,30.82,12,45,18.81A95.25,95.25,0,0,1,636,268.67a70.16,70.16,0,0,0,16.07,13.62c6.18,4,11.69,9.07,18.41,17.07,7.17,8.51,13.08,18.32,18.81,27.8,3.19,5.29,6.81,11.29,10.62,16.93,3.54,5.26,5.9,12.08,8.18,18.7l.11.31c.82,2.39,1.67,4.86,2.59,7.29,3.72,9.81,7.16,19.72,10.94,30.72,5,14.66,8.27,26.82,10.18,38.28a122.67,122.67,0,0,1,1.19,12.89c.14,2.53.31,5.4.57,8.19.93,9.92,1.46,20.17,1.63,31.31A135.08,135.08,0,0,1,733.92,509.91Zm-366.85,9.32v0l-.14,0v0a35.71,35.71,0,0,1-4.43,1l-.57-.19c-6.63-2.2-7.93-4.58-7.47-8,.22-.07.47-.14.73-.2l.44-.09,1.54-.17a92.63,92.63,0,0,1,13.87-.88,38.84,38.84,0,0,1,5.64.59c12.38,2.24,24.75,1.17,36.73.14,6.3-.55,12.81-1.11,19.16-1.16,1.19,0,2.37,0,3.66,0,1.93,0,3.92,0,5.94,0a40,40,0,0,0,11-1.71c2.21-.7,5.25-1.66,6.79-5,2.15-4.71,4.26-9.52,6.32-14.2l1.5-3.42c4.06-9.2,3.4-13-3.51-20.34l-.49-.5-.15-.15-.29-.29a21.73,21.73,0,0,1-2.06-2.45c-.09-.13-.19-.25-.3-.38s-.1-.26-.16-.38c-.2-.44-.48-1.05,1.64-4.52A24.25,24.25,0,0,0,466,442.22a72.19,72.19,0,0,0-1.29-11.75,60,60,0,0,1-.82-20.19,68.76,68.76,0,0,1,2.87-12.55l.12,0,.38.12c1.55.5,2.08.67,4.49,3.25a3.88,3.88,0,0,0,2.82,1.23h0a3.89,3.89,0,0,0,2.81-6.54c-3.61-3.86-5.23-4.51-7.78-5.33l-.38-.12c-1.35-.43-2.7-.84-4-1.21-6.3-1.79-12.69-3.1-17.56-4s-9.51-2.15-14.14-3.34l-.21-.06c-1.78-.45-3.55-.91-5.31-1.34l-4.09-1.11-1.5-.41a15,15,0,0,0-1.75-.54l-3.84-.94a139.93,139.93,0,0,0-18.29-3.65c-10.43-1.14-21-1.26-31.26-1.37-2.55,0-5.83-.17-9-.31-4.6-.19-8.95-.38-11.45-.26-1.12,0-1.63.09-2,.11-.56,0-.75.06-2.51.06l-2.14,0h-2.92c-1.16,0-2.37,0-3.57-.13a34.5,34.5,0,0,1-8.11-1.47,24.24,24.24,0,0,1-1.4-5.63,37.28,37.28,0,0,0-1.18-5.77c-.1-.33-.18-.63-.25-.92a22.59,22.59,0,0,0,5.33.13c2.61-.28,5.22-.52,7.76-.71,6.09-.49,12.26-.81,18.22-1.12l4.17-.22a248.32,248.32,0,0,1,26.61.5c7.17.38,14.59.79,22,.67a65.83,65.83,0,0,0,16.6-2.45c4.49-1.24,9-2.63,13.33-4l.21-.07c9.77-3,19.87-6.14,30.13-7.68,14.79-2.23,28.09-1.51,40.69,2.21,8.1,2.4,17.4,5.62,24.94,11.38l1.86,1.43c5.3,4.07,17.52,11.33,24.82,15.67,2.86,1.7,5.55,3.3,5.87,3.54a43.49,43.49,0,0,0,4.52,3.56l1.16.84a92.94,92.94,0,0,1,7.25,6.14c3.62,3.28,7.37,6.67,11,8.67l.26.14q3.49,1.92,7,3.83a3.75,3.75,0,0,0,1.86.47,3.88,3.88,0,0,0,1.83-7.29l-5.53-3-1.69-.93c-3.33-1.83-6.95-5.1-10.45-8.25-2.34-2.12-4.76-4.3-7.11-6.07l.84.16c.66.13,1.45.25,2.24.38l1.27.2a88.58,88.58,0,0,0,17,.9c7.68-.12,14.31-.23,22.35,3.41a26,26,0,0,0,9.17,1.83c6,.27,10.44.2,15.19.12,3-.06,6-.11,9.59-.08,6.2.06,10,2.45,12.72,8,1.94,4,2.29,8.4,2.37,12.22v.5c.06,3.58.14,8.48,3.67,11.81a23,23,0,0,1,5.8,8.78c.25.6.51,1.19.8,1.83a54,54,0,0,1,2.07,5.27,65.85,65.85,0,0,0,5.76,12.63c1.13,2.06,2.3,4.18,3.45,6.69.83,1.83,1.81,3.7,2.68,5.35,2.84,5.42,5.78,11,5,16.09a71.52,71.52,0,0,0-.67,20.47,94.46,94.46,0,0,1,1,14.87c.06,7.81-1.95,16.89-6.16,27.78a5.58,5.58,0,0,1-1.12.27,44.93,44.93,0,0,1-5.79.24c-5.27,0-11.83.05-17.81,2.69a38.36,38.36,0,0,1-14.53,2.54h0c-2.24,0-6.15-1.64-8.31-2.55-.82-.34-1.48-.62-2-.81-5.79-2-9.94-3.74-13.6-5.26l-.12,0a87.37,87.37,0,0,0-11.56-4.19,140.65,140.65,0,0,0-19.78-4.16,213.28,213.28,0,0,0-23.4-1.07c-10.53-.06-21.71-1.35-35.18-4-12.91-2.59-26.06-3.39-38.35-3.87q-4.05-.15-8.12-.15c-8,0-16.07.4-24,.79h-.16c-4.61.22-9.38.46-14.05.61-3.86.12-7.73.21-11.59.3l-2.56.05-5.68.14-1.78,0c-1.75.05-3.54,0-5.44-.12h-.11c-4.51-.2-9.18-.41-13.83,1.05a11.36,11.36,0,0,1-5.13.29l-.81-.08c-.78-.07-1.62-.13-2.59-.14h-.67a61.54,61.54,0,0,0-6.71.13c-1.23.14-2.48.24-3.83.29-2.72.13-5.54.09-8.35.06-3.32,0-6.76-.09-10.2.15A36.93,36.93,0,0,0,367.07,519.23ZM422,455.5a43.59,43.59,0,0,0,.63,4.34A51.93,51.93,0,0,1,424,472.32a22.13,22.13,0,0,0,0,2.22,62.6,62.6,0,0,0,1.25,9.27A74.73,74.73,0,0,0,429.88,498a13.57,13.57,0,0,1,1,3.56,9.79,9.79,0,0,1,.1,1c-6.14.12-12.27.65-18.21,1.16-11.46,1-23.31,2-34.68,0-.92-.17-1.85-.3-2.79-.41-.61-3.37-1.29-6.75-1.95-10-.52-2.54-1-5.08-1.53-7.63-.71-3.72-1.45-7.43-2.18-11.14-2.34-11.87-4.76-24.15-6.49-36.31-.76-5.37-2-10.66-3.17-15.78-.53-2.29-1.08-4.65-1.57-7-.44-2-.85-4.09-1.26-6.13a170.42,170.42,0,0,0-4.85-20c-.29-.89-.59-1.77-.9-2.65s-.51-1.45-.75-2.17a34.29,34.29,0,0,1-1.25-4.78c5.94.25,11.94.33,17.81.39,10,.12,20.42.23,30.48,1.33A135.43,135.43,0,0,1,415,384.93l1.82.46,3.07.83.18.1a1.7,1.7,0,0,1,.06.67c-.08,3.34,1.16,6.11,2.27,8.59a22.74,22.74,0,0,1,1.48,3.89l.07.32c1.35,7,1,14,.54,21.4l-.15,2.64c-.19,3.72-.7,7.53-1.19,11.22C422.26,441.66,421.35,448.49,422,455.5Zm35.09-23.4a64.37,64.37,0,0,1,1.13,10.5,16.75,16.75,0,0,1-2.38,10.27c-2.66,4.34-3.93,7.84-2.06,11.85a3.63,3.63,0,0,0,.62.92,3.72,3.72,0,0,0,.48,1,29.63,29.63,0,0,0,2.77,3.33c.19.2.38.4.58.59s.23.22.36.36c4.86,5.16,4.91,5.49,2.08,11.91L459,486.75c-2,4.46-4,9.08-6,13.57-.09.2-.6.41-2.15.9a32.52,32.52,0,0,1-8.86,1.33c-1.07,0-2.17,0-3.19,0a19,19,0,0,0-.19-2.12A21.68,21.68,0,0,0,437,495a67.47,67.47,0,0,1-4.15-12.75h0a55.05,55.05,0,0,1-1.1-8.12c0-.39-.06-1,0-1.39a58.18,58.18,0,0,0-1.47-14.33c-.22-1.17-.4-2.38-.51-3.6-.58-6.11.23-12.21,1.09-18.68.49-3.65,1.05-7.79,1.26-11.83l.15-2.7c.44-7.85.85-15.27-.69-23.27l-.09-.47a29.12,29.12,0,0,0-2-5.44,19.13,19.13,0,0,1-1.47-4l3.59.91c4.75,1.22,9.67,2.49,14.58,3.44,3.63.7,8.3,1.65,13.11,2.87a76.27,76.27,0,0,0-3.09,13.68A68,68,0,0,0,457.1,432.1ZM320.78,313.43H318c-2.28,0-3-.14-3.93-1.27s-.77-3.58,0-5.05a5.84,5.84,0,0,1,1.59-2.24,38.53,38.53,0,0,1,3.2-2.24,1.51,1.51,0,0,1,.7-.26h.24a9.54,9.54,0,0,1,1,.07,9.79,9.79,0,0,1,6.33,2.78,4.92,4.92,0,0,1,.5.61,6.19,6.19,0,0,1,.16,1.37,7.1,7.1,0,0,1-3.63,6A21.79,21.79,0,0,1,320.78,313.43Zm110,211.5c.15,1.05.37,2.08.58,3.08.05.24.11.83.17,1.45a27.14,27.14,0,0,0-7.26-2.07l-.94-.12a25.44,25.44,0,0,1-7.68-2.79h0c0-.06,0-.13,0-.19,3.17-.82,6.72-.66,10.49-.5,1.47.07,3,.14,4.48.14,0,.29.06.58.1.87v.05Zm-46.22.46h.19c2.77,0,5.64.07,8.51-.06,1.58-.07,3-.18,4.36-.34,1.21-.13,3.55-.11,5.21-.09a7.4,7.4,0,0,0,1.32.88l.05,0c1,.64,3,1.92,5.59,3.36,3.6,2,8.73,4.4,12.75,4.81l.13,0,.52.06c3.81.52,7.18,1.12,9.75,3.25l.14.11.28.19.31.17.23.12.19.06a3,3,0,0,0,.4.12l.22.06a4.25,4.25,0,0,0,.71.06,3.6,3.6,0,0,0,1-.14l.28-.09a3.48,3.48,0,0,0,.68-.32l.25-.15a3.85,3.85,0,0,0,.6-.53l.17-.18a3.79,3.79,0,0,0,.48-.76,1.86,1.86,0,0,0,.1-.2l.09-.26s0-.09.05-.13c1.1-3,.42-6.21-.18-9.05-.19-.87-.38-1.78-.49-2.55v-.08l3.14-.08q6.17-.13,12.31-.31c4.65-.15,9.36-.38,13.92-.61l.6,0c10.27-.51,20.89-1,31.22-.63,12,.46,24.73,1.24,37.13,3.73,14,2.8,25.63,4.13,36.65,4.19a205.67,205.67,0,0,1,22.55,1,135.23,135.23,0,0,1,18.71,4,80.42,80.42,0,0,1,10.56,3.86c3.57,1.48,8,3.32,14.14,5.46.38.13.91.36,1.54.63l.13,0c3,1.24,7.44,3.11,11.33,3.11h0a45.71,45.71,0,0,0,17.19-3.06l.25-.09c4.58-2,10-2.06,14.83-2.08q1.43,0,2.67,0a44,44,0,0,1-3,4.3,18.57,18.57,0,0,1-2.74,3,18.83,18.83,0,0,1-9.45,3.78,34.93,34.93,0,0,0-8.58,2.31c-.77.32-1.55.67-2.29,1-2,1-3.71,1.91-5.43,2.87a71.34,71.34,0,0,1-6.95,3.52c-.31.13-.74.32-1.23.55l-.65.29a39.87,39.87,0,0,1-3.68,1.6l-1.47.35-4.35,1a97.87,97.87,0,0,1-10.59,1.94,27.06,27.06,0,0,1-3.44.22c-1.23,0-2.37-.07-3.58-.15h-.11a50,50,0,0,0-7.35-.12c-2.84.17-6.5.06-10,0s-7.11-.21-10.09-.06a63.55,63.55,0,0,1-10.44-.06,33.28,33.28,0,0,0-6.75,0,113.82,113.82,0,0,1-11.55,0c-3.45-.1-7-.21-10.16-.07-6.44.28-14,.06-22.08-.17-9.86-.29-20.05-.59-28.4.1a89.49,89.49,0,0,1-21.22-1c-4-.62-8-1.46-12-2.49a121,121,0,0,1-25.56-9.24c-1-.51-1.94-1-2.88-1.54a96,96,0,0,0-16.47-6.79c-1.64-.55-3.27-1.11-4.91-1.7a62.13,62.13,0,0,1-7.49-3.45,77.23,77.23,0,0,0-7.73-3.6c-1.91-.73-3.83-1.35-5.69-1.95l-.41-.13c-1.64-.53-3.35-1.07-4.94-1.67-.54-.2-1.1-.39-1.75-.6a20.56,20.56,0,0,1-2.25-.84,29,29,0,0,0-3.16-1.11,22.22,22.22,0,0,1-2.2-.76c-.58-.26-1.14-.45-1.7-.64l-.06,0c-.4-2.23-.77-4.34-1.07-6.08Z" style="fill:#141414"/></g></g></g></svg>