  0
SECTION
  2
HEADER
  9
$ACADVER
  1
AC1012
  9
$DWGCODEPAGE
  3
ansi_1252
  9
$INSBASE
 10
0.0
 20
0.0
 30
0.0
  9
$EXTMIN
 10
0.0
 20
0.0
 30
0.0
  9
$EXTMAX
 10
700.0
 20
700.0
 30
0.0
  9
$LIMMIN
 10
0.0
 20
0.0
  9
$LIMMAX
 10
700.0
 20
700.0
  9
$ORTHOMODE
 70
     0
  9
$REGENMODE
 70
     1
  9
$FILLMODE
 70
     1
  9
$QTEXTMODE
 70
     0
  9
$MIRRTEXT
 70
     1
  9
$DRAGMODE
 70
     2
  9
$LTSCALE
 40
1.0
  9
$OSMODE
 70
    37
  9
$ATTMODE
 70
     1
  9
$TEXTSIZE
 40
3.5
  9
$TRACEWID
 40
1.0
  9
$TEXTSTYLE
  7
STANDARD
  9
$CLAYER
  8
0
  9
$CELTYPE
  6
BYLAYER
  9
$CECOLOR
 62
   256
  9
$CELTSCALE
 40
1.0
  9
$DELOBJ
 70
     1
  9
$DISPSILH
 70
     0
  9
$DIMSCALE
 40
1.0
  9
$DIMASZ
 40
3.302
  9
$DIMEXO
 40
1.0
  9
$DIMDLI
 40
3.75
  9
$DIMRND
 40
0.0
  9
$DIMDLE
 40
0.0
  9
$DIMEXE
 40
1.0
  9
$DIMTP
 40
0.0
  9
$DIMTM
 40
0.0
  9
$DIMTXT
 40
3.5
  9
$DIMCEN
 40
2.5
  9
$DIMTSZ
 40
0.0
  9
$DIMTOL
 70
     0
  9
$DIMLIM
 70
     0
  9
$DIMTIH
 70
     1
  9
$DIMTOH
 70
     1
  9
$DIMSE1
 70
     0
  9
$DIMSE2
 70
     0
  9
$DIMTAD
 70
     1
  9
$DIMZIN
 70
     1
  9
$DIMBLK
  1

  9
$DIMASO
 70
     1
  9
$DIMSHO
 70
     1
  9
$DIMPOST
  1

  9
$DIMAPOST
  1

  9
$DIMALT
 70
     0
  9
$DIMALTD
 70
     3
  9
$DIMALTF
 40
0.0393700787
  9
$DIMLFAC
 40
1.0
  9
$DIMTOFL
 70
     1
  9
$DIMTVP
 40
0.0
  9
$DIMTIX
 70
     0
  9
$DIMSOXD
 70
     0
  9
$DIMSAH
 70
     0
  9
$DIMBLK1
  1

  9
$DIMBLK2
  1

  9
$DIMSTYLE
  2
ISO-25
  9
$DIMCLRD
 70
     0
  9
$DIMCLRE
 70
     0
  9
$DIMCLRT
 70
     0
  9
$DIMTFAC
 40
1.0
  9
$DIMGAP
 40
1.524
  9
$DIMJUST
 70
     0
  9
$DIMSD1
 70
     0
  9
$DIMSD2
 70
     0
  9
$DIMTOLJ
 70
     0
  9
$DIMTZIN
 70
     1
  9
$DIMALTZ
 70
     0
  9
$DIMALTTZ
 70
     0
  9
$DIMFIT
 70
     3
  9
$DIMUPT
 70
     0
  9
$DIMUNIT
 70
     2
  9
$DIMDEC
 70
     2
  9
$DIMTDEC
 70
     2
  9
$DIMALTU
 70
     2
  9
$DIMALTTD
 70
     3
  9
$DIMTXSTY
  7
STANDARD
  9
$DIMAUNIT
 70
     0
  9
$LUNITS
 70
     2
  9
$LUPREC
 70
     2
  9
$SKETCHINC
 40
1.0
  9
$FILLETRAD
 40
10.0
  9
$AUNITS
 70
     0
  9
$AUPREC
 70
     2
  9
$MENU
  1
.
  9
$ELEVATION
 40
0.0
  9
$PELEVATION
 40
0.0
  9
$THICKNESS
 40
0.0
  9
$LIMCHECK
 70
     0
  9
$CHAMFERA
 40
0.0
  9
$CHAMFERB
 40
0.0
  9
$CHAMFERC
 40
0.0
  9
$CHAMFERD
 40
0.0
  9
$SKPOLY
 70
     0
  9
$TDCREATE
 40
2458843.786012269
  9
$TDUPDATE
 40
2458843.786012361
  9
$TDINDWG
 40
0.0000000116
  9
$TDUSRTIMER
 40
0.0000000116
  9
$USRTIMER
 70
     1
  9
$ANGBASE
 50
0.0
  9
$ANGDIR
 70
     0
  9
$PDMODE
 70
     0
  9
$PDSIZE
 40
-1.0
  9
$PLINEWID
 40
0.0
  9
$COORDS
 70
     1
  9
$SPLFRAME
 70
     0
  9
$SPLINETYPE
 70
     6
  9
$SPLINESEGS
 70
     8
  9
$ATTDIA
 70
     0
  9
$ATTREQ
 70
     1
  9
$HANDLING
 70
     1
  9
$HANDSEED
  5
B7
  9
$SURFTAB1
 70
     6
  9
$SURFTAB2
 70
     6
  9
$SURFTYPE
 70
     6
  9
$SURFU
 70
     6
  9
$SURFV
 70
     6
  9
$UCSNAME
  2

  9
$UCSORG
 10
0.0
 20
0.0
 30
0.0
  9
$UCSXDIR
 10
1.0
 20
0.0
 30
0.0
  9
$UCSYDIR
 10
0.0
 20
1.0
 30
0.0
  9
$PUCSNAME
  2

  9
$PUCSORG
 10
0.0
 20
0.0
 30
0.0
  9
$PUCSXDIR
 10
1.0
 20
0.0
 30
0.0
  9
$PUCSYDIR
 10
0.0
 20
1.0
 30
0.0
  9
$USERI1
 70
     0
  9
$USERI2
 70
     0
  9
$USERI3
 70
     0
  9
$USERI4
 70
     0
  9
$USERI5
 70
     0
  9
$USERR1
 40
0.0
  9
$USERR2
 40
0.0
  9
$USERR3
 40
0.0
  9
$USERR4
 40
0.0
  9
$USERR5
 40
0.0
  9
$WORLDVIEW
 70
     1
  9
$SHADEDGE
 70
     3
  9
$SHADEDIF
 70
    70
  9
$TILEMODE
 70
     1
  9
$MAXACTVP
 70
    64
  9
$PINSBASE
 10
0.0
 20
0.0
 30
0.0
  9
$PLIMCHECK
 70
     0
  9
$PEXTMIN
 10
1.0000000000E+20
 20
1.0000000000E+20
 30
1.0000000000E+20
  9
$PEXTMAX
 10
-1.0000000000E+20
 20
-1.0000000000E+20
 30
-1.0000000000E+20
  9
$PLIMMIN
 10
0.0
 20
0.0
  9
$PLIMMAX
 10
420.0
 20
297.0
  9
$UNITMODE
 70
     0
  9
$VISRETAIN
 70
     1
  9
$PLINEGEN
 70
     0
  9
$PSLTSCALE
 70
     1
  9
$TREEDEPTH
 70
  3020
  9
$PICKSTYLE
 70
     1
  9
$CMLSTYLE
  2
STANDARD
  9
$CMLJUST
 70
     0
  9
$CMLSCALE
 40
20.0
  9
$SAVEIMAGES
 70
     1
  0
ENDSEC
  0
SECTION
  2
CLASSES
  0
CLASS
  1
ACDBDICTIONARYWDFLT
  2
AcDbDictionaryWithDefault
  3
ObjectDBX Classes
 90
    32768
280
     0
281
     0
  0
CLASS
  1
VISUALSTYLE
  2
AcDbVisualStyle
  3
ObjectDBX Classes
 90
     4095
280
     0
281
     0
  0
CLASS
  1
MATERIAL
  2
AcDbMaterial
  3
ObjectDBX Classes
 90
     1153
280
     0
281
     0
  0
CLASS
  1
SCALE
  2
AcDbScale
  3
ObjectDBX Classes
 90
     1153
280
     0
281
     0
  0
CLASS
  1
TABLESTYLE
  2
AcDbTableStyle
  3
ObjectDBX Classes
 90
     4095
280
     0
281
     0
  0
CLASS
  1
MLEADERSTYLE
  2
AcDbMLeaderStyle
  3
ACDB_MLEADERSTYLE_CLASS
 90
     4095
280
     0
281
     0
  0
CLASS
  1
SUN
  2
AcDbSun
  3
SCENEOE
 90
     1153
280
     0
281
     0
  0
CLASS
  1
XRECORD
  2
AcDbXrecord
  3
ObjectDBX Classes
 90
    32768
280
     0
281
     0
  0
ENDSEC
  0
SECTION
  2
TABLES
  0
TABLE
  2
VPORT
  5
8
330
0
100
AcDbSymbolTable
 70
     1
  0
VPORT
  5
29
330
8
100
AcDbSymbolTableRecord
100
AcDbViewportTableRecord
  2
*ACTIVE
 70
     0
 10
0.0
 20
0.0
 11
1.0
 21
1.0
 12
350.0
 22
350.0
 13
0.0
 23
0.0
 14
10.0
 24
10.0
 15
10.0
 25
10.0
 16
0.0
 26
0.0
 36
1.0
 17
0.0
 27
0.0
 37
0.0
 40
700.0
 41
1.0
 42
50.0
 43
0.0
 44
0.0
 50
0.0
 51
0.0
 71
     0
 72
  2000
 73
     1
 74
     3
 75
     0
 76
     0
 77
     0
 78
     0
  0
ENDTAB
  0
TABLE
  2
LTYPE
  5
5
330
0
100
AcDbSymbolTable
 70
     8
  0
LTYPE
  5
14
330
5
100
AcDbSymbolTableRecord
100
AcDbLinetypeTableRecord
  2
BYBLOCK
 70
     0
  3

 72
    65
 73
     0
 40
0.0
  0
LTYPE
  5
15
330
5
100
AcDbSymbolTableRecord
100
AcDbLinetypeTableRecord
  2
BYLAYER
 70
     0
  3

 72
    65
 73
     0
 40
0.0
  0
LTYPE
  5
16
330
5
100
AcDbSymbolTableRecord
100
AcDbLinetypeTableRecord
  2
CONTINUOUS
 70
     0
  3
Solid line
 72
    65
 73
     0
 40
0.0
  0
LTYPE
  5
6E
330
5
100
AcDbSymbolTableRecord
100
AcDbLinetypeTableRecord
  2
SLD-CONTINUA
 70
     0
  3
SolidWorks Line Style
 72
    65
 73
     0
 40
0.0
  0
LTYPE
  5
6F
330
5
100
AcDbSymbolTableRecord
100
AcDbLinetypeTableRecord
  2
SLD-DISCONTINUA
 70
     0
  3
SolidWorks Line Style
 72
    65
 73
     2
 40
1.905
 49
1.27
 74
     0
 49
-0.635
 74
     0
  0
LTYPE
  5
70
330
5
100
AcDbSymbolTableRecord
100
AcDbLinetypeTableRecord
  2
SLD-CENTRADA-DOBLE
 70
     0
  3
SolidWorks Line Style
 72
    65
 73
     6
 40
12.7
 49
6.35
 74
     0
 49
-1.27
 74
     0
 49
1.27
 74
     0
 49
-1.27
 74
     0
 49
1.27
 74
     0
 49
-1.27
 74
     0
  0
LTYPE
  5
71
330
5
100
AcDbSymbolTableRecord
100
AcDbLinetypeTableRecord
  2
SLD-CENTRADA-SIMPLE
 70
     0
  3
SolidWorks Line Style
 72
    65
 73
     4
 40
10.16
 49
6.35
 74
     0
 49
-1.27
 74
     0
 49
1.27
 74
     0
 49
-1.27
 74
     0
  0
LTYPE
  5
72
330
5
100
AcDbSymbolTableRecord
100
AcDbLinetypeTableRecord
  2
SLD-CENTRADA-TRAZOS-LARGOS
 70
     0
  3
SolidWorks Line Style
 72
    65
 73
     4
 40
19.05
 49
15.24
 74
     0
 49
-1.27
 74
     0
 49
1.27
 74
     0
 49
-1.27
 74
     0
  0
LTYPE
  5
73
330
5
100
AcDbSymbolTableRecord
100
AcDbLinetypeTableRecord
  2
SLD-PUNTOS
 70
     0
  3
SolidWorks Line Style
 72
    65
 73
     2
 40
0.635
 49
0.0
 74
     0
 49
-0.635
 74
     0
  0
LTYPE
  5
74
330
5
100
AcDbSymbolTableRecord
100
AcDbLinetypeTableRecord
  2
SLD-DELGADA-GRUESA
 70
     0
  3
SolidWorks Line Style
 72
    65
 73
     4
 40
10.16
 49
6.35
 74
     0
 49
-1.27
 74
     0
 49
1.27
 74
     0
 49
-1.27
 74
     0
  0
ENDTAB
  0
TABLE
  2
LAYER
  5
2
330
0
100
AcDbSymbolTable
 70
     1
  0
LAYER
  5
10
330
2
100
AcDbSymbolTableRecord
100
AcDbLayerTableRecord
  2
0
 70
     0
 62
     7
  6
CONTINUOUS
  0
ENDTAB
  0
TABLE
  2
STYLE
  5
3
330
0
100
AcDbSymbolTable
 70
     1
  0
STYLE
  5
11
330
3
100
AcDbSymbolTableRecord
100
AcDbTextStyleTableRecord
  2
STANDARD
 70
     0
 40
0.0
 41
1.0
 50
0.0
 71
     0
 42
3.5
  3
txt
  4

  0
ENDTAB
  0
TABLE
  2
VIEW
  5
6
330
0
100
AcDbSymbolTable
 70
     0
  0
ENDTAB
  0
TABLE
  2
UCS
  5
7
330
0
100
AcDbSymbolTable
 70
     0
  0
ENDTAB
  0
TABLE
  2
APPID
  5
9
330
0
100
AcDbSymbolTable
 70
     1
  0
APPID
  5
12
330
9
100
AcDbSymbolTableRecord
100
AcDbRegAppTableRecord
  2
ACAD
 70
     0
  0
ENDTAB
  0
TABLE
  2
DIMSTYLE
  5
A
330
0
100
AcDbSymbolTable
 70
     1
  0
DIMSTYLE
105
27
330
A
100
AcDbSymbolTableRecord
100
AcDbDimStyleTableRecord
  2
ISO-25
 70
     0
  3

  4

  5

  6

  7

 40
1.0
 41
2.5
 42
0.625
 43
3.75
 44
1.25
 45
0.0
 46
0.0
 47
0.0
 48
0.0
140
2.5
141
2.5
142
0.0
143
0.0393700787
144
1.0
145
0.0
146
1.0
147
0.625
 71
     0
 72
     0
 73
     0
 74
     0
 75
     0
 76
     0
 77
     1
 78
     8
170
     0
171
     3
172
     1
173
     0
174
     0
175
     0
176
     0
177
     0
178
     0
270
     2
271
     2
272
     2
273
     2
274
     3
340
11
275
     0
280
     0
281
     0
282
     0
283
     0
284
     8
285
     0
286
     0
287
     3
288
     0
  0
ENDTAB
  0
TABLE
  2
BLOCK_RECORD
  5
1
330
0
100
AcDbSymbolTable
 70
     1
  0
BLOCK_RECORD
  5
1F
330
1
100
AcDbSymbolTableRecord
100
AcDbBlockTableRecord
  2
*MODEL_SPACE
  0
BLOCK_RECORD
  5
1B
330
1
100
AcDbSymbolTableRecord
100
AcDbBlockTableRecord
  2
*PAPER_SPACE
  0
BLOCK_RECORD
  5
23
330
1
100
AcDbSymbolTableRecord
100
AcDbBlockTableRecord
  2
*PAPER_SPACE0
  0
ENDTAB
  0
ENDSEC
  0
SECTION
  2
BLOCKS
  0
BLOCK
  5
20
330
1F
100
AcDbEntity
  8
0
100
AcDbBlockBegin
  2
*MODEL_SPACE
 70
     0
 10
0.0
 20
0.0
 30
0.0
  3
*MODEL_SPACE
  1

  0
ENDBLK
  5
21
330
1F
100
AcDbEntity
  8
0
100
AcDbBlockEnd
  0
BLOCK
  5
1C
330
1B
100
AcDbEntity
 67
     1
  8
0
100
AcDbBlockBegin
  2
*PAPER_SPACE
 70
     0
 10
0.0
 20
0.0
 30
0.0
  3
*PAPER_SPACE
  1

  0
ENDBLK
  5
1D
330
1B
100
AcDbEntity
 67
     1
  8
0
100
AcDbBlockEnd
  0
BLOCK
  5
24
330
23
100
AcDbEntity
  8
0
100
AcDbBlockBegin
  2
*PAPER_SPACE0
 70
     0
 10
0.0
 20
0.0
 30
0.0
  3
*PAPER_SPACE0
  1

  0
ENDBLK
  5
25
330
23
100
AcDbEntity
  8
0
100
AcDbBlockEnd
  0
ENDSEC
  0
SECTION
  2
ENTITIES
  0
ARC
  5
75
330
1F
100
AcDbEntity
  8
0
  6
SLD-CONTINUA
 62
     7
100
AcDbCircle
 10
325.7826442131
 20
384.8654443467
 30
0.0
 40
1.250000000000032
100
AcDbArc
 50
0.0
 51
240.0
  0
LINE
  5
76
330
1F
100
AcDbEntity
  8
0
  6
SLD-CONTINUA
 62
     7
100
AcDbLine
 10
311.9450203698
 20
360.8979761053
 30
0.0
 11
325.1576443758
 21
383.7829134578
 31
0.0
  0
ARC
  5
77
330
1F
100
AcDbEntity
  8
0
  6
SLD-CONTINUA
 62
     7
100
AcDbCircle
 10
311.3200199699
 20
359.8154443467
 30
0.0
 40
1.249999999999976
100
AcDbArc
 50
60.0
 51
300.0
  0
LINE
  5
78
330
1F
100
AcDbEntity
  8
0
  6
SLD-CONTINUA
 62
     7
100
AcDbLine
 10
325.1576443758
 20
335.8479752356
 30
0.0
 11
311.9450203698
 21
358.7329125881
 31
0.0
  0
ARC
  5
79
330
1F
100
AcDbEntity
  8
0
  6
SLD-CONTINUA
 62
     7
100
AcDbCircle
 10
325.7826442131
 20
334.7654443467
 30
0.0
 40
1.250000000000057
100
AcDbArc
 50
120.0
 51
0.0
  0
LINE
  5
7A
330
1F
100
AcDbEntity
  8
0
  6
SLD-CONTINUA
 62
     7
100
AcDbLine
 10
353.4578924623
 20
334.7654449904
 30
0.0
 11
327.0326444503
 21
334.7654449904
 31
0.0
  0
ARC
  5
7B
330
1F
100
AcDbEntity
  8
0
  6
SLD-CONTINUA
 62
     7
100
AcDbCircle
 10
354.7078926995
 20
334.7654443467
 30
0.0
 40
1.250000000000004
100
AcDbArc
 50
180.0
 51
60.0
  0
LINE
  5
7C
330
1F
100
AcDbEntity
  8
0
  6
SLD-CONTINUA
 62
     7
100
AcDbLine
 10
368.5455165427
 20
358.7329125881
 30
0.0
 11
355.3328925368
 21
335.8479752356
 31
0.0
  0
ARC
  5
7D
330
1F
100
AcDbEntity
  8
0
  6
SLD-CONTINUA
 62
     7
100
AcDbCircle
 10
369.1705169427
 20
359.8154443467
 30
0.0
 40
1.250000000000004
100
AcDbArc
 50
240.0
 51
120.0
  0
LINE
  5
7E
330
1F
100
AcDbEntity
  8
0
  6
SLD-CONTINUA
 62
     7
100
AcDbLine
 10
355.3328925368
 20
383.7829134578
 30
0.0
 11
368.5455165427
 21
360.8979761053
 31
0.0
  0
ARC
  5
7F
330
1F
100
AcDbEntity
  8
0
  6
SLD-CONTINUA
 62
     7
100
AcDbCircle
 10
354.7078926995
 20
384.8654443467
 30
0.0
 40
1.250000000000004
100
AcDbArc
 50
300.0
 51
180.0
  0
LINE
  5
80
330
1F
100
AcDbEntity
  8
0
  6
SLD-CONTINUA
 62
     7
100
AcDbLine
 10
341.7452684693
 20
384.865443703
 30
0.0
 11
353.4578924623
 21
384.865443703
 31
0.0
  0
ARC
  5
81
330
1F
100
AcDbEntity
  8
0
  6
SLD-CONTINUA
 62
     7
100
AcDbCircle
 10
340.2452684563
 20
384.8654443467
 30
0.0
 40
1.5
100
AcDbArc
 50
0.0
 51
180.0
  0
LINE
  5
82
330
1F
100
AcDbEntity
  8
0
  6
SLD-CONTINUA
 62
     7
100
AcDbLine
 10
327.0326444503
 20
384.865443703
 30
0.0
 11
338.7452684432
 21
384.865443703
 31
0.0
  0
ARC
  5
83
330
1F
100
AcDbEntity
  8
0
  6
SLD-CONTINUA
 62
     7
100
AcDbCircle
 10
366.6287588604
 20
405.7813480096
 30
0.0
 40
15.00000000000005
100
AcDbArc
 50
62.3076923077
 51
94.401687938
  0
LINE
  5
84
330
1F
100
AcDbEntity
  8
0
  6
SLD-CONTINUA
 62
     7
100
AcDbLine
 10
373.5996067148
 20
419.063187685
 30
0.0
 11
369.0482072156
 21
414.1295547748
 31
0.0
  0
ARC
  5
85
330
1F
100
AcDbEntity
  8
0
  6
SLD-CONTINUA
 62
     7
100
AcDbCircle
 10
370.5182178431
 20
412.7734327472
 30
0.0
 40
2.00000000000003
100
AcDbArc
 50
137.3076923077
 51
221.3208494505
  0
LINE
  5
86
330
1F
100
AcDbEntity
  8
0
  6
SLD-CONTINUA
 62
     7
100
AcDbLine
 10
369.016169719
 20
411.4528815413
 30
0.0
 11
390.899035297
 21
402.0328777993
 31
0.0
  0
ARC
  5
87
330
1F
100
AcDbEntity
  8
0
  6
SLD-CONTINUA
 62
     7
100
AcDbCircle
 10
384.9681095684
 20
388.2552113694
 30
0.0
 40
14.99999999999998
100
AcDbArc
 50
34.6153846154
 51
66.7093802457
  0
LINE
  5
88
330
1F
100
AcDbEntity
  8
0
  6
SLD-CONTINUA
 62
     7
100
AcDbLine
 10
397.3128676038
 20
396.7761839891
 30
0.0
 11
390.9900292378
 21
394.5228080416
 31
0.0
  0
ARC
  5
89
330
1F
100
AcDbEntity
  8
0
  6
SLD-CONTINUA
 62
     7
100
AcDbCircle
 10
391.6614382596
 20
392.6388732162
 30
0.0
 40
1.999999999999979
100
AcDbArc
 50
109.6153846154
 51
193.6285417582
  0
LINE
  5
8A
330
1F
100
AcDbEntity
  8
0
  6
SLD-CONTINUA
 62
     7
100
AcDbLine
 10
389.7177494686
 20
392.1676199103
 30
0.0
 11
404.7163717073
 21
373.6571460182
 31
0.0
  0
ARC
  5
8B
330
1F
100
AcDbEntity
  8
0
  6
SLD-CONTINUA
 62
     7
100
AcDbCircle
 10
393.0619963464
 20
364.2138668407
 30
0.0
 40
15.00000000000002
100
AcDbArc
 50
6.9230769231
 51
39.0170725534
  0
LINE
  5
8C
330
1F
100
AcDbEntity
  8
0
  6
SLD-CONTINUA
 62
     7
100
AcDbLine
 10
407.9526282471
 20
366.0219172167
 30
0.0
 11
401.3068370145
 21
366.9650224188
 31
0.0
  0
ARC
  5
8D
330
1F
100
AcDbEntity
  8
0
  6
SLD-CONTINUA
 62
     7
100
AcDbCircle
 10
401.0258338063
 20
364.9848616965
 30
0.0
 40
2.00000000000002
100
AcDbArc
 50
81.9230769231
 51
165.9362340659
  0
LINE
  5
8E
330
1F
100
AcDbEntity
  8
0
  6
SLD-CONTINUA
 62
     7
100
AcDbLine
 10
399.0857816857
 20
365.4708648251
 30
0.0
 11
403.7641577047
 21
342.110447135
 31
0.0
  0
ARC
  5
8F
330
1F
100
AcDbEntity
  8
0
  6
SLD-CONTINUA
 62
     7
100
AcDbCircle
 10
389.0562072752
 20
339.1648967253
 30
0.0
 40
15.00000000000001
100
AcDbArc
 50
339.2307692308
 51
11.324764861
  0
LINE
  5
90
330
1F
100
AcDbEntity
  8
0
  6
SLD-CONTINUA
 62
     7
100
AcDbLine
 10
403.081453554
 20
333.8458235526
 30
0.0
 11
397.6351797205
 21
337.7693551743
 31
0.0
  0
ARC
  5
91
330
1F
100
AcDbEntity
  8
0
  6
SLD-CONTINUA
 62
     7
100
AcDbCircle
 10
396.4661343164
 20
336.1465989601
 30
0.0
 40
2.000000000000048
100
AcDbArc
 50
54.2307692308
 51
138.2439263736
  0
LINE
  5
92
330
1F
100
AcDbEntity
  8
0
  6
SLD-CONTINUA
 62
     7
100
AcDbLine
 10
394.9741601568
 20
337.4785198981
 30
0.0
 11
388.2605276626
 21
314.6197493339
 31
0.0
  0
ARC
  5
93
330
1F
100
AcDbEntity
  8
0
  6
SLD-CONTINUA
 62
     7
100
AcDbCircle
 10
373.8684203563
 20
318.8467182039
 30
0.0
 40
14.99999999999994
100
AcDbArc
 50
311.5384615385
 51
343.6324571687
  0
LINE
  5
94
330
1F
100
AcDbEntity
  8
0
  6
SLD-CONTINUA
 62
     7
100
AcDbLine
 10
383.815261684
 20
307.6190571451
 30
0.0
 11
380.8161794763
 21
313.6241804028
 31
0.0
  0
ARC
  5
95
330
1F
100
AcDbEntity
  8
0
  6
SLD-CONTINUA
 62
     7
100
AcDbCircle
 10
379.0269119929
 20
312.7305834613
 30
0.0
 40
2.000000000000036
100
AcDbArc
 50
26.5384615385
 51
110.5516186813
  0
LINE
  5
96
330
1F
100
AcDbEntity
  8
0
  6
SLD-CONTINUA
 62
     7
100
AcDbLine
 10
378.3248096328
 20
314.6032947266
 30
0.0
 11
361.7571808022
 21
297.4828402663
 31
0.0
  0
ARC
  5
97
330
1F
100
AcDbEntity
  8
0
  6
SLD-CONTINUA
 62
     7
100
AcDbCircle
 10
350.9779745399
 20
307.9139811152
 30
0.0
 40
15.00000000000004
100
AcDbArc
 50
283.8461538462
 51
315.9401494764
  0
LINE
  5
98
330
1F
100
AcDbEntity
  8
0
  6
SLD-CONTINUA
 62
     7
100
AcDbLine
 10
354.5677095276
 20
293.3498504722
 30
0.0
 11
354.7028770294
 21
300.0608678127
 31
0.0
  0
ARC
  5
99
330
1F
100
AcDbEntity
  8
0
  6
SLD-CONTINUA
 62
     7
100
AcDbCircle
 10
352.7032825047
 20
300.1011421573
 30
0.0
 40
1.999999999999993
100
AcDbArc
 50
358.8461538462
 51
82.859310989
  0
LINE
  5
9A
330
1F
100
AcDbEntity
  8
0
  6
SLD-CONTINUA
 62
     7
100
AcDbLine
 10
352.9518946629
 20
302.0856301451
 30
0.0
 11
330.3257153925
 21
294.6255835855
 31
0.0
  0
ARC
  5
9B
330
1F
100
AcDbEntity
  8
0
  6
SLD-CONTINUA
 62
     7
100
AcDbCircle
 10
325.6287951029
 20
308.8712437723
 30
0.0
 40
14.99999999999997
100
AcDbArc
 50
256.1538461538
 51
288.2478417841
  0
LINE
  5
9C
330
1F
100
AcDbEntity
  8
0
  6
SLD-CONTINUA
 62
     7
100
AcDbLine
 10
322.039059512
 20
294.3071159685
 30
0.0
 11
325.2775083851
 21
300.1866075361
 31
0.0
  0
ARC
  5
9D
330
1F
100
AcDbEntity
  8
0
  6
SLD-CONTINUA
 62
     7
100
AcDbCircle
 10
323.5256721332
 20
301.1515278495
 30
0.0
 40
2.000000000000051
100
AcDbArc
 50
331.1538461538
 51
55.1670032967
  0
LINE
  5
9E
330
1F
100
AcDbEntity
  8
0
  6
SLD-CONTINUA
 62
     7
100
AcDbLine
 10
324.6680453044
 20
302.7931670809
 30
0.0
 11
301.1667012792
 21
306.7025314236
 31
0.0
  0
ARC
  5
9F
330
1F
100
AcDbEntity
  8
0
  6
SLD-CONTINUA
 62
     7
100
AcDbCircle
 10
303.6280735636
 20
321.4992088369
 30
0.0
 40
15.0
100
AcDbArc
 50
228.4615384615
 51
260.5555340918
  0
LINE
  5
A0
330
1F
100
AcDbEntity
  8
0
  6
SLD-CONTINUA
 62
     7
100
AcDbLine
 10
293.6812333387
 20
310.271545794
 30
0.0
 11
299.2810748141
 21
313.9725993538
 31
0.0
  0
ARC
  5
A1
330
1F
100
AcDbEntity
  8
0
  6
SLD-CONTINUA
 62
     7
100
AcDbCircle
 10
298.1783197864
 20
315.6411098343
 30
0.0
 40
2.000000000000036
100
AcDbArc
 50
303.4615384615
 51
27.4746956044
  0
LINE
  5
A2
330
1F
100
AcDbEntity
  8
0
  6
SLD-CONTINUA
 62
     7
100
AcDbLine
 10
299.9527483803
 20
316.5638218785
 30
0.0
 11
280.9601120275
 21
330.9470131213
 31
0.0
  0
ARC
  5
A3
330
1F
100
AcDbEntity
  8
0
  6
SLD-CONTINUA
 62
     7
100
AcDbCircle
 10
290.0159100892
 20
342.9049616961
 30
0.0
 40
15.00000000000003
100
AcDbArc
 50
200.7692307692
 51
232.8632263995
  0
LINE
  5
A4
330
1F
100
AcDbEntity
  8
0
  6
SLD-CONTINUA
 62
     7
100
AcDbLine
 10
275.9906641763
 20
337.5858883524
 30
0.0
 11
282.6690442484
 21
338.2606296951
 31
0.0
  0
ARC
  5
A5
330
1F
100
AcDbEntity
  8
0
  6
SLD-CONTINUA
 62
     7
100
AcDbCircle
 10
282.4679984182
 20
340.2504994976
 30
0.0
 40
2.000000000000014
100
AcDbArc
 50
275.7692307692
 51
359.7823879121
  0
LINE
  5
A6
330
1F
100
AcDbEntity
  8
0
  6
SLD-CONTINUA
 62
     7
100
AcDbLine
 10
284.4679832082
 20
340.242903229
 30
0.0
 11
274.3350408595
 21
361.8049025686
 31
0.0
  0
ARC
  5
A7
330
1F
100
AcDbEntity
  8
0
  6
SLD-CONTINUA
 62
     7
100
AcDbCircle
 10
287.9106872872
 20
368.1847023371
 30
0.0
 40
15.00000000000004
100
AcDbArc
 50
173.0769230769
 51
205.1709187072
  0
LINE
  5
A8
330
1F
100
AcDbEntity
  8
0
  6
SLD-CONTINUA
 62
     7
100
AcDbLine
 10
273.0200506371
 20
369.9927521089
 30
0.0
 11
279.2470298331
 21
367.4866105581
 31
0.0
  0
ARC
  5
A9
330
1F
100
AcDbEntity
  8
0
  6
SLD-CONTINUA
 62
     7
100
AcDbCircle
 10
279.9937533241
 20
369.3419822426
 30
0.0
 40
1.999999999999974
100
AcDbArc
 50
248.0769230769
 51
332.0900802198
  0
LINE
  5
AA
330
1F
100
AcDbEntity
  8
0
  6
SLD-CONTINUA
 62
     7
100
AcDbLine
 10
281.7611239474
 20
368.405816626
 30
0.0
 11
282.8092082959
 21
392.2070334816
 31
0.0
  0
ARC
  5
AB
330
1F
100
AcDbEntity
  8
0
  6
SLD-CONTINUA
 62
     7
100
AcDbCircle
 10
297.7946863311
 20
391.547146833
 30
0.0
 40
15.00000000000005
100
AcDbArc
 50
145.3846153846
 51
177.4786110149
  0
LINE
  5
AC
330
1F
100
AcDbEntity
  8
0
  6
SLD-CONTINUA
 62
     7
100
AcDbLine
 10
285.4499287527
 20
400.0681187177
 30
0.0
 11
289.7989779335
 21
394.9552173877
 31
0.0
  0
ARC
  5
AD
330
1F
100
AcDbEntity
  8
0
  6
SLD-CONTINUA
 62
     7
100
AcDbCircle
 10
291.3224042374
 20
396.2510499629
 30
0.0
 40
2.000000000000053
100
AcDbArc
 50
220.3846153846
 51
304.3977725274
  0
LINE
  5
AE
330
1F
100
AcDbEntity
  8
0
  6
SLD-CONTINUA
 62
     7
100
AcDbLine
 10
292.4522749704
 20
394.6007783675
 30
0.0
 11
304.4412836056
 21
415.1886399055
 31
0.0
  0
ARC
  5
AF
330
1F
100
AcDbEntity
  8
0
  6
SLD-CONTINUA
 62
     7
100
AcDbCircle
 10
317.4036021548
 20
407.6402406978
 30
0.0
 40
14.99999999999998
100
AcDbArc
 50
117.6923076923
 51
149.7863033226
  0
LINE
  5
B0
330
1F
100
AcDbEntity
  8
0
  6
SLD-CONTINUA
 62
     7
100
AcDbLine
 10
310.4327536743
 20
420.9220814669
 30
0.0
 11
311.9075663012
 21
414.3737289274
 31
0.0
  0
ARC
  5
B1
330
1F
100
AcDbEntity
  8
0
  6
SLD-CONTINUA
 62
     7
100
AcDbCircle
 10
313.8586937587
 20
414.8131595331
 30
0.0
 40
1.999999999999998
100
AcDbArc
 50
192.6923076923
 51
276.7054648351
  0
LINE
  5
B2
330
1F
100
AcDbEntity
  8
0
  6
SLD-CONTINUA
 62
     7
100
AcDbLine
 10
314.0922255438
 20
412.8268393839
 30
0.0
 11
334.2756216038
 21
425.484913882
 31
0.0
  0
ARC
  5
B3
330
1F
100
AcDbEntity
  8
0
  6
SLD-CONTINUA
 62
     7
100
AcDbCircle
 10
342.2452684563
 20
412.7772500698
 30
0.0
 40
14.99999999999999
100
AcDbArc
 50
90.0
 51
122.0939956303
  0
LINE
  5
B4
330
1F
100
AcDbEntity
  8
0
  6
SLD-CONTINUA
 62
     7
100
AcDbLine
 10
342.2452685513
 20
427.7772489155
 30
0.0
 11
340.5079779072
 21
421.2935934925
 31
0.0
  0
ARC
  5
B5
330
1F
100
AcDbEntity
  8
0
  6
SLD-CONTINUA
 62
     7
100
AcDbCircle
 10
342.4398295506
 20
420.7759553485
 30
0.0
 40
1.999999999999995
100
AcDbArc
 50
165.0
 51
249.0131571428
  0
LINE
  5
B6
330
1F
100
AcDbEntity
  8
0
  6
SLD-CONTINUA
 62
     7
100
AcDbLine
 10
341.7235224365
 20
418.9086291158
 30
0.0
 11
365.4775332283
 21
420.7371059025
 31
0.0
  0
ENDSEC
  0
SECTION
  2
OBJECTS
  0
DICTIONARY
  5
C
330
0
100
AcDbDictionary
  3
ACAD_GROUP
350
D
  3
ACAD_MLINESTYLE
350
17
  3
ACAD_SCALELIST
350
47
1001
ACAD
1000
TREAT_AS_HARD
1070
     0
  0
DICTIONARY
  5
D
102
{ACAD_REACTORS
330
C
102
}
330
C
100
AcDbDictionary
1001
ACAD
1000
TREAT_AS_HARD
1070
     0
  0
DICTIONARY
  5
17
102
{ACAD_REACTORS
330
C
102
}
330
C
100
AcDbDictionary
  3
STANDARD
350
18
1001
ACAD
1000
TREAT_AS_HARD
1070
     0
  0
DICTIONARY
  5
47
102
{ACAD_REACTORS
330
C
102
}
330
C
100
AcDbDictionary
1001
ACAD
1000
TREAT_AS_HARD
1070
     0
  0
MLINESTYLE
  5
18
102
{ACAD_REACTORS
330
17
102
}
330
17
100
AcDbMlineStyle
  2
Standard
 70
     0
  3

 62
   256
 51
90.0
 52
90.0
 71
     2
 49
0.5
 62
   256
  6
BYLAYER
 49
-0.5
 62
   256
  6
BYLAYER
  0
ENDSEC
  0
EOF
