  0
SECTION
  2
HEADER
  9
$ACADVER
  1
AC1012
  9
$DWGCODEPAGE
  3
ansi_1252
  9
$INSBASE
 10
0.0
 20
0.0
 30
0.0
  9
$EXTMIN
 10
0.0
 20
0.0
 30
0.0
  9
$EXTMAX
 10
700.0
 20
700.0
 30
0.0
  9
$LIMMIN
 10
0.0
 20
0.0
  9
$LIMMAX
 10
700.0
 20
700.0
  9
$ORTHOMODE
 70
     0
  9
$REGENMODE
 70
     1
  9
$FILLMODE
 70
     1
  9
$QTEXTMODE
 70
     0
  9
$MIRRTEXT
 70
     1
  9
$DRAGMODE
 70
     2
  9
$LTSCALE
 40
1.0
  9
$OSMODE
 70
    37
  9
$ATTMODE
 70
     1
  9
$TEXTSIZE
 40
3.5
  9
$TRACEWID
 40
1.0
  9
$TEXTSTYLE
  7
STANDARD
  9
$CLAYER
  8
0
  9
$CELTYPE
  6
BYLAYER
  9
$CECOLOR
 62
   256
  9
$CELTSCALE
 40
1.0
  9
$DELOBJ
 70
     1
  9
$DISPSILH
 70
     0
  9
$DIMSCALE
 40
1.0
  9
$DIMASZ
 40
3.302
  9
$DIMEXO
 40
1.0
  9
$DIMDLI
 40
3.75
  9
$DIMRND
 40
0.0
  9
$DIMDLE
 40
0.0
  9
$DIMEXE
 40
1.0
  9
$DIMTP
 40
0.0
  9
$DIMTM
 40
0.0
  9
$DIMTXT
 40
3.5
  9
$DIMCEN
 40
2.5
  9
$DIMTSZ
 40
0.0
  9
$DIMTOL
 70
     0
  9
$DIMLIM
 70
     0
  9
$DIMTIH
 70
     1
  9
$DIMTOH
 70
     1
  9
$DIMSE1
 70
     0
  9
$DIMSE2
 70
     0
  9
$DIMTAD
 70
     1
  9
$DIMZIN
 70
     1
  9
$DIMBLK
  1

  9
$DIMASO
 70
     1
  9
$DIMSHO
 70
     1
  9
$DIMPOST
  1

  9
$DIMAPOST
  1

  9
$DIMALT
 70
     0
  9
$DIMALTD
 70
     3
  9
$DIMALTF
 40
0.0393700787
  9
$DIMLFAC
 40
1.0
  9
$DIMTOFL
 70
     1
  9
$DIMTVP
 40
0.0
  9
$DIMTIX
 70
     0
  9
$DIMSOXD
 70
     0
  9
$DIMSAH
 70
     0
  9
$DIMBLK1
  1

  9
$DIMBLK2
  1

  9
$DIMSTYLE
  2
ISO-25
  9
$DIMCLRD
 70
     0
  9
$DIMCLRE
 70
     0
  9
$DIMCLRT
 70
     0
  9
$DIMTFAC
 40
1.0
  9
$DIMGAP
 40
1.524
  9
$DIMJUST
 70
     0
  9
$DIMSD1
 70
     0
  9
$DIMSD2
 70
     0
  9
$DIMTOLJ
 70
     0
  9
$DIMTZIN
 70
     1
  9
$DIMALTZ
 70
     0
  9
$DIMALTTZ
 70
     0
  9
$DIMFIT
 70
     3
  9
$DIMUPT
 70
     0
  9
$DIMUNIT
 70
     2
  9
$DIMDEC
 70
     2
  9
$DIMTDEC
 70
     2
  9
$DIMALTU
 70
     2
  9
$DIMALTTD
 70
     3
  9
$DIMTXSTY
  7
STANDARD
  9
$DIMAUNIT
 70
     0
  9
$LUNITS
 70
     2
  9
$LUPREC
 70
     2
  9
$SKETCHINC
 40
1.0
  9
$FILLETRAD
 40
10.0
  9
$AUNITS
 70
     0
  9
$AUPREC
 70
     2
  9
$MENU
  1
.
  9
$ELEVATION
 40
0.0
  9
$PELEVATION
 40
0.0
  9
$THICKNESS
 40
0.0
  9
$LIMCHECK
 70
     0
  9
$CHAMFERA
 40
0.0
  9
$CHAMFERB
 40
0.0
  9
$CHAMFERC
 40
0.0
  9
$CHAMFERD
 40
0.0
  9
$SKPOLY
 70
     0
  9
$TDCREATE
 40
2458843.785071076
  9
$TDUPDATE
 40
2458843.785071354
  9
$TDINDWG
 40
0.0000000116
  9
$TDUSRTIMER
 40
0.0000000116
  9
$USRTIMER
 70
     1
  9
$ANGBASE
 50
0.0
  9
$ANGDIR
 70
     0
  9
$PDMODE
 70
     0
  9
$PDSIZE
 40
-1.0
  9
$PLINEWID
 40
0.0
  9
$COORDS
 70
     1
  9
$SPLFRAME
 70
     0
  9
$SPLINETYPE
 70
     6
  9
$SPLINESEGS
 70
     8
  9
$ATTDIA
 70
     0
  9
$ATTREQ
 70
     1
  9
$HANDLING
 70
     1
  9
$HANDSEED
  5
9D
  9
$SURFTAB1
 70
     6
  9
$SURFTAB2
 70
     6
  9
$SURFTYPE
 70
     6
  9
$SURFU
 70
     6
  9
$SURFV
 70
     6
  9
$UCSNAME
  2

  9
$UCSORG
 10
0.0
 20
0.0
 30
0.0
  9
$UCSXDIR
 10
1.0
 20
0.0
 30
0.0
  9
$UCSYDIR
 10
0.0
 20
1.0
 30
0.0
  9
$PUCSNAME
  2

  9
$PUCSORG
 10
0.0
 20
0.0
 30
0.0
  9
$PUCSXDIR
 10
1.0
 20
0.0
 30
0.0
  9
$PUCSYDIR
 10
0.0
 20
1.0
 30
0.0
  9
$USERI1
 70
     0
  9
$USERI2
 70
     0
  9
$USERI3
 70
     0
  9
$USERI4
 70
     0
  9
$USERI5
 70
     0
  9
$USERR1
 40
0.0
  9
$USERR2
 40
0.0
  9
$USERR3
 40
0.0
  9
$USERR4
 40
0.0
  9
$USERR5
 40
0.0
  9
$WORLDVIEW
 70
     1
  9
$SHADEDGE
 70
     3
  9
$SHADEDIF
 70
    70
  9
$TILEMODE
 70
     1
  9
$MAXACTVP
 70
    64
  9
$PINSBASE
 10
0.0
 20
0.0
 30
0.0
  9
$PLIMCHECK
 70
     0
  9
$PEXTMIN
 10
1.0000000000E+20
 20
1.0000000000E+20
 30
1.0000000000E+20
  9
$PEXTMAX
 10
-1.0000000000E+20
 20
-1.0000000000E+20
 30
-1.0000000000E+20
  9
$PLIMMIN
 10
0.0
 20
0.0
  9
$PLIMMAX
 10
420.0
 20
297.0
  9
$UNITMODE
 70
     0
  9
$VISRETAIN
 70
     1
  9
$PLINEGEN
 70
     0
  9
$PSLTSCALE
 70
     1
  9
$TREEDEPTH
 70
  3020
  9
$PICKSTYLE
 70
     1
  9
$CMLSTYLE
  2
STANDARD
  9
$CMLJUST
 70
     0
  9
$CMLSCALE
 40
20.0
  9
$SAVEIMAGES
 70
     1
  0
ENDSEC
  0
SECTION
  2
CLASSES
  0
CLASS
  1
ACDBDICTIONARYWDFLT
  2
AcDbDictionaryWithDefault
  3
ObjectDBX Classes
 90
    32768
280
     0
281
     0
  0
CLASS
  1
VISUALSTYLE
  2
AcDbVisualStyle
  3
ObjectDBX Classes
 90
     4095
280
     0
281
     0
  0
CLASS
  1
MATERIAL
  2
AcDbMaterial
  3
ObjectDBX Classes
 90
     1153
280
     0
281
     0
  0
CLASS
  1
SCALE
  2
AcDbScale
  3
ObjectDBX Classes
 90
     1153
280
     0
281
     0
  0
CLASS
  1
TABLESTYLE
  2
AcDbTableStyle
  3
ObjectDBX Classes
 90
     4095
280
     0
281
     0
  0
CLASS
  1
MLEADERSTYLE
  2
AcDbMLeaderStyle
  3
ACDB_MLEADERSTYLE_CLASS
 90
     4095
280
     0
281
     0
  0
CLASS
  1
SUN
  2
AcDbSun
  3
SCENEOE
 90
     1153
280
     0
281
     0
  0
CLASS
  1
XRECORD
  2
AcDbXrecord
  3
ObjectDBX Classes
 90
    32768
280
     0
281
     0
  0
ENDSEC
  0
SECTION
  2
TABLES
  0
TABLE
  2
VPORT
  5
8
330
0
100
AcDbSymbolTable
 70
     1
  0
VPORT
  5
29
330
8
100
AcDbSymbolTableRecord
100
AcDbViewportTableRecord
  2
*ACTIVE
 70
     0
 10
0.0
 20
0.0
 11
1.0
 21
1.0
 12
350.0
 22
350.0
 13
0.0
 23
0.0
 14
10.0
 24
10.0
 15
10.0
 25
10.0
 16
0.0
 26
0.0
 36
1.0
 17
0.0
 27
0.0
 37
0.0
 40
700.0
 41
1.0
 42
50.0
 43
0.0
 44
0.0
 50
0.0
 51
0.0
 71
     0
 72
  2000
 73
     1
 74
     3
 75
     0
 76
     0
 77
     0
 78
     0
  0
ENDTAB
  0
TABLE
  2
LTYPE
  5
5
330
0
100
AcDbSymbolTable
 70
     8
  0
LTYPE
  5
14
330
5
100
AcDbSymbolTableRecord
100
AcDbLinetypeTableRecord
  2
BYBLOCK
 70
     0
  3

 72
    65
 73
     0
 40
0.0
  0
LTYPE
  5
15
330
5
100
AcDbSymbolTableRecord
100
AcDbLinetypeTableRecord
  2
BYLAYER
 70
     0
  3

 72
    65
 73
     0
 40
0.0
  0
LTYPE
  5
16
330
5
100
AcDbSymbolTableRecord
100
AcDbLinetypeTableRecord
  2
CONTINUOUS
 70
     0
  3
Solid line
 72
    65
 73
     0
 40
0.0
  0
LTYPE
  5
6E
330
5
100
AcDbSymbolTableRecord
100
AcDbLinetypeTableRecord
  2
SLD-CONTINUA
 70
     0
  3
SolidWorks Line Style
 72
    65
 73
     0
 40
0.0
  0
LTYPE
  5
6F
330
5
100
AcDbSymbolTableRecord
100
AcDbLinetypeTableRecord
  2
SLD-DISCONTINUA
 70
     0
  3
SolidWorks Line Style
 72
    65
 73
     2
 40
1.905
 49
1.27
 74
     0
 49
-0.635
 74
     0
  0
LTYPE
  5
70
330
5
100
AcDbSymbolTableRecord
100
AcDbLinetypeTableRecord
  2
SLD-CENTRADA-DOBLE
 70
     0
  3
SolidWorks Line Style
 72
    65
 73
     6
 40
12.7
 49
6.35
 74
     0
 49
-1.27
 74
     0
 49
1.27
 74
     0
 49
-1.27
 74
     0
 49
1.27
 74
     0
 49
-1.27
 74
     0
  0
LTYPE
  5
71
330
5
100
AcDbSymbolTableRecord
100
AcDbLinetypeTableRecord
  2
SLD-CENTRADA-SIMPLE
 70
     0
  3
SolidWorks Line Style
 72
    65
 73
     4
 40
10.16
 49
6.35
 74
     0
 49
-1.27
 74
     0
 49
1.27
 74
     0
 49
-1.27
 74
     0
  0
LTYPE
  5
72
330
5
100
AcDbSymbolTableRecord
100
AcDbLinetypeTableRecord
  2
SLD-CENTRADA-TRAZOS-LARGOS
 70
     0
  3
SolidWorks Line Style
 72
    65
 73
     4
 40
19.05
 49
15.24
 74
     0
 49
-1.27
 74
     0
 49
1.27
 74
     0
 49
-1.27
 74
     0
  0
LTYPE
  5
73
330
5
100
AcDbSymbolTableRecord
100
AcDbLinetypeTableRecord
  2
SLD-PUNTOS
 70
     0
  3
SolidWorks Line Style
 72
    65
 73
     2
 40
0.635
 49
0.0
 74
     0
 49
-0.635
 74
     0
  0
LTYPE
  5
74
330
5
100
AcDbSymbolTableRecord
100
AcDbLinetypeTableRecord
  2
SLD-DELGADA-GRUESA
 70
     0
  3
SolidWorks Line Style
 72
    65
 73
     4
 40
10.16
 49
6.35
 74
     0
 49
-1.27
 74
     0
 49
1.27
 74
     0
 49
-1.27
 74
     0
  0
ENDTAB
  0
TABLE
  2
LAYER
  5
2
330
0
100
AcDbSymbolTable
 70
     1
  0
LAYER
  5
10
330
2
100
AcDbSymbolTableRecord
100
AcDbLayerTableRecord
  2
0
 70
     0
 62
     7
  6
CONTINUOUS
  0
ENDTAB
  0
TABLE
  2
STYLE
  5
3
330
0
100
AcDbSymbolTable
 70
     1
  0
STYLE
  5
11
330
3
100
AcDbSymbolTableRecord
100
AcDbTextStyleTableRecord
  2
STANDARD
 70
     0
 40
0.0
 41
1.0
 50
0.0
 71
     0
 42
3.5
  3
txt
  4

  0
ENDTAB
  0
TABLE
  2
VIEW
  5
6
330
0
100
AcDbSymbolTable
 70
     0
  0
ENDTAB
  0
TABLE
  2
UCS
  5
7
330
0
100
AcDbSymbolTable
 70
     0
  0
ENDTAB
  0
TABLE
  2
APPID
  5
9
330
0
100
AcDbSymbolTable
 70
     1
  0
APPID
  5
12
330
9
100
AcDbSymbolTableRecord
100
AcDbRegAppTableRecord
  2
ACAD
 70
     0
  0
ENDTAB
  0
TABLE
  2
DIMSTYLE
  5
A
330
0
100
AcDbSymbolTable
 70
     1
  0
DIMSTYLE
105
27
330
A
100
AcDbSymbolTableRecord
100
AcDbDimStyleTableRecord
  2
ISO-25
 70
     0
  3

  4

  5

  6

  7

 40
1.0
 41
2.5
 42
0.625
 43
3.75
 44
1.25
 45
0.0
 46
0.0
 47
0.0
 48
0.0
140
2.5
141
2.5
142
0.0
143
0.0393700787
144
1.0
145
0.0
146
1.0
147
0.625
 71
     0
 72
     0
 73
     0
 74
     0
 75
     0
 76
     0
 77
     1
 78
     8
170
     0
171
     3
172
     1
173
     0
174
     0
175
     0
176
     0
177
     0
178
     0
270
     2
271
     2
272
     2
273
     2
274
     3
340
11
275
     0
280
     0
281
     0
282
     0
283
     0
284
     8
285
     0
286
     0
287
     3
288
     0
  0
ENDTAB
  0
TABLE
  2
BLOCK_RECORD
  5
1
330
0
100
AcDbSymbolTable
 70
     1
  0
BLOCK_RECORD
  5
1F
330
1
100
AcDbSymbolTableRecord
100
AcDbBlockTableRecord
  2
*MODEL_SPACE
  0
BLOCK_RECORD
  5
1B
330
1
100
AcDbSymbolTableRecord
100
AcDbBlockTableRecord
  2
*PAPER_SPACE
  0
BLOCK_RECORD
  5
23
330
1
100
AcDbSymbolTableRecord
100
AcDbBlockTableRecord
  2
*PAPER_SPACE0
  0
ENDTAB
  0
ENDSEC
  0
SECTION
  2
BLOCKS
  0
BLOCK
  5
20
330
1F
100
AcDbEntity
  8
0
100
AcDbBlockBegin
  2
*MODEL_SPACE
 70
     0
 10
0.0
 20
0.0
 30
0.0
  3
*MODEL_SPACE
  1

  0
ENDBLK
  5
21
330
1F
100
AcDbEntity
  8
0
100
AcDbBlockEnd
  0
BLOCK
  5
1C
330
1B
100
AcDbEntity
 67
     1
  8
0
100
AcDbBlockBegin
  2
*PAPER_SPACE
 70
     0
 10
0.0
 20
0.0
 30
0.0
  3
*PAPER_SPACE
  1

  0
ENDBLK
  5
1D
330
1B
100
AcDbEntity
 67
     1
  8
0
100
AcDbBlockEnd
  0
BLOCK
  5
24
330
23
100
AcDbEntity
  8
0
100
AcDbBlockBegin
  2
*PAPER_SPACE0
 70
     0
 10
0.0
 20
0.0
 30
0.0
  3
*PAPER_SPACE0
  1

  0
ENDBLK
  5
25
330
23
100
AcDbEntity
  8
0
100
AcDbBlockEnd
  0
ENDSEC
  0
SECTION
  2
ENTITIES
  0
ARC
  5
75
330
1F
100
AcDbEntity
  8
0
  6
SLD-CONTINUA
 62
     7
100
AcDbCircle
 10
316.5481664275
 20
349.1326852624
 30
0.0
 40
0.9999999999999929
100
AcDbArc
 50
65.0
 51
305.0
  0
LINE
  5
76
330
1F
100
AcDbEntity
  8
0
  6
SLD-CONTINUA
 62
     7
100
AcDbLine
 10
332.5654311653
 20
326.2576601075
 30
0.0
 11
317.1217429067
 21
348.3135332892
 31
0.0
  0
ARC
  5
77
330
1F
100
AcDbEntity
  8
0
  6
SLD-CONTINUA
 62
     7
100
AcDbCircle
 10
333.1390073749
 20
325.4385088332
 30
0.0
 40
1.00000000000001
100
AcDbArc
 50
125.0
 51
5.0
  0
LINE
  5
78
330
1F
100
AcDbEntity
  8
0
  6
SLD-CONTINUA
 62
     7
100
AcDbLine
 10
360.9579919453
 20
327.8723555224
 30
0.0
 11
334.1352023731
 21
325.5256647782
 31
0.0
  0
ARC
  5
79
330
1F
100
AcDbEntity
  8
0
  6
SLD-CONTINUA
 62
     7
100
AcDbCircle
 10
361.9541865581
 20
327.9595103492
 30
0.0
 40
1.000000000000037
100
AcDbArc
 50
185.0
 51
65.0
  0
LINE
  5
7A
330
1F
100
AcDbEntity
  8
0
  6
SLD-CONTINUA
 62
     7
100
AcDbLine
 10
373.7559063907
 20
353.2683805635
 30
0.0
 11
362.3768041457
 21
328.8658178018
 31
0.0
  0
ARC
  5
7B
330
1F
100
AcDbEntity
  8
0
  6
SLD-CONTINUA
 62
     7
100
AcDbCircle
 10
374.1785247938
 20
354.1746882944
 30
0.0
 40
1.000000000000037
100
AcDbArc
 50
245.0
 51
125.0
  0
LINE
  5
7C
330
1F
100
AcDbEntity
  8
0
  6
SLD-CONTINUA
 62
     7
100
AcDbLine
 10
358.1612600561
 20
377.0497134494
 30
0.0
 11
373.6049483146
 21
354.9938402677
 31
0.0
  0
ARC
  5
7D
330
1F
100
AcDbEntity
  8
0
  6
SLD-CONTINUA
 62
     7
100
AcDbCircle
 10
357.5876838464
 20
377.8688647236
 30
0.0
 40
1.000000000000012
100
AcDbArc
 50
305.0
 51
185.0
  0
LINE
  5
7E
330
1F
100
AcDbEntity
  8
0
  6
SLD-CONTINUA
 62
     7
100
AcDbLine
 10
348.6467538483
 20
377.0866348015
 30
0.0
 11
356.5914888482
 21
377.7817087786
 31
0.0
  0
ARC
  5
7F
330
1F
100
AcDbEntity
  8
0
  6
SLD-CONTINUA
 62
     7
100
AcDbCircle
 10
347.6505592193
 20
376.9994789707
 30
0.0
 40
1.00000000000001
100
AcDbArc
 50
5.0
 51
185.0
  0
LINE
  5
80
330
1F
100
AcDbEntity
  8
0
  6
SLD-CONTINUA
 62
     7
100
AcDbLine
 10
329.768699276
 20
375.4350180345
 30
0.0
 11
346.6543645214
 21
376.9123228805
 31
0.0
  0
ARC
  5
81
330
1F
100
AcDbEntity
  8
0
  6
SLD-CONTINUA
 62
     7
100
AcDbCircle
 10
328.7725046633
 20
375.3478632076
 30
0.0
 40
1.000000000000013
100
AcDbArc
 50
5.0
 51
245.0
  0
LINE
  5
82
330
1F
100
AcDbEntity
  8
0
  6
SLD-CONTINUA
 62
     7
100
AcDbLine
 10
324.9794716562
 20
367.2136758061
 30
0.0
 11
328.3498870756
 21
374.441555755
 31
0.0
  0
ARC
  5
83
330
1F
100
AcDbEntity
  8
0
  6
SLD-CONTINUA
 62
     7
100
AcDbCircle
 10
324.5568524974
 20
366.3073679635
 30
0.0
 40
1.000000000000037
100
AcDbArc
 50
65.0
 51
245.0
  0
LINE
  5
84
330
1F
100
AcDbEntity
  8
0
  6
SLD-CONTINUA
 62
     7
100
AcDbLine
 10
316.9707848306
 20
350.0389929933
 30
0.0
 11
324.1342349525
 21
365.4010603743
 31
0.0
  0
ARC
  5
85
330
1F
100
AcDbEntity
  8
0
  6
SLD-CONTINUA
 62
     7
100
AcDbCircle
 10
370.5789797025
 20
363.9025388324
 30
0.0
 40
39.99999999999999
100
AcDbArc
 50
30.0
 51
59.8795116551
  0
LINE
  5
86
330
1F
100
AcDbEntity
  8
0
  6
SLD-CONTINUA
 62
     7
100
AcDbLine
 10
405.2199950989
 20
383.9025376903
 30
0.0
 11
398.7363396759
 21
382.1652485596
 31
0.0
  0
ARC
  5
87
330
1F
100
AcDbEntity
  8
0
  6
SLD-CONTINUA
 62
     7
100
AcDbCircle
 10
399.2539773131
 20
380.2333966215
 30
0.0
 40
2.00000000000007
100
AcDbArc
 50
105.0
 51
201.4378274288
  0
ARC
  5
88
330
1F
100
AcDbEntity
  8
0
  6
SLD-CONTINUA
 62
     7
100
AcDbCircle
 10
318.5790902591
 20
336.0458789482
 30
0.0
 40
89.99999999999999
100
AcDbArc
 50
359.8795116551
 51
28.8717313897
  0
ARC
  5
89
330
1F
100
AcDbEntity
  8
0
  6
SLD-CONTINUA
 62
     7
100
AcDbCircle
 10
368.5789797025
 20
335.9407331093
 30
0.0
 40
40.00000000000002
100
AcDbArc
 50
330.0
 51
359.8795116551
  0
LINE
  5
8A
330
1F
100
AcDbEntity
  8
0
  6
SLD-CONTINUA
 62
     7
100
AcDbLine
 10
403.219994771
 20
315.9407331215
 30
0.0
 11
398.4736284788
 21
320.6870994137
 31
0.0
  0
ARC
  5
8B
330
1F
100
AcDbEntity
  8
0
  6
SLD-CONTINUA
 62
     7
100
AcDbCircle
 10
397.0594162188
 20
319.2728856197
 30
0.0
 40
2.000000000000016
100
AcDbArc
 50
45.0
 51
141.4378274288
  0
ARC
  5
8C
330
1F
100
AcDbEntity
  8
0
  6
SLD-CONTINUA
 62
     7
100
AcDbCircle
 10
318.4544598566
 20
367.0456284192
 30
0.0
 40
90.00000000000003
100
AcDbArc
 50
299.8795116551
 51
328.8717313897
  0
ARC
  5
8D
330
1F
100
AcDbEntity
  8
0
  6
SLD-CONTINUA
 62
     7
100
AcDbCircle
 10
343.3633456107
 20
323.6918810553
 30
0.0
 40
40.00000000000006
100
AcDbArc
 50
270.0
 51
299.8795116551
  0
LINE
  5
8E
330
1F
100
AcDbEntity
  8
0
  6
SLD-CONTINUA
 62
     7
100
AcDbLine
 10
343.3633455157
 20
283.6918822097
 30
0.0
 11
345.1006361597
 21
290.1755376326
 31
0.0
  0
ARC
  5
8F
330
1F
100
AcDbEntity
  8
0
  6
SLD-CONTINUA
 62
     7
100
AcDbCircle
 10
343.1687845164
 20
290.6931757766
 30
0.0
 40
1.999999999999991
100
AcDbArc
 50
345.0
 51
81.4378274288
  0
ARC
  5
90
330
1F
100
AcDbEntity
  8
0
  6
SLD-CONTINUA
 62
     7
100
AcDbCircle
 10
345.2387152081
 20
382.6534362494
 30
0.0
 40
90.00000000000003
100
AcDbArc
 50
239.8795116551
 51
268.8717313897
  0
ARC
  5
91
330
1F
100
AcDbEntity
  8
0
  6
SLD-CONTINUA
 62
     7
100
AcDbCircle
 10
320.1477115188
 20
339.4048347245
 30
0.0
 40
39.99999999999996
100
AcDbArc
 50
210.0
 51
239.8795116551
  0
LINE
  5
92
330
1F
100
AcDbEntity
  8
0
  6
SLD-CONTINUA
 62
     7
100
AcDbLine
 10
285.5066961224
 20
319.4048358666
 30
0.0
 11
291.9903515454
 21
321.1421249973
 31
0.0
  0
ARC
  5
93
330
1F
100
AcDbEntity
  8
0
  6
SLD-CONTINUA
 62
     7
100
AcDbCircle
 10
291.4727139083
 20
323.0739769353
 30
0.0
 40
1.999999999999991
100
AcDbArc
 50
285.0
 51
21.4378274288
  0
ARC
  5
94
330
1F
100
AcDbEntity
  8
0
  6
SLD-CONTINUA
 62
     7
100
AcDbCircle
 10
372.1476009622
 20
367.2614946086
 30
0.0
 40
90.0
100
AcDbArc
 50
179.8795116551
 51
208.8717313897
  0
LINE
  5
95
330
1F
100
AcDbEntity
  8
0
  6
SLD-CONTINUA
 62
     7
100
AcDbLine
 10
287.5066964503
 20
387.3666404353
 30
0.0
 11
292.2530627425
 21
382.6202741431
 31
0.0
  0
ARC
  5
96
330
1F
100
AcDbEntity
  8
0
  6
SLD-CONTINUA
 62
     7
100
AcDbCircle
 10
293.6672750025
 20
384.0344879371
 30
0.0
 40
1.999999999999975
100
AcDbArc
 50
225.0
 51
321.4378274288
  0
ARC
  5
97
330
1F
100
AcDbEntity
  8
0
  6
SLD-CONTINUA
 62
     7
100
AcDbCircle
 10
372.2722313647
 20
336.2617451376
 30
0.0
 40
90.00000000000028
100
AcDbArc
 50
119.8795116551
 51
148.8717313897
  0
ARC
  5
98
330
1F
100
AcDbEntity
  8
0
  6
SLD-CONTINUA
 62
     7
100
AcDbCircle
 10
347.3633456107
 20
379.6154925015
 30
0.0
 40
40.00000000000001
100
AcDbArc
 50
90.0
 51
119.8795116551
  0
LINE
  5
99
330
1F
100
AcDbEntity
  8
0
  6
SLD-CONTINUA
 62
     7
100
AcDbLine
 10
347.3633457057
 20
419.6154913472
 30
0.0
 11
345.6260550616
 21
413.1318359243
 31
0.0
  0
ARC
  5
9A
330
1F
100
AcDbEntity
  8
0
  6
SLD-CONTINUA
 62
     7
100
AcDbCircle
 10
347.5579067049
 20
412.6141977802
 30
0.0
 40
2.000000000000272
100
AcDbArc
 50
165.0
 51
261.4378274288
  0
ARC
  5
9B
330
1F
100
AcDbEntity
  8
0
  6
SLD-CONTINUA
 62
     7
100
AcDbCircle
 10
345.4879760132
 20
320.6539373075
 30
0.0
 40
90.00000000000001
100
AcDbArc
 50
59.8795116551
 51
88.8717313897
  0
ARC
  5
9C
330
1F
100
AcDbEntity
  8
0
  6
SLD-CONTINUA
 62
     7
100
AcDbCircle
 10
322.1477115188
 20
367.3666404475
 30
0.0
 40
39.99999999999998
100
AcDbArc
 50
150.0
 51
179.8795116551
  0
ENDSEC
  0
SECTION
  2
OBJECTS
  0
DICTIONARY
  5
C
330
0
100
AcDbDictionary
  3
ACAD_GROUP
350
D
  3
ACAD_MLINESTYLE
350
17
  3
ACAD_SCALELIST
350
47
1001
ACAD
1000
TREAT_AS_HARD
1070
     0
  0
DICTIONARY
  5
D
102
{ACAD_REACTORS
330
C
102
}
330
C
100
AcDbDictionary
1001
ACAD
1000
TREAT_AS_HARD
1070
     0
  0
DICTIONARY
  5
17
102
{ACAD_REACTORS
330
C
102
}
330
C
100
AcDbDictionary
  3
STANDARD
350
18
1001
ACAD
1000
TREAT_AS_HARD
1070
     0
  0
DICTIONARY
  5
47
102
{ACAD_REACTORS
330
C
102
}
330
C
100
AcDbDictionary
1001
ACAD
1000
TREAT_AS_HARD
1070
     0
  0
MLINESTYLE
  5
18
102
{ACAD_REACTORS
330
17
102
}
330
17
100
AcDbMlineStyle
  2
Standard
 70
     0
  3

 62
   256
 51
90.0
 52
90.0
 71
     2
 49
0.5
 62
   256
  6
BYLAYER
 49
-0.5
 62
   256
  6
BYLAYER
  0
ENDSEC
  0
EOF
