<svg xmlns="http://www.w3.org/2000/svg" viewBox="0 0 671.63 814.66"><title>Precious Plastic Logo vertical</title><g id="PP_logo_vertical" data-name="PP logo vertical"><g id="color-2" data-name="color"><g id="text-3" data-name="text"><path d="M104.07,554.92c-4-2.15-9.3-3.24-15.66-3.24H65.61a4.61,4.61,0,0,0-3.46,1.46,4.9,4.9,0,0,0-1.39,3.49v61.2a4.78,4.78,0,0,0,4.85,4.85,4.91,4.91,0,0,0,3.49-1.39,4.66,4.66,0,0,0,1.45-3.46V596.78H88.41c6.36,0,11.63-1.09,15.66-3.24a20.15,20.15,0,0,0,8.75-8.35,24.15,24.15,0,0,0,0-21.92A20.26,20.26,0,0,0,104.07,554.92Zm1.59,19.31a12.5,12.5,0,0,1-4,9.45c-2.69,2.52-7.44,3.8-14.11,3.8h-17V561h17c6.67,0,11.42,1.28,14.11,3.81A12.49,12.49,0,0,1,105.66,574.23Z" style="fill:#141414"/><path d="M189.05,613.23a39.58,39.58,0,0,0-2.67-14,14,14,0,0,0-9.06-8.86,18.77,18.77,0,0,0,8.92-6.92,19.49,19.49,0,0,0,3.42-11.15,18.57,18.57,0,0,0-6.93-15c-4.58-3.77-11.52-5.68-20.62-5.68h-23.3a4.61,4.61,0,0,0-3.46,1.46,4.9,4.9,0,0,0-1.39,3.49v61.2a4.78,4.78,0,0,0,4.85,4.85,4.91,4.91,0,0,0,3.49-1.39,4.65,4.65,0,0,0,1.46-3.46V595h20.35c4.48,0,7.86,1.1,10,3.25a14.61,14.61,0,0,1,4.2,7.42,44.66,44.66,0,0,1,.9,9.18v3a4.74,4.74,0,0,0,1.35,3.5,4.87,4.87,0,0,0,3.59,1.35,4.78,4.78,0,0,0,4.85-4.85ZM179.86,573a10.62,10.62,0,0,1-4.9,9.31c-3.29,2.22-7.82,3.34-13.45,3.34H143.76V561H161c6.89,0,11.81,1.06,14.64,3.13A10.46,10.46,0,0,1,179.86,573Z" style="fill:#141414"/><path d="M216,622.18h40.1a4.61,4.61,0,0,0,3.29-1.29,4.35,4.35,0,0,0,1.35-3.26,4.61,4.61,0,0,0-4.64-4.65H221v-21.5h31.56a4.61,4.61,0,0,0,3.29-1.29,4.35,4.35,0,0,0,1.35-3.26,4.63,4.63,0,0,0-4.64-4.65H221v-21.4h35.16a4.61,4.61,0,0,0,3.29-1.29,4.35,4.35,0,0,0,1.35-3.26,4.63,4.63,0,0,0-4.64-4.65H216a4.61,4.61,0,0,0-3.46,1.46,4.9,4.9,0,0,0-1.39,3.49v60.7a4.78,4.78,0,0,0,4.85,4.85Z" style="fill:#141414"/><path d="M336.75,612.83a4,4,0,0,0-1.2-2.94,4.28,4.28,0,0,0-3.15-1.21,4.41,4.41,0,0,0-2,.44,45.48,45.48,0,0,1-8.53,3.48,35.59,35.59,0,0,1-9.61,1.18,28.29,28.29,0,0,1-14.47-3.5,22.53,22.53,0,0,1-9-9.55,33,33,0,0,1,0-27.59,22.53,22.53,0,0,1,9-9.55,28.2,28.2,0,0,1,14.47-3.51,35.18,35.18,0,0,1,9.61,1.19,45.7,45.7,0,0,1,8.54,3.48,4.3,4.3,0,0,0,1.95.43,4.2,4.2,0,0,0,3.16-1.25,4.1,4.1,0,0,0,1.19-2.9,4.37,4.37,0,0,0-2.37-4.1,52.17,52.17,0,0,0-10.73-4.63,43,43,0,0,0-12.25-1.62,37.2,37.2,0,0,0-18.11,4.4,31.74,31.74,0,0,0-12.64,12.63,42.45,42.45,0,0,0,0,38.44,31.76,31.76,0,0,0,12.64,12.64,37.3,37.3,0,0,0,18.11,4.39,43,43,0,0,0,12.25-1.61,52.64,52.64,0,0,0,10.72-4.63A4.37,4.37,0,0,0,336.75,612.83Z" style="fill:#141414"/><path d="M360.6,622.68a4.92,4.92,0,0,0,3.5-1.39,4.66,4.66,0,0,0,1.45-3.46v-61.7a5,5,0,0,0-4.95-5,4.61,4.61,0,0,0-3.45,1.46,4.86,4.86,0,0,0-1.4,3.49v61.7a4.8,4.8,0,0,0,4.85,4.85Z" style="fill:#141414"/><path d="M440,555.33a39.33,39.33,0,0,0-37.1,0,32.1,32.1,0,0,0-12.34,12.84,41.05,41.05,0,0,0,0,37.53,32.1,32.1,0,0,0,12.34,12.84,39.36,39.36,0,0,0,37.1,0,32.39,32.39,0,0,0,12.33-12.88,40.45,40.45,0,0,0,0-37.43A32.42,32.42,0,0,0,440,555.33Zm-4.81,55.1a28.36,28.36,0,0,1-27.48,0,23.41,23.41,0,0,1-8.82-9.65,32.75,32.75,0,0,1,0-27.69,23.5,23.5,0,0,1,8.82-9.66,28.36,28.36,0,0,1,27.48,0,23.48,23.48,0,0,1,8.87,9.66,32.85,32.85,0,0,1,0,27.69A23.4,23.4,0,0,1,435.22,610.43Z" style="fill:#141414"/><path d="M506,623.18a33.32,33.32,0,0,0,13.85-3,25.72,25.72,0,0,0,15.2-24.52v-39.5a5,5,0,0,0-4.95-5,4.61,4.61,0,0,0-3.45,1.46,4.86,4.86,0,0,0-1.4,3.49v39.8a17.92,17.92,0,0,1-2.69,10,17,17,0,0,1-7.11,6.18,22.71,22.71,0,0,1-18.9,0,17,17,0,0,1-7.11-6.18,18,18,0,0,1-2.69-10v-39.8a5,5,0,0,0-4.95-5,4.61,4.61,0,0,0-3.45,1.46,4.86,4.86,0,0,0-1.4,3.49v39.5a25.71,25.71,0,0,0,15.21,24.52A33.24,33.24,0,0,0,506,623.18Z" style="fill:#141414"/><path d="M604,592.31a21.32,21.32,0,0,0-8.44-6,102.37,102.37,0,0,0-12.8-3.82,89.71,89.71,0,0,1-9.61-2.64,15.79,15.79,0,0,1-5.78-3.42,7.46,7.46,0,0,1-2.24-5.6,9,9,0,0,1,4.78-8.1c3.23-2,7.5-3,12.67-3a48.54,48.54,0,0,1,16,2.68,5,5,0,0,0,1.73.42,4,4,0,0,0,3.17-1.42,4.77,4.77,0,0,0,1.18-3.13,4.24,4.24,0,0,0-3-4.33,57.58,57.58,0,0,0-20-3.32,33.27,33.27,0,0,0-14.2,2.79,21,21,0,0,0-9,7.52,19.12,19.12,0,0,0-3.06,10.54c0,4.41,1.24,8,3.7,10.64a23.2,23.2,0,0,0,8.73,5.94,119.84,119.84,0,0,0,13.13,4.06c4.05,1.06,7.2,2,9.38,2.74a16.26,16.26,0,0,1,5.43,3.08,6.05,6.05,0,0,1,2.13,4.74c0,7.51-5.61,11.15-17.15,11.15a47.73,47.73,0,0,1-19.56-4.07,5.08,5.08,0,0,0-2-.43,4.2,4.2,0,0,0-3.21,1.37,4.61,4.61,0,0,0-.38,5.83,4.89,4.89,0,0,0,2.16,1.78,59.94,59.94,0,0,0,23.93,4.82,34.06,34.06,0,0,0,13.54-2.53,21.49,21.49,0,0,0,9.15-7.06,17.29,17.29,0,0,0,3.26-10.26C607.55,598.73,606.36,595,604,592.31Z" style="fill:#141414"/><path d="M158.87,690c-4-2.15-9.3-3.24-15.67-3.24H120.4a4.64,4.64,0,0,0-3.45,1.45,4.89,4.89,0,0,0-1.4,3.5v61.19a4.8,4.8,0,0,0,4.85,4.85,4.92,4.92,0,0,0,3.5-1.39,4.64,4.64,0,0,0,1.45-3.46V731.81H143.2c6.37,0,11.64-1.09,15.67-3.24a20.11,20.11,0,0,0,8.74-8.34,24.09,24.09,0,0,0,0-21.93A20.11,20.11,0,0,0,158.87,690Zm1.58,19.31a12.45,12.45,0,0,1-4,9.44c-2.68,2.52-7.43,3.81-14.11,3.81h-17V696h17c6.68,0,11.43,1.28,14.11,3.8A12.46,12.46,0,0,1,160.45,709.27Z" style="fill:#141414"/><path d="M230.9,747.42H198.55V691.17a5,5,0,0,0-4.94-4.95,4.64,4.64,0,0,0-3.46,1.45,4.92,4.92,0,0,0-1.39,3.5v59.4a6.66,6.66,0,0,0,6.64,6.64h35.5a4.92,4.92,0,0,0,3.5-1.39,4.64,4.64,0,0,0,1.45-3.46,5,5,0,0,0-4.95-4.94Z" style="fill:#141414"/><path d="M284.92,690.52a8,8,0,0,0-2.35-3.08,5.92,5.92,0,0,0-3.77-1.22h-1a5.89,5.89,0,0,0-3.76,1.22,8.11,8.11,0,0,0-2.36,3.09l-25.5,60.2a5.82,5.82,0,0,0-.53,2.13,4.83,4.83,0,0,0,1.35,3.45,4.68,4.68,0,0,0,3.5,1.4,5,5,0,0,0,2.75-.8,5.21,5.21,0,0,0,1.88-2.21l6.41-15.39h33.53l6.42,15.4a5.09,5.09,0,0,0,1.87,2.2,5,5,0,0,0,2.74.8,4.69,4.69,0,0,0,3.51-1.4,4.82,4.82,0,0,0,1.34-3.45,5.78,5.78,0,0,0-.52-2.13Zm6.36,39.8H265.33l13-31.24Z" style="fill:#141414"/><path d="M367.28,721.34a101.86,101.86,0,0,0-12.8-3.82,92.52,92.52,0,0,1-9.61-2.63,15.9,15.9,0,0,1-5.77-3.43,7.41,7.41,0,0,1-2.25-5.6,8.94,8.94,0,0,1,4.78-8.09c3.23-2,7.5-3,12.67-3a48.8,48.8,0,0,1,16,2.68,4.8,4.8,0,0,0,1.73.43,4,4,0,0,0,3.17-1.43,4.77,4.77,0,0,0,1.18-3.13,4.23,4.23,0,0,0-3-4.32,57.35,57.35,0,0,0-20-3.32,33.27,33.27,0,0,0-14.2,2.78,21,21,0,0,0-9,7.53,19.1,19.1,0,0,0-3.06,10.54c0,4.4,1.24,8,3.7,10.63a23.17,23.17,0,0,0,8.73,5.94,119.84,119.84,0,0,0,13.13,4.06c4.05,1.07,7.2,2,9.38,2.74a16.11,16.11,0,0,1,5.43,3.09,6,6,0,0,1,2.13,4.74c0,7.5-5.61,11.15-17.15,11.15a47.73,47.73,0,0,1-19.56-4.07,4.91,4.91,0,0,0-2-.43,4.15,4.15,0,0,0-3.2,1.36,4.55,4.55,0,0,0-1.25,3.19,4.49,4.49,0,0,0,.87,2.64,4.81,4.81,0,0,0,2.15,1.78,59.94,59.94,0,0,0,23.93,4.82,34.24,34.24,0,0,0,13.54-2.52,21.51,21.51,0,0,0,9.15-7.07,17.24,17.24,0,0,0,3.26-10.26c0-4.59-1.19-8.31-3.53-11A21.32,21.32,0,0,0,367.28,721.34Z" style="fill:#141414"/><path d="M440.8,686.72H391a4.35,4.35,0,0,0-3.25,1.35,4.62,4.62,0,0,0-1.3,3.29,4.48,4.48,0,0,0,4.55,4.56h20.05v56.94a4.8,4.8,0,0,0,4.85,4.85,4.92,4.92,0,0,0,3.5-1.39,4.64,4.64,0,0,0,1.45-3.46V695.92H440.8a4.62,4.62,0,0,0,3.3-1.3,4.35,4.35,0,0,0,1.35-3.26,4.61,4.61,0,0,0-4.65-4.64Z" style="fill:#141414"/><path d="M466.6,686.22a4.64,4.64,0,0,0-3.45,1.45,4.89,4.89,0,0,0-1.4,3.5v61.69a4.8,4.8,0,0,0,4.85,4.85,4.92,4.92,0,0,0,3.5-1.39,4.64,4.64,0,0,0,1.45-3.46V691.17a5,5,0,0,0-4.95-4.95Z" style="fill:#141414"/><path d="M513.83,698.62a28.2,28.2,0,0,1,14.47-3.51,35.18,35.18,0,0,1,9.61,1.19,46.39,46.39,0,0,1,8.54,3.48,4.27,4.27,0,0,0,1.95.43,4.22,4.22,0,0,0,3.16-1.25,4.1,4.1,0,0,0,1.19-2.89,4.36,4.36,0,0,0-2.38-4.11,52.64,52.64,0,0,0-10.72-4.63,43,43,0,0,0-12.25-1.61,37.26,37.26,0,0,0-18.12,4.39,31.84,31.84,0,0,0-12.63,12.63,42.47,42.47,0,0,0,0,38.45,31.84,31.84,0,0,0,12.63,12.63,37.26,37.26,0,0,0,18.12,4.39,43,43,0,0,0,12.25-1.61A52.09,52.09,0,0,0,550.37,752a4.36,4.36,0,0,0,2.38-4.11,4,4,0,0,0-1.2-2.94,4.28,4.28,0,0,0-3.15-1.2,4.37,4.37,0,0,0-2,.43,45.48,45.48,0,0,1-8.53,3.48,35.18,35.18,0,0,1-9.61,1.19,28.2,28.2,0,0,1-14.47-3.51,22.53,22.53,0,0,1-9-9.55,33,33,0,0,1,0-27.59A22.47,22.47,0,0,1,513.83,698.62Z" style="fill:#141414"/></g><g id="blue-2" data-name="blue"><path d="M544.27,252.52a97.59,97.59,0,0,0-1-10.54,188.84,188.84,0,0,0-8.14-30.66c-3-8.66-5.69-16.47-8.63-24.23-.73-1.93-1.42-3.92-2.08-5.85-1.87-5.42-3.81-11-6.88-15.59-2.9-4.29-5.61-8.78-8.23-13.12-4.57-7.57-9.3-15.41-15.11-22.31-5.54-6.6-10.13-10.84-15.33-14.17a51.19,51.19,0,0,1-11.74-9.93,78.46,78.46,0,0,0-26-20.08c-11.28-5.42-23.34-11-35.86-15-1.47-.46-2.94-1-4.37-1.44A71,71,0,0,0,389,66.33c-5.5-.87-12-2-18.34-3.41a115.1,115.1,0,0,0-21.59-2.78c-1,0-2,0-3.06,0-4.2,0-8.43.29-12.55.58-2.87.21-5.85.41-8.79.52a68.39,68.39,0,0,0-12.9,1.34c-7.23,1.68-14.62,3-21.76,4.27l-1.9.34c-1.57.28-3.17.54-4.72.78A99,99,0,0,0,272.71,70c-3.63,1-7.24,2.37-10.74,3.69-2.31.88-4.69,1.78-7.08,2.58-9.26,3.08-18.95,7.51-30.5,13.93a218.11,218.11,0,0,0-37.18,26.05A79.34,79.34,0,0,0,174,131.6c-2.65,3.87-5.18,8-7.64,11.88-2.05,3.3-4.17,6.7-6.36,10a221.59,221.59,0,0,0-19.68,37l-1.19,2.83c-2.89,6.85-5.87,13.94-8.34,21-3.46,10-5,20.19-6.52,31.53-.63,4.77-.82,9.66-1,14.38-.13,3.56-.27,7.24-.6,10.88A110.84,110.84,0,0,0,123.84,298c.24,1.54.46,3.07.68,4.61a127.05,127.05,0,0,0,2.92,15.81,247.13,247.13,0,0,0,15.16,41.27c7.27,15.22,16.3,29.59,24.2,41.87a212.3,212.3,0,0,0,16.8,22.77,70.08,70.08,0,0,0,18.65,15.34c3.19,1.85,6.38,3.8,9.46,5.69,3.36,2.05,6.83,4.18,10.3,6.17,3,1.69,5.9,3.48,8.74,5.22,7.43,4.56,15.11,9.26,23.5,12.24,3,1.08,6,2.34,8.87,3.55,5.18,2.2,10.55,4.47,16.12,5.61,2.31.47,4.69.84,7,1.2,1.41.22,2.83.44,4.24.68a66.29,66.29,0,0,0,6.94.69,68.6,68.6,0,0,1,7.3.73A134.83,134.83,0,0,0,323,482.79c3.64.11,7.4.23,11.11.53,8.58.67,17.7.09,28.72-1.84,3-.53,6-.87,9-1.2a92.17,92.17,0,0,0,13.4-2.18c2.81-.75,5.64-1.69,8.39-2.6,2-.67,4.09-1.36,6.17-2a151.05,151.05,0,0,0,27.82-11.25c5.5-2.93,11-6.21,16.24-9.38,6.22-3.73,12.65-7.59,19.26-11a31.32,31.32,0,0,0,8.52-5.86c7.67-8,16.67-17.56,25.19-27.8,6.48-7.79,13.22-16.19,18.24-25.73,1.41-2.68,2.72-5.5,4-8.22a129.35,129.35,0,0,1,6.14-12.08c7.12-11.93,15.47-38.33,15.67-38.95a79,79,0,0,0,3.29-17.56c.22-2.45.52-4.91.8-7.29A109.39,109.39,0,0,0,546,283.68c-.14-8.85-.56-17-1.3-24.88C544.51,256.7,544.39,254.58,544.27,252.52Z" style="fill:#b8d9e5"/></g><g id="ring-3" data-name="ring"><path d="M120.58,303.06l0,.34a132.22,132.22,0,0,0,3,16.29,251.73,251.73,0,0,0,15.41,41.93c7.37,15.44,16.48,29.93,24.44,42.3a216.13,216.13,0,0,0,17.11,23.19,73.68,73.68,0,0,0,19.67,16.19c3.24,1.88,6.51,3.88,9.38,5.64l.18.11c3.33,2,6.77,4.14,10.22,6.12,2.92,1.67,5.83,3.45,8.64,5.17,7.6,4.65,15.45,9.46,24.24,12.59,2.9,1,5.82,2.27,8.66,3.47,5.36,2.27,10.9,4.61,16.86,5.83,2.38.49,4.8.86,7.18,1.23,1.39.22,2.79.43,4.17.67a70.19,70.19,0,0,0,7.27.74h.1a69,69,0,0,1,6.89.68A138,138,0,0,0,322.85,487c3.4.11,7.26.22,10.92.51,2.39.19,4.82.29,7.31.29a128.88,128.88,0,0,0,22.4-2.17c2.9-.51,5.87-.84,8.74-1.17a94.64,94.64,0,0,0,14-2.28c2.9-.78,5.77-1.73,8.61-2.67,1.87-.63,4-1.33,6.05-1.94A155.5,155.5,0,0,0,429.4,466c5.54-2.95,11-6.23,16.28-9.39l.14-.09c6.14-3.69,12.48-7.5,19-10.82a34.81,34.81,0,0,0,9.57-6.65c7.73-8.06,16.79-17.69,25.38-28,6.61-7.94,13.49-16.52,18.69-26.4,1.45-2.77,2.79-5.63,4.07-8.4a130.13,130.13,0,0,1,6-11.72c6.8-11.37,14.52-35,16-39.63l0-.12A82.32,82.32,0,0,0,548,306.36c.22-2.42.52-4.94.79-7.17a111.75,111.75,0,0,0,1.13-15.28c-.14-9-.57-17.19-1.31-25.19-.2-2.05-.32-4.13-.43-6.14a103,103,0,0,0-1-11,194,194,0,0,0-8.3-31.29c-3-8.7-5.71-16.54-8.67-24.34-.68-1.8-1.33-3.68-2-5.5l-.09-.25c-1.95-5.66-4-11.51-7.33-16.49-2.87-4.27-5.66-8.88-8.12-13-4.64-7.69-9.45-15.66-15.46-22.81-5.82-6.91-10.67-11.38-16.22-15a47.28,47.28,0,0,1-10.87-9.16,82.37,82.37,0,0,0-27.25-21.08c-11.4-5.48-23.61-11.16-36.38-15.18-1.37-.42-2.73-.88-4.05-1.33l-.3-.1a74.44,74.44,0,0,0-12.51-3.44c-5.42-.86-11.81-1.93-18.07-3.36a119.46,119.46,0,0,0-22.31-2.87c-1,0-2.06-.06-3.22-.06-4.36,0-8.67.3-12.83.6-2.69.19-5.74.4-8.66.51A71.59,71.59,0,0,0,310.92,59c-7.13,1.67-14.46,3-21.56,4.24l-1.9.34c-1.54.27-3.1.52-4.64.76a101.13,101.13,0,0,0-11.15,2.2c-3.78,1-7.45,2.43-11,3.77l-.09,0c-2.27.86-4.61,1.75-6.93,2.52-9.5,3.17-19.4,7.69-31.17,14.23a222,222,0,0,0-37.85,26.52,83.83,83.83,0,0,0-13.89,16.07c-2.69,4-5.25,8.05-7.73,12l-.1.18c-2,3.21-4.08,6.54-6.2,9.73a225.65,225.65,0,0,0-20,37.64l-1.19,2.83c-2.9,6.89-5.91,14-8.42,21.27-3.58,10.33-5.16,20.74-6.7,32.3-.67,5-.86,9.94-1,14.75-.13,3.5-.26,7.11-.59,10.67A114.12,114.12,0,0,0,120,298.83C120.18,300.24,120.38,301.65,120.58,303.06Zm6-31.29c.34-3.77.48-7.49.61-11.08.18-4.63.36-9.42,1-14,1.49-11.13,3-21.13,6.34-30.77,2.43-7,5.39-14,8.24-20.8l1.19-2.83a217.56,217.56,0,0,1,19.34-36.34c2.18-3.29,4.28-6.66,6.32-9.92l.1-.18c2.44-3.9,5-7.93,7.55-11.74a75.8,75.8,0,0,1,12.57-14.59,214.13,214.13,0,0,1,36.5-25.57c11.33-6.3,20.81-10.63,29.84-13.64,2.47-.83,4.89-1.74,7.23-2.63l.08,0c3.38-1.28,6.88-2.6,10.32-3.55a92.57,92.57,0,0,1,10.31-2c1.56-.25,3.18-.5,4.77-.79l1.9-.34c7.2-1.28,14.63-2.61,22-4.31a65,65,0,0,1,12.15-1.24c3-.11,6.17-.33,8.93-.53,4-.28,8.18-.57,12.27-.57,1.05,0,2,0,2.91,0A111.8,111.8,0,0,1,369.83,67c6.49,1.49,13,2.58,18.6,3.46a69.19,69.19,0,0,1,11.27,3.14l.24.08c1.38.47,2.8,1,4.22,1.39,12.28,3.86,24.19,9.41,35.34,14.76A74.75,74.75,0,0,1,464.16,109a55.06,55.06,0,0,0,12.61,10.68c4.85,3.12,9.17,7.13,14.45,13.4,5.62,6.68,10.26,14.38,14.75,21.82,2.51,4.15,5.35,8.86,8.34,13.28,2.78,4.13,4.63,9.49,6.42,14.68l.08.24c.65,1.88,1.32,3.82,2,5.72,2.92,7.7,5.62,15.47,8.59,24.11a185,185,0,0,1,8,30,95.34,95.34,0,0,1,.93,10.12c.12,2,.25,4.23.45,6.42.73,7.79,1.15,15.83,1.28,24.58A106,106,0,0,1,541,298.26c-.28,2.28-.59,4.86-.82,7.41a75.12,75.12,0,0,1-3.11,16.69l-.05.15c-1.44,4.49-8.91,27.38-15.26,38A132.47,132.47,0,0,0,515.44,373c-1.25,2.68-2.54,5.45-3.91,8.05-4.84,9.21-11.43,17.42-17.77,25-8.43,10.13-17.37,19.64-25,27.6a27.78,27.78,0,0,1-7.47,5.08c-6.78,3.45-13.25,7.34-19.5,11.09l-.14.09c-5.19,3.11-10.56,6.33-15.93,9.19a147.21,147.21,0,0,1-27.09,11c-2.18.64-4.37,1.37-6.35,2-2.67.89-5.43,1.8-8.1,2.52a89.94,89.94,0,0,1-12.82,2.07c-2.85.31-6.08.68-9.23,1.23-10.67,1.87-19.48,2.44-27.73,1.79-3.85-.3-7.81-.43-11.3-.53a131.86,131.86,0,0,1-17.71-1.34,73.51,73.51,0,0,0-7.71-.78h-.08a62.88,62.88,0,0,1-6.45-.64c-1.43-.25-2.87-.47-4.33-.7-2.25-.35-4.58-.71-6.78-1.16-5.19-1.06-10.36-3.25-15.39-5.38-2.93-1.23-5.95-2.51-9.07-3.63-8-2.85-15.52-7.44-22.77-11.88-2.86-1.76-5.82-3.57-8.84-5.29-3.36-1.92-6.74-4-10-6l-.18-.11c-2.91-1.79-6.22-3.81-9.54-5.74A66.11,66.11,0,0,1,186.59,422a209,209,0,0,1-16.49-22.36c-7.83-12.17-16.78-26.41-23.95-41.43a243.23,243.23,0,0,1-14.93-40.62,126.91,126.91,0,0,1-2.82-15.32l-.05-.35c-.2-1.43-.41-2.87-.63-4.31A107.1,107.1,0,0,1,126.56,271.77Z" style="fill:#141414"/></g><g id="Calque_36" data-name="Calque 36"><path d="M306.75,317.42c-27.35-12.48-36.95-20.1-45.42-8.12-.66.93,1,8.92,1,8.92s55.47,23.06,83.54,29.4c22.05,5,71.52.65,71.52.65l41.48-.13s19.74-4.06,28.4-11.05c4.79-3.86,16.14,0,20.47-15.14,1.88-6.54-97.21-26.21-112.11-24.18s-52.67-4.59-59.13-4.57-30.49,4.39-31,9.81S309,318.42,306.75,317.42Z" style="fill:#aeadad"/><path d="M320.74,294.55c-4.23,1.95-68.84,2.51-76.92,2.16s-.66,10.4,3.33,11.12c2.42.44,104.51-3.16,121.65-2.41,17.32.75,52.21,6,63,5.57,14.4-.54,32.91,15.73,45.11,14.21,9.42-1.18,32-2.9,34.71-9.33,2.16-5.22,4.14-39.51,3.44-52.21s-20.13-34.84-22.67-48.43c-4.08-21.92-13.77-20.1-25.68-20-7.91,0-34-4-37.77-4.23s-18.74-2.25-21-1.34-13.57-9.26-23-14c-15.37-7.79-38.32-16.48-49.22-11.85-9.61,4.09-37.72,12.42-45.17,11.7s-16.13.79-27.57.08-46.68.14-46.68.14c-3.34.08,2.12,13.12,2.5,15.64s32.32,2.49,50.94,1.59,54.17,12.12,59.39,14.31c-6.66,14.56-1.52,19.8-1.72,34s-2,13.86-2.48,18.27c-.47,4.7,5.73,7.84,5.74,10.83S325,292.61,320.74,294.55Z" style="fill:#fff"/><path d="M299,200s2.73,10.89,3.77,15.87-.57,16.37-1.78,26.36-.8,13.43-.05,15.42,1.54,14.79,1.55,18,4.15,7.59,4.74,14.56,6.66,4.15,10.59,3.91,7.16-4.68,10.85-15.65-1.72-12.53-3.9-16.37c-1.43-2.52-2.12-2.46.83-10.47s0-12.06-.49-18.29,2.59-26.26,2.59-26.26Z" style="fill:#aeadad"/><path d="M517.78,283.4a50.91,50.91,0,0,1,.5-14.34c.94-6-2-11.5-4.54-16.4l-.07-.13c-.69-1.32-1.34-2.56-1.88-3.76-1-2.24-2.05-4.1-3-5.75a46.21,46.21,0,0,1-4-8.77,47.38,47.38,0,0,0-1.86-4.76c-.2-.43-.38-.85-.56-1.29a23.82,23.82,0,0,0-6-9c-.89-.85-.93-3-1-5v-.4a28.51,28.51,0,0,0-2.48-12.15c-3.15-6.46-8.18-9.63-15.39-9.7-2.9,0-5.32,0-7.69.06-3.61.06-7,.12-11.51-.08h-.11a14.58,14.58,0,0,1-4.88-.9c-7.54-3.41-13.65-3.31-20.17-3.21a63.67,63.67,0,0,1-12.18-.63l-2.9-.33c-3.19-.34-10.66-1.16-11.45-1.39-6.77-2.34-12.41-6.67-18.37-11.25l-1.47-1.13c-6.7-5.12-14.65-7.89-21.54-9.93-10.75-3.18-22-3.81-34.56-1.92-8.52,1.29-16.68,3.81-24.58,6.25l-.17.06c-3.35,1-6.81,2.1-10.22,3.05a46,46,0,0,1-11.51,1.7c-5.6.09-11.32-.22-16.86-.53a205.13,205.13,0,0,0-21.53-.38l-3.26.17-3.39.15c-1.26.05-2.17.08-4.46.25h-.17l-.16.06-.43.13c-.91-4.84-3-14-3.92-17a2,2,0,0,1,.54-2.09,15.55,15.55,0,0,0,1.94-2.51c.29-.44.56-.85.84-1.22,3.41-4.43.73-10-1.14-15.28a16.25,16.25,0,0,0-11.94-10.43,19.6,19.6,0,0,0-21,7.89c-2,3-1.45,6.71-.94,9.94.06.36.12.72.17,1.08,1.19,8,6.95,12.55,13,16.26,2.64,1.62,3.09,2.93,3.18,3.9.08.78.77,6.58,1.23,10.14a5.55,5.55,0,0,1-1-.25l-.34-.13-.36.09a3.5,3.5,0,0,0-.89.34,3.07,3.07,0,0,0-1.54,2.57,17.67,17.67,0,0,0,.8,5.84,21.93,21.93,0,0,1,.73,3.6c.28,2.29,1.23,7.75,4.19,9.06a16.94,16.94,0,0,0,2.82.93,219.58,219.58,0,0,1,4.45,22l.23,1.39h0q.54,3.24,1.11,6.47Q228,235,229.89,245.16c.25,1.34.47,2.69.7,4,.54,3.24,1.11,6.59,1.94,9.85,2.9,11.22,5.27,22.75,7.41,33.55.13.64.19,1.3.26,2v0a4.13,4.13,0,0,0-2.78,3.3c-1.43,6.93,2.25,10.52,5.68,12.41a1.59,1.59,0,0,0,.07.38c.79,2.75,1.47,5.56,2.08,8.6.33,1.68.82,3.3,1.29,4.87l.17.6a37.9,37.9,0,0,1,1.18,4.75,348.1,348.1,0,0,0,8.23,35.35,226.55,226.55,0,0,1,5.22,26.55c.76,5.09,1.72,10.22,2.65,15.18q.69,3.66,1.35,7.33c.36,2.05.73,4.09,1.09,6.14l.23,1.25c1.75,9.8,3.55,19.93,5.28,29.9,1.61,9.25,4.25,18.9,6.4,26.73,2,.36,4,.81,6,1.31.88.12,1.75.26,2.62.42a11.55,11.55,0,0,1,3.3.31,18.29,18.29,0,0,1,3.61.53c.42,0,.85.07,1.27.12l0-.24c0,.08.05.16.07.24l1.11.17.42.05c.63,0,1.27.05,1.9.11a1.85,1.85,0,0,0,.14-1.37c-3.17-10.89-7.06-26.63-8.44-38.19-.34-2.87-.68-5.74-1.05-8.6a241.65,241.65,0,0,0-4.56-26.37l-.63-2.58c-1.53-6.32-3.12-12.86-4.34-19.37-.41-2.19-.76-4.46-1.11-6.65a95.51,95.51,0,0,0-3.58-16.44c-.27-.81-.53-1.62-.77-2.43a132.69,132.69,0,0,1-3-13.23l-.36-1.88c-.68-3.58-1.48-7.19-2.25-10.68q-.6-2.64-1.17-5.3c-.19-.91-.59-3-1.11-5.83l.05,0a18.31,18.31,0,0,1,1.75.6c.82.37,1.63.64,2.42.91l1.13.38c1.47.55,3,1,4.25,1.44,1.58.51,3,1,4.37,1.49a56.07,56.07,0,0,1,5.47,2.56,55,55,0,0,0,6.59,3c1.23.44,2.47.86,3.7,1.28l.28.09a70.13,70.13,0,0,1,11.89,4.87c.79.44,1.6.88,2.44,1.31a101.36,101.36,0,0,0,21.32,7.73c3.34.86,6.7,1.56,10,2.07a76.56,76.56,0,0,0,18.1.88,208.62,208.62,0,0,1,21.6-.06c6.41.19,12.47.36,17.77.13,2.24-.1,4.81,0,7.53.06h.11a92.8,92.8,0,0,0,9.6,0,20.63,20.63,0,0,1,4.32,0,54.74,54.74,0,0,0,9,.07c2.09-.11,4.78,0,7.44,0,2.9.09,5.91.18,8.42,0a34.72,34.72,0,0,1,4.89.08H451c1.1.08,2.11.14,3.24.14h.1a26.9,26.9,0,0,0,3.43-.22,79.74,79.74,0,0,0,8.92-1.63l3-.72,1.57-.39a26.7,26.7,0,0,0,4.06-1.66l.57-.26.68-.31a59.42,59.42,0,0,0,6-3c1.23-.68,2.5-1.38,4-2.1.49-.23,1-.46,1.47-.66a22.35,22.35,0,0,1,5.42-1.43,20.44,20.44,0,0,0,9.9-4,18,18,0,0,0,3.42-3.49,46.25,46.25,0,0,0,6.49-11.18l.19-.49a.88.88,0,0,0,0-.15c3.49-9.12,5.15-16.87,5.1-23.67A78.82,78.82,0,0,0,517.78,283.4Zm-301-139.33h-2.16c-1.79,0-2.34-.11-3.08-1s-.61-2.81,0-4a4.74,4.74,0,0,1,1.25-1.76,30.3,30.3,0,0,1,2.51-1.75,1,1,0,0,1,.55-.2l.19,0c.24,0,.5,0,.79.06a7.7,7.7,0,0,1,5,2.18,3.56,3.56,0,0,1,.39.48,4.82,4.82,0,0,1,.13,1.07,5.57,5.57,0,0,1-2.85,4.73A17,17,0,0,1,216.81,144.07Zm24.72,59.56c-.23-.69-.47-1.39-.71-2.08s-.4-1.14-.59-1.7a27.28,27.28,0,0,1-1-3.75c4.67.2,9.38.26,14,.31,7.88.09,16,.18,23.92,1a104.94,104.94,0,0,1,13.6,2.73l1.43.36c.49.13,1.4.37,2.42.66l.13.07a1.07,1.07,0,0,1,.06.53,15.3,15.3,0,0,0,1.77,6.74,16.74,16.74,0,0,1,1.16,3.05l.06.25c1.06,5.53.75,11,.42,16.79l-.11,2.08c-.16,2.91-.55,5.9-.94,8.8-.69,5.19-1.41,10.55-.89,16,.11,1.16.28,2.31.49,3.42a40.62,40.62,0,0,1,1.05,9.78,16.27,16.27,0,0,0,0,1.75,47.79,47.79,0,0,0,1,7.27,58.35,58.35,0,0,0,3.61,11.14,10.87,10.87,0,0,1,.77,2.79c0,.25.06.51.08.8-4.82.09-9.63.51-14.29.91-9,.78-18.3,1.59-27.22,0-.72-.13-1.45-.24-2.19-.32-.48-2.65-1-5.3-1.53-7.87-.41-2-.82-4-1.2-6-.56-2.92-1.14-5.83-1.71-8.74-1.84-9.32-3.74-18.95-5.09-28.49-.6-4.22-1.56-8.37-2.49-12.39-.42-1.79-.85-3.65-1.23-5.47-.35-1.61-.67-3.21-1-4.82A137.14,137.14,0,0,0,241.53,203.63Zm82.26,33.56a52.57,52.57,0,0,1,.88,8.25,13.09,13.09,0,0,1-1.87,8.05c-2.08,3.41-3.08,6.15-1.61,9.3a2.83,2.83,0,0,0,.48.72,3.07,3.07,0,0,0,.38.77,23.9,23.9,0,0,0,2.17,2.62c.15.16.3.31.46.46s.18.17.28.28c3.81,4.05,3.86,4.31,1.63,9.35l-1.35,3.09c-1.54,3.5-3.13,7.12-4.75,10.65-.07.15-.46.32-1.68.71a25.73,25.73,0,0,1-6.95,1c-.84,0-1.71,0-2.51,0a16.11,16.11,0,0,0-.14-1.66,17.22,17.22,0,0,0-1.2-4.33,54,54,0,0,1-3.26-10h0a43.75,43.75,0,0,1-.86-6.37c0-.31,0-.78,0-1.09a45.59,45.59,0,0,0-1.15-11.25,26.22,26.22,0,0,1-.4-2.82c-.46-4.8.18-9.59.85-14.66.39-2.87.82-6.12,1-9.29l.12-2.12c.34-6.16.67-12-.54-18.25l-.08-.37a22.43,22.43,0,0,0-1.56-4.27,15.44,15.44,0,0,1-1.15-3.13l2.82.72c3.73,1,7.59,1.95,11.44,2.7,2.85.55,6.52,1.29,10.29,2.25a60.29,60.29,0,0,0-2.43,10.73A53,53,0,0,0,323.79,237.19ZM502,327.49a13,13,0,0,1-2.16,2.31,14.74,14.74,0,0,1-7.41,3,27.89,27.89,0,0,0-6.73,1.81q-.92.39-1.8.81c-1.57.77-2.91,1.51-4.26,2.25a53.17,53.17,0,0,1-5.45,2.76l-1,.44-.5.23a29.21,29.21,0,0,1-2.9,1.25l-1.14.28-3.43.81a73.22,73.22,0,0,1-8.31,1.52,20.6,20.6,0,0,1-2.69.18c-1,0-1.86-.06-2.81-.12h-.09a40.18,40.18,0,0,0-5.76-.09c-2.23.13-5.11.05-7.89,0s-5.58-.17-7.92-.05a49,49,0,0,1-8.19-.05,26.18,26.18,0,0,0-5.3,0c-2.68.21-6.07.1-9.06,0-2.71-.08-5.51-.16-8-.06-5.05.22-11,.05-17.32-.13-7.74-.23-15.74-.47-22.28.08a70.36,70.36,0,0,1-16.66-.83c-3.11-.48-6.28-1.14-9.43-1.95a95.63,95.63,0,0,1-20.06-7.25c-.77-.4-1.52-.8-2.26-1.21a75.54,75.54,0,0,0-12.92-5.33c-1.28-.43-2.57-.87-3.85-1.33a49.62,49.62,0,0,1-5.88-2.71,61.46,61.46,0,0,0-6.07-2.83c-1.49-.57-3-1.05-4.47-1.53l-.31-.1c-1.29-.41-2.63-.84-3.88-1.31-.43-.16-.86-.3-1.37-.47a17,17,0,0,1-1.77-.65,21.74,21.74,0,0,0-2.48-.88c-.65-.2-1.38-.43-1.73-.59a12.9,12.9,0,0,0-1.33-.51h-.05l-.84-4.77,2.52,0H267c2.18,0,4.43.06,6.68,0,1.24-.05,2.36-.14,3.42-.26a40.88,40.88,0,0,1,4.09-.07,6.1,6.1,0,0,0,1,.69l0,0c.75.5,2.32,1.51,4.38,2.63,2.83,1.55,6.86,3.46,10,3.78h.1l.41,0c3,.41,5.63.88,7.65,2.55l.11.09.22.15.24.13.18.09.15.06.31.09.18,0a3.43,3.43,0,0,0,.56,0,2.77,2.77,0,0,0,.78-.11l.22-.07a4.22,4.22,0,0,0,.53-.25l.2-.12a3.13,3.13,0,0,0,.47-.42l.13-.13a2.79,2.79,0,0,0,.38-.6l.08-.16.07-.2a.49.49,0,0,1,0-.11c.86-2.36.33-4.87-.14-7.1-.15-.68-.3-1.39-.38-2v-.07l2.46-.06c3.22-.08,6.44-.15,9.66-.25,3.65-.11,7.35-.3,10.92-.47l.47,0c8.06-.4,16.4-.81,24.5-.49,9.38.36,19.41,1,29.14,2.92A148.88,148.88,0,0,0,415,314.05a161.65,161.65,0,0,1,17.69.8A105.75,105.75,0,0,1,447.42,318a63.52,63.52,0,0,1,8.29,3c2.79,1.16,6.28,2.61,11.09,4.29l1.21.49.1.05c2.32,1,5.83,2.43,8.89,2.43h0a35.78,35.78,0,0,0,13.5-2.4l.19-.07c3.6-1.6,7.87-1.61,11.64-1.63.75,0,1.44,0,2.09,0A37.92,37.92,0,0,1,502,327.49ZM303.12,310c.11.82.28,1.63.45,2.42,0,.18.09.65.13,1.13A21.18,21.18,0,0,0,298,312l-.74-.09a20.11,20.11,0,0,1-6-2.19h0l0-.15a28.41,28.41,0,0,1,8.24-.39c1.15.05,2.32.1,3.51.11,0,.22.05.45.08.68v0Zm204.6,7.61a4.12,4.12,0,0,1-.88.21,36,36,0,0,1-4.54.19c-4.14,0-9.28,0-14,2.11a30,30,0,0,1-11.4,2h0c-1.76,0-4.83-1.28-6.53-2-.65-.27-1.16-.49-1.59-.64-4.55-1.59-7.8-2.94-10.67-4.13l-.1,0a70,70,0,0,0-9.07-3.29,111.52,111.52,0,0,0-15.52-3.26,165.62,165.62,0,0,0-18.37-.84,143.25,143.25,0,0,1-27.6-3.18c-10.13-2-20.45-2.66-30.1-3-2.11-.09-4.24-.12-6.36-.12-6.3,0-12.62.31-18.8.62h-.12c-3.62.18-7.36.37-11,.48-3,.1-6.06.17-9.09.24l-2,0-4.46.11-1.4,0c-1.37,0-2.78,0-4.26-.1h-.1c-3.53-.16-7.19-.32-10.84.82a8.83,8.83,0,0,1-4,.23l-.63-.06c-.62-.05-1.28-.1-2-.11h-.52a47.87,47.87,0,0,0-5.27.11c-1,.1-1.94.18-3,.23-2.13.09-4.34.07-6.55,0-2.6,0-5.3-.07-8,.12a25.79,25.79,0,0,0-5.1,1h0l-.53.15-.09,0h0l-1.1.3a21.88,21.88,0,0,1-2.48.54l-.44-.14c-5.21-1.73-6.23-3.6-5.87-6.31l.57-.16a2.54,2.54,0,0,1,.35-.06l1.21-.14a73.53,73.53,0,0,1,10.88-.69,29.5,29.5,0,0,1,4.42.46c9.72,1.76,19.43.93,28.83.11,4.94-.42,10.05-.87,15-.9.93,0,1.85,0,2.86,0,1.52,0,3.09,0,4.67,0a31.7,31.7,0,0,0,8.62-1.34c1.74-.55,4.12-1.31,5.33-4,1.69-3.7,3.35-7.47,5-11.14l1.18-2.68c3.18-7.23,2.66-10.21-2.76-16l-.38-.39-.12-.12-.23-.22a17,17,0,0,1-1.61-1.92,1.76,1.76,0,0,0-.24-.3l-.12-.31c-.16-.34-.38-.81,1.28-3.54a19,19,0,0,0,2.76-11.54,56.4,56.4,0,0,0-1-9.22,47.1,47.1,0,0,1-.64-15.85,54.42,54.42,0,0,1,2.25-9.85l.1,0,.29.09c1.22.4,1.63.53,3.52,2.55a3.09,3.09,0,0,0,2.22,1h0a3.05,3.05,0,0,0,2.21-5.13c-2.83-3-4.11-3.54-6.11-4.19l-.3-.09c-1-.34-2.11-.66-3.15-.95-4.94-1.4-10-2.43-13.78-3.17s-7.46-1.69-11.1-2.62l-.16,0c-1.39-.36-2.78-.72-4.16-1.06l-3.22-.87-1.17-.33a13.33,13.33,0,0,0-1.38-.42l-3-.73a110.42,110.42,0,0,0-14.35-2.87c-8.18-.89-16.47-1-24.53-1.07-2,0-4.57-.14-7.06-.24-3.61-.16-7-.31-9-.21-.87,0-1.27.07-1.56.09-.44,0-.59,0-2,0h-4c-.91,0-1.86,0-2.8-.11a26.46,26.46,0,0,1-6.36-1.15,19.17,19.17,0,0,1-1.11-4.41,27.76,27.76,0,0,0-.92-4.53c-.07-.26-.14-.5-.2-.73a17.32,17.32,0,0,0,4.19.11c2-.22,4.09-.41,6.09-.56,4.77-.38,9.61-.63,14.3-.88l3.26-.17a196.18,196.18,0,0,1,20.88.39c5.63.3,11.46.62,17.28.53a52.4,52.4,0,0,0,13-1.92c3.53-1,7.06-2.07,10.47-3.12l.16-.05c7.67-2.37,15.59-4.82,23.64-6,11.6-1.74,22.05-1.17,31.93,1.74,6.36,1.88,13.66,4.41,19.57,8.93l1.46,1.12c4.16,3.2,13.75,8.9,19.48,12.3,2.24,1.33,4.35,2.59,4.61,2.78a33,33,0,0,0,3.54,2.79c.3.22.61.43.91.66a72.21,72.21,0,0,1,5.69,4.82c2.84,2.57,5.78,5.23,8.63,6.8l.2.11,5.49,3A3,3,0,0,0,436,207c-1.45-.78-2.9-1.58-4.34-2.37l-1.33-.73a49.92,49.92,0,0,1-8.2-6.48c-1.84-1.66-3.74-3.37-5.58-4.76l.66.13c.52.1,1.13.2,1.76.29l1,.16a70,70,0,0,0,13.32.71c6-.1,11.23-.18,17.54,2.67a20.24,20.24,0,0,0,7.19,1.44c4.69.21,8.19.16,11.93.09,2.34,0,4.68-.08,7.52-.06,4.87.05,7.85,1.93,10,6.29a22.67,22.67,0,0,1,1.86,9.59v.39c0,2.81.11,6.66,2.88,9.28a18,18,0,0,1,4.55,6.88c.2.48.4.94.63,1.44a41.69,41.69,0,0,1,1.62,4.13,51.45,51.45,0,0,0,4.52,9.92c.89,1.61,1.81,3.27,2.71,5.25.65,1.43,1.42,2.9,2.1,4.2,2.23,4.25,4.54,8.64,3.92,12.62a56.31,56.31,0,0,0-.53,16.06,74.47,74.47,0,0,1,.8,11.67C512.6,302,511,309.11,507.72,317.65Z" style="fill:#141414"/></g></g></g></svg>